<svg width="59" height="28" viewBox="0 0 59 28" fill="none" xmlns="http://www.w3.org/2000/svg">
<path fill-rule="evenodd" clip-rule="evenodd" d="M41.7495 2.48853V3.51291H49.9642C50.5118 3.51291 51.3333 3.51291 51.8809 4.09857C52.4286 4.68423 52.4286 5.56254 52.4286 6.14803V14.9305C52.4286 15.5163 52.4286 16.3944 51.8809 16.9801C51.3333 17.5656 50.5118 17.5656 49.9642 17.5656H45.9938C45.3093 17.5656 44.4192 17.5656 44.0771 16.7606C43.7348 15.9554 44.2139 15.2235 44.6247 14.638L49.9642 7.02652H41.7495L38.4637 11.7104C37.9133 12.4948 37.4369 13.1742 37.4369 14.0525C37.4369 14.9305 37.8804 15.5631 38.4637 16.3944L39.2852 17.5656C40.1065 18.7365 40.928 19.9075 42.0234 20.4932C43.1187 21.0786 44.4192 21.0787 46.1992 21.0787H49.7589C51.8126 21.0787 54.8931 21.0787 56.9467 18.883C59.0004 16.6873 59.0004 13.467 59.0004 12.2959V8.78279C59.0004 7.61182 59.0004 4.3914 56.9467 2.1957C54.8965 0.00371838 51.823 0.00266525 49.7693 0.00196165L49.7589 0.00195807L44.0771 5.86879e-06C43.5293 -0.000171604 42.8448 5.88148e-06 42.2972 0.585844C41.7495 1.17133 41.7495 1.90323 41.7495 2.48853ZM31.9637 6.92152H40.1317L30.33 21.0788H22.1621L31.9637 6.92152ZM0.547801 7.50674C0 8.09223 0 8.82413 0 9.40962V10.4345H3.28697V27.9999H9.86108V10.4344H16.298C16.9828 10.4344 17.873 10.4344 18.2154 11.2392C18.5578 12.0442 18.0784 12.7763 17.6676 13.3618L12.3263 20.9735H20.5438L23.8308 16.2894L23.831 16.289C24.3814 15.5046 24.8579 14.8253 24.8579 13.9475C24.8579 13.0695 24.4144 12.4373 23.8314 11.6062L23.8308 11.6053L23.009 10.4344C22.1872 9.26303 21.3654 8.09223 20.2698 7.50674C19.1742 6.92125 17.873 6.92125 16.0926 6.92125H2.32836C2.22536 6.92125 2.11751 6.92125 2.00666 6.92514C1.93601 6.92762 1.86413 6.93168 1.7915 6.93832C1.70669 6.94608 1.62086 6.95736 1.53475 6.97378C1.39201 7.00098 1.2485 7.04228 1.10765 7.10497C0.91297 7.19161 0.723351 7.31911 0.547801 7.50674Z" fill="#E21A1A"/>
</svg>
