<svg width="17" height="17" viewBox="0 0 17 17" fill="none" xmlns="http://www.w3.org/2000/svg">
<path d="M7.74934 16.2446C7.55231 16.245 7.36263 16.1699 7.21934 16.0346L0.21934 9.03465C-0.0731134 8.74183 -0.0731134 8.26747 0.21934 7.97465L7.21934 0.97465C7.51216 0.682197 7.98652 0.682197 8.27934 0.97465C8.42229 1.11394 8.50291 1.30506 8.50291 1.50465C8.50291 1.70424 8.42229 1.89536 8.27934 2.03465L1.81934 8.51465L8.26934 14.9647C8.41229 15.1039 8.49291 15.2951 8.49291 15.4946C8.49291 15.6942 8.41229 15.8854 8.26934 16.0246C8.13387 16.1667 7.94563 16.2464 7.74934 16.2446Z" fill="#4256F6" />
<path d="M15.7893 9.26465H0.789307C0.375093 9.26465 0.0393066 8.92886 0.0393066 8.51465C0.0393066 8.10043 0.375093 7.76465 0.789307 7.76465H15.7893C16.2035 7.76465 16.5393 8.10043 16.5393 8.51465C16.5393 8.92886 16.2035 9.26465 15.7893 9.26465Z" fill="#4256F6" />
<path d="M7.74934 16.2446C7.55231 16.245 7.36263 16.1699 7.21934 16.0346L0.21934 9.03465C-0.0731134 8.74183 -0.0731134 8.26747 0.21934 7.97465L7.21934 0.97465C7.51216 0.682197 7.98652 0.682197 8.27934 0.97465C8.42229 1.11394 8.50291 1.30506 8.50291 1.50465C8.50291 1.70424 8.42229 1.89536 8.27934 2.03465L1.81934 8.51465L8.26934 14.9647C8.41229 15.1039 8.49291 15.2951 8.49291 15.4946C8.49291 15.6942 8.41229 15.8854 8.26934 16.0246C8.13387 16.1667 7.94563 16.2464 7.74934 16.2446Z" fill="#4256F6" />
<path d="M15.7893 9.26465H0.789307C0.375093 9.26465 0.0393066 8.92886 0.0393066 8.51465C0.0393066 8.10043 0.375093 7.76465 0.789307 7.76465H15.7893C16.2035 7.76465 16.5393 8.10043 16.5393 8.51465C16.5393 8.92886 16.2035 9.26465 15.7893 9.26465Z" fill="#4256F6" />
</svg>
