<svg width="147" height="147" viewBox="0 0 147 147" fill="none" xmlns="http://www.w3.org/2000/svg">
<rect x="5.54654" y="5.5474" width="135.914" height="135.914" rx="20.1083" stroke="#333333" stroke-width="1.38678" />
<path fill-rule="evenodd" clip-rule="evenodd" d="M8.2898 9.11919L9.11876 8.29023L6.63151 5.80298L9.11842 3.31608L8.28946 2.48712L5.80256 4.97403L3.31605 2.48752L2.4871 3.31648L4.9736 5.80298L2.48675 8.28983L3.31571 9.11879L5.80256 6.63194L8.2898 9.11919Z" fill="white" />
<path d="M9.11869 8.29018L9.60899 8.78048L10.0993 8.29018L9.60899 7.79988L9.11869 8.29018ZM8.28973 9.11914L7.79943 9.60944L8.28973 10.0997L8.78003 9.60944L8.28973 9.11914ZM6.63144 5.80293L6.14114 5.31263L5.65084 5.80293L6.14114 6.29323L6.63144 5.80293ZM9.11834 3.31603L9.60864 3.80633L10.0989 3.31603L9.60864 2.82573L9.11834 3.31603ZM8.28938 2.48707L8.77968 1.99677L8.28938 1.50647L7.79908 1.99677L8.28938 2.48707ZM5.80248 4.97397L5.31218 5.46427L5.80248 5.95457L6.29278 5.46427L5.80248 4.97397ZM3.31598 2.48747L3.80628 1.99717L3.31598 1.50687L2.82568 1.99717L3.31598 2.48747ZM2.48702 3.31643L1.99672 2.82613L1.50642 3.31643L1.99672 3.80673L2.48702 3.31643ZM4.97352 5.80293L5.46382 6.29323L5.95412 5.80293L5.46382 5.31263L4.97352 5.80293ZM2.48668 8.28978L1.99638 7.79948L1.50608 8.28978L1.99638 8.78008L2.48668 8.28978ZM3.31563 9.11874L2.82533 9.60904L3.31563 10.0993L3.80593 9.60904L3.31563 9.11874ZM5.80248 6.63189L6.29278 6.14159L5.80248 5.65129L5.31218 6.14159L5.80248 6.63189ZM8.62839 7.79988L7.79943 8.62884L8.78003 9.60944L9.60899 8.78048L8.62839 7.79988ZM6.14114 6.29323L8.62839 8.78048L9.60899 7.79988L7.12174 5.31263L6.14114 6.29323ZM8.62804 2.82573L6.14114 5.31263L7.12174 6.29323L9.60864 3.80633L8.62804 2.82573ZM7.79908 2.97737L8.62804 3.80633L9.60864 2.82573L8.77968 1.99677L7.79908 2.97737ZM6.29278 5.46427L8.77968 2.97737L7.79908 1.99677L5.31218 4.48367L6.29278 5.46427ZM2.82568 2.97777L5.31218 5.46427L6.29278 4.48367L3.80628 1.99717L2.82568 2.97777ZM2.97732 3.80673L3.80628 2.97777L2.82568 1.99717L1.99672 2.82613L2.97732 3.80673ZM5.46382 5.31263L2.97732 2.82613L1.99672 3.80673L4.48322 6.29323L5.46382 5.31263ZM2.97697 8.78008L5.46382 6.29323L4.48322 5.31263L1.99638 7.79948L2.97697 8.78008ZM3.80593 8.62844L2.97697 7.79948L1.99638 8.78008L2.82533 9.60904L3.80593 8.62844ZM5.31218 6.14159L2.82533 8.62844L3.80593 9.60904L6.29278 7.12219L5.31218 6.14159ZM8.78003 8.62884L6.29278 6.14159L5.31218 7.12219L7.79943 9.60944L8.78003 8.62884Z" fill="#333333" />
<path fill-rule="evenodd" clip-rule="evenodd" d="M143.682 9.11889L144.511 8.28993L142.024 5.80327L144.512 3.31595L143.683 2.48699L141.195 4.97431L138.708 2.48722L137.879 3.31618L140.366 5.80327L137.88 8.2897L138.709 9.11866L141.195 6.63223L143.682 9.11889Z" fill="white" />
<path d="M144.511 8.28993L145.001 8.78023L145.491 8.28993L145.001 7.79963L144.511 8.28993ZM143.682 9.11889L143.192 9.60919L143.682 10.0995L144.172 9.60919L143.682 9.11889ZM142.024 5.80327L141.534 5.31297L141.044 5.80327L141.534 6.29357L142.024 5.80327ZM144.512 3.31595L145.002 3.80625L145.492 3.31595L145.002 2.82565L144.512 3.31595ZM143.683 2.48699L144.173 1.99669L143.683 1.50639L143.192 1.99669L143.683 2.48699ZM141.195 4.97431L140.705 5.46461L141.195 5.95491L141.686 5.46461L141.195 4.97431ZM138.708 2.48722L139.198 1.99692L138.708 1.50662L138.218 1.99692L138.708 2.48722ZM137.879 3.31618L137.389 2.82588L136.899 3.31618L137.389 3.80648L137.879 3.31618ZM140.366 5.80327L140.857 6.29357L141.347 5.80327L140.857 5.31297L140.366 5.80327ZM137.88 8.2897L137.39 7.7994L136.899 8.2897L137.39 8.78L137.88 8.2897ZM138.709 9.11866L138.219 9.60896L138.709 10.0993L139.199 9.60896L138.709 9.11866ZM141.195 6.63223L141.686 6.14193L141.195 5.65163L140.705 6.14193L141.195 6.63223ZM144.021 7.79963L143.192 8.62859L144.172 9.60919L145.001 8.78023L144.021 7.79963ZM141.534 6.29357L144.021 8.78023L145.001 7.79963L142.514 5.31297L141.534 6.29357ZM144.021 2.82565L141.534 5.31297L142.514 6.29357L145.002 3.80625L144.021 2.82565ZM143.192 2.97729L144.021 3.80625L145.002 2.82565L144.173 1.99669L143.192 2.97729ZM141.686 5.46461L144.173 2.97729L143.192 1.99669L140.705 4.48401L141.686 5.46461ZM138.218 2.97752L140.705 5.46461L141.686 4.48401L139.198 1.99692L138.218 2.97752ZM138.369 3.80648L139.198 2.97752L138.218 1.99692L137.389 2.82588L138.369 3.80648ZM140.857 5.31297L138.369 2.82588L137.389 3.80648L139.876 6.29357L140.857 5.31297ZM138.37 8.78L140.857 6.29357L139.876 5.31297L137.39 7.7994L138.37 8.78ZM139.199 8.62836L138.37 7.7994L137.39 8.78L138.219 9.60896L139.199 8.62836ZM140.705 6.14193L138.219 8.62836L139.199 9.60896L141.686 7.12253L140.705 6.14193ZM144.172 8.62859L141.686 6.14193L140.705 7.12253L143.192 9.60919L144.172 8.62859Z" fill="#333333" />
<path fill-rule="evenodd" clip-rule="evenodd" d="M143.682 144.513L144.511 143.684L142.025 141.197L144.512 138.71L143.683 137.881L141.196 140.368L138.708 137.881L137.879 138.71L140.367 141.197L137.88 143.684L138.709 144.513L141.196 142.026L143.682 144.513Z" fill="white" />
<path d="M144.511 143.684L145.001 144.174L145.492 143.684L145.001 143.194L144.511 143.684ZM143.682 144.513L143.192 145.003L143.682 145.493L144.172 145.003L143.682 144.513ZM142.025 141.197L141.534 140.707L141.044 141.197L141.534 141.688L142.025 141.197ZM144.512 138.71L145.002 139.201L145.492 138.71L145.002 138.22L144.512 138.71ZM143.683 137.881L144.173 137.391L143.683 136.901L143.192 137.391L143.683 137.881ZM141.196 140.368L140.705 140.859L141.196 141.349L141.686 140.859L141.196 140.368ZM138.708 137.881L139.199 137.391L138.708 136.901L138.218 137.391L138.708 137.881ZM137.879 138.71L137.389 138.22L136.899 138.71L137.389 139.2L137.879 138.71ZM140.367 141.197L140.857 141.688L141.347 141.197L140.857 140.707L140.367 141.197ZM137.88 143.684L137.39 143.194L136.899 143.684L137.39 144.174L137.88 143.684ZM138.709 144.513L138.219 145.003L138.709 145.494L139.199 145.003L138.709 144.513ZM141.196 142.026L141.686 141.536L141.196 141.046L140.705 141.536L141.196 142.026ZM144.021 143.194L143.192 144.023L144.172 145.003L145.001 144.174L144.021 143.194ZM141.534 141.688L144.021 144.174L145.001 143.194L142.515 140.707L141.534 141.688ZM144.021 138.22L141.534 140.707L142.515 141.688L145.002 139.201L144.021 138.22ZM143.192 138.372L144.021 139.201L145.002 138.22L144.173 137.391L143.192 138.372ZM141.686 140.859L144.173 138.372L143.192 137.391L140.705 139.878L141.686 140.859ZM138.218 138.371L140.705 140.859L141.686 139.878L139.199 137.391L138.218 138.371ZM138.37 139.2L139.199 138.371L138.218 137.391L137.389 138.22L138.37 139.2ZM140.857 140.707L138.37 138.22L137.389 139.2L139.876 141.688L140.857 140.707ZM138.37 144.174L140.857 141.688L139.876 140.707L137.39 143.194L138.37 144.174ZM139.199 144.023L138.37 143.194L137.39 144.174L138.219 145.003L139.199 144.023ZM140.705 141.536L138.219 144.023L139.199 145.003L141.686 142.517L140.705 141.536ZM144.172 144.023L141.686 141.536L140.705 142.517L143.192 145.003L144.172 144.023Z" fill="#333333" />
<path fill-rule="evenodd" clip-rule="evenodd" d="M8.28986 144.513L9.11882 143.684L6.63182 141.197L9.11847 138.71L8.28952 137.881L5.80287 140.368L3.31611 137.881L2.48715 138.71L4.97391 141.197L2.48681 143.684L3.31576 144.513L5.80287 142.026L8.28986 144.513Z" fill="white" />
<path d="M9.11882 143.684L9.60912 144.174L10.0994 143.684L9.60912 143.194L9.11882 143.684ZM8.28986 144.513L7.79956 145.003L8.28986 145.493L8.78016 145.003L8.28986 144.513ZM6.63182 141.197L6.14153 140.707L5.65123 141.197L6.14152 141.687L6.63182 141.197ZM9.11847 138.71L9.60877 139.201L10.0991 138.71L9.60877 138.22L9.11847 138.71ZM8.28952 137.881L8.77981 137.391L8.28952 136.901L7.79922 137.391L8.28952 137.881ZM5.80287 140.368L5.31257 140.858L5.80287 141.348L6.29317 140.858L5.80287 140.368ZM3.31611 137.881L3.80641 137.391L3.31611 136.901L2.82581 137.391L3.31611 137.881ZM2.48715 138.71L1.99685 138.22L1.50655 138.71L1.99685 139.2L2.48715 138.71ZM4.97391 141.197L5.46421 141.687L5.95451 141.197L5.46421 140.707L4.97391 141.197ZM2.48681 143.684L1.99651 143.194L1.50621 143.684L1.99651 144.174L2.48681 143.684ZM3.31576 144.513L2.82546 145.003L3.31576 145.494L3.80606 145.003L3.31576 144.513ZM5.80287 142.026L6.29317 141.536L5.80287 141.045L5.31257 141.536L5.80287 142.026ZM8.62852 143.194L7.79956 144.023L8.78016 145.003L9.60912 144.174L8.62852 143.194ZM6.14152 141.687L8.62852 144.174L9.60912 143.194L7.12212 140.707L6.14152 141.687ZM8.62817 138.22L6.14153 140.707L7.12212 141.687L9.60877 139.201L8.62817 138.22ZM7.79922 138.372L8.62817 139.201L9.60877 138.22L8.77981 137.391L7.79922 138.372ZM6.29317 140.858L8.77981 138.372L7.79922 137.391L5.31257 139.878L6.29317 140.858ZM2.82581 138.371L5.31257 140.858L6.29317 139.878L3.80641 137.391L2.82581 138.371ZM2.97745 139.2L3.80641 138.371L2.82581 137.391L1.99685 138.22L2.97745 139.2ZM5.46421 140.707L2.97745 138.22L1.99685 139.2L4.48361 141.687L5.46421 140.707ZM2.97711 144.174L5.46421 141.687L4.48361 140.707L1.99651 143.194L2.97711 144.174ZM3.80606 144.023L2.97711 143.194L1.99651 144.174L2.82546 145.003L3.80606 144.023ZM5.31257 141.536L2.82546 144.023L3.80606 145.003L6.29317 142.516L5.31257 141.536ZM8.78016 144.023L6.29317 141.536L5.31257 142.516L7.79956 145.003L8.78016 144.023Z" fill="#333333" />
</svg>
