<svg width="24" height="24" viewBox="0 0 24 24" fill="none" xmlns="http://www.w3.org/2000/svg">
<path fill-rule="evenodd" clip-rule="evenodd" d="M15.2701 16.21L11.8601 15.48C11.3862 15.3737 10.9525 15.1343 10.6101 14.79L4.00005 8.12C3.31103 7.44362 2.91283 6.52526 2.89005 5.56C2.87962 4.832 3.16042 4.12998 3.67005 3.61C5.01252 2.47381 7.01727 2.6205 8.18005 3.94L14.8501 10.61C15.1944 10.9525 15.4338 11.3861 15.5401 11.86L16.2701 15.27L16.2701 15.46C16.2796 15.7093 16.1662 15.9474 15.9666 16.0971C15.767 16.2468 15.5067 16.289 15.2701 16.21ZM11.6801 13.73C11.8158 13.8701 11.9896 13.9674 12.1801 14.01L14.5101 14.5L14.0101 12.17C13.9675 11.9796 13.8702 11.8058 13.7301 11.67L7.06005 5C6.47507 4.26932 5.42053 4.12432 4.66005 4.67C4.43176 4.90895 4.30922 5.22971 4.32005 5.56C4.34292 6.12943 4.58685 6.66752 5.00005 7.06L11.6801 13.73Z" fill="#333333" />
<path d="M10.93 4.08998C10.9354 4.50195 11.268 4.8346 11.68 4.83998L17.37 4.83998C18.1743 4.82658 18.9503 5.13672 19.5237 5.70079C20.0972 6.26486 20.4201 7.03559 20.42 7.83998L20.42 17.37C20.3874 19.0326 19.0329 20.3649 17.37 20.37L7.88 20.37C6.21509 20.3427 4.87978 18.9851 4.88 17.32L4.88001 11.63C4.88001 11.2158 4.54422 10.88 4.13001 10.88C3.71579 10.88 3.38001 11.2158 3.38001 11.63L3.38 17.37C3.37985 19.8635 5.38666 21.8926 7.88 21.92L17.37 21.92C19.8829 21.92 21.92 19.8829 21.92 17.37L21.92 7.87998C21.9145 5.37099 19.879 3.33998 17.37 3.33998L11.68 3.33998C11.268 3.34537 10.9354 3.67802 10.93 4.08998Z" fill="#333333" />
</svg>
