<svg width="24" height="24" viewBox="0 0 24 24" fill="none" xmlns="http://www.w3.org/2000/svg">
<path fill-rule="evenodd" clip-rule="evenodd" d="M16.54 12.6893L12.82 16.4193C12.6624 16.5774 12.4483 16.6663 12.225 16.6663C12.0017 16.6663 11.7876 16.5774 11.63 16.4193C11.3113 16.0866 11.3113 15.5619 11.63 15.2293L13.93 12.9393L3.84 12.9393C3.37608 12.9393 3 12.5632 3 12.0993C3 11.6353 3.37608 11.2593 3.84 11.2593L13.93 11.2593L11.63 8.96927C11.3113 8.63663 11.3113 8.1119 11.63 7.77927C11.7876 7.6211 12.0017 7.5322 12.225 7.5322C12.4483 7.5322 12.6624 7.6211 12.82 7.77927L16.54 11.5093C16.7009 11.6632 16.7913 11.8766 16.79 12.0993C16.7937 12.3224 16.7029 12.5367 16.54 12.6893ZM8.42 6.87926L8.42 5.66926C8.47468 3.15302 10.5536 1.15461 13.07 1.19926L16.88 1.19926C19.3964 1.15461 21.4753 3.15302 21.53 5.66926L21.45 18.5293C21.3953 21.0455 19.3164 23.0439 16.8 22.9993L12.99 22.9993C11.7762 23.0288 10.6005 22.574 9.72245 21.7354C8.84442 20.8967 8.33621 19.7432 8.31 18.5293L8.31 17.3193C8.31 16.8553 8.68608 16.4793 9.15 16.4793C9.61392 16.4793 9.99 16.8553 9.99 17.3193L9.99 18.5293C10.0134 19.2986 10.3437 20.0266 10.9074 20.5508C11.471 21.0749 12.221 21.3517 12.99 21.3193L16.77 21.3193C17.539 21.3517 18.289 21.0749 18.8526 20.5508C19.4163 20.0266 19.7466 19.2986 19.77 18.5293L19.91 5.66926C19.8866 4.89991 19.5563 4.17194 18.9926 3.64776C18.429 3.12358 17.679 2.84683 16.91 2.87926L13.1 2.87926C12.331 2.84683 11.581 3.12358 11.0174 3.64776C10.4537 4.17194 10.1234 4.89991 10.1 5.66926L10.1 6.87926C10.1 7.34318 9.72392 7.71926 9.26 7.71926C8.79608 7.71926 8.42 7.34318 8.42 6.87926Z" fill="#333333" />
</svg>
