<svg width="94" height="114" viewBox="0 0 94 114" fill="none" xmlns="http://www.w3.org/2000/svg">
<path fill-rule="evenodd" clip-rule="evenodd" d="M23.6308 27.8186L25.4908 27.0716C26.1038 26.8046 26.6988 26.4996 27.3058 26.2146C28.5278 25.6646 29.6928 24.9986 30.8608 24.3356C31.7288 23.8756 32.5058 23.2706 33.3388 22.7546C36.2448 20.8826 39.0388 18.8006 41.6268 16.4696C42.7588 15.4196 43.8908 14.3516 44.9248 13.2166C45.6088 12.5066 46.2498 11.7546 46.9068 11.0166C47.5578 10.2736 48.2768 9.58864 48.9898 8.89664C49.4438 8.47364 49.5758 8.68664 49.4618 9.27264C49.3268 9.83964 49.0528 10.8796 48.3388 11.7936C45.7358 14.9576 42.8318 17.9086 39.4968 20.3816C38.9998 20.7516 38.5088 21.1376 38.0168 21.5286C37.5118 21.9056 37.0038 22.2836 36.4948 22.6636C35.4988 23.4526 34.4328 24.1606 33.3788 24.8616C32.2298 25.6506 30.9828 26.2886 29.7878 27.0036C28.5458 27.6356 27.3088 28.2806 26.0398 28.8536C24.4588 29.5226 22.8868 30.2066 21.2518 30.7246C20.6368 30.9316 20.0298 31.1636 19.4068 31.3466L17.5258 31.8486C16.8968 32.0066 16.2778 32.2066 15.6458 32.3376L13.7498 32.7266C13.2608 32.8376 12.7758 32.9466 12.2898 33.0566C11.8048 33.1676 11.3138 33.2266 10.8268 33.3186C9.85081 33.4856 8.87581 33.6736 7.88981 33.8046C7.45381 33.8406 7.02881 33.8946 6.58781 33.9196C4.95181 34.0196 4.42481 33.8656 4.07581 33.3616C3.99681 33.2446 3.89281 33.1306 3.84681 33.0136C3.69381 32.6226 4.34481 32.2556 5.49381 32.0596C6.34881 31.9436 7.20981 31.8276 8.07681 31.7106C8.93881 31.5436 9.80781 31.3936 10.6858 31.2696C11.5678 31.1696 12.4398 30.9786 13.3158 30.7926C14.1888 30.5966 15.0838 30.4786 15.9498 30.2356C18.5378 29.5726 21.1288 28.8216 23.6098 27.7766L23.6308 27.8186Z" fill="#333333" />
<path fill-rule="evenodd" clip-rule="evenodd" d="M27.5052 95.2664C25.7302 93.0484 24.4202 90.8004 23.0782 88.4814C21.7622 86.1674 20.5642 83.7974 19.4122 81.4154C18.5732 79.6764 17.7072 77.9544 16.9272 76.1964L8.8922 57.5714C7.7092 54.8134 6.4952 52.0474 5.3562 49.2904C4.6242 47.5194 3.8752 45.7504 3.1962 43.9514C2.8522 43.0544 2.5292 42.1474 2.2202 41.2384C1.9052 40.3304 1.7042 39.3834 1.4702 38.4504C1.2022 37.2784 1.5382 37.3384 2.2552 38.1564C2.6142 38.5644 3.0742 39.1594 3.5962 39.8864C4.0812 40.6254 4.5422 41.5284 4.9502 42.5414C6.3882 46.1414 7.9342 49.6974 9.4542 53.2814C10.9502 56.8824 12.4502 60.4914 13.9592 64.1214C15.7492 68.4774 17.8052 72.9264 19.8162 77.2724C22.0302 82.0494 24.3902 86.7544 27.1962 91.1794C28.8762 93.8854 31.0582 96.1914 33.5532 98.2174C37.2982 101.312 41.6252 103.745 46.0262 105.768C49.4712 107.311 53.0042 108.46 56.5952 109.375C57.3862 109.571 58.1612 109.764 58.9582 109.961C61.9152 110.654 62.8272 110.984 63.4102 111.599C63.5432 111.736 63.7262 111.875 63.8002 111.994C63.9242 112.195 63.6672 112.32 63.0792 112.402C62.4962 112.472 61.5612 112.567 60.4202 112.377C56.9912 111.988 53.5702 111.046 50.2192 109.82C46.8642 108.596 43.5602 107.092 40.3812 105.324C35.7062 102.636 31.1512 99.5314 27.4692 95.3064L27.5052 95.2664Z" fill="#333333" />
<path fill-rule="evenodd" clip-rule="evenodd" d="M89.4842 67.1326C89.1382 71.2656 88.8632 75.4126 88.6732 79.5576C88.6192 80.3216 88.6722 81.0396 88.5662 81.8886C88.4492 82.7096 88.3662 83.5556 88.1122 84.3086C86.5272 89.7626 83.3512 94.2836 80.0162 98.5226C78.5252 100.405 76.9572 102.238 75.3392 103.987C73.2482 106.212 71.0532 108.404 68.4522 110.089C67.6412 110.614 67.5132 110.186 67.8882 109.362C68.2722 108.548 69.1022 107.311 70.3202 106.119C74.6112 101.859 78.6772 97.2926 82.1332 92.2556C82.6332 91.4926 83.1502 90.7246 83.5752 89.9046C83.7952 89.4996 84.0242 89.0946 84.2332 88.6806L84.8082 87.4166C85.2192 86.5796 85.4642 85.6936 85.7902 84.8316C86.0042 83.9526 86.2962 83.0696 86.3792 82.2106C86.4622 81.7316 86.5342 81.2796 86.5272 80.7466L86.5852 79.1686L86.7252 76.0156C86.8282 73.9156 86.9542 71.8156 87.0892 69.7176C87.2592 67.1346 87.4702 64.5536 87.6832 61.9756C88.0262 58.0696 88.4802 54.1546 88.9512 50.2846C89.3802 47.2816 89.6832 44.3176 90.3782 41.3526C90.5212 40.6996 90.6262 40.0526 90.8562 39.4026C91.6932 37.0156 92.4022 36.3706 92.9542 36.0826C93.0902 36.0176 93.2382 35.9196 93.3452 35.9016C93.7142 35.8526 93.4942 36.8606 93.1032 38.5226C92.0312 43.5826 91.3742 49.0966 90.7082 54.6546C90.2422 58.7856 89.8452 62.9576 89.5402 67.1316L89.4842 67.1326Z" fill="#333333" />
<path fill-rule="evenodd" clip-rule="evenodd" d="M75.6653 16.929C74.6303 16.518 73.6063 16.094 72.6163 15.598C71.6063 15.145 70.6403 14.611 69.6703 14.09C68.9533 13.729 68.2493 13.345 67.5613 12.934C65.1643 11.435 62.8843 9.77703 60.7393 7.97403C59.7683 7.20003 58.8273 6.37903 57.8703 5.60403L56.0733 4.04703C55.5013 3.49703 54.9573 2.91703 54.4663 2.29303C53.8523 1.52203 55.9243 1.23503 57.2413 2.38803C59.6133 4.43803 62.0413 6.38103 64.4893 8.39403C65.2163 9.00603 66.0273 9.53103 66.8603 10.029C67.6783 10.554 68.5523 10.987 69.3903 11.469C70.3033 12.016 71.2733 12.45 72.2113 12.951C73.1773 13.391 74.1403 13.848 75.1263 14.241L76.9603 14.942C77.5773 15.161 78.2073 15.337 78.8313 15.533C79.7713 15.85 80.7493 16.027 81.7103 16.27C82.6783 16.484 83.6633 16.596 84.6343 16.73C85.3973 16.773 86.1553 16.766 86.9043 16.77C87.6553 16.755 88.4013 16.662 89.1463 16.626C89.4753 16.612 89.7943 16.564 90.1223 16.52C91.3403 16.396 91.7403 16.535 92.0813 17.147C92.1583 17.286 92.2563 17.424 92.3103 17.565C92.4923 18.042 92.0183 18.49 91.0693 18.724C89.6663 19.109 88.1823 19.22 86.6773 19.278C85.9263 19.27 85.1703 19.213 84.4113 19.164C83.6593 19.067 82.9073 18.946 82.1543 18.827C81.0403 18.635 79.9463 18.336 78.8533 18.055C77.7843 17.695 76.6873 17.415 75.6483 16.986L75.6653 16.929Z" fill="#333333" />
<path fill-rule="evenodd" clip-rule="evenodd" d="M35.9247 48.7786C34.5157 53.9226 35.6207 59.6266 38.5197 64.2196C39.5687 65.9086 40.8917 67.4156 42.3247 68.7886C44.8787 71.1746 47.9557 73.0806 51.3447 73.9766C54.7137 74.9426 58.3537 74.7986 61.6627 73.6116C64.5647 72.4906 67.2237 70.5516 69.2397 68.2016C71.8267 65.1176 73.2557 61.2486 73.8207 57.3016C73.9467 56.0686 74.3977 56.1756 74.8877 57.3186C75.1147 57.8906 75.3327 58.7306 75.3927 59.7656C75.4817 60.8026 75.3357 62.0216 74.8977 63.2496C74.1397 65.4326 73.0027 67.4716 71.5707 69.2876C70.8597 70.1946 70.0517 71.0496 69.1857 71.8016L67.8757 72.9146L66.4577 73.9046C64.5087 75.1436 62.3377 76.0756 60.0607 76.5626C57.7857 77.0536 55.4237 77.0946 53.1537 76.7186C47.7347 75.7996 42.5517 72.9386 38.9297 68.7656C34.9217 64.2486 32.5457 58.1576 32.9717 52.0716C33.2267 48.3306 34.4637 44.7386 36.6367 41.6456C38.3707 39.3656 40.6517 37.6506 43.0657 36.2966C44.2737 35.6116 45.5337 35.0316 46.8227 34.5406C48.1087 34.0406 49.4227 33.6176 50.7637 33.3086C52.8427 32.8046 54.9667 32.5236 57.1157 32.5526C59.2607 32.5686 61.4497 32.9566 63.4987 33.8726C63.9487 34.0736 64.3777 34.3176 64.8127 34.5496C65.2187 34.8296 65.6587 35.0726 66.0377 35.4086C67.5157 36.5896 68.0937 37.7586 68.4217 38.5316C68.5687 38.9376 68.6757 39.2576 68.6937 39.5506C68.6947 39.8516 68.6507 40.1046 68.5977 40.3296C68.5477 40.5366 68.5297 40.7806 68.4747 40.9036C68.3787 41.1156 68.1227 40.9246 67.6607 40.4926C67.2017 40.0616 66.6657 39.3376 65.8807 38.5446C64.7157 37.3796 63.3607 36.4466 61.7927 35.8586C60.2357 35.2566 58.5017 35.0086 56.7437 34.9686C53.2147 34.9086 49.5387 35.7846 46.2017 37.3026C43.7417 38.4576 41.3987 39.9526 39.5827 41.8596C39.1347 42.3376 38.7207 42.8356 38.3467 43.3546C38.1667 43.6156 38.0087 43.8856 37.8347 44.1496L37.3887 45.0406L36.9407 45.9326L36.5837 46.8726C36.3217 47.4926 36.1557 48.1406 35.9847 48.7866L35.9247 48.7786Z" fill="#333333" />
<path fill-rule="evenodd" clip-rule="evenodd" d="M68.122 50.5891C66.744 52.6071 65.553 54.7881 64.44 57.0321C64.033 57.8521 63.737 58.7211 63.347 59.5561L62.328 61.7931C61.8 62.9741 61.293 64.4361 60.565 65.0711C60.384 65.2281 60.223 65.4001 59.997 65.4531C59.943 65.4711 59.883 65.4881 59.815 65.5011L59.763 65.5061L59.75 65.5081H59.747C59.743 65.4981 59.766 65.6011 59.755 65.5571H59.749L59.725 65.5561L59.631 65.5551C59.512 65.5431 59.4 65.5261 59.291 65.4901C58.855 65.3371 58.396 65.0921 57.93 64.6861C57.463 64.2831 57.019 63.7551 56.606 63.2551L56.05 62.5901L55.659 62.1041C54.735 60.9581 53.751 59.8721 52.743 58.8581C52.091 58.2121 51.415 57.5981 50.776 56.9821L50.291 56.5331L50.051 56.3171C50.011 56.2801 49.972 56.2451 49.93 56.2141C49.913 56.1481 49.873 56.1131 49.845 56.0611C49.733 55.8521 49.576 55.7051 49.418 55.5821C49.264 55.4511 49.104 55.3271 48.957 55.2431C48.655 55.0601 48.51 54.7121 49.173 54.3991C49.507 54.2571 49.997 54.2071 50.542 54.2551C50.81 54.2891 51.185 54.2001 51.483 54.2771C51.754 54.3731 52.03 54.5021 52.274 54.6691C54.044 55.8251 55.365 57.2801 56.702 58.6831L57.669 59.7571L58.14 60.2971L58.372 60.5661C58.444 60.6511 58.409 60.6291 58.434 60.6671C58.492 60.8261 58.545 61.0451 58.773 61.3711C58.858 61.4881 58.916 61.4101 58.96 61.3821C59.007 61.3401 59.05 61.2811 59.092 61.2121C59.181 61.0551 59.234 60.9411 59.331 60.6821C59.729 59.5671 60.118 58.4211 60.581 57.3131C61.586 54.8681 62.82 52.4981 64.212 50.2241C65.068 48.8231 66.005 47.4681 67.008 46.1621C68.516 44.1721 70.309 42.3851 72.218 40.7851C73.699 39.5461 75.197 38.3061 76.953 37.4241C77.338 37.2331 77.707 37.0231 78.115 36.8671C78.862 36.5561 79.419 36.5331 79.811 36.5591C80.209 36.5971 80.474 36.7611 80.717 37.0221C80.827 37.1421 80.958 37.2531 81.034 37.3761C81.289 37.7941 80.796 38.3361 79.918 38.9611C77.268 40.6751 74.818 42.5631 72.649 44.9261C71.076 46.6931 69.499 48.5421 68.199 50.6321L68.122 50.5891Z" fill="#333333" />
<path fill-rule="evenodd" clip-rule="evenodd" d="M22.9814 25.0022C25.7804 23.6292 28.4894 22.0232 31.0724 20.2162C32.0114 19.5522 32.8884 18.8072 33.8024 18.1072C37.0384 15.6552 40.1194 12.9522 42.9464 9.99421C44.1924 8.67521 45.3794 7.28521 46.4674 5.85321C47.1634 4.93121 47.8284 3.98221 48.4784 3.03521C49.0964 2.06621 49.9024 1.22121 50.5794 0.304213C51.0114 -0.249787 51.3374 -0.0187868 51.4714 0.767213C51.5394 1.16221 51.5484 1.68621 51.4804 2.28921C51.3834 2.87121 51.3034 3.58921 50.9094 4.16721C49.6064 6.26621 48.1634 8.24821 46.5914 10.1282C45.0204 12.0082 43.2484 13.7172 41.3914 15.3302C39.1644 17.2472 36.9974 19.3992 34.6224 21.2462C32.0184 23.2782 29.2534 25.1102 26.3754 26.7362C24.5964 27.7242 22.7854 28.6572 20.9224 29.4752C18.1094 30.7372 15.1674 31.7242 12.2244 32.5662C9.94244 33.2432 7.67444 33.8932 5.32144 34.3032C4.80244 34.3802 4.29644 34.4872 3.76944 34.5462C2.79344 34.6772 2.13744 34.5912 1.68144 34.4432C1.22344 34.2842 0.960444 34.0112 0.752444 33.5802C0.656444 33.3832 0.533444 33.1902 0.479444 32.9942C0.301444 32.3362 1.06444 31.7432 2.38544 31.4542C3.37044 31.2752 4.35344 31.0092 5.34544 30.8342C6.32844 30.5662 7.32744 30.3942 8.32044 30.1432C10.3154 29.6982 12.3114 29.1362 14.2984 28.5122C17.2404 27.5542 20.1504 26.3782 22.9394 24.9342L22.9814 25.0022Z" fill="#333333" />
<path fill-rule="evenodd" clip-rule="evenodd" d="M60.184 111.928C47.632 108.235 32.777 102.806 27.081 94.3635C21.787 86.5165 17.939 77.5465 14.035 68.9175C9.643 59.2135 5.128 49.4225 1.721 39.3425L0 42.7835C3.408 52.8645 7.922 62.6545 12.314 72.3585C16.219 80.9885 20.065 89.9575 25.36 97.8045C30.279 105.096 52.304 114.419 56.449 113.256L60.184 111.928Z" fill="#333333" />
<path fill-rule="evenodd" clip-rule="evenodd" d="M77.7689 20.4475C75.9639 19.9905 74.2069 19.3565 72.4779 18.6835C71.8479 18.4355 71.2169 18.1845 70.5989 17.9085C68.4499 16.8605 66.3889 15.6405 64.4959 14.1985C64.0599 13.9035 63.6689 13.5415 63.2479 13.2245C62.8389 12.8925 62.4019 12.5955 62.0219 12.2345C61.5229 11.7855 60.9989 11.3595 60.5119 10.8935C60.0499 10.4025 59.6049 9.89353 59.2069 9.35053C58.7109 8.68353 60.4089 8.61253 61.4509 9.61453C63.3689 11.3845 65.4349 12.9465 67.6079 14.4645C68.2629 14.9125 68.9619 15.3235 69.7069 15.6555L70.8139 16.1765L71.9469 16.6395C73.5879 17.3515 75.2999 17.9025 77.0269 18.4055C78.1019 18.6675 79.1739 18.9605 80.2689 19.1425C81.9179 19.4665 83.5999 19.6885 85.2689 19.7855C86.5699 19.8315 87.8459 19.7575 89.1259 19.6785L89.9669 19.6195C91.0189 19.5665 91.3559 19.6865 91.6079 20.1755C91.6649 20.2855 91.7399 20.3965 91.7759 20.5085C91.8979 20.8855 91.4759 21.2165 90.6829 21.3645C89.5099 21.5955 88.2889 21.6935 87.0489 21.7325C85.8089 21.7575 84.5539 21.6465 83.2999 21.5225C81.4399 21.2875 79.5829 20.9595 77.7609 20.4925L77.7689 20.4475Z" fill="#333333" />
</svg>
