<svg width="110" height="109" viewBox="0 0 110 109" fill="none" xmlns="http://www.w3.org/2000/svg">
<path fill-rule="evenodd" clip-rule="evenodd" d="M7.63212 93.9929L7.37812 88.7669C7.34212 88.1299 7.23712 87.5019 7.20412 86.8649C7.09212 84.6189 6.98612 82.3669 6.83212 80.1199C6.75812 79.1239 6.64712 78.1259 6.53012 77.1419C6.37912 75.8789 6.17412 74.6109 6.25112 73.3229C6.27512 72.9209 6.65212 72.9409 7.06612 73.2389C7.47712 73.5359 7.94412 74.1059 8.06512 74.8239C8.27912 76.0979 8.48212 77.3749 8.64812 78.6599C8.79412 79.9479 8.90212 81.2439 8.95212 82.5549C9.00912 84.1229 9.33712 85.7249 9.52212 87.3159C9.72412 89.0669 9.88912 90.8239 10.0271 92.5849L10.2781 95.8379C10.4141 97.4789 10.4821 99.1349 10.6501 100.764C10.7701 102.032 11.0451 103.268 11.2231 104.532C11.2651 104.81 11.3171 105.081 11.3241 105.364C11.3521 106.411 11.1611 106.748 10.4541 106.972C10.2931 107.023 10.1331 107.089 9.97212 107.118C9.43112 107.216 8.96812 106.8 8.76512 106.063C8.12612 103.881 8.06512 101.577 7.88212 99.2389C7.77812 97.4979 7.67412 95.7479 7.57012 94.0019L7.63212 93.9929Z" fill="#333333" />
<path fill-rule="evenodd" clip-rule="evenodd" d="M28.7932 105.543C32.1012 105.658 35.4102 105.791 38.7202 105.85L42.3402 105.844C46.5942 105.927 50.8522 106.007 55.1022 105.924C56.9852 105.872 58.8782 105.779 60.7382 105.641C61.9312 105.546 63.1262 105.423 64.3062 105.289C65.4752 105.149 66.6972 105.046 67.7502 104.824C68.3972 104.697 68.5592 105.065 68.0712 105.674C67.9482 105.827 67.7822 105.995 67.5732 106.171C67.3732 106.317 67.1412 106.463 66.8782 106.605C66.3472 106.903 65.7052 107.145 65.0072 107.257C62.5122 107.695 60.0442 107.952 57.5642 108.127C55.0822 108.239 52.5992 108.265 50.1062 108.197C47.1252 108.125 44.0332 108.309 40.9902 108.33C37.6452 108.341 34.2992 108.311 30.9552 108.256L24.7822 108.123C21.6662 108.05 18.5402 107.938 15.4412 107.901C13.0332 107.87 10.6632 107.982 8.2602 107.884C7.7322 107.846 7.2142 107.828 6.6822 107.765C4.7102 107.517 4.1012 107.217 3.7662 106.593C3.6892 106.45 3.5832 106.305 3.5472 106.171C3.4292 105.72 4.2622 105.482 5.6792 105.412C9.8902 105.048 14.2972 105.23 18.7812 105.27C22.1092 105.338 25.4532 105.407 28.7892 105.476L28.7932 105.543Z" fill="#333333" />
<path fill-rule="evenodd" clip-rule="evenodd" d="M74.4613 78.6765L74.5383 84.8805C74.5533 85.6345 74.6383 86.3845 74.6483 87.1385C74.6863 89.7985 74.7083 92.4605 74.7893 95.1175C74.8293 96.2965 74.9243 97.4785 75.0423 98.6415C75.1973 100.114 75.3783 101.68 75.3063 103.078C75.3003 103.171 75.2673 103.246 75.2143 103.306C75.1883 103.336 75.1573 103.362 75.1223 103.383C75.0823 103.401 75.1383 103.387 75.0153 103.428C74.9133 103.463 74.8803 103.474 74.9133 103.463C74.9133 103.463 75.0013 103.434 74.9733 103.442L74.9393 103.447L74.8683 103.453C74.8183 103.454 74.7663 103.448 74.7103 103.436C74.6003 103.411 74.4783 103.358 74.3493 103.27C73.8373 102.882 73.2963 102.208 73.1723 101.333C72.9403 99.7995 72.8393 98.2645 72.7713 96.7225C72.6993 95.1825 72.6793 93.6365 72.7113 92.0805C72.7553 90.2205 72.5273 88.3015 72.4453 86.4065L72.2303 80.1515L72.1143 76.3015C72.0423 74.3585 72.0203 72.4055 71.9113 70.4765C71.8213 68.9785 71.6073 67.5135 71.4673 66.0235C71.4383 65.6955 71.3823 65.3735 71.3893 65.0415C71.3963 63.8065 71.5893 63.3955 72.1623 63.1515C72.2923 63.0945 72.4183 63.0195 72.5423 62.9885C72.9463 62.8865 73.3503 63.3915 73.5223 64.2575C74.0873 66.8545 74.1853 69.6345 74.3353 72.4245C74.4393 74.4985 74.4493 76.5875 74.5183 78.6715L74.4613 78.6765Z" fill="#333333" />
<path fill-rule="evenodd" clip-rule="evenodd" d="M90.9934 89.3927C91.9764 88.5187 92.9704 87.6537 93.9844 86.8057C94.3544 86.4517 94.1874 86.8597 94.2484 85.9127L94.2764 83.9607L94.2244 81.1117C94.2214 77.7597 94.1374 74.3997 94.0314 71.0377C93.9864 69.5447 93.8924 68.0467 93.7994 66.5687C93.6744 64.6687 93.5074 62.7627 93.5654 60.8527C93.5904 59.6637 94.7674 61.1107 94.9954 63.2877C95.3284 67.1537 95.7094 71.0197 95.7144 74.9527C95.7314 77.3017 95.9454 79.7397 96.0074 82.1457C96.0364 83.4687 96.0554 84.7917 96.0494 86.1167L96.0484 86.6827C96.0444 86.9437 96.0584 87.2137 96.0204 87.4597L95.0384 88.3307L93.5704 89.6397C92.3704 90.7227 91.1764 91.8177 89.9934 92.9257C88.1914 94.6017 86.3814 96.2867 84.5934 97.9507C83.2054 99.2517 81.8984 100.598 80.4924 101.874C80.1804 102.153 79.8944 102.448 79.5644 102.713C78.9654 103.218 78.5324 103.504 78.1584 103.609C77.7994 103.733 77.5214 103.705 77.2354 103.593C77.1064 103.543 76.9624 103.512 76.8664 103.452C76.5544 103.266 76.8194 102.563 77.5934 101.753C79.9874 99.4717 82.5554 97.1317 85.1404 94.7287C87.0754 92.9427 89.0184 91.1497 90.9574 89.3597L90.9934 89.3927Z" fill="#333333" />
<path fill-rule="evenodd" clip-rule="evenodd" d="M89.0657 56.8243C90.6627 56.0443 92.2447 55.2223 93.7637 54.3253C94.0407 54.1623 94.3047 53.9823 94.5677 53.8043L94.9287 53.5523L95.1467 53.3323C95.7887 52.6963 96.2417 51.7133 96.4987 50.6893C96.7667 49.6593 96.8507 48.5543 96.7527 47.4663C96.6657 46.5013 96.4087 45.5373 95.9687 44.6923C95.4167 43.5893 94.5977 42.6953 93.6697 41.9163C93.3907 41.6603 93.5707 41.3973 94.0377 41.3243C94.2727 41.2883 94.5837 41.3013 94.9337 41.3873C95.2527 41.5093 95.6157 41.7033 95.9277 41.9983C98.0527 44.2133 98.7547 47.3753 98.2587 50.2393C98.1297 51.1043 97.8707 51.9733 97.5347 52.8303C97.1717 53.6833 96.6707 54.5233 95.7947 55.1623C94.2447 56.2033 92.6567 57.0953 91.0467 57.9663C90.0587 58.5003 89.0557 59.0073 88.0567 59.5163C86.5407 60.2843 84.9867 60.9903 83.4767 61.7383C82.2987 62.3123 81.1907 62.9843 80.0297 63.5783C79.7737 63.7083 79.5317 63.8553 79.2687 63.9763C78.2887 64.4093 77.9167 64.3993 77.4947 63.9483C77.3987 63.8453 77.2887 63.7483 77.2127 63.6363C76.9577 63.2593 77.2237 62.7573 77.8867 62.3513C79.8477 61.1303 82.0297 60.1643 84.2047 59.1313C85.8197 58.3673 87.4487 57.6063 89.0407 56.7823L89.0657 56.8243Z" fill="#333333" />
<path fill-rule="evenodd" clip-rule="evenodd" d="M15.5443 45.9132C16.7373 45.6552 17.9243 45.3582 19.1063 45.0272C19.5363 44.9022 19.9473 44.7262 20.3793 44.6022C21.9053 44.1572 23.4373 43.7092 24.9613 43.2642C25.6403 43.0612 26.3053 42.8102 26.9613 42.5592C27.7993 42.2272 28.6273 41.8512 29.5593 41.7712C29.8473 41.7402 29.8993 41.9982 29.7803 42.3632C29.6553 42.7132 29.3903 43.2542 28.9303 43.4962C27.2593 44.2502 25.5913 45.0092 23.7743 45.4612C22.6893 45.7302 21.6403 46.2322 20.5573 46.6002C19.3673 47.0042 18.1573 47.3622 16.9453 47.7062L14.6983 48.3002C13.5623 48.5912 12.4073 48.8212 11.2863 49.1242C10.4153 49.3602 9.58028 49.6782 8.71428 49.8992C8.52328 49.9472 8.34028 50.0102 8.14628 50.0462C7.42328 50.1812 7.16628 50.0922 6.92128 49.6722C6.86628 49.5762 6.79928 49.4832 6.75828 49.3862C6.62228 49.0592 6.85428 48.7052 7.34228 48.4512C8.79328 47.6912 10.3443 47.1122 11.9553 46.7542C13.1423 46.4582 14.3363 46.1602 15.5273 45.8632L15.5443 45.9132Z" fill="#333333" />
<path fill-rule="evenodd" clip-rule="evenodd" d="M75.5169 37.669C76.5399 37.793 77.5649 37.918 78.5859 38.041C78.9589 38.082 79.3339 38.066 79.7069 38.112C81.0219 38.28 82.3439 38.449 83.6549 38.617C84.2389 38.69 84.8279 38.714 85.4089 38.733C86.1549 38.748 86.9049 38.712 87.6469 38.974C87.8779 39.049 87.8429 39.298 87.6419 39.58C87.4409 39.848 87.0719 40.234 86.6399 40.285C85.1119 40.35 83.5839 40.395 82.0509 40.119C81.1339 39.953 80.1739 40.013 79.2329 39.957L76.1309 39.732L74.2229 39.593C73.2599 39.524 72.2929 39.426 71.3349 39.422C70.5899 39.411 69.8559 39.519 69.1199 39.517C68.9569 39.519 68.7979 39.537 68.6349 39.527C68.0299 39.49 67.8419 39.35 67.7279 38.902C67.7019 38.8 67.6659 38.699 67.6529 38.599C67.6069 38.263 67.8639 37.984 68.3109 37.857C69.6399 37.462 71.0299 37.313 72.4169 37.404C73.4499 37.438 74.4849 37.521 75.5169 37.618V37.669Z" fill="#333333" />
<path fill-rule="evenodd" clip-rule="evenodd" d="M21.5443 70.5255C24.0663 70.5705 26.6013 70.5375 29.1373 70.4555L31.9113 70.3065C35.1773 70.2045 38.4513 70.1095 41.7233 69.9565C43.1743 69.8905 44.6323 69.7895 46.0723 69.6945C47.9213 69.5725 49.7833 69.4295 51.6453 69.5145C52.2253 69.5395 52.1493 69.7795 51.6693 70.0395C51.1883 70.2945 50.3053 70.5935 49.2483 70.6795C45.4983 70.9845 41.7433 71.3635 37.9333 71.5265C35.6543 71.6185 33.2953 71.9225 30.9613 72.0505C28.3973 72.2015 25.8253 72.3065 23.2493 72.3505C21.6633 72.3805 20.0743 72.3685 18.4863 72.3435C16.0793 72.2855 13.6583 72.1265 11.2593 71.7755C10.3273 71.6235 9.39628 71.4945 8.46528 71.2325C7.53928 70.9755 6.58428 70.6745 5.70128 70.0085C5.49828 69.8905 5.32728 69.6925 5.14228 69.5275L4.73528 69.1255C4.37928 68.7645 3.89428 68.4585 3.62028 68.0145C3.33228 67.5655 3.36728 67.1045 3.61428 66.8675C3.71528 66.7525 3.84728 66.6405 3.96728 66.6005C4.18128 66.5275 4.37428 66.6725 4.55628 66.7315C4.75028 66.7795 4.85028 66.7505 5.34228 67.0335C5.68828 67.2325 6.15628 67.5175 6.54028 67.9625C6.79528 68.1845 6.96328 68.3435 7.26228 68.5085C7.80828 68.8295 8.48028 69.1025 9.22128 69.2995C10.6903 69.7155 12.3303 69.9595 13.9873 70.1275C16.4563 70.3745 18.9993 70.4675 21.5403 70.4795L21.5443 70.5255Z" fill="#333333" />
<path fill-rule="evenodd" clip-rule="evenodd" d="M89.9363 60.0489C89.2563 60.3819 88.5483 60.6529 87.8553 60.9359C87.6013 61.0339 87.3663 61.1749 87.1093 61.2649C86.2103 61.5699 85.3013 61.8789 84.4053 62.1819C84.0043 62.3099 83.6193 62.4719 83.2393 62.6359C82.7523 62.8499 82.2803 63.0949 81.7483 63.2039C81.4193 63.2809 81.4633 62.3739 81.9903 62.0329C82.9443 61.4859 83.9113 60.9759 84.9763 60.6969C85.6093 60.5169 86.1933 60.1699 86.7913 59.8929C87.4513 59.5909 88.1053 59.2809 88.7503 58.9509C89.1453 58.7459 89.5483 58.5499 89.9303 58.3199C90.5173 57.9849 91.1043 57.6369 91.6383 57.2259C92.0683 56.9279 92.4033 56.5179 92.8013 56.1919C92.8883 56.1179 92.9663 56.0369 93.0593 55.9689C93.4043 55.7209 93.5763 55.7179 93.8553 55.9139C93.9193 55.9589 93.9873 55.9989 94.0433 56.0479C94.2313 56.2119 94.2283 56.4869 94.0503 56.7769C93.7893 57.2099 93.4913 57.6299 93.1203 57.9699C92.7673 58.3329 92.3663 58.6539 91.9363 58.9309C91.3003 59.3499 90.6323 59.7269 89.9563 60.0819L89.9363 60.0489Z" fill="#333333" />
<path fill-rule="evenodd" clip-rule="evenodd" d="M38.7269 90.2141L38.5689 85.8981C38.5539 85.3721 38.4729 84.8521 38.4639 84.3261C38.4419 82.4671 38.4419 80.6081 38.4559 78.7441C38.4509 77.9131 38.4469 77.0851 38.4419 76.2611C38.4619 75.1961 38.3789 74.1211 38.8269 73.0201C38.9559 72.6821 39.2589 72.8481 39.5479 73.1921C39.8279 73.5401 40.1279 73.9971 40.1649 74.5721C40.1919 75.5651 40.2949 76.6091 40.3609 77.6471C40.4369 78.6901 40.3989 79.7481 40.3759 80.8191C40.3259 82.1001 40.5589 83.4171 40.6649 84.7221L40.9569 89.0411L41.1419 91.7041C41.2499 93.0471 41.3199 94.4011 41.4849 95.7331C41.6019 96.7701 41.8989 97.7701 42.0489 98.8061C42.0839 99.0341 42.1429 99.2551 42.1649 99.4861C42.2419 100.352 42.0219 100.64 41.4039 100.836C41.2689 100.881 41.1419 100.938 41.0219 100.964C40.6529 101.051 40.1109 100.721 39.9109 100.131C39.3259 98.3731 39.1289 96.4741 38.9659 94.5461C38.8409 93.1141 38.7709 91.6671 38.6689 90.2221L38.7269 90.2141Z" fill="#333333" />
<path fill-rule="evenodd" clip-rule="evenodd" d="M45.0325 85.6062C42.3365 85.6142 39.6375 85.6492 36.9405 85.7212C35.9565 85.7482 34.9755 85.8392 33.9925 85.8602C30.5235 85.9412 27.0505 86.0172 23.5855 86.2022C22.0495 86.2892 20.5065 86.4262 18.9915 86.6032C17.0545 86.8172 15.0785 87.1592 13.2095 87.2412C12.6475 87.2802 12.5625 86.8972 12.9865 86.3792C13.1995 86.1162 13.5595 85.8192 13.9745 85.5872C14.3935 85.3422 14.9175 85.1282 15.4825 85.0632C19.5085 84.5092 23.5165 84.2122 27.5825 84.1502C30.0115 84.1202 32.5235 83.8482 35.0025 83.7352C37.7275 83.6182 40.4565 83.5442 43.1845 83.4832L48.2215 83.4002C50.7655 83.3762 53.3205 83.3512 55.8455 83.3272C57.8075 83.2872 59.7355 83.1392 61.6865 83.0852C62.1155 83.0722 62.5355 83.0422 62.9695 83.0582C64.5775 83.1022 65.0825 83.2812 65.3915 83.8932C65.4615 84.0312 65.5565 84.1712 65.5935 84.3092C65.7185 84.7742 65.0495 85.1272 63.8885 85.2242C62.1715 85.3562 60.4025 85.4772 58.6165 85.4882C56.8245 85.5512 55.0105 85.5392 53.1865 85.5712C50.4805 85.5922 47.7565 85.6012 45.0375 85.6602L45.0325 85.6062Z" fill="#333333" />
<path fill-rule="evenodd" clip-rule="evenodd" d="M88.6981 73.7746L88.7101 77.7526C88.7171 78.2366 88.7671 78.7176 88.7631 79.2016C88.7461 80.9116 88.7201 82.6216 88.7421 84.3306C88.7541 85.0886 88.7841 85.8506 88.8321 86.6006C88.9191 87.5656 88.8751 88.5366 88.8081 89.5226C88.7351 90.1226 87.9021 89.3726 87.6871 88.2936C87.2351 86.3626 87.1271 84.3976 87.1531 82.4056C87.1781 81.2126 86.9881 79.9866 86.9121 78.7726C86.8311 77.4386 86.8071 76.0986 86.7631 74.7596L86.6941 72.2876C86.6491 71.0406 86.6431 69.7846 86.5651 68.5446C86.5021 67.5806 86.3451 66.6376 86.2591 65.6686C86.2411 65.4546 86.2001 65.2446 86.2211 65.0296C86.2571 64.2216 86.5101 63.9616 86.9621 63.8316C87.0651 63.8006 87.1641 63.7576 87.2591 63.7446C87.4201 63.7206 87.5611 63.7946 87.7051 63.9426C87.8461 64.0916 88.0061 64.3156 88.0651 64.5886C88.3451 65.4126 88.4021 66.2596 88.5101 67.1296C88.6061 67.9966 88.6371 68.8846 88.6641 69.7756C88.6921 71.1036 88.7201 72.4386 88.7471 73.7696L88.6981 73.7746Z" fill="#333333" />
<path fill-rule="evenodd" clip-rule="evenodd" d="M84.6164 78.0661C85.3574 77.5941 86.0934 77.0911 86.8014 76.5381C87.0614 76.3401 87.2894 76.1051 87.5474 75.9001C88.4624 75.1751 89.3834 74.4451 90.2964 73.7221C90.6994 73.3931 91.0874 73.0391 91.4664 72.6871C91.9554 72.2361 92.4364 71.7641 93.0264 71.4261C93.3834 71.2061 93.4944 72.1671 93.0004 72.7231C92.0864 73.6931 91.1854 74.6891 90.1164 75.5461C89.4584 76.0401 88.8904 76.6821 88.2604 77.2411C87.5614 77.8501 86.8394 78.4391 86.0884 78.9961C85.6294 79.3421 85.1534 79.6681 84.6724 79.9881C83.9474 80.4801 83.1664 80.8911 82.4094 81.3321C81.8084 81.6531 81.2464 82.0481 80.6134 82.3471C80.4774 82.4201 80.3474 82.5071 80.1904 82.5261C79.9104 82.5931 79.7114 82.5811 79.5544 82.4881C79.4004 82.4101 79.2984 82.2951 79.2024 82.1301C79.1594 82.0551 79.1084 81.9861 79.0784 81.9161C78.9794 81.6911 79.1364 81.3751 79.4224 81.0361C80.3314 80.3111 81.3494 79.9651 82.3544 79.3771C83.1044 78.9721 83.8624 78.5351 84.5904 78.0341L84.6164 78.0661Z" fill="#333333" />
<path fill-rule="evenodd" clip-rule="evenodd" d="M0.141853 57.6428C0.252853 56.5248 0.555853 55.4008 1.02185 54.3178C1.48285 53.2368 2.21685 52.1868 3.21985 51.4008C3.35485 51.2978 3.43785 51.2058 3.61685 51.0958C3.82785 50.9798 4.04985 50.8738 4.27385 50.7848C4.63085 50.6738 4.91985 50.6198 5.23285 50.5558C5.79285 50.4778 6.34385 50.4158 6.86285 50.3928C7.91685 50.3248 8.93585 50.3208 9.95585 50.3178C14.0199 50.3468 18.0249 50.5568 22.0349 50.7528C24.9579 50.8878 27.8789 51.0218 30.7979 51.1558C41.0799 51.7068 51.3649 52.3128 61.6229 52.1068C63.8969 52.0548 66.1749 51.9428 68.4279 51.7138C68.9939 51.6678 69.5519 51.5928 70.1119 51.5228C70.3789 51.4848 70.7009 51.4608 70.9219 51.4098C71.0118 51.3728 71.0769 51.3668 71.1929 51.3198L71.5539 51.1618C72.5369 50.7098 73.5429 50.1598 74.5319 49.6248C79.6269 46.8298 84.7169 43.8348 90.3089 41.8648C92.0799 41.2948 91.9619 41.8218 90.6949 42.7778C89.4299 43.7478 87.0928 45.2968 84.1569 46.8638C81.5459 48.2408 78.9678 49.6918 76.3399 51.1078C75.0049 51.8188 73.7549 52.5318 72.2379 53.2008C71.9849 53.3518 71.0378 53.6028 70.8139 53.5868L69.6779 53.7218C68.9199 53.8118 68.1658 53.8628 67.4099 53.9338C61.3708 54.3798 55.3679 54.2798 49.3519 54.0578C42.1609 53.7728 34.6849 53.5588 27.3509 53.2118C23.3199 53.0218 19.2899 52.8238 15.2679 52.6878C13.2589 52.6258 11.2489 52.5768 9.25685 52.5998C8.26085 52.6068 7.27185 52.6488 6.31685 52.7348L5.62285 52.8238C5.42685 52.8698 5.19485 52.9138 5.04285 52.9608C4.99585 52.9828 4.95885 53.0118 4.89385 53.0048C4.83585 53.0668 4.74085 53.1398 4.66585 53.2058C4.51085 53.3468 4.32785 53.4548 4.20185 53.6318C2.76585 55.1928 2.29085 57.6568 2.42685 59.9578C2.50085 61.1218 2.72485 62.2838 3.10085 63.3798C3.18785 63.6578 3.29085 63.9278 3.41485 64.1878C3.52785 64.4538 3.64385 64.7168 3.79085 64.9588C3.92685 65.2098 4.06285 65.4608 4.23285 65.6818L4.47385 66.0268C4.55385 66.1378 4.63085 66.1788 4.70385 66.2628C5.20485 66.7188 6.06885 67.0368 6.90485 67.2788C7.75785 67.5238 8.66485 67.6808 9.57185 67.8198C11.3939 68.0868 13.2579 68.2218 15.1219 68.3108C18.8539 68.4838 22.6039 68.4588 26.3289 68.3688C32.1219 68.2278 37.7979 67.7818 43.5389 67.5188C44.8039 67.4588 46.0409 67.3798 47.3189 67.3438C52.0569 67.2108 53.5799 67.4138 54.5899 68.0848C54.8199 68.2388 55.1229 68.3918 55.2549 68.5438C55.6969 69.0658 53.7789 69.4438 50.3419 69.6508C40.1329 70.3018 29.3409 71.0208 18.3639 70.8668C16.3239 70.8288 14.2759 70.7518 12.2079 70.5788C10.1359 70.3898 8.06185 70.1608 5.88285 69.5218L5.05185 69.2338C4.76885 69.1168 4.47885 68.9748 4.19485 68.8418C3.90485 68.6888 3.59785 68.4728 3.30885 68.2788C3.15485 68.1428 3.00285 67.9968 2.85585 67.8488C2.70185 67.6958 2.56485 67.5438 2.49785 67.4318C1.74685 66.4588 1.26685 65.3948 0.869853 64.3238C0.110853 62.1698 -0.149147 59.9158 0.0808534 57.6478L0.141853 57.6428Z" fill="#333333" />
<path fill-rule="evenodd" clip-rule="evenodd" d="M95.6102 77.9478C95.6102 77.9478 107.442 77.8638 109.456 83.3118C111.881 89.8748 94.1952 99.7238 78.3362 102.455L95.2762 87.0988L95.6102 77.9478Z" fill="#333333" />
<path fill-rule="evenodd" clip-rule="evenodd" d="M54.014 14.3434C54.219 13.6814 54.923 13.3104 55.585 13.5154C58.868 14.5314 52.946 17.7914 54.014 14.3434Z" fill="#333333" />
<path fill-rule="evenodd" clip-rule="evenodd" d="M41.8211 1.88444C42.0261 1.22244 42.7291 0.851443 43.3921 1.05644C46.6741 2.07244 40.7531 5.33244 41.8211 1.88444Z" stroke="#333333" />
<path fill-rule="evenodd" clip-rule="evenodd" d="M17.8348 21.5055C18.0398 20.8435 18.7438 20.4725 19.4058 20.6775C22.6888 21.6935 16.7668 24.9535 17.8348 21.5055Z" stroke="#333333" />
<path fill-rule="evenodd" clip-rule="evenodd" d="M84.8626 14.3434C85.0676 13.6814 85.7706 13.3104 86.4336 13.5154C89.7166 14.5314 83.7946 17.7914 84.8626 14.3434Z" stroke="#333333" />
<path fill-rule="evenodd" clip-rule="evenodd" d="M29.8586 38.4846C29.3166 37.0976 28.9706 35.6416 28.9496 34.0796C28.9406 32.5536 29.2956 30.7466 30.5486 29.4086C31.4606 28.4446 32.4666 27.8136 33.6876 27.5146C34.7496 27.2706 35.8346 27.3266 36.8036 27.5606C37.7786 27.7946 38.6596 28.1866 39.4596 28.6516C41.0506 29.5976 42.3826 30.7836 43.5646 32.0666C44.6196 33.1996 45.6106 34.3826 46.5196 35.6146C47.6676 37.1926 48.8526 38.8736 49.1776 40.9556C49.2696 41.6156 48.5236 41.6616 47.7116 41.4066C46.8916 41.1456 45.9856 40.6656 45.5386 39.8046C43.9006 36.7376 41.6596 33.7436 38.9776 31.5126C38.1706 30.8496 37.2176 30.3846 36.2756 30.1866C35.3286 29.9966 34.4386 30.0986 33.6436 30.4856C32.6996 30.9226 32.1636 31.5686 31.8696 32.5676C31.6126 33.5626 31.6736 34.7516 31.9496 35.8996C32.2756 37.3366 32.9326 38.6686 33.8456 39.8506C35.2166 41.6536 37.1186 43.1306 39.1906 44.2106C40.8076 45.0556 42.5516 45.5596 44.2966 46.0236C44.6836 46.1156 45.0646 46.2076 45.4546 46.3006C46.8886 46.6906 47.2986 46.9756 47.4256 47.7926C47.4546 47.9776 47.5076 48.1686 47.5076 48.3466C47.5106 48.9446 46.7776 49.2706 45.6206 49.1166C42.2026 48.6556 38.6616 47.3886 35.4866 45.2096C33.1356 43.6176 31.0106 41.3466 29.7956 38.5156L29.8586 38.4846Z" fill="#333333" />
<path fill-rule="evenodd" clip-rule="evenodd" d="M64.7298 32.3375C65.2198 30.9965 65.5418 29.5205 65.4018 28.4135C65.3338 27.8495 65.1568 27.5475 64.9558 27.3795C64.7538 27.1955 64.2568 27.0815 63.6458 27.1195C63.1978 27.1605 62.6998 27.2595 62.2388 27.4495L61.5338 27.6935L60.8368 28.0295C59.1788 28.8135 57.6178 30.0295 56.1988 31.3995C54.7768 32.7755 53.4778 34.3265 52.3338 35.9895C51.3178 37.4635 50.4328 39.0495 49.7258 40.6795C48.7988 42.7745 48.1858 44.9605 47.3948 47.0595C47.1418 47.7115 46.4408 47.5055 45.8938 46.7385C45.3298 45.9725 44.9738 44.5965 45.4368 43.2315C47.1048 38.4525 49.7258 34.0955 53.3258 30.5125C54.4238 29.4635 55.5108 28.3685 56.7638 27.3965C57.9758 26.3945 59.3808 25.5245 60.9438 24.9555C61.8168 24.6515 62.6898 24.4135 63.6908 24.3805C64.6528 24.3375 65.8808 24.5215 66.8178 25.3625C67.7558 26.1985 68.0738 27.3425 68.1648 28.2885C68.2518 29.2595 68.1538 30.1645 67.9828 31.0285C67.5448 33.1545 66.7138 35.0865 65.6518 36.8995C64.8298 38.2445 63.8938 39.5245 62.8168 40.6845C61.7478 41.8495 60.5318 42.8625 59.2848 43.7815C57.3448 45.2085 55.3758 46.4705 53.4518 47.7125C53.0338 47.9895 52.6238 48.2625 52.2028 48.5425C50.6258 49.5335 50.0588 49.7095 49.2968 49.3015C49.1248 49.2095 48.9258 49.1345 48.7838 49.0215C48.3038 48.6495 48.6798 47.7945 49.8068 46.8935C53.1628 44.2035 57.1128 42.4065 59.9068 39.6585C60.9588 38.6435 61.8878 37.5045 62.7038 36.2575C63.5408 35.0295 64.1858 33.7065 64.6618 32.3195L64.7298 32.3375Z" fill="#333333" />
</svg>
