<svg width="120" height="105" viewBox="0 0 120 105" fill="none" xmlns="http://www.w3.org/2000/svg">
<path fill-rule="evenodd" clip-rule="evenodd" d="M99.0183 3.87912C99.0733 3.29212 99.5943 2.86012 100.181 2.91512C103.091 3.18712 98.7313 6.93612 99.0183 3.87912Z" stroke="#333333" />
<path fill-rule="evenodd" clip-rule="evenodd" d="M114.852 13.1057C114.907 12.5187 115.428 12.0867 116.015 12.1417C118.925 12.4137 114.565 16.1627 114.852 13.1057Z" stroke="#333333" />
<path fill-rule="evenodd" clip-rule="evenodd" d="M110.608 44.2113C110.663 43.6243 111.184 43.1923 111.771 43.2473C114.681 43.5193 110.322 47.2683 110.608 44.2113Z" stroke="#333333" />
<path fill-rule="evenodd" clip-rule="evenodd" d="M9.70823 74.3269C9.91723 74.0349 10.1192 73.7439 10.2822 73.4739C10.3622 73.3419 10.4372 73.2079 10.4782 73.1169L10.5172 73.0319C10.5652 73.0579 10.8582 73.1039 10.9922 73.1129C11.0522 73.1269 11.1142 73.1329 11.1792 73.1319L11.2752 73.1249L11.3242 73.1179L11.3302 73.1169C11.3502 73.1139 11.1822 73.1329 11.2552 73.1249L11.2642 73.1259L11.2812 73.1269C11.5012 73.1369 11.6162 72.9499 11.5262 73.0849C11.4882 73.1629 11.4692 73.4779 11.5532 73.8439C11.5632 73.8899 11.5782 73.9179 11.5892 73.9769L11.6042 74.0569L11.6022 74.0579L11.5892 74.0609C11.5892 74.0609 11.5662 74.0639 11.5392 74.0759C11.4962 74.0889 11.4392 74.1109 11.3742 74.1419C11.1192 74.2569 10.8122 74.4339 10.5122 74.6199L10.0552 74.9099L9.43123 75.3329L7.76423 76.5019C7.22023 76.8709 6.66623 77.2489 6.20423 77.4779C5.74023 77.7109 5.35923 77.8259 5.06923 77.8529L4.45823 77.8829C4.32223 77.8709 4.19123 77.8549 4.02623 77.7959C3.85323 77.7439 3.62323 77.5399 3.49923 77.3579C3.24523 76.9739 3.27323 76.6769 3.28223 76.3479C3.32523 75.9569 3.45423 75.5069 3.74123 74.9449C4.00223 74.3979 4.50023 73.7179 4.98123 73.0739L6.43323 71.2479L7.34323 70.1199C7.93423 69.3659 8.50423 68.6029 8.98123 67.8189C9.44323 67.0519 9.85223 66.1809 9.81623 65.5459C9.81523 65.3729 9.76123 65.2469 9.70823 65.1199L9.52823 64.6939L10.1852 64.7999C10.2212 64.8059 10.2662 64.7849 10.2802 64.7379C10.2672 64.7449 10.2662 64.8139 10.2962 64.8279C10.3322 65.0079 10.5232 65.1919 10.6302 65.3189C10.6182 65.3299 10.5782 65.3689 10.5292 65.4299C10.4372 65.5409 10.3342 65.6829 10.2342 65.8259L9.62723 66.7319C9.21923 67.3499 8.80423 67.9749 8.35623 68.5839C7.67023 69.5019 6.94223 70.4359 5.90723 71.1889C5.38823 71.5559 4.76623 71.8799 4.03223 71.9829C3.30223 72.0969 2.49323 71.9039 1.92023 71.5029C1.21123 70.9579 1.77323 70.6629 2.47223 70.4859C2.83123 70.3689 3.19923 70.2299 3.46123 70.0329C3.72823 69.8369 3.94923 69.6399 4.33123 69.4179C5.15123 68.9289 5.99723 67.9599 6.75923 66.9629C7.14623 66.4549 7.52123 65.9239 7.90923 65.3699L8.52123 64.5139C8.63523 64.3609 8.74323 64.2139 8.91123 64.0209C8.97523 63.9439 9.11023 63.8029 9.25723 63.6759C9.32623 63.6199 9.42623 63.5509 9.51723 63.4989L9.66023 63.4239L9.73723 63.3889C9.80923 63.3629 9.88823 63.3399 9.97123 63.3239C10.3062 63.2539 10.6972 63.3099 10.9452 63.4529C11.2232 63.5979 11.4832 63.8819 11.6042 64.1479L11.5262 64.0019C11.9782 64.7569 11.9972 65.6049 11.8852 66.2159C11.7732 66.8479 11.5632 67.3689 11.3342 67.8479C10.8632 68.7879 10.2982 69.5759 9.71323 70.3279C9.02323 71.1909 8.32523 72.0649 7.62123 72.9459C7.48123 73.1239 7.34823 73.3029 7.22223 73.4899C7.11323 73.6769 6.93723 73.8749 6.95323 74.1349C7.00223 74.2949 7.16223 74.2559 7.25723 74.2039C7.61123 74.0379 7.97323 73.7799 8.41223 73.5019L9.00323 73.1139C9.29023 72.9259 9.58623 72.7409 9.89823 72.5609C10.2202 72.3829 10.5202 72.2049 10.9912 72.0599C11.0982 72.0239 11.2632 71.9939 11.4342 71.9809C11.5432 71.9779 11.6762 71.9929 11.7922 72.0159C11.9462 72.0599 12.1282 72.1439 12.2552 72.2639C12.5532 72.5579 12.5882 72.8429 12.6062 73.0489C12.6132 73.2629 12.5812 73.4079 12.5482 73.5409C12.3382 74.2139 12.0572 74.5899 11.7852 75.0219C11.5092 75.4359 11.2252 75.8249 10.9392 76.2079C10.3782 76.9609 9.77123 77.7459 9.27723 78.4399C9.11623 78.6619 8.95323 78.8939 8.80523 79.1439C8.68223 79.3879 8.46723 79.6789 8.57923 79.9679C8.71423 80.1779 8.96723 80.3039 9.21423 80.2569C9.45823 80.2189 9.68023 80.0909 9.88823 79.9509C10.0972 79.8079 10.2902 79.6399 10.4772 79.4669L11.5832 78.4059C12.1522 77.8879 12.8082 77.4819 13.4042 77.3239C13.6912 77.2449 14.0402 77.2179 14.3162 77.4419C14.5442 77.6659 14.6272 77.9099 14.7122 78.1979C14.7932 78.4829 14.8222 78.8479 14.8222 79.2469C14.8142 79.6419 14.7812 80.1169 14.7982 80.4459C14.8202 80.7239 14.8412 80.7899 14.8882 80.8969C14.9342 80.9959 15.0082 81.0809 15.1052 81.1249C15.3122 81.1909 15.3822 81.1579 15.7642 81.0719C16.4642 80.8969 17.0002 80.6779 17.3932 80.6179C17.7932 80.5589 18.0762 80.5979 18.3752 80.7739C18.5112 80.8509 18.6732 80.9149 18.7792 81.0069C19.1262 81.3049 18.6842 82.0099 17.3962 82.6609C16.9102 82.9029 16.4132 83.1039 15.7182 83.2329C14.9342 83.3689 13.8932 83.1919 13.3282 82.4839C13.0302 82.1479 12.8462 81.7149 12.7472 81.2579C12.6922 81.0069 12.6762 80.8209 12.6622 80.6499L12.6402 80.4099C12.6192 80.3669 12.6052 80.3459 12.5892 80.3369C12.5492 80.3069 12.4892 80.4099 12.4982 80.4129C12.5142 80.4019 12.4792 80.4389 12.3702 80.5479L12.0832 80.8269L11.6632 81.2189C10.8972 81.9019 10.0642 82.4729 9.31023 82.7139C8.72823 82.9059 8.23123 82.8819 7.71923 82.7579C7.20823 82.6289 6.74123 82.2559 6.34923 81.8429C6.13623 81.4729 5.98223 81.2179 5.95923 80.8669C5.91823 80.5349 5.95823 80.1489 6.11623 79.7069C6.25123 79.2739 6.51623 78.7929 6.79323 78.3249C6.94523 78.0899 7.08523 77.8519 7.24923 77.6199L7.64423 77.0509C8.33223 76.0929 9.04023 75.1899 9.66223 74.2999L9.70823 74.3269Z" fill="#333333" />
<path fill-rule="evenodd" clip-rule="evenodd" d="M21.6639 85.1537L13.7609 86.0627L12.7709 86.1717L12.1439 86.2297C11.8049 86.2547 11.6349 86.1837 11.4529 86.1747C10.7259 86.0517 9.99387 86.0387 9.27587 85.7967C8.55387 85.6037 7.83287 85.4117 7.14887 85.0657C6.80887 84.9007 6.44687 84.7827 6.12587 84.5727L5.16087 83.9557C3.92687 83.0657 2.81687 81.9577 2.04787 80.6557C1.23887 79.3827 0.677873 77.9767 0.372873 76.5387C0.0468727 75.1037 -0.0791273 73.6347 0.0498727 72.1647C0.0588727 71.7977 0.126873 71.4286 0.183873 71.0617C0.229873 70.6937 0.305873 70.3257 0.414873 69.9587C0.505873 69.5907 0.609873 69.2237 0.771873 68.8567L1.07887 68.0917C1.24487 67.8756 1.52187 67.6877 1.71387 67.5057C4.63687 65.0157 7.46487 62.4067 10.3169 59.8217C20.3799 50.6997 30.2319 41.2997 40.1459 31.9687C44.5279 27.8057 48.9349 23.6197 53.2829 19.4897C58.9019 14.2137 64.4699 8.80066 70.8009 4.25766C72.7829 2.84566 72.9109 3.61566 71.7139 5.38266C71.1159 6.26466 70.1849 7.37866 69.0249 8.69266C68.4399 9.34166 67.7839 10.0157 67.0689 10.7127C66.3629 11.4247 65.5939 12.1537 64.7659 12.8797C53.0829 23.2737 41.7869 34.2147 30.0849 44.9137C23.0939 51.3227 16.0519 58.2497 8.80287 64.7397C7.80387 65.6297 6.81587 66.5287 5.79387 67.3977L4.27187 68.7107L3.51087 69.3657L3.29787 69.5487C3.24387 69.5797 3.24387 69.6507 3.21387 69.7077C2.81287 70.6807 2.60587 71.9477 2.58487 73.1457C2.58087 74.3647 2.76587 75.5837 3.09787 76.7507C3.43687 77.9197 4.01087 78.9887 4.70087 79.9567C5.43387 80.8937 6.33387 81.6837 7.36687 82.2817C7.88987 82.5647 8.44587 82.8037 9.00887 83.0167L9.88887 83.2597C10.1789 83.3527 10.4759 83.4257 10.7869 83.4507L11.7059 83.5747C11.8609 83.5917 12.0159 83.6257 12.0669 83.6177L12.4839 83.5727L14.4679 83.3497C20.9829 82.6047 27.4979 81.8057 33.9959 80.9367C43.8379 79.6157 53.7219 78.2157 63.4229 76.4917C70.9599 75.1397 78.3109 73.5617 85.5929 71.6377C87.1949 71.2107 88.7449 70.7427 90.3349 70.2617C93.2799 69.3677 95.1609 68.6857 96.4579 68.2257C97.7589 67.7597 98.4879 67.5467 99.1969 67.4277C99.3509 67.3937 99.5289 67.3397 99.7029 67.2887C99.8559 67.2237 100.011 67.1587 100.135 67.1327C100.345 67.0877 100.436 67.1837 100.368 67.4697C100.307 67.7607 100.049 68.2097 99.5939 68.6547C98.6879 69.5867 97.0399 70.5417 94.8619 71.4177C91.6259 72.7047 88.2899 73.6867 84.9059 74.5867C81.5199 75.4787 78.0809 76.2667 74.6089 76.9957C67.6639 78.4507 60.5859 79.6787 53.4829 80.8067C42.9319 82.4767 32.3029 83.8947 21.6849 85.2177L21.6639 85.1537Z" fill="#333333" />
<path fill-rule="evenodd" clip-rule="evenodd" d="M22.7024 83.1903C20.2634 82.2873 18.0624 80.7633 16.1824 78.9093C14.3164 77.0363 12.8504 74.7103 12.0144 72.1413C11.1774 69.5753 10.9844 66.7813 11.4514 64.1213C11.9104 61.4663 12.8454 58.8793 14.3254 56.6773C14.7674 55.9213 16.5984 57.0983 16.2424 57.7933L15.4084 59.4183C15.1824 59.9793 14.9754 60.5453 14.7224 61.0923C14.4454 61.6343 14.3354 62.2263 14.1304 62.7903C13.9204 63.3563 13.8064 63.9403 13.6984 64.5263C13.2434 66.8593 13.2374 69.2843 13.8594 71.5933C14.4654 73.9043 15.6684 76.0613 17.2624 77.9073C18.8444 79.7823 20.8684 81.2473 23.0194 82.5233C23.9454 83.1023 23.7894 83.5623 22.7024 83.1903Z" fill="#333333" />
<path fill-rule="evenodd" clip-rule="evenodd" d="M88.7758 14.24C86.7368 11.483 84.4248 8.84405 81.7348 6.97905C81.0688 6.50605 80.3758 6.14105 79.6938 5.83705C79.0238 5.58505 78.3428 5.45505 77.9418 5.54005C77.7418 5.58305 77.6198 5.63205 77.5068 5.75905C77.4048 5.78905 77.2068 6.22905 77.0438 6.51105C76.8418 6.80105 76.7558 7.17905 76.6338 7.53305C76.5788 7.71305 76.5048 7.88505 76.4608 8.07205L76.3628 8.65505C75.9678 10.935 76.3008 13.447 76.7598 15.894C77.1778 18.065 77.7508 20.236 78.4628 22.374C79.1488 24.518 79.9538 26.636 80.8148 28.734C82.5528 32.924 84.5188 37.038 86.6888 41.046C88.6088 44.605 90.7368 48.08 92.9748 51.406C94.4208 53.537 95.9438 55.619 97.5148 57.6441C98.3008 58.6551 99.0948 59.66 99.9148 60.618C100.724 61.583 101.571 62.539 102.435 63.295C102.709 63.559 102.857 63.674 102.944 63.829C103.029 63.979 103.048 64.1221 102.99 64.2411C102.932 64.3601 102.796 64.456 102.56 64.51C102.326 64.565 101.969 64.575 101.596 64.477C100.012 64.141 97.6598 62.595 95.7788 60.189C92.4248 55.924 89.5348 51.417 86.8318 46.782C84.1568 42.136 81.7158 37.341 79.6278 32.357C78.3828 29.376 77.1378 26.322 76.0628 23.166C74.9978 20.011 74.0768 16.751 73.7088 13.354C73.5578 11.481 73.4728 9.56305 73.9218 7.60805C74.0248 7.12305 74.2158 6.64005 74.3648 6.15805C74.5028 5.67305 74.8218 5.22605 75.0498 4.76405C75.1158 4.64905 75.1708 4.53705 75.2448 4.42005L75.5728 4.03905C75.6888 3.91805 75.7948 3.78705 75.9238 3.68205L76.3558 3.40705C76.6448 3.20505 76.9558 3.11905 77.2718 3.03905C77.5928 2.93205 77.8868 2.93105 78.1858 2.92505C79.3638 2.93105 80.3798 3.26605 81.2588 3.70305C82.1658 4.12005 82.9638 4.65205 83.7378 5.20305C85.2648 6.32605 86.6038 7.61905 87.8568 8.97305C90.9258 12.325 93.3918 16.118 95.5198 20.052C98.7228 26.0331 101.067 32.455 102.764 38.935C104.106 43.969 105.154 48.986 105.776 54.113C105.898 55.2421 106.056 56.346 106.153 57.489C106.27 59.628 106.371 60.966 106.206 62.053C106.048 63.056 105.794 63.569 105.444 64.0061C105.284 64.2051 105.137 64.467 105.005 64.625C104.791 64.9421 104.404 64.516 104.23 63.706C104.133 63.303 104.068 62.799 104.013 62.225C103.967 61.648 103.886 61.064 103.797 60.2771C102.942 51.2901 101.315 41.912 98.2198 32.959C95.9188 26.337 92.8738 19.885 88.7278 14.287L88.7758 14.24Z" fill="#333333" />
<path fill-rule="evenodd" clip-rule="evenodd" d="M79.7006 26.6985C86.0826 20.7445 94.6386 37.2535 89.9546 45.4495C88.3876 48.1935 77.5006 28.7505 79.7006 26.6985Z" fill="#333333" />
<path fill-rule="evenodd" clip-rule="evenodd" d="M109.993 37.2489C109.855 37.3239 109.765 37.1639 109.651 36.8559C109.616 36.7579 109.608 36.4619 109.651 36.4189C109.733 36.3359 109.821 36.2529 109.912 36.1949C109.968 36.1559 110.797 36.0369 111.072 35.9929C111.34 35.9489 111.605 35.9539 111.865 35.9749L113.444 36.0929C113.56 36.1019 113.673 36.1339 113.783 36.1849C114.16 36.3559 114.551 36.4229 114.949 36.4559C115.015 36.4609 115.08 36.4809 115.153 36.4349C115.273 36.3589 116.338 36.5299 116.466 36.6029C116.784 36.7949 117.111 36.9379 117.433 37.0979C117.479 37.1219 117.534 37.1159 117.566 37.1899C117.641 37.3599 117.749 37.3609 117.851 37.3979C117.994 37.4379 118.128 37.5319 118.26 37.6279C118.326 37.6729 118.381 37.7729 118.441 37.8429C118.495 37.9089 118.436 38.0359 118.41 38.0509C118.335 38.0879 118.375 38.1689 118.37 38.2289C118.368 38.2499 118.366 38.2769 118.36 38.2939C118.352 38.3149 118.118 38.4039 117.87 38.5109C117.625 38.6009 117.376 38.6579 117.329 38.6579C117.309 38.6579 116.098 38.6429 115.912 38.6409C115.838 38.6439 115.771 38.5939 115.703 38.5589C115.67 38.5419 114.677 38.5049 114.639 38.4959C114.441 38.4449 114.229 38.4699 114.052 38.2999C114.016 38.2659 113.974 38.2669 113.934 38.2639C113.584 38.2299 113.247 38.1269 112.909 38.0219C112.736 37.9719 112.558 37.9589 112.382 37.9249C112.351 37.9189 112.322 37.8939 112.292 37.8789C112.253 37.8609 112.216 37.8359 112.176 37.8309C111.759 37.7709 111.353 37.6349 110.934 37.6319C110.839 37.6299 110.402 37.4249 110.293 37.4379C110.232 37.4389 110.049 37.2159 109.993 37.2489Z" fill="#333333" />
<path fill-rule="evenodd" clip-rule="evenodd" d="M42.8498 102.871C40.3638 103.834 37.5898 104.307 34.8888 103.967C33.9097 103.85 32.9237 103.718 31.9917 103.408C31.5857 103.261 31.1748 103.127 30.7847 102.949L30.1938 102.687L29.5608 102.338C28.7657 101.848 28.1138 101.298 27.5017 100.729C26.2847 99.5913 25.2197 98.3823 24.1788 97.1623C23.2578 96.0793 22.3177 95.0163 21.3858 93.9723C20.1908 92.6333 18.9148 91.3383 18.0088 89.8153C17.4218 88.8513 20.3148 88.2543 21.6518 89.8603C23.9917 92.6423 26.1667 95.5003 28.4718 98.1723C29.1628 98.9473 29.9747 99.6663 30.7847 100.127C31.1427 100.332 31.6557 100.533 32.1447 100.698C32.6357 100.865 33.1318 101.008 33.6307 101.126C35.8218 101.671 38.1497 101.586 40.3848 100.937C41.7267 100.522 43.1917 99.9783 44.2197 99.2123C44.5977 98.9093 44.9387 98.5913 45.1227 98.1773L45.2978 97.8853C45.3448 97.7853 45.3547 97.6793 45.3878 97.5783L45.4818 97.2693L45.4797 96.9483C45.4917 96.0863 44.9748 95.1533 44.2908 94.3553C43.2168 93.0903 41.7488 92.1643 40.3267 91.1423C40.0128 90.9203 39.6787 90.7063 39.3657 90.4643C38.1967 89.5453 37.9258 88.9443 38.2598 88.2433C38.3337 88.0823 38.3978 87.9103 38.4998 87.7813C38.6728 87.5613 38.9487 87.4943 39.2507 87.5303C39.5367 87.5673 39.9118 87.7123 40.3188 87.9823C41.5818 88.7843 42.9658 89.6553 44.3078 90.7513C44.9778 91.3173 45.6478 91.9093 46.2728 92.6543C46.9028 93.3593 47.4958 94.2693 47.8768 95.3873C47.9848 95.8363 48.1388 96.2533 48.1198 96.7583C48.1248 97.0023 48.1238 97.2473 48.1168 97.4893C48.0928 97.7293 48.0217 97.9653 47.9667 98.2023C47.9017 98.4343 47.8498 98.6833 47.7558 98.8933L47.4358 99.4943C47.2268 99.8963 46.9668 100.273 46.6628 100.588C45.4307 101.873 44.0807 102.409 42.8787 102.931L42.8498 102.871Z" fill="#333333" />
<path fill-rule="evenodd" clip-rule="evenodd" d="M104.579 11.4612C104.466 11.7252 104.165 11.7412 103.753 11.6152C103.621 11.5752 103.364 11.3102 103.38 11.2182C103.411 11.0392 103.445 10.8612 103.501 10.7012C103.535 10.6042 104.432 9.40722 104.726 8.98722C105.015 8.58422 105.339 8.21723 105.686 7.87022C106.39 7.16523 107.094 6.45622 107.816 5.76522C107.977 5.61123 108.152 5.47323 108.339 5.34923C108.983 4.92723 109.549 4.42122 110.095 3.89122C110.185 3.80222 110.29 3.72522 110.339 3.59522C110.42 3.38022 111.967 2.01822 112.219 1.90622C112.814 1.58823 113.378 1.23322 113.953 0.895225C114.035 0.847225 114.099 0.766225 114.212 0.770225C114.478 0.779225 114.623 0.636225 114.793 0.523225C115.024 0.358225 115.285 0.232225 115.551 0.112225C115.683 0.0542249 115.848 0.0382249 115.997 0.00322491C116.133 -0.0267751 116.2 0.161225 116.181 0.207225C116.123 0.336225 116.263 0.344225 116.323 0.398225C116.344 0.417225 116.37 0.441225 116.38 0.463225C116.392 0.500225 115.513 1.97722 115.372 2.08222C115.357 2.09622 114.927 2.51423 114.473 2.95522C114.024 3.39722 113.562 3.86422 113.474 3.96522C113.381 4.07123 113.245 4.12822 113.121 4.19823C113.059 4.23023 111.736 5.56323 111.68 5.61123C111.373 5.84923 111.13 6.15823 110.736 6.29523C110.658 6.32323 110.605 6.38223 110.55 6.43622C110.073 6.90123 109.54 7.30522 109.026 7.73123C108.765 7.95022 108.529 8.19722 108.283 8.43322C108.238 8.47622 108.177 8.50123 108.126 8.53623C108.06 8.58022 107.99 8.61823 107.934 8.67222C107.367 9.24722 106.725 9.74923 106.189 10.3592C106.065 10.4992 105.301 10.9952 105.164 11.1642C105.088 11.2572 104.624 11.3552 104.579 11.4612Z" fill="#333333" />
<path fill-rule="evenodd" clip-rule="evenodd" d="M104.512 25.012C104.416 25.103 104.304 25.131 104.174 25.113C104.07 25.096 103.934 25.035 103.756 24.96C103.644 24.911 103.451 24.678 103.505 24.591C103.602 24.429 103.744 24.239 103.856 24.129C103.938 24.023 105.275 23.297 105.724 23.053C106.158 22.819 106.612 22.624 107.07 22.455C107.997 22.097 108.924 21.75 109.862 21.436C110.07 21.365 110.283 21.311 110.501 21.275C111.25 21.148 111.967 20.924 112.673 20.663C112.79 20.619 112.915 20.591 113.013 20.498C113.174 20.344 115.118 19.725 115.384 19.693C116.044 19.61 116.691 19.481 117.347 19.386C117.441 19.372 117.53 19.323 117.633 19.368C117.87 19.474 118.056 19.392 118.255 19.348C118.531 19.288 118.809 19.237 119.095 19.213C119.236 19.202 119.394 19.254 119.546 19.287C119.683 19.318 119.685 19.57 119.651 19.607C119.55 19.716 119.68 19.798 119.719 19.891C119.732 19.923 119.749 19.965 119.751 19.992C119.753 20.051 118.333 20.923 118.166 20.976C118.128 20.99 115.946 21.787 115.666 21.889C115.538 21.945 115.392 21.948 115.251 21.965C115.184 21.972 113.427 22.644 113.354 22.662C112.977 22.759 112.623 22.931 112.211 22.908C112.129 22.904 112.056 22.935 111.983 22.961C111.352 23.182 110.698 23.328 110.052 23.499C109.72 23.584 109.403 23.71 109.078 23.812C109.019 23.83 108.954 23.828 108.892 23.837C108.815 23.849 108.735 23.854 108.661 23.878C107.896 24.133 107.106 24.311 106.366 24.623C106.198 24.695 105.312 24.841 105.132 24.942C105.028 24.993 104.584 24.933 104.512 25.012Z" fill="#333333" />
</svg>
