<svg width="99" height="117" viewBox="0 0 99 117" fill="none" xmlns="http://www.w3.org/2000/svg">
<path fill-rule="evenodd" clip-rule="evenodd" d="M71.2171 73.5235C71.1761 70.9025 71.3811 68.3085 71.9981 65.7685C72.5931 63.2305 73.5401 60.7985 74.6761 58.5125C75.0951 57.6815 75.5101 56.8495 75.9531 56.0395L76.6241 54.8305C76.8421 54.4325 77.1501 53.9695 77.4061 53.6045C78.5231 52.0365 79.6361 50.5605 80.6121 49.0165C81.1071 48.2525 81.5581 47.4705 81.9031 46.6925C82.2561 45.9595 82.4461 45.0095 82.3371 44.8385C82.3061 44.7125 82.1911 44.6305 82.0761 44.5805C82.0161 44.5525 81.9621 44.5345 81.8861 44.5185C81.7801 44.4905 81.6421 44.4735 81.5141 44.4555C80.9751 44.4025 80.3801 44.4275 79.7871 44.5155C78.5991 44.6885 77.4091 45.0625 76.3001 45.5865C75.0971 46.1565 73.9841 46.9275 73.0701 47.8725C72.1621 48.7995 71.4451 49.9825 70.7661 51.1675C69.0361 54.2455 67.8351 57.6795 65.9271 60.8415C65.3051 61.8265 64.9611 61.4245 64.9671 60.3635C64.9731 59.2995 65.2241 57.5315 66.0421 55.6115C66.7741 53.9125 67.5291 52.1935 68.4271 50.4965C68.8791 49.6475 69.3741 48.8045 69.9511 47.9905C70.5061 47.1805 71.2441 46.3375 72.0191 45.6645C73.5941 44.2885 75.4381 43.3205 77.3921 42.7375C78.3711 42.4455 79.3841 42.2545 80.4491 42.2035C80.9861 42.1855 81.5311 42.1965 82.1281 42.3075C82.4091 42.3595 82.8961 42.4845 83.2321 42.6685C83.5881 42.8565 83.9131 43.1055 84.1311 43.4385C84.1921 43.5515 84.2671 43.6535 84.3161 43.7735C84.4411 44.2285 84.5901 44.6805 84.5451 45.1745C84.5581 45.5935 84.4431 45.8815 84.3881 46.2395C84.2991 46.5555 84.1961 46.8585 84.0921 47.1595L83.7321 48.0045C83.2201 49.0955 82.6251 50.0895 82.0031 51.0605C81.3781 52.0275 80.7251 52.9645 80.0771 53.8845L79.1331 55.2435C78.8501 55.6565 78.5871 56.1295 78.3021 56.6135C77.0711 58.7455 75.9571 60.9255 75.1281 63.2035C74.2951 65.4785 73.7781 67.8565 73.5671 70.2785C73.3411 73.2565 73.5701 76.2695 74.2451 79.2115C75.2301 83.6785 77.1051 87.9725 79.3441 91.9655C81.1121 95.0665 83.1971 97.8935 85.3701 100.671C85.8581 101.276 86.3351 101.868 86.8261 102.479C88.6511 104.738 89.1001 105.563 89.0401 106.424C89.0261 106.62 89.0411 106.853 88.9901 107.003C88.8241 107.507 87.7591 106.835 86.2881 105.24C82.0111 100.451 78.0761 94.8135 75.1271 88.5485C74.0621 86.2095 73.1211 83.7945 72.4221 81.2825C71.7491 78.7645 71.3001 76.1695 71.1601 73.5325L71.2171 73.5235Z" fill="#333333"/>
<path fill-rule="evenodd" clip-rule="evenodd" d="M54.9755 18.1343C55.3155 17.3813 55.7875 16.7713 56.4395 16.4883C57.0945 16.1573 57.9005 16.2603 58.5145 16.5973C58.6815 16.6533 58.8265 16.7813 58.9695 16.9113C59.1105 17.0443 59.2695 17.1413 59.3945 17.3023C59.6375 17.6233 59.9195 17.9273 60.1255 18.2583C60.4265 18.7363 60.6355 19.1363 60.8535 19.5793C61.7005 21.3033 62.2455 23.0763 62.6465 24.8913C62.9395 26.2083 63.2115 27.5543 63.2875 28.9103C63.5555 33.5413 63.4365 38.1183 63.3445 42.6873C63.2945 44.7143 63.3155 46.7493 63.3095 48.7543C63.3115 50.0393 63.3145 51.3273 63.3165 52.6143C63.3605 53.8863 63.1965 55.1993 63.2935 56.3963C63.3305 56.7593 63.3085 56.8283 63.2215 56.9063C63.1435 56.9743 62.9125 56.8813 62.6835 56.5493C62.4495 56.2313 62.2115 55.7493 61.9855 55.1623C61.7865 54.5733 61.5075 53.8813 61.4805 53.1283C61.0335 47.8033 61.2835 42.5703 61.3825 37.2813C61.4475 34.1423 61.2405 30.7943 60.8275 27.7203C60.5685 26.0373 60.1225 24.3623 59.5455 22.7473C59.2625 21.9403 58.9465 21.1433 58.5765 20.3943C58.4785 20.2133 58.3905 20.0193 58.2875 19.8473L58.1425 19.6013C58.1115 19.5473 58.0915 19.5113 58.0615 19.4703C57.9565 19.3073 57.8325 19.1403 57.6595 19.0303C57.4315 18.8753 57.1445 19.0323 57.0325 19.2523C56.9645 19.3583 56.9145 19.4773 56.8715 19.5993C56.8275 19.7193 56.7915 19.8463 56.7205 20.1283C56.4725 21.1253 56.3505 22.2073 56.2685 23.2843C56.0265 26.5663 55.9755 29.9213 55.8655 33.2373C55.7745 35.8183 55.7675 38.3593 55.3505 40.9693C55.2545 41.5443 55.1565 42.1143 54.9795 42.6983C54.3305 44.8813 53.2805 45.4943 52.5905 45.2993C52.4335 45.2723 52.2585 45.2503 52.1685 45.2013C52.0065 45.1073 52.1045 44.9123 52.2085 44.5633C52.2995 44.2043 52.5015 43.8173 52.7395 43.2023C53.0925 42.2953 53.2895 41.2233 53.4375 40.1333C53.5875 39.0373 53.6775 37.9013 53.7345 36.7483C53.8505 34.4393 53.8795 32.0633 53.9145 29.6653C53.9415 27.8833 53.9705 26.0883 54.0585 24.2663C54.1025 23.3563 54.1645 22.4373 54.2665 21.5033C54.3045 21.0323 54.3555 20.5573 54.4295 20.0693C54.4675 19.8203 54.5095 19.5873 54.5675 19.3123C54.6575 18.9303 54.7655 18.5153 54.9235 18.1063L54.9755 18.1343Z" fill="#333333"/>
<path fill-rule="evenodd" clip-rule="evenodd" d="M57.2909 62.0894C56.4599 59.8664 55.4869 57.6704 54.3739 55.5524C53.9689 54.7774 53.4819 54.0524 53.0449 53.3004C51.5019 50.6734 49.7589 48.0484 47.5099 46.1764C46.5139 45.3904 45.2829 44.8214 44.3969 45.3284C43.7959 45.6104 43.3219 46.2444 43.0059 46.9284C42.6809 47.6204 42.5009 48.3964 42.5259 49.1574C42.5629 49.6064 42.2419 49.7334 41.7569 49.3184C41.2879 48.9194 40.7979 47.8014 41.1439 46.5604C41.4549 45.4914 42.0819 44.4534 43.1669 43.7104C43.7209 43.3544 44.4019 43.1234 45.0969 43.0854C45.4469 43.0794 45.7919 43.0974 46.0809 43.1724C46.3929 43.2254 46.6869 43.3034 46.9469 43.4144C49.0949 44.2724 50.4469 45.7424 51.6099 47.2694C52.9939 49.0984 54.3999 50.9534 55.5769 52.9204C56.8529 55.0874 57.9679 57.3344 58.9409 59.6434C59.5389 61.0654 60.0779 62.5124 60.5529 63.9864C60.9099 65.1054 61.2209 66.2464 61.4379 67.4244C61.6299 68.6104 61.8319 69.8084 61.4849 71.2084C61.2579 71.8064 60.9949 72.2544 60.5489 72.6624C60.1319 73.0744 59.4859 73.3914 58.8569 73.4144C57.5789 73.4834 56.6209 72.9274 55.7919 72.3994C55.4349 72.1504 55.0859 71.9074 54.7679 71.6184C54.2109 71.0554 53.9059 70.6374 53.7949 70.2694C53.6959 69.8924 53.7659 69.5864 53.9139 69.2814C53.9799 69.1434 54.0269 68.9934 54.0999 68.8924C54.2229 68.7184 54.4399 68.7044 54.7679 68.7714C55.0979 68.8374 55.4989 69.0084 55.8739 69.3184C56.4559 69.7524 57.0259 70.1824 57.5819 70.4924C58.1229 70.8154 58.7009 70.9474 58.8039 70.8664C58.8649 70.8344 58.8449 70.8534 58.9219 70.7564C58.9579 70.7394 59.0059 70.6554 59.0589 70.5764C59.1459 70.4854 59.0769 70.4824 59.1189 70.4584C59.2069 70.2014 59.2309 69.4694 59.1269 68.7814C58.8459 66.6554 58.0929 64.3244 57.2349 62.1154L57.2909 62.0894Z" fill="#333333"/>
<path fill-rule="evenodd" clip-rule="evenodd" d="M50.8476 65.7603C49.6736 63.0723 47.9646 60.4893 46.0946 58.0793C45.3946 57.2073 44.6326 56.3903 43.8826 55.5653C42.5666 54.1053 41.1626 52.7203 39.6646 51.4773C38.9026 50.8853 38.1246 50.2913 37.2966 49.8473C36.4816 49.4083 35.5876 49.0463 34.8246 49.0893C34.4816 49.0963 34.2236 49.2393 33.9896 49.4163C33.8746 49.5263 33.7666 49.6743 33.6586 49.8073C33.5806 49.9743 33.4746 50.1173 33.4106 50.2983C33.1326 51.0013 33.0536 51.8373 33.0666 52.6653C33.0966 53.7383 33.2946 54.8263 33.5436 55.8973C33.8216 56.9623 34.0196 58.0583 34.3346 59.1213C34.5236 59.7773 34.1886 59.8563 33.5946 59.4413C33.0286 59.0213 32.1306 58.0943 31.7366 56.7573C31.4296 55.5673 31.2076 54.3453 31.1526 53.0643C31.1186 51.7933 31.1686 50.4103 31.9626 49.0203C32.1376 48.6753 32.4296 48.3613 32.7306 48.0603C33.1046 47.7613 33.5016 47.4973 33.9496 47.3953C34.3976 47.2203 34.7906 47.2813 35.2086 47.2443C35.5736 47.2953 35.9696 47.3243 36.2996 47.4263C37.6526 47.8033 38.7406 48.4573 39.7546 49.1663C42.1416 50.8923 44.3926 52.8583 46.3546 55.0423C48.5036 57.4423 50.4346 60.0353 52.0116 62.8783C52.9546 64.6403 53.8386 66.4743 54.1406 68.6113C54.2276 69.4173 54.2616 70.3023 53.8776 71.1803C53.8106 71.4033 53.6846 71.6063 53.5376 71.8013C53.3966 71.9963 53.2686 72.2033 53.0716 72.3423C52.7356 72.6423 52.2876 72.9813 51.7456 73.0593C50.7006 73.2143 49.8756 72.8683 49.1576 72.5293C48.4336 72.1733 47.7906 71.7463 47.1726 71.3043C45.2646 69.9193 43.5396 68.4413 41.8986 66.8643C41.5466 66.5083 41.1896 66.1733 40.8536 65.8003C39.5926 64.4303 39.4396 63.7953 39.5726 63.1313C39.6076 62.9763 39.6196 62.8023 39.6756 62.6773C39.8496 62.2593 40.6706 62.5523 41.7816 63.3673C42.5556 64.0103 43.3356 64.6573 44.1216 65.3103C44.8676 65.9783 45.6196 66.6513 46.3776 67.3293C47.1406 67.9823 47.8856 68.6463 48.6456 69.2383C49.3926 69.8163 50.2086 70.3573 50.8346 70.5713C51.0606 70.6543 51.2426 70.6823 51.2756 70.6703C51.3056 70.6673 51.2426 70.6993 51.3966 70.5813C51.5876 70.4213 51.7296 70.1493 51.7806 69.6273C51.8166 68.5433 51.3926 67.1093 50.7956 65.7883L50.8476 65.7603Z" fill="#333333"/>
<path fill-rule="evenodd" clip-rule="evenodd" d="M29.1117 69.3493C26.8307 65.0073 23.8717 60.9853 20.9987 56.8613C19.9467 55.3483 18.8737 53.8713 17.8687 52.3163C16.9857 50.9393 16.1477 49.5153 15.4297 48.0033C15.0817 47.2393 14.7427 46.4683 14.4947 45.6393C14.2277 44.8213 14.0017 43.9663 13.9697 43.0313C13.9437 42.8053 13.9697 42.5603 13.9817 42.3233C13.9897 42.2013 13.9927 42.0883 14.0077 41.9603L14.1227 41.4943C14.2607 40.8803 14.6357 40.2823 15.2087 40.0143C15.7737 39.7283 16.4437 39.7493 17.0557 39.9003C17.5317 40.0593 17.9627 40.2553 18.3397 40.4813C19.8617 41.3913 21.0567 42.4563 22.2947 43.5633C24.4337 45.5473 26.4127 47.6863 28.1917 49.9423C30.4357 52.8523 32.5907 55.9453 33.7957 59.4783C34.1576 60.5833 33.8777 60.5053 33.2287 59.7443C32.5807 58.9773 31.4307 57.6313 30.2907 55.9353C28.2557 52.9223 25.8537 50.1573 23.3717 47.5163C22.1117 46.2123 20.7997 44.9643 19.4037 43.8543C18.6877 43.2873 17.9877 42.7463 17.2917 42.3533C17.1167 42.2483 16.9517 42.1733 16.7867 42.0933L16.4317 41.9543C16.3377 41.9163 16.2137 41.9073 16.1267 41.9853C15.9637 41.9393 15.8137 43.2253 16.0477 44.1643C16.2377 45.1783 16.6547 46.1983 17.1307 47.1943C18.0957 49.1943 19.3607 51.0913 20.6327 52.9923C23.4017 57.1713 26.4507 61.2193 29.1077 65.5783C29.9237 66.9183 30.6977 68.2893 31.3977 69.7013C32.1107 71.0933 32.7097 72.5993 33.3427 73.9643C35.2327 78.1903 37.9247 82.0863 41.0317 85.4973C43.4677 88.1363 46.1777 90.4183 49.0657 92.4383C49.6977 92.8893 50.3237 93.3183 50.9786 93.7403C53.3836 95.3403 54.1427 95.8393 54.5797 96.4163C54.6786 96.5503 54.8237 96.6993 54.8736 96.8043C55.0647 97.1313 53.7916 96.9753 51.7407 96.0773C50.2177 95.4163 48.8087 94.5243 47.3857 93.6183C46.0206 92.6383 44.6707 91.6023 43.4017 90.4563C40.8407 88.1903 38.4737 85.6283 36.3907 82.8323C34.8637 80.7423 33.4567 78.5463 32.2907 76.2093C31.9847 75.6343 31.7417 75.0253 31.4647 74.4343C31.1887 73.8293 30.9297 73.2473 30.6947 72.6953C30.2066 71.5683 29.6597 70.4643 29.0737 69.3773L29.1117 69.3493Z" fill="#333333"/>
<path fill-rule="evenodd" clip-rule="evenodd" d="M71.4827 104.061L69.2087 104.465C68.4457 104.561 67.6887 104.683 66.9277 104.763C66.3717 104.814 65.8227 104.92 65.2667 104.967C63.2987 105.071 61.3327 105.087 59.3747 104.895C58.5067 104.862 57.6337 104.732 56.7707 104.685L55.1077 104.44C54.5557 104.332 54.0147 104.132 53.4977 103.914C53.1727 103.771 53.3377 103.458 53.7167 103.202C54.0977 102.947 54.6727 102.732 55.2407 102.859C57.3227 103.2 59.4657 103.269 61.6537 103.386C62.3097 103.42 62.9797 103.406 63.6497 103.329C64.3217 103.268 64.9947 103.193 65.6607 103.099C66.3957 103.015 67.1317 102.929 67.8607 102.798C68.5947 102.692 69.3237 102.561 70.0467 102.396C70.9457 102.228 71.8217 101.981 72.7017 101.742C73.3627 101.546 74.0107 101.311 74.6697 101.103C75.3027 100.843 75.9507 100.603 76.5497 100.289C77.4837 99.8007 78.3007 99.1567 79.0217 98.4947C79.1717 98.3417 79.3027 98.1787 79.4777 98.0517C80.0637 97.5447 80.2547 97.4147 80.7537 97.5137C80.8607 97.5337 80.9777 97.5397 81.0747 97.5687C81.4017 97.6597 81.4217 98.1057 81.0857 98.8137C80.8367 99.3327 80.4757 99.7277 80.0967 100.154C79.7077 100.539 79.2787 100.863 78.8367 101.197C77.9377 101.789 76.9797 102.304 75.9947 102.709C74.5417 103.354 73.0047 103.718 71.4967 104.107L71.4827 104.061Z" fill="#333333"/>
<path fill-rule="evenodd" clip-rule="evenodd" d="M73.5658 107.562C73.5128 107.46 73.3998 107.29 73.2268 107.291C73.1308 107.347 73.1358 107.458 73.1388 107.576C73.1418 107.637 73.1518 107.703 73.1638 107.774L73.1848 107.885L73.1908 107.916L73.2368 108.062L73.3368 108.374C73.6078 109.217 73.9038 110.055 74.1698 111.017C74.2298 111.264 74.2918 111.514 74.3398 111.815C74.3648 111.96 74.3878 112.121 74.3988 112.324C74.4068 112.406 74.4098 112.521 74.3988 112.668C74.3858 112.811 74.3948 112.901 74.3228 113.159C74.2918 113.269 74.2538 113.377 74.2108 113.48C74.1678 113.585 74.0358 113.789 73.9158 113.921C73.6758 114.214 73.3158 114.396 72.9298 114.482C72.6128 114.537 72.4408 114.506 72.1948 114.476C72.0178 114.438 71.9288 114.4 71.7948 114.354C71.5308 114.256 71.4458 114.184 71.2668 114.091C71.1308 114.007 71.0268 113.935 70.8368 113.799C70.7478 113.741 70.6788 113.658 70.5978 113.591C69.9928 112.948 69.8718 112.589 69.6048 112.187L68.9368 111.023L67.6728 108.757C67.3028 108.105 66.9288 107.457 66.5428 106.867C66.3508 106.574 66.1498 106.294 65.9748 106.086C65.9378 106.047 65.8838 105.977 65.8628 105.962L65.8278 105.927C65.8238 105.922 65.8118 105.908 65.8228 105.92C65.8478 105.901 65.9308 105.791 65.9748 105.724C66.1848 105.351 66.2948 105.16 66.2828 104.999C66.2878 104.99 66.2908 104.977 66.2878 104.961C66.2838 104.941 66.2688 104.922 66.2938 104.972C66.3098 105.001 66.3328 105.024 66.3568 105.04C66.3808 105.055 66.3958 105.051 66.4688 105.116C66.5898 105.208 66.7258 105.269 66.8648 105.297C66.9168 105.296 67.0468 105.358 67.1548 105.392L67.2338 105.418V105.421L67.2328 105.426C67.2318 105.432 67.2288 105.437 67.2228 105.443L67.2148 105.527C67.1958 105.625 67.1958 105.79 67.1918 105.941C67.1888 106.096 67.2018 106.274 67.2048 106.441C67.2108 106.57 67.2248 106.674 67.2538 106.837C67.3768 107.463 67.6068 108.197 67.8288 108.911L68.5248 111.119C68.7478 111.887 68.9838 112.615 69.1028 113.574C69.1208 113.835 69.1578 114.085 69.0728 114.519C69.0478 114.634 68.9908 114.791 68.9328 114.916C68.8638 115.062 68.7058 115.267 68.5548 115.397C68.1428 115.719 67.6908 115.74 67.4248 115.7C67.3078 115.68 67.1918 115.652 67.0788 115.62L66.8448 115.522C66.6768 115.452 66.5878 115.387 66.4678 115.317C66.2778 115.193 65.9938 115.012 65.7948 114.797C65.3588 114.308 65.1968 113.914 65.0088 113.544C64.8338 113.166 64.6808 112.799 64.5348 112.435C64.0178 111.146 63.5408 109.88 62.9878 108.681C62.7118 108.091 62.4168 107.499 62.0908 107.028C61.9388 106.802 61.7298 106.589 61.6698 106.567C61.6688 106.558 61.6478 106.601 61.7058 106.463C61.7368 106.416 61.7608 106.36 61.7748 106.298C61.7888 106.214 61.7908 106.208 61.7948 106.192C61.7998 106.186 61.7878 106.115 61.7948 106.167C61.7998 106.193 61.8098 106.213 61.8208 106.226C61.8398 106.274 61.8768 106.348 61.9158 106.394C61.9358 106.418 61.9578 106.441 61.9808 106.461L61.9898 106.468L62.0328 106.518V106.519L62.0318 106.52L62.0288 106.524L62.0228 106.534L61.9938 106.568C61.9028 106.668 61.8728 106.8 61.8928 107.071C61.9178 107.333 62.0228 107.666 62.1708 107.999C62.4728 108.668 62.9148 109.358 63.3818 110.03C63.8558 110.704 64.3708 111.367 64.8988 112.026C65.4358 112.677 65.9008 113.403 66.4258 114.084C67.0618 114.95 66.6768 115.154 65.6438 114.875C65.1278 114.734 64.4448 114.475 63.6798 114.073C62.9408 113.649 62.1928 113.017 61.5188 112.183C60.9328 111.435 60.3508 110.656 59.8718 109.713C59.6348 109.236 59.4128 108.722 59.2578 108.097C59.1208 107.481 58.9898 106.691 59.3418 105.742C59.5038 105.279 59.8198 104.847 60.1668 104.523C60.2228 104.456 60.4338 104.302 60.5798 104.212C60.7238 104.113 60.9378 104.018 61.1738 103.953C61.6028 103.811 62.1828 103.859 62.5078 103.982C63.2348 104.24 63.5488 104.593 63.7908 104.842C64.0458 105.114 64.2068 105.356 64.3768 105.59C64.9948 106.511 65.3848 107.351 65.7778 108.194C66.1608 109.034 66.5058 109.863 66.8468 110.667L67.3568 111.837C67.5218 112.196 67.7118 112.592 67.8098 112.773C67.8018 112.785 67.8398 112.836 67.8318 112.833C67.8168 112.827 67.8778 112.873 67.8938 112.887L67.9478 112.926C67.9628 112.938 67.9928 112.962 67.9768 112.952C67.9698 112.963 67.9838 112.924 67.9598 112.978L67.8858 113.151C67.8398 113.268 67.7998 113.388 67.7668 113.511C67.6918 113.674 67.6468 113.831 67.6408 114.01C67.6178 114.13 67.6228 114.222 67.6498 114.288C67.6378 114.294 67.6868 114.339 67.6118 114.266C67.5878 114.257 67.4578 114.17 67.3218 114.138C67.2288 114.135 66.9518 114.039 66.7658 114.041C66.6598 114.033 66.5748 114.044 66.4158 114.025C66.3128 114.019 66.3578 114.019 66.3478 114.017L66.3498 114.012C66.3618 114.016 66.3528 113.928 66.3578 113.882C66.3158 113.279 66.0868 112.386 65.8678 111.562C65.5678 110.521 65.2648 109.472 64.9598 108.416C64.8178 107.867 64.6368 107.265 64.6018 106.522C64.5838 106.225 64.5788 105.905 64.5888 105.568C64.6048 105.377 64.6138 105.207 64.6518 104.984L64.7408 104.615C64.7878 104.466 64.8968 104.245 65.0008 104.081C65.0748 103.973 65.2308 103.814 65.3728 103.709C65.5148 103.596 65.6738 103.511 65.8958 103.46C66.0878 103.41 66.3598 103.394 66.4828 103.42C66.6128 103.442 66.7458 103.477 66.8728 103.522C67.2858 103.694 67.4598 103.867 67.6188 104.005C67.9298 104.295 68.1258 104.546 68.3178 104.797C68.6928 105.296 69.0038 105.781 69.3038 106.267C69.8968 107.237 70.4328 108.208 70.9778 109.153L71.8118 110.605C71.9508 110.838 72.0908 111.072 72.2268 111.277C72.3978 111.528 72.3858 111.531 72.4808 111.618C72.4908 111.619 72.5708 111.679 72.6328 111.715C72.6678 111.729 72.7658 111.791 72.7428 111.773C72.7388 111.781 72.7468 111.752 72.7318 111.791L72.6778 111.965C72.6438 112.069 72.6288 112.236 72.6038 112.296C72.5458 112.408 72.5628 112.611 72.5788 112.687C72.5568 112.719 72.6428 112.809 72.5678 112.727C72.5368 112.702 72.5438 112.723 72.4798 112.687C72.4128 112.649 72.3418 112.623 72.2708 112.61C72.1708 112.611 71.8808 112.544 71.6468 112.544C71.6178 112.562 71.6428 112.555 71.6298 112.52C71.6288 112.481 71.6198 112.411 71.6038 112.328C71.5758 112.171 71.5288 111.979 71.4728 111.787C71.2608 110.998 70.9658 110.143 70.6908 109.282L70.4538 108.531C70.3438 108.191 70.2458 107.853 70.1558 107.516C69.9828 106.847 69.8338 106.178 69.7968 105.592C69.7238 104.379 69.8668 103.577 70.5988 102.743C70.6878 102.697 70.8048 102.691 70.9068 102.663C71.8098 102.441 72.6148 102.683 73.3308 103.15C74.0538 103.617 74.7678 104.41 75.3998 105.338L75.8698 106.029L76.2058 106.546L76.8028 107.457C77.2008 108.04 77.6148 108.604 78.0508 109.006C78.2708 109.207 78.4928 109.356 78.6738 109.421C78.7658 109.459 78.8428 109.476 78.9208 109.472C78.9598 109.478 78.9998 109.476 79.0408 109.464L79.1028 109.457H79.1068C78.9138 108.733 79.3718 110.443 79.3238 110.267V110.268L79.3228 110.269V110.277C79.3218 110.284 79.3418 110.296 79.3118 110.274C79.2798 110.256 79.2368 110.264 79.1248 110.254C79.0368 110.258 78.9568 110.289 78.7948 110.312C78.7258 110.326 78.6578 110.343 78.5898 110.365L78.4908 110.399L78.4928 110.403L78.4728 110.35L78.3838 110.163L78.1318 109.718L77.5468 108.788L76.3118 106.886C76.1058 106.561 75.9018 106.233 75.7038 105.886C75.5078 105.527 75.3068 105.2 75.1458 104.663C75.0518 104.301 74.9508 103.947 74.8658 103.534C74.8258 103.326 74.7878 103.107 74.7788 102.84C74.7768 102.587 74.7788 102.216 75.0508 101.797C75.1998 101.578 75.4058 101.43 75.6318 101.324C75.8138 101.258 76.0478 101.198 76.1828 101.206C76.5118 101.187 76.7428 101.238 76.9708 101.286C77.1938 101.336 77.3988 101.399 77.5878 101.468C77.8068 101.533 78.0758 101.68 78.2598 101.799C78.9718 102.282 79.5088 102.725 80.1098 103.139C80.6978 103.548 81.2908 103.93 81.8858 104.207C82.4738 104.485 83.0848 104.673 83.5288 104.646C83.9708 104.611 84.1598 104.448 84.4248 104.079L84.7878 105.79L83.5408 105.092C82.8768 104.707 82.2158 104.345 81.5648 103.912C80.3568 103.115 79.6048 102.463 79.1648 101.876C78.9428 101.562 78.8028 101.312 78.7288 101.017C78.6858 100.728 78.7118 100.433 78.7768 100.179C78.8168 99.9687 78.9218 99.6907 79.0268 99.6347C79.1238 99.5717 79.2138 99.6157 79.3588 99.6367C79.4288 99.6487 79.4868 99.6417 79.5538 99.6387C79.6518 99.6587 79.7578 99.6767 79.8608 99.6867C80.1408 99.7017 80.3598 99.8277 80.6698 100.004C80.9758 100.176 81.3418 100.392 81.7508 100.651C83.1598 101.537 84.7188 102.406 86.2848 103.252L88.1428 104.256L86.8228 105.791C86.5258 106.137 86.2948 106.502 85.8718 106.79C85.6658 106.935 85.4508 107.073 85.2328 107.199C84.9998 107.297 84.7538 107.377 84.5078 107.45C83.5308 107.69 82.5978 107.558 81.9088 107.331C80.4638 106.88 79.4418 106.169 78.4668 105.485L77.1078 104.48C76.9188 104.337 76.6658 104.175 76.6658 104.175C76.6508 104.171 76.7058 104.184 76.5928 104.15C76.4938 104.114 76.4148 104.093 76.3578 104.083C76.3328 104.078 76.2768 104.057 76.2818 104.065L76.2718 104.066L76.2668 104.064L76.2798 103.842C76.3478 103.353 76.2928 102.911 76.2228 102.715C76.1828 102.633 76.1938 102.637 76.1808 102.609C76.1758 102.592 76.1408 102.553 76.1408 102.553C76.1808 102.591 76.1438 102.56 76.2758 102.635C76.3278 102.659 76.3688 102.666 76.4298 102.678C76.5218 102.709 76.6148 102.73 76.7078 102.74C76.8478 102.742 77.1778 102.787 77.4518 102.772L77.6498 102.757C77.6488 102.749 77.6508 102.762 77.6508 102.762L77.6558 102.787C77.6538 102.796 77.6608 102.833 77.6698 102.873C77.6778 102.937 77.7068 103.048 77.7288 103.148L77.9298 103.894C77.9288 103.888 77.9298 103.895 77.9508 103.944C78.0878 104.241 78.3958 104.767 78.6908 105.232L79.6488 106.716C79.9798 107.228 80.3128 107.734 80.6588 108.322L80.9278 108.803C81.0248 109.007 81.1188 109.149 81.2588 109.597C81.2938 109.75 81.3358 109.816 81.3538 110.205C81.3558 110.284 81.3538 110.363 81.3488 110.441C81.3468 110.517 81.3008 110.788 81.2368 110.953C81.1698 111.142 81.0758 111.321 80.9678 111.474C80.8328 111.661 80.6198 111.866 80.3828 112.009C80.2648 112.081 80.1408 112.141 80.0188 112.186L79.8508 112.241L79.8358 112.244L79.7758 112.256L79.6558 112.28L79.4148 112.321C79.0978 112.367 78.7428 112.363 78.4268 112.313C77.0838 112.084 76.3608 111.362 75.8108 110.822C75.2698 110.248 74.8738 109.69 74.5058 109.153L73.5938 107.749C73.5828 107.722 73.5678 107.692 73.5488 107.66L73.5658 107.562Z" fill="#333333"/>
<path fill-rule="evenodd" clip-rule="evenodd" d="M19.9926 71.9366C20.1566 71.2996 20.7186 70.9436 21.2476 71.1406C23.8696 72.1176 19.1386 75.2516 19.9926 71.9366Z" fill="#333333"/>
<path fill-rule="evenodd" clip-rule="evenodd" d="M58.9003 108.807C58.2373 107.62 57.5743 106.434 56.8863 105.267C56.6363 104.84 56.3303 104.453 56.0823 104.027C55.2073 102.52 54.3352 101.013 53.3763 99.5707C52.9532 98.9277 52.4722 98.3287 51.9922 97.7437C51.3552 97.0177 50.6793 96.3197 50.1212 95.5817C49.9522 95.3407 50.2162 95.0527 50.6722 94.9317C51.1212 94.8077 51.8212 94.8677 52.2483 95.2877C53.0312 96.0237 53.7062 96.8047 54.3472 97.6167C54.9573 98.4467 55.5182 99.3067 56.0192 100.208C56.6192 101.286 57.4352 102.265 58.1272 103.305C58.8842 104.45 59.6112 105.612 60.3403 106.771L61.6842 108.911C62.3772 109.98 63.0262 111.085 63.7642 112.111C64.3363 112.91 65.0223 113.606 65.6643 114.339C65.8053 114.501 65.9513 114.653 66.0793 114.826C66.1952 114.987 66.2822 115.126 66.3412 115.254C66.3892 115.389 66.3802 115.531 66.3722 115.649C66.3522 115.888 66.2383 116.097 66.0673 116.322C65.9893 116.423 65.9272 116.53 65.8553 116.608C65.6403 116.853 65.0782 116.849 64.4823 116.545C63.0513 115.407 62.0282 113.872 60.9952 112.349C60.2302 111.214 59.5692 110.007 58.8532 108.841L58.9003 108.807Z" fill="#333333"/>
<path fill-rule="evenodd" clip-rule="evenodd" d="M96.1299 60.3477C96.3399 59.5287 97.0629 59.0707 97.7429 59.3247C101.115 60.5807 95.0319 64.6097 96.1299 60.3477Z" fill="#333333"/>
<path fill-rule="evenodd" clip-rule="evenodd" d="M25.9341 98.1392C26.2081 97.9522 26.4261 97.6952 26.4931 97.4272C26.5211 97.3312 26.5001 97.2252 26.4951 97.1082C26.4821 96.7242 26.2241 96.2852 25.8331 96.1762C25.6651 96.1262 25.5151 96.1802 25.4301 96.2842C25.3221 96.4342 25.3121 96.6612 25.2191 96.9402C25.1831 97.0222 24.9451 97.0352 24.7131 96.9432C24.4881 96.8532 24.2401 96.6412 24.3051 96.3592C24.3481 96.1262 24.4571 95.8602 24.6591 95.6332C24.8551 95.4042 25.1591 95.2382 25.4531 95.1992C26.0511 95.1182 26.5361 95.3812 26.8391 95.7192C27.1961 96.1252 27.4841 96.6152 27.5151 97.1472C27.5551 97.7622 27.2631 98.3232 26.8991 98.6962C26.6681 98.9282 26.4131 99.1232 26.1301 99.2702C25.7091 99.4842 25.2151 99.6582 24.6071 99.4942C24.1501 99.3892 23.8441 98.8672 23.8091 98.4382C23.8011 98.3462 23.7791 98.2492 23.7801 98.1552C23.8471 97.8472 23.9501 97.7652 24.2281 97.7772C24.2911 97.7802 24.3541 97.7792 24.4151 97.7882C24.6201 97.8222 24.7741 97.9692 24.8301 98.1362C24.9031 98.4042 25.0041 98.5352 25.0301 98.4932C25.0771 98.4862 25.0421 98.4682 25.0981 98.4712C25.3151 98.4512 25.6641 98.3232 25.9161 98.1192L25.9341 98.1392Z" fill="#333333"/>
<path fill-rule="evenodd" clip-rule="evenodd" d="M2.80695 65.7144C3.08095 65.5274 3.29795 65.2704 3.36495 65.0024C3.39395 64.9064 3.37295 64.8004 3.36695 64.6834C3.35395 64.2994 3.09695 63.8604 2.70595 63.7514C2.53795 63.7014 2.38695 63.7554 2.30295 63.8594C2.19395 64.0094 2.18395 64.2364 2.09195 64.5154C2.05495 64.5974 1.81695 64.6104 1.58595 64.5184C1.35995 64.4284 1.11195 64.2164 1.17695 63.9344C1.22095 63.7014 1.32995 63.4354 1.53195 63.2084C1.72795 62.9794 2.03195 62.8134 2.32595 62.7744C2.92295 62.6934 3.40895 62.9564 3.71095 63.2944C4.06795 63.7004 4.35595 64.1904 4.38695 64.7224C4.42795 65.3374 4.13595 65.8984 3.77095 66.2714C3.54095 66.5034 3.28595 66.6984 3.00195 66.8454C2.58195 67.0594 2.08695 67.2334 1.47995 67.0694C1.02195 66.9644 0.715955 66.4424 0.681955 66.0134C0.673955 65.9214 0.650955 65.8244 0.652955 65.7304C0.718955 65.4224 0.822955 65.3404 1.09995 65.3524C1.16395 65.3554 1.22695 65.3544 1.28795 65.3634C1.49295 65.3974 1.64695 65.5444 1.70295 65.7114C1.77495 65.9794 1.87695 66.1104 1.90295 66.0684C1.94995 66.0614 1.91495 66.0434 1.97095 66.0464C2.18695 66.0264 2.53695 65.8984 2.78795 65.6944L2.80695 65.7144Z" fill="#333333"/>
<path fill-rule="evenodd" clip-rule="evenodd" d="M51.1815 2.06846C51.0565 1.95946 51.1665 1.79346 51.4145 1.59946C51.4935 1.53846 51.7695 1.45246 51.8215 1.47746C51.9225 1.52546 52.0215 1.57346 52.0995 1.63046C52.1445 1.66746 52.5445 2.33246 52.7045 2.54546C52.8525 2.75546 52.9635 2.97846 53.0655 3.20646C53.2755 3.66846 53.5075 4.12146 53.7425 4.57346C53.7935 4.67446 53.8305 4.78146 53.8565 4.89546C53.9405 5.28546 54.1245 5.63146 54.3245 5.96746C54.3575 6.02446 54.3805 6.08746 54.4545 6.11946C54.5735 6.17346 55.0705 7.11146 55.1035 7.25146C55.1925 7.59246 55.2305 7.96546 55.3205 8.31146C55.3305 8.36146 55.3665 8.40146 55.3395 8.46846C55.2775 8.62346 55.3415 8.70946 55.3785 8.81146C55.4305 8.95246 55.4785 9.09646 55.5135 9.24746C55.5305 9.32146 55.5115 9.41646 55.5055 9.50346C55.4985 9.58246 55.3545 9.62346 55.3275 9.61146C55.2535 9.57746 55.2185 9.65946 55.1685 9.69546C55.1515 9.70846 55.1285 9.72346 55.1125 9.72946C55.0875 9.73546 54.3525 9.16746 54.2875 9.09546C54.2805 9.08746 54.0705 8.84146 53.8455 8.57846C53.6035 8.32846 53.4225 8.02646 53.3715 7.97246C53.3235 7.91346 53.3155 7.83146 53.2975 7.75546C53.2665 7.71046 52.7085 6.87546 52.6875 6.84346C52.6015 6.65146 52.4585 6.48646 52.4815 6.23946C52.4855 6.19146 52.4605 6.15546 52.4405 6.11946C52.2655 5.80046 52.1575 5.44946 52.0365 5.10546C51.9745 4.92946 51.8875 4.76446 51.8135 4.59446C51.8005 4.56346 51.8045 4.52546 51.7975 4.49146C51.7905 4.44846 51.7895 4.40246 51.7725 4.36446C51.5895 3.96346 51.4845 3.53046 51.2815 3.13746C51.2325 3.04746 51.1995 2.54246 51.1435 2.43946C51.1115 2.38046 51.2305 2.11146 51.1815 2.06846Z" fill="#333333"/>
<path fill-rule="evenodd" clip-rule="evenodd" d="M67.8734 0.16602C67.8414 0.0220203 68.0244 -0.0149797 68.3364 0.00502026C68.4354 0.0110203 68.7044 0.11702 68.7294 0.16602C68.7794 0.25902 68.8264 0.35302 68.8524 0.44002C68.8684 0.49302 68.7524 1.20002 68.7164 1.44402C68.6864 1.68202 68.6074 1.90002 68.5204 2.11402C68.3404 2.54802 68.1694 2.98602 67.9774 3.41302C67.9354 3.50802 67.8794 3.59602 67.8094 3.67702C67.5654 3.95202 67.4154 4.27202 67.2694 4.59602C67.2464 4.65002 67.2094 4.69902 67.2284 4.77302C67.2614 4.89702 66.8014 5.74002 66.7054 5.82802C66.4814 6.05602 66.2044 6.25302 65.9754 6.47502C65.9404 6.50602 65.9274 6.55202 65.8584 6.55902C65.6994 6.57502 65.6654 6.66402 65.6024 6.73702C65.5184 6.84002 65.4284 6.93902 65.3244 7.03002C65.2724 7.07602 65.1864 7.10002 65.1134 7.13102C65.0464 7.15902 64.9354 7.06002 64.9304 7.03402C64.9174 6.95902 64.8324 6.96502 64.7764 6.93902C64.7574 6.93102 64.7314 6.91902 64.7184 6.90802C64.7014 6.89102 64.7594 6.06302 64.7784 5.98102C64.7814 5.97302 64.8594 5.70202 64.9444 5.41202C65.0054 5.11502 65.1404 4.84402 65.1514 4.78102C65.1694 4.71702 65.2284 4.67602 65.2774 4.62902C65.3024 4.60702 65.5974 3.78502 65.6144 3.75602C65.7094 3.60402 65.7424 3.42102 65.9394 3.32302C65.9784 3.30302 65.9894 3.26802 66.0044 3.23502C66.1294 2.95602 66.3144 2.70602 66.4804 2.44602C66.5664 2.31402 66.6194 2.16602 66.6904 2.02702C66.7034 2.00102 66.7314 1.98402 66.7514 1.96202C66.7764 1.93502 66.8074 1.91002 66.8214 1.87702C66.9694 1.53902 67.1864 1.23002 67.2864 0.87102C67.3114 0.79002 67.6004 0.47002 67.6204 0.37102C67.6334 0.31702 67.8874 0.22402 67.8734 0.16602Z" fill="#333333"/>
<path fill-rule="evenodd" clip-rule="evenodd" d="M4.85342 22.5069C4.69842 22.4599 4.73642 22.2689 4.88242 21.9879C4.92942 21.8989 5.14342 21.7039 5.20042 21.7069C5.31342 21.7109 5.42542 21.7169 5.52142 21.7399C5.58142 21.7519 6.22942 22.2429 6.45342 22.4119C6.67442 22.5699 6.85342 22.7639 7.02642 22.9649C7.37342 23.3739 7.72642 23.7779 8.05642 24.1989C8.13042 24.2919 8.19142 24.3949 8.23842 24.5069C8.39942 24.8909 8.64142 25.2139 8.88742 25.5349C8.92942 25.5879 8.96042 25.6509 9.03942 25.6749C9.17242 25.7149 9.77542 26.6299 9.81642 26.7709C9.93642 27.1119 10.0014 27.4859 10.1114 27.8299C10.1254 27.8799 10.1634 27.9189 10.1394 27.9869C10.0854 28.1459 10.1544 28.2299 10.1964 28.3299C10.2564 28.4689 10.3114 28.6109 10.3514 28.7609C10.3714 28.8359 10.3564 28.9299 10.3544 29.0169C10.3514 29.0969 10.2084 29.1439 10.1814 29.1329C10.1054 29.1019 10.0744 29.1849 10.0254 29.2229C10.0084 29.2359 9.98642 29.2529 9.97042 29.2589C9.94642 29.2649 9.19042 28.7329 9.12142 28.6669C9.11442 28.6599 8.89242 28.4299 8.65542 28.1839C8.40042 27.9559 8.20242 27.6749 8.14742 27.6279C8.09442 27.5739 8.08142 27.4949 8.05842 27.4229C8.04842 27.3859 7.39542 26.6409 7.37342 26.6099C7.27042 26.4339 7.10942 26.2989 7.10042 26.0579C7.09842 26.0109 7.06942 25.9809 7.04442 25.9489C6.83042 25.6739 6.67042 25.3599 6.49142 25.0589C6.40042 24.9049 6.27942 24.7739 6.17542 24.6299C6.15642 24.6039 6.15242 24.5669 6.13942 24.5359C6.12342 24.4979 6.11142 24.4559 6.08642 24.4239C5.82042 24.0989 5.61242 23.7249 5.30242 23.4369C5.23442 23.3679 5.04042 22.9249 4.95142 22.8539C4.90442 22.8129 4.91642 22.5249 4.85342 22.5069Z" fill="#333333"/>
<path fill-rule="evenodd" clip-rule="evenodd" d="M0.275815 36.2779C0.140815 36.3429 0.0558152 36.1739 0.00381522 35.8679C-0.0131848 35.7699 0.0298152 35.4849 0.0698152 35.4479C0.148815 35.3769 0.226815 35.3089 0.301815 35.2619C0.348815 35.2359 1.03082 35.1629 1.26282 35.1129C1.48682 35.0709 1.70682 35.0709 1.92582 35.0819C2.37182 35.0989 2.81982 35.0949 3.26782 35.0939C3.36782 35.0939 3.46582 35.1099 3.56482 35.1389C3.90382 35.2439 4.24782 35.2399 4.59082 35.2219C4.64882 35.2179 4.70681 35.2279 4.76281 35.1769C4.85382 35.0959 5.78682 35.0979 5.90882 35.1359C6.20982 35.2189 6.51382 35.3619 6.81882 35.4479C6.86182 35.4629 6.90782 35.4499 6.94882 35.5059C7.04282 35.6339 7.13582 35.6189 7.22982 35.6349C7.36082 35.6559 7.49182 35.6829 7.62282 35.7239C7.68782 35.7449 7.75282 35.8069 7.81782 35.8539C7.87582 35.8969 7.84782 36.0439 7.82782 36.0609C7.77081 36.1099 7.81982 36.1799 7.82682 36.2419C7.82981 36.2629 7.83182 36.2899 7.82982 36.3069C7.82482 36.3309 7.08082 36.7059 6.99782 36.7299C6.98882 36.7319 6.71282 36.7999 6.41582 36.8729C6.12182 36.9669 5.81382 36.9839 5.75082 37.0029C5.68582 37.0189 5.61882 36.9859 5.55282 36.9669C5.50282 36.9729 4.62882 37.0739 4.59682 37.0779C4.41282 37.0639 4.22581 37.1139 4.04482 36.9799C4.00882 36.9539 3.97082 36.9589 3.93482 36.9599C3.61582 36.9669 3.29982 36.9029 2.98382 36.8539C2.82282 36.8289 2.65882 36.8329 2.49682 36.8209C2.46782 36.8189 2.43982 36.7989 2.41082 36.7889C2.37482 36.7769 2.33882 36.7559 2.30182 36.7549C1.91682 36.7379 1.53782 36.6389 1.14982 36.6499C1.05982 36.6539 0.652815 36.4649 0.549815 36.4709C0.491815 36.4749 0.329815 36.2519 0.275815 36.2779Z" fill="#333333"/>
<path fill-rule="evenodd" clip-rule="evenodd" d="M88.4828 75.0714C88.3848 75.3884 88.3758 75.7244 88.4908 75.9764C88.5278 76.0684 88.6098 76.1384 88.6888 76.2264C88.9388 76.5184 89.4138 76.6994 89.7868 76.5414C89.9498 76.4754 90.0338 76.3394 90.0348 76.2054C90.0248 76.0204 89.8918 75.8374 89.7898 75.5614C89.7668 75.4744 89.9448 75.3164 90.1828 75.2434C90.4158 75.1724 90.7408 75.1824 90.8668 75.4444C90.9778 75.6534 91.0588 75.9294 91.0438 76.2324C91.0328 76.5344 90.8998 76.8534 90.6938 77.0674C90.2778 77.5044 89.7338 77.6014 89.2868 77.5264C88.7548 77.4324 88.2238 77.2294 87.8668 76.8334C87.4518 76.3784 87.3298 75.7574 87.3808 75.2384C87.4158 74.9134 87.4948 74.6014 87.6238 74.3094C87.8178 73.8804 88.0958 73.4364 88.6728 73.1844C89.0958 72.9814 89.6608 73.1974 89.9558 73.5104C90.0198 73.5774 90.0968 73.6394 90.1548 73.7134C90.2948 73.9954 90.2658 74.1244 90.0418 74.2884C89.9898 74.3264 89.9408 74.3664 89.8878 74.3974C89.7078 74.4984 89.4948 74.4794 89.3468 74.3844C89.1228 74.2204 88.9618 74.1814 88.9678 74.2304C88.9358 74.2644 88.9738 74.2584 88.9288 74.2904C88.7718 74.4414 88.5788 74.7594 88.5088 75.0754L88.4828 75.0714Z" fill="#333333"/>
</svg>
