<svg width="127" height="93" viewBox="0 0 127 93" fill="none" xmlns="http://www.w3.org/2000/svg">
<path fill-rule="evenodd" clip-rule="evenodd" d="M71.52 29.4931L66.5 30.3421L64.677 30.6991C62.526 31.0821 60.372 31.4661 58.223 31.8481C57.27 32.0391 56.316 32.2301 55.371 32.4201C54.152 32.6681 52.967 32.9821 51.662 33.0191C51.246 33.0231 51.325 32.7841 51.627 32.5231C51.916 32.2781 52.453 31.9461 53.142 31.8161C55.595 31.3091 58.068 30.7991 60.588 30.4261C62.095 30.1981 63.636 29.8291 65.166 29.5371L70.225 28.6161L73.345 28.0821C74.924 27.8311 76.51 27.5791 78.078 27.3301C79.299 27.1441 80.484 26.8841 81.708 26.7271L82.511 26.6101C83.531 26.5321 83.865 26.6071 84.083 26.9091C84.133 26.9781 84.198 27.0471 84.226 27.1181C84.32 27.3571 83.917 27.5741 83.208 27.6711C81.01 28.0101 78.818 28.3471 76.585 28.6921C74.903 28.9671 73.213 29.2431 71.527 29.5191L71.52 29.4931Z" fill="#333333" />
<path fill-rule="evenodd" clip-rule="evenodd" d="M27.9302 47.9677C29.8682 48.9587 31.8202 49.9287 33.7842 50.8747L35.9512 51.8727C38.4812 53.0887 41.0132 54.3057 43.5412 55.5207C44.6652 56.0607 45.8072 56.5767 46.9332 57.0907C48.3792 57.7577 49.8602 58.3657 51.1842 59.3357C51.5992 59.6317 51.4232 59.7557 50.9492 59.7347C50.7102 59.7257 50.4042 59.6787 50.0512 59.6007C49.6892 59.5237 49.2702 59.4337 48.8672 59.2337C45.9502 57.9007 42.9382 56.6887 40.0262 55.1997C38.2772 54.3237 36.3872 53.5637 34.5662 52.7347C32.5642 51.8197 30.5732 50.8797 28.5872 49.9267L24.9322 48.1407C23.0892 47.2347 21.2642 46.2697 19.4452 45.3447C18.0372 44.6117 16.6132 43.9687 15.2202 43.2227C14.9122 43.0587 14.5962 42.9287 14.3052 42.7277C13.2042 42.0227 12.9322 41.6797 12.9162 41.2067C12.9122 41.0997 12.8912 40.9837 12.9082 40.8927C12.9612 40.5987 13.5592 40.6467 14.4072 41.0407C16.9182 42.2117 19.4532 43.6317 22.0842 44.9497C24.0232 45.9497 25.9732 46.9647 27.9442 47.9327L27.9302 47.9677Z" fill="#333333" />
<path fill-rule="evenodd" clip-rule="evenodd" d="M50.9378 41.6894C50.8428 42.7064 50.7478 43.7254 50.6528 44.7404C50.6218 45.1114 50.6288 45.4834 50.5938 45.8544C50.4748 47.1614 50.3548 48.4744 50.2348 49.7784C50.1918 50.3584 50.1678 50.9434 50.1608 51.5204C50.1518 52.2604 50.1828 53.0074 50.0548 53.7384C49.9808 54.2004 49.0408 53.6104 49.0008 52.7424C48.9558 51.2174 48.9938 49.7024 49.2138 48.1794C49.3388 47.2694 49.3108 46.3154 49.3638 45.3814L49.5638 42.3014L49.6988 40.4064C49.7638 39.4504 49.8478 38.4904 49.8748 37.5384C49.8928 36.7984 49.8448 36.0704 49.8388 35.3364C49.8378 35.1744 49.8258 35.0154 49.8318 34.8524C49.8408 34.5514 49.8758 34.3464 49.9458 34.2104C49.9808 34.1424 50.0248 34.0894 50.0818 34.0474C50.1428 33.9464 50.2428 33.8624 50.3308 33.8604C50.4128 33.8514 50.4688 33.8744 50.4968 33.9254C50.5398 34.0154 50.4458 33.8044 50.4878 33.9004C50.5618 34.0664 50.5598 34.0554 50.5838 34.0904C50.6248 34.1494 50.7178 34.2004 50.8068 34.1624C50.8958 34.0704 50.9088 34.1634 50.9438 34.2524C50.9738 34.3374 50.9958 34.4344 51.0098 34.5434C51.1828 35.8464 51.1978 37.2294 51.1358 38.6074C51.0968 39.6324 51.0378 40.6624 50.9718 41.6894H50.9378Z" fill="#333333" />
<path fill-rule="evenodd" clip-rule="evenodd" d="M31.365 35.3328C31.329 36.2698 31.308 37.2118 31.301 38.1538C31.309 38.4988 31.318 38.8368 31.326 39.1838C31.308 40.3968 31.289 41.6188 31.271 42.8298C31.266 43.3698 31.285 43.9138 31.308 44.4508C31.327 45.1438 31.407 45.8398 31.221 46.5558C31.166 46.7768 30.926 46.7058 30.697 46.5018C30.473 46.2968 30.252 45.9818 30.241 45.5978C30.219 44.2408 30.155 42.8368 30.235 41.4228C30.288 40.5758 30.199 39.6978 30.185 38.8318C30.172 37.8778 30.176 36.9238 30.183 35.9688C30.193 35.3808 30.203 34.7918 30.213 34.2058C30.242 33.3138 30.271 32.4208 30.301 31.5368C30.314 30.8488 30.265 30.1678 30.299 29.4828C30.302 29.3328 30.303 29.1838 30.32 29.0318C30.383 28.4698 30.48 28.2988 30.762 28.2138C30.826 28.1948 30.891 28.1668 30.953 28.1598C31.163 28.1338 31.313 28.3798 31.349 28.7868C31.474 29.9908 31.465 31.2378 31.444 32.5018C31.427 33.4418 31.411 34.3878 31.395 35.3318L31.365 35.3328Z" fill="#333333" />
<path fill-rule="evenodd" clip-rule="evenodd" d="M57.4599 2.50324C58.1579 2.27924 58.8589 2.12124 59.5619 1.97524C59.8179 1.92124 60.0609 1.82224 60.3199 1.78324C61.2319 1.63324 62.1609 1.56124 63.0749 1.44424C63.4829 1.40024 63.8829 1.31824 64.2829 1.26024C64.7979 1.19124 65.3179 1.12524 65.8529 1.14624C66.0189 1.15224 65.9899 1.12224 65.8639 1.18024C65.7349 1.22924 65.5309 1.44424 65.2669 1.60524C64.3419 2.21624 63.3829 2.66324 62.3439 2.86724C61.7189 2.97424 61.1159 3.25524 60.4939 3.42224C59.8119 3.60824 59.1159 3.75824 58.4299 3.92124C58.0069 4.02024 57.5849 4.11824 57.1809 4.23524C56.8689 4.33624 56.6119 4.39724 56.4699 4.53224C56.3039 4.67524 56.2009 4.94124 56.1469 5.23224C56.0709 5.69124 56.1229 6.18624 56.0819 6.69824C56.0739 6.81124 56.0659 6.92924 56.0589 7.03824C56.0129 7.46824 55.9089 7.60224 55.8959 7.68924C55.8899 7.70924 55.8859 7.73524 55.8849 7.74724C55.8859 7.78924 55.8929 7.61124 55.7739 7.31624C55.5309 6.42624 54.7769 5.62024 55.2029 4.13924C55.3049 3.87224 55.4699 3.57724 55.7219 3.35724C55.9519 3.13224 56.2209 3.01024 56.3829 2.92224C56.7579 2.72524 57.0959 2.59924 57.4459 2.46524L57.4599 2.50324Z" fill="#333333" />
<path fill-rule="evenodd" clip-rule="evenodd" d="M48.1498 15.7079C48.1738 15.8079 48.1378 15.7289 48.1128 15.7479C48.0828 15.7429 48.0698 15.7299 48.0258 15.7259C47.9318 15.7189 47.8548 15.6969 47.7418 15.6899C47.5278 15.6699 47.2878 15.6549 47.0418 15.6419C46.8568 15.6369 46.6878 15.6989 46.4948 15.6819C45.8228 15.6249 45.0998 15.4889 44.3878 15.4369C44.0698 15.4019 43.7608 15.4259 43.4478 15.4169C43.0468 15.3959 42.6278 15.3709 42.2138 15.1879C42.0878 15.1339 42.1088 15.1879 42.2068 15.1329C42.3078 15.0939 42.4578 14.8219 42.6438 14.6469C43.2948 13.9539 43.9838 13.5069 44.8058 13.4689C45.2978 13.4679 45.7658 13.2119 46.2748 13.1459C46.8398 13.0809 47.4118 13.0759 48.0868 13.1699C48.4678 13.2079 49.1918 13.4309 49.5218 13.8659C50.0538 14.5119 50.0528 15.1399 50.1448 15.6569C50.2018 16.0669 50.2718 16.4419 50.2198 16.8319C50.2128 16.9169 50.2098 16.9989 50.1958 17.0839C50.1518 17.4009 50.0658 17.5349 50.0778 17.6039C50.0768 17.6209 50.0818 17.6409 50.0848 17.6489C50.1098 17.6699 50.0238 17.5759 49.7938 17.3909C49.5188 17.0959 49.1978 16.7769 48.8978 16.4889C48.6458 16.1919 48.3758 15.9269 48.2038 15.7489C48.1328 15.6939 48.0678 15.6309 48.0118 15.6199C47.9828 15.6119 47.9588 15.5939 47.9468 15.6029L47.9288 15.6049C47.9178 15.6129 47.9278 15.6029 47.9618 15.5739C47.9878 15.5489 47.9958 15.5489 48.0138 15.5339C48.0708 15.4929 48.1408 15.4149 48.1758 15.3699C48.1988 15.3489 48.2208 15.3199 48.2398 15.2829C48.2338 15.2919 48.2308 15.3079 48.2308 15.3079V15.3089V15.3099C48.2078 15.3799 48.4338 14.6959 48.3378 14.9859L48.3368 14.9879L48.3358 14.9909L48.3328 14.9979L48.3218 15.0229L48.3028 15.0749L48.2338 15.2819C48.1938 15.4219 48.1658 15.5629 48.1498 15.7049V15.7079Z" fill="#333333" />
<path fill-rule="evenodd" clip-rule="evenodd" d="M17.2732 70.0698C20.2092 71.9208 23.1652 73.7548 26.1402 75.5558C27.2252 76.2148 28.3502 76.8048 29.4322 77.4668L40.8762 84.4948C42.5762 85.5228 44.3152 86.5028 46.0362 87.4638C48.2532 88.6858 50.4472 89.9728 52.5382 91.4208C53.1872 91.8758 52.9482 92.0778 52.2032 92.0358C51.4612 91.9878 50.1902 91.7428 48.8682 91.1178C46.5152 90.0318 44.2512 88.7878 41.9922 87.5208C39.7332 86.2558 37.4912 84.9478 35.2752 83.5698C32.6202 81.9318 29.7492 80.4148 26.9922 78.8078C23.9632 77.0378 20.9492 75.2368 17.9442 73.4168C16.0952 72.2948 14.2502 71.1678 12.4152 70.0118C11.7182 69.5818 11.0282 69.1238 10.3372 68.6718C9.99218 68.4518 9.64818 68.2088 9.30418 67.9648C9.10818 67.8208 8.82318 67.6458 8.61718 67.4648L8.44918 67.3288C8.42218 67.2638 8.40718 67.1898 8.38618 67.1208C8.34218 66.9818 8.30718 66.8408 8.28618 66.6978C8.15518 66.0618 8.14418 65.7288 8.09518 65.2948L7.99218 64.0608C7.93118 63.2428 7.87018 62.4268 7.81018 61.6138C7.62118 59.0898 7.31818 56.6248 7.18118 54.1248C7.14618 53.5748 7.09618 53.0358 7.07918 52.4798C7.04018 51.4488 7.12118 50.7648 7.25018 50.2838C7.42318 49.8038 7.62118 49.5248 7.85918 49.3048C7.96818 49.2038 8.06818 49.0718 8.16218 49.0138C8.32118 48.9168 8.46518 49.0778 8.65118 49.4458C8.83018 49.8148 9.09818 50.3908 9.19418 51.1328C9.53218 53.3378 9.80618 55.6068 10.0262 57.9078C10.2232 60.2018 10.3692 62.5578 10.5902 64.8358L10.6972 65.8088C10.7102 65.8358 10.6662 65.7978 10.7292 65.8468C11.3822 66.3168 12.1482 66.7788 12.8582 67.2478L17.3022 70.0128L17.2732 70.0698Z" fill="#333333" />
<path fill-rule="evenodd" clip-rule="evenodd" d="M53.3218 78.0956L53.2908 81.5806C53.2938 82.0046 53.3558 82.4256 53.3518 82.8496C53.3318 84.3476 53.3118 85.8526 53.2918 87.3486C53.2848 88.0146 53.3248 88.6826 53.3738 89.3426C53.4278 90.1956 53.5718 91.0336 53.3528 91.9376C53.2868 92.2166 52.8958 92.1396 52.5058 91.9046C52.1208 91.6706 51.7178 91.3056 51.6658 90.8286C51.5108 89.1526 51.3368 87.4316 51.4748 85.6846C51.5558 84.6376 51.3848 83.5636 51.3438 82.4986L51.2528 78.9796L51.2108 76.8116C51.1868 75.7166 51.2238 74.6136 51.1758 73.5246C51.1348 72.6786 50.9908 71.8476 50.9808 70.9926C50.9778 70.8036 50.9588 70.6186 50.9668 70.4276C51.0058 69.7156 51.1818 69.4756 51.6218 69.3866C51.7238 69.3646 51.8258 69.3326 51.9248 69.3266C52.2588 69.3086 52.5178 69.6176 52.6138 70.0856C52.7658 70.7996 52.9408 71.5406 53.0438 72.2976C53.1338 73.0536 53.1928 73.8246 53.2498 74.6026L53.3528 76.3406L53.3738 78.0916L53.3218 78.0956Z" fill="#333333" />
<path fill-rule="evenodd" clip-rule="evenodd" d="M116.01 78.2524L101.044 82.0004C99.2228 82.4514 97.4208 82.9734 95.5968 83.4024L76.2818 87.8994C73.4298 88.5874 70.5638 89.2784 67.7338 89.9604C64.0868 90.8064 60.4688 91.8164 56.6838 92.1734C55.4738 92.2354 55.6298 91.8764 56.5308 91.3384C57.4278 90.7664 59.0898 89.9734 61.1708 89.4654C68.5378 87.6104 75.9418 85.7974 83.4488 84.1374C87.9418 83.1484 92.5438 81.8254 97.0988 80.6514L112.136 76.8104C115.217 76.0084 118.301 75.2084 121.36 74.3574L123.207 73.8324L123.733 73.6774C123.794 73.6394 123.948 73.6514 123.921 73.5464L123.926 73.2904C123.933 69.8354 123.94 66.3874 123.947 62.9684C123.932 59.2424 123.8 55.5854 123.829 51.8864C123.835 51.0714 123.83 50.2714 123.855 49.4494C124.007 46.3984 124.324 45.4174 125.02 44.8414C125.18 44.7104 125.344 44.5334 125.496 44.4664C126.021 44.2514 126.249 45.4934 126.267 47.6814C126.361 54.2004 126.383 61.1144 126.376 68.0654C126.371 70.0924 126.365 72.1234 126.361 74.1614L126.191 74.6664L126.106 74.9184L126.063 75.0434L126.042 75.1064C126.225 75.2374 125.792 74.9324 125.836 74.9644L125.834 74.9684L125.829 74.9744L125.821 74.9874L125.803 75.0134L125.529 75.4264C125.456 75.5844 125.233 75.6474 125.092 75.7614C124.756 75.9324 124.291 76.0404 123.956 76.1494L123.342 76.3274L120.902 77.0034L116.032 78.3084L116.01 78.2524Z" fill="#333333" />
<path fill-rule="evenodd" clip-rule="evenodd" d="M96.0935 49.8046L84.8195 52.2466L80.7245 53.2126L66.2445 56.4296C64.1055 56.9136 61.9645 57.4416 59.8575 57.9836C57.1375 58.6266 54.4275 59.3726 51.6715 59.8306C50.8185 59.9926 50.8925 59.8726 51.5485 59.4856C51.8755 59.2896 52.3515 59.0226 52.9265 58.7266C53.4985 58.4146 54.1875 58.0996 54.9605 57.8686L59.0615 56.5946C60.4335 56.1896 61.8185 55.8316 63.2015 55.4666C65.9685 54.7286 68.7595 54.0676 71.5825 53.4856C74.9555 52.7786 78.4135 51.8236 81.8395 51.0006L93.1615 48.3546C95.4865 47.8206 97.8125 47.2866 100.135 46.7526C103.653 45.9396 107.198 45.1626 110.682 44.3116C113.392 43.6586 116.02 42.8936 118.694 42.2056C119.282 42.0526 119.854 41.8826 120.449 41.7396C121.562 41.5016 122.311 41.4186 122.858 41.4646C123.401 41.4946 123.733 41.6076 124.021 41.8006C124.152 41.8886 124.317 41.9646 124.401 42.0546C124.681 42.3436 123.846 42.8766 122.289 43.5056C117.592 45.0046 112.549 46.1896 107.468 47.3366C103.691 48.1736 99.8975 49.0146 96.1105 49.8546L96.0935 49.8046Z" fill="#333333" />
<path fill-rule="evenodd" clip-rule="evenodd" d="M25.2763 47.4789C27.3013 48.5039 29.3373 49.5169 31.3883 50.4989L33.6543 51.5259C36.2973 52.7899 38.9413 54.0549 41.5823 55.3179C42.7553 55.8769 43.9503 56.4129 45.1303 56.9369C46.6423 57.6279 48.1963 58.2409 49.5763 59.2769C50.0083 59.5909 49.8053 59.7459 49.2933 59.7559C49.0363 59.7609 48.7043 59.7319 48.3353 59.6649C47.9503 59.5999 47.5053 59.5239 47.0853 59.3199C44.0373 57.9569 40.8773 56.7289 37.8413 55.1689C36.0173 54.2529 34.0353 53.4859 32.1303 52.6279C30.0373 51.6859 27.9523 50.7169 25.8773 49.7259L22.0553 47.8769C20.1293 46.9359 18.2223 45.9309 16.3223 44.9609C14.8533 44.1899 13.3533 43.5429 11.9023 42.7289C11.5813 42.5539 11.2553 42.4009 10.9453 42.2029C9.81132 41.4099 9.55132 41.0139 9.59632 40.4759C9.60732 40.3529 9.59932 40.2209 9.63032 40.1179C9.72932 39.7819 10.3793 39.8259 11.2413 40.2489C13.8183 41.4859 16.4513 42.9559 19.1843 44.3379C21.2083 45.3699 23.2363 46.4309 25.2933 47.4369L25.2763 47.4789Z" fill="#333333" />
<path fill-rule="evenodd" clip-rule="evenodd" d="M111.598 32.3866C111.598 33.4176 111.599 34.4506 111.624 35.4856C111.633 35.8626 111.705 36.2336 111.708 36.6116C111.713 37.9456 111.728 39.2816 111.709 40.6206C111.71 41.2146 111.762 41.8066 111.822 42.3916C111.907 43.1416 111.95 43.9026 111.792 44.6686C111.74 44.9076 111.43 44.8926 111.081 44.7156C110.738 44.5366 110.318 44.2016 110.206 43.7816C109.986 43.0356 109.906 42.2816 109.844 41.5196C109.786 40.7576 109.736 39.9926 109.801 39.2106C109.869 38.2766 109.676 37.3276 109.616 36.3826L109.464 33.2536L109.394 31.3236C109.357 30.3486 109.361 29.3656 109.278 28.4006C109.223 27.6486 109.029 26.9176 108.941 26.1686C108.932 26.0036 108.902 25.8436 108.91 25.6756C108.916 25.5206 108.93 25.3916 108.955 25.2836C108.991 25.1756 109.067 25.0886 109.127 25.0166C109.257 24.8726 109.407 24.7906 109.603 24.7236C109.692 24.6946 109.776 24.6546 109.856 24.6376C110.107 24.5786 110.401 24.8276 110.71 25.2616C110.832 25.5856 110.956 25.9106 111.068 26.2406C111.142 26.5716 111.195 26.9036 111.249 27.2406C111.349 27.9136 111.413 28.5986 111.469 29.2876C111.547 30.3116 111.611 31.3446 111.653 32.3806L111.598 32.3866Z" fill="#333333" />
<path fill-rule="evenodd" clip-rule="evenodd" d="M78.2557 30.0916C74.2587 30.7856 70.2607 31.4756 66.2797 32.2236L61.9427 33.1166C59.3987 33.6286 56.8347 34.1186 54.3577 34.7646L53.4267 35.0036L52.6377 35.2586L52.4457 35.3176L52.3487 35.3456C52.3407 35.3746 52.3377 35.4086 52.3327 35.4396L52.3137 35.6356L52.2887 35.9906L52.0867 39.8896C51.9817 42.2006 51.9177 44.5276 51.8787 46.8226C51.8307 49.7716 51.8527 52.7376 51.6097 55.6746C51.4807 57.5086 49.9177 55.1666 49.8917 51.7526C49.8897 48.7346 49.9197 45.7206 49.9997 42.7006C50.0337 41.1906 50.1077 39.6796 50.1917 38.1656L50.3337 35.8866L50.3557 35.5606C50.3447 35.3796 50.4317 35.2486 50.4687 35.0936C50.5727 34.8076 50.6397 34.4636 50.7857 34.2586L50.8097 34.2146L50.8157 34.2036L50.8187 34.1976C50.8457 34.2156 50.5967 34.0256 50.7047 34.1036L50.7257 34.0866L50.8117 34.0176L50.9827 33.8816C51.0937 33.7886 51.2007 33.6926 51.3787 33.6536L52.2137 33.3736C54.0537 32.8276 55.8507 32.4156 57.6807 31.9646C59.5057 31.5386 61.3377 31.0986 63.1627 30.7306C67.1757 29.9016 71.1987 29.1536 75.2197 28.4036C77.6937 27.9466 80.1707 27.4906 82.6437 27.0346C86.3867 26.3356 90.1557 25.6686 93.8507 24.8786C96.7237 24.2656 99.5087 23.5306 102.315 22.8186C102.929 22.6536 103.531 22.4906 104.15 22.3236C106.462 21.7606 107.185 21.6496 107.84 22.0446C107.987 22.1316 108.171 22.2066 108.272 22.3056C108.616 22.6376 107.77 23.2376 106.084 23.8386C101.097 25.5146 95.7347 26.7206 90.3377 27.8156C86.3287 28.6316 82.2967 29.3926 78.2717 30.1456L78.2557 30.0916Z" fill="#333333" />
<path fill-rule="evenodd" clip-rule="evenodd" d="M59.6406 15.0242L69.9176 13.3342C71.1696 13.1292 72.4106 12.8652 73.6646 12.6792C75.8786 12.3512 78.0976 12.0442 80.3376 11.8022C81.4636 11.6952 82.5826 11.5902 83.7416 11.5652L84.6226 11.5662L85.1776 11.6042C85.3986 11.6202 85.5946 11.6712 85.8036 11.7132C86.3296 11.6652 86.3476 12.2172 86.5126 12.5882C86.5756 12.7772 86.6756 13.0042 86.7076 13.1602L86.8076 13.5892C87.2616 15.6212 87.3506 17.6612 87.3426 19.6412C87.3416 22.1882 87.2216 24.7002 87.2076 27.1822C87.2056 27.9542 86.9126 27.8902 86.5526 27.2462C86.1896 26.6042 85.7776 25.3552 85.7186 23.8842C85.6316 21.2832 85.6116 18.7252 85.3816 16.2922C85.3176 15.6842 85.2256 15.0892 85.1086 14.5062C85.0506 14.2172 84.9676 13.9312 84.9036 13.6532C84.8916 13.5842 84.9016 13.5692 84.8886 13.5212C84.8726 13.5132 84.8566 13.5012 84.8376 13.4962C84.8256 13.4942 84.8196 13.4912 84.8146 13.4862L84.8066 13.4802L84.7096 13.4722C84.4246 13.4672 84.1256 13.4642 83.8226 13.4722C83.2076 13.4912 82.5776 13.5332 81.9446 13.5782C78.8976 13.8122 75.7286 14.4682 72.6126 15.0132L62.3086 16.8572L55.9636 18.0132C52.7606 18.6002 49.5336 19.1502 46.3566 19.7632C43.8846 20.2322 41.4866 20.8432 39.0286 21.2932C38.4886 21.3962 37.9616 21.5122 37.4116 21.5932C36.3936 21.7512 35.7096 21.7952 35.2226 21.7412C34.7306 21.6622 34.4366 21.5042 34.1876 21.2502C34.0746 21.1342 33.9306 21.0242 33.8606 20.9092C33.6296 20.5382 34.4056 20.0342 35.8496 19.6802C40.1346 18.6192 44.7046 17.7302 49.3126 16.8612C52.7356 16.2202 56.1776 15.5742 59.6246 14.9682L59.6406 15.0242Z" fill="#333333" />
<path fill-rule="evenodd" clip-rule="evenodd" d="M32.7256 34.5834L32.6236 37.9114C32.6156 38.3174 32.6596 38.7204 32.6456 39.1254C32.5876 40.5564 32.5286 41.9944 32.4706 43.4224C32.4486 44.0574 32.4606 44.6984 32.4826 45.3314C32.4976 46.1484 32.6026 46.9644 32.3456 47.8124C32.2686 48.0754 31.9066 47.9774 31.5596 47.7294C31.2166 47.4794 30.8796 47.1124 30.8666 46.6594C30.8386 45.0674 30.7996 43.4194 30.9566 41.7604C31.0616 40.7654 30.9466 39.7344 30.9426 38.7174L30.9606 35.3574L30.9806 33.2874C30.9866 32.2414 31.0346 31.1904 31.0126 30.1504C31.0056 29.3414 30.8686 28.5474 30.8766 27.7364C30.8746 27.5584 30.8576 27.3834 30.8656 27.2034C30.9136 26.5304 31.0506 26.3234 31.4656 26.2224C31.5596 26.1984 31.6546 26.1654 31.7466 26.1564C32.0596 26.1254 32.3016 26.4144 32.3876 26.8834C32.5046 27.5824 32.6516 28.2984 32.6916 29.0274C32.7336 29.7534 32.7616 30.4984 32.7706 31.2414C32.8036 32.3484 32.7796 33.4644 32.7696 34.5814L32.7256 34.5834Z" fill="#333333" />
<path fill-rule="evenodd" clip-rule="evenodd" d="M24.5814 26.4906L24.4574 30.9646C24.4474 31.5086 24.4944 32.0516 24.4784 32.5956C24.4084 34.5156 24.3384 36.4406 24.2684 38.3586C24.2424 39.2106 24.2574 40.0696 24.2854 40.9166C24.3074 42.0126 24.4334 43.0906 24.1484 44.2366C24.0604 44.5936 23.6534 44.4706 23.2644 44.1496C22.8834 43.8356 22.4924 43.3406 22.4764 42.7236C22.4314 40.5566 22.3874 38.3386 22.5694 36.1086C22.6894 34.7716 22.5644 33.3856 22.5634 32.0186L22.5934 27.5086L22.6184 24.7306C22.6234 23.3286 22.6744 21.9196 22.6454 20.5256C22.6254 19.4416 22.4764 18.3786 22.4694 17.2956C22.4664 17.0566 22.4474 16.8226 22.4554 16.5816C22.4934 15.6846 22.6654 15.3906 23.1284 15.2466C23.2354 15.2136 23.3424 15.1666 23.4464 15.1526C23.7974 15.1056 24.0684 15.4866 24.1614 16.1086C24.2994 17.0456 24.4754 18.0126 24.5234 18.9976C24.5814 19.9806 24.6094 20.9826 24.6294 21.9886C24.6674 23.4806 24.6434 24.9846 24.6314 26.4876L24.5814 26.4906Z" fill="#333333" />
<path fill-rule="evenodd" clip-rule="evenodd" d="M51.8533 8.69907L45.0603 9.83307L42.5953 10.3201C39.6843 10.8231 36.7703 11.3271 33.8613 11.8301C32.5713 12.0621 31.2833 12.3441 30.0143 12.6281C28.3833 12.9951 26.7593 13.4251 25.0903 13.6081C24.0523 13.7291 25.0673 12.1501 26.9363 11.6851C30.2553 10.8921 33.5883 10.1701 36.9943 9.64007C39.0333 9.33607 41.1123 8.81107 43.1793 8.40507L50.0113 7.12607L54.2233 6.37207C56.3473 5.98507 58.4913 5.64407 60.5943 5.22807C62.2313 4.91207 63.8153 4.48407 65.4273 4.12007C65.7823 4.03907 66.1253 3.94107 66.4863 3.87307C67.8213 3.62107 68.2703 3.69007 68.6433 4.19407C68.7283 4.30807 68.8333 4.41907 68.8913 4.53907C69.0853 4.94407 68.5953 5.38207 67.6383 5.65807C64.8013 6.48807 61.7613 7.02407 58.7043 7.56907C56.4303 7.96007 54.1453 8.35307 51.8653 8.74507L51.8533 8.69907Z" fill="#333333" />
<path fill-rule="evenodd" clip-rule="evenodd" d="M57.4388 1.36806C58.3048 1.23406 59.1718 1.09906 60.0348 0.966061C60.3488 0.918061 60.6528 0.829061 60.9678 0.789061C62.0748 0.661061 63.1908 0.533061 64.2958 0.405061C64.7868 0.347061 65.2728 0.248061 65.7598 0.177061C66.3848 0.0770612 67.0008 -0.0629388 67.6808 0.0310612C67.9038 0.0670612 67.8548 0.310061 67.7088 0.567061C67.5618 0.823061 67.3148 1.12206 66.9738 1.21006C65.7658 1.53506 64.5178 1.75806 63.2308 1.84006C62.4598 1.89306 61.6948 2.13206 60.9278 2.28806C60.0858 2.46006 59.2418 2.63306 58.3988 2.80506C57.8828 2.91806 57.3688 3.03506 56.8688 3.17706L56.1628 3.38606C56.0808 3.41406 55.9948 3.44206 55.9218 3.49306C55.8378 3.54506 55.8818 3.65206 55.8648 3.73406L55.8608 3.89506L55.8638 4.17106C55.8758 4.79706 55.9988 5.41206 56.1018 6.00906C56.1258 6.13906 56.1698 6.26706 56.1698 6.39306C56.1708 6.63106 56.1618 6.76706 56.0508 6.87506C55.9038 6.97506 55.7368 7.05506 55.5328 7.13706C55.4388 7.17706 55.3558 7.23006 55.2748 7.26806C55.1368 7.33206 54.9998 7.33506 54.8118 7.23606C54.6338 7.14506 54.3828 6.98506 54.3368 6.77306C54.0968 6.21506 54.0668 5.67906 54.0438 5.14206C54.0368 4.87406 54.0418 4.60706 54.0518 4.34306L54.0728 3.94906L54.0878 3.65506C54.0938 3.52206 54.1028 3.39006 54.1198 3.26206C54.1288 3.07006 54.1838 2.90806 54.2418 2.74806C54.4518 2.64606 54.3788 2.37306 54.5848 2.28106C54.7248 2.14506 54.9198 2.04706 55.1058 1.95306C55.3088 1.87906 55.5078 1.79106 55.7158 1.73406L56.0988 1.62706C56.5518 1.51106 56.9908 1.41906 57.4278 1.32906L57.4388 1.36806Z" fill="#333333" />
<path fill-rule="evenodd" clip-rule="evenodd" d="M49.2235 14.2831C48.3715 14.3481 47.4965 14.4541 46.6275 14.5801C46.3095 14.6271 46.0015 14.7191 45.6835 14.7641C44.5605 14.9241 43.4315 15.0821 42.3125 15.2791C41.8155 15.3661 41.3265 15.4991 40.8375 15.6091C40.2115 15.7611 39.5955 15.9511 38.9235 15.9541C38.7085 15.9531 38.6985 15.7091 38.8105 15.4291C38.9235 15.1521 39.1585 14.8161 39.5065 14.6931C40.7365 14.2381 42.0155 13.9321 43.3435 13.7861C44.1375 13.6961 44.9225 13.4311 45.7185 13.2631C46.5945 13.0811 47.4755 12.9191 48.3695 12.7781L49.2005 12.6591C49.4185 12.6351 49.9405 12.5531 50.3005 12.5641C50.5625 12.5641 50.8025 12.6001 50.9835 12.7381C51.2035 12.8541 51.2075 13.1181 51.2915 13.3531C51.4215 14.1031 51.4885 14.4521 51.5935 14.9261C51.7365 15.5541 51.9855 16.1521 52.1855 16.7781C52.2295 16.9161 52.2935 17.0501 52.3085 17.1961C52.3415 17.4671 52.3395 17.6581 52.2315 17.8031C52.0815 17.9551 51.9135 18.0421 51.6915 18.1081C51.5915 18.1361 51.4975 18.1651 51.4115 18.1721C51.2635 18.1841 51.1295 18.1271 50.9665 18.0681C50.8065 18.0011 50.5675 17.8951 50.5145 17.7281C49.9875 16.7311 49.8695 15.5461 49.6995 14.3741C49.6785 14.2851 49.7055 14.3441 49.6895 14.3301C49.7075 14.3191 49.7075 14.3081 49.7035 14.2971C49.7015 14.2911 49.6955 14.2871 49.6885 14.2811L49.2315 14.3231L49.2235 14.2831Z" fill="#333333" />
<path fill-rule="evenodd" clip-rule="evenodd" d="M96.5985 73.5624C94.6455 73.9994 92.6895 74.3884 90.7335 74.7664C90.0195 74.9034 89.3195 75.1014 88.6025 75.2234C87.3395 75.4394 86.0715 75.6354 84.7975 75.8104C84.1605 75.8964 83.5225 75.9834 82.8775 76.0504L81.9025 76.1324L81.4045 76.1624C81.2625 76.1594 80.9435 76.1914 80.7295 76.1754C80.5175 76.1714 80.3165 76.1444 80.1265 76.0834C80.0795 76.0694 80.0275 76.0544 79.9845 76.0324L79.8875 75.9164L79.6935 75.6844C79.4565 75.3694 79.2585 74.9344 79.1545 74.5724C78.9635 73.9414 78.9005 73.3184 78.8775 72.7224C78.8555 71.9574 78.8695 71.2154 78.9395 70.4994C79.0155 69.7844 79.1285 69.0944 79.1915 68.4194C79.2315 68.0054 79.5395 67.9944 79.9175 68.3584C80.2905 68.7174 80.7155 69.4974 80.7625 70.3484C80.8205 71.1004 80.7485 71.8124 80.7945 72.4694C80.8135 72.7944 80.8345 73.1144 80.8885 73.3964C80.9075 73.5454 80.9445 73.6754 80.9765 73.8064C80.9895 73.8744 81.0115 73.9334 81.0345 73.9904C81.0625 74.0534 81.0275 74.0174 81.0385 74.0334C81.0365 74.0474 81.0255 74.0924 81.0475 74.1124C81.0575 74.1224 81.0705 74.1314 81.0875 74.1404C81.0665 74.1494 81.1625 74.1414 81.2505 74.1344L81.5055 74.1114C82.1975 74.0424 82.9215 73.9594 83.6525 73.9104C85.4025 73.7684 87.1805 73.2914 88.9445 72.9364C90.8865 72.5424 92.8295 72.1394 94.7605 71.6914C95.9495 71.4154 97.1365 71.1334 98.3075 70.8074C100.07 70.3044 101.885 69.8134 103.466 69.0474C103.616 68.9724 103.763 68.8934 103.897 68.8094C104.011 68.7404 104.068 68.6934 104.145 68.6274C104.214 68.5634 104.281 68.4984 104.318 68.4144C104.358 68.3284 104.325 68.2264 104.32 68.1384L104.301 68.0074L104.282 67.7614L104.233 67.2504L104.105 66.2424C104.061 65.9504 103.992 65.6684 103.944 65.3874C103.793 64.3334 103.936 64.1104 104.41 63.6564C104.512 63.5464 104.616 63.4354 104.715 63.3284C105.033 62.9484 105.773 63.3624 106.167 64.3134C106.465 65.0014 106.556 65.6984 106.658 66.3874C106.702 66.7334 106.731 67.0794 106.752 67.4284L106.773 67.9514L106.776 68.0944C106.767 68.1724 106.77 68.2524 106.767 68.3324C106.758 68.4894 106.771 68.6554 106.744 68.8074C106.696 69.4274 106.355 70.0004 105.836 70.3824C105.596 70.5754 105.281 70.7774 105.044 70.9034C104.863 71.0054 104.691 71.0904 104.517 71.1754C103.832 71.4994 103.171 71.7474 102.508 71.9774C100.545 72.6524 98.5745 73.1164 96.6165 73.6164L96.5985 73.5624Z" fill="#333333" />
<path fill-rule="evenodd" clip-rule="evenodd" d="M8.62929 62.4241C8.62929 62.4241 3.52529 60.9241 0.411289 63.3601C-2.35271 65.5231 8.88829 76.7581 31.9073 80.7031L9.11829 66.8731L8.62929 62.4241Z" fill="#333333" />
<path fill-rule="evenodd" clip-rule="evenodd" d="M93.3426 48.7778L83.2726 51.0658L79.6157 51.9668L66.6866 54.9938C64.7756 55.4448 62.8646 55.9438 60.9826 56.4458C58.5546 57.0518 56.1356 57.7408 53.6716 58.1858C52.9096 58.3398 52.9786 58.2338 53.5646 57.8908C53.8586 57.7148 54.2816 57.4798 54.7956 57.2138C55.3066 56.9328 55.9216 56.6528 56.6116 56.4388C59.0456 55.6298 61.4906 54.8738 63.9686 54.2208C66.4396 53.5378 68.9306 52.9138 71.4516 52.3658C74.4646 51.6958 77.5516 50.8138 80.6136 50.0488L90.7257 47.5808L96.9557 46.0908C100.099 45.3318 103.267 44.6098 106.38 43.8248C108.8 43.2148 111.152 42.5268 113.536 41.8838C114.061 41.7408 114.572 41.5868 115.105 41.4578C116.096 41.2318 116.763 41.1448 117.251 41.1738C117.737 41.1878 118.033 41.2778 118.292 41.4378C118.41 41.5108 118.558 41.5728 118.634 41.6478C118.886 41.8898 118.144 42.3648 116.753 42.9378C112.552 44.3088 108.045 45.4078 103.506 46.4738C100.131 47.2548 96.7407 48.0378 93.3577 48.8198L93.3426 48.7778Z" fill="#333333" />
<path fill-rule="evenodd" clip-rule="evenodd" d="M70.9013 19.7235C71.4413 19.6565 71.9833 19.5895 72.5203 19.5235C72.7163 19.4965 72.9073 19.4415 73.1043 19.4185C73.7973 19.3405 74.5023 19.2615 75.1893 19.1835C75.4973 19.1505 75.8023 19.0895 76.1023 19.0255C76.4873 18.9415 76.8673 18.8245 77.2723 18.8445C77.5243 18.8515 77.3613 19.6405 76.9253 19.7755C76.1473 19.9835 75.3663 20.1785 74.5433 20.1945C74.0523 20.2125 73.5673 20.3585 73.0773 20.4405C72.5413 20.5245 71.9993 20.6105 71.4603 20.6955C71.1273 20.7485 70.7923 20.8025 70.4623 20.8545C69.9023 20.9465 69.4333 20.9315 68.9263 21.0295C68.5413 21.0945 68.1723 21.2235 67.7963 21.3275C67.7133 21.3505 67.6333 21.3835 67.5493 21.4005C67.2373 21.4655 67.1263 21.4085 67.0153 21.1295C66.9903 21.0665 66.9603 21.0045 66.9413 20.9395C66.8773 20.7225 66.9783 20.5185 67.2013 20.4195C67.8603 20.1225 68.5813 19.9885 69.3223 19.8915C69.5873 19.8515 69.9173 19.8395 70.1023 19.8185L70.8953 19.6975L70.9013 19.7235Z" fill="#333333" />
<path fill-rule="evenodd" clip-rule="evenodd" d="M67.4959 25.6385C68.4619 25.4895 69.4289 25.3405 70.3919 25.1925C70.7449 25.1245 71.0889 25.0585 71.4419 24.9915C72.6809 24.7895 73.9279 24.5865 75.1629 24.3855C75.7139 24.2945 76.2609 24.1735 76.7999 24.0495C77.4919 23.8885 78.1799 23.6935 78.8939 23.6335C79.3379 23.5905 78.9529 24.4385 78.1629 24.6645C76.7559 25.0335 75.3439 25.3835 73.8799 25.5455C73.0059 25.6525 72.1229 25.8855 71.2409 26.0495L68.3259 26.5595L66.5309 26.8645C65.6259 27.0225 64.7119 27.1605 63.8179 27.3385C63.1229 27.4785 62.4529 27.6755 61.7709 27.8465C61.6219 27.8845 61.4709 27.9235 61.3229 27.9615C60.7579 28.0795 60.5639 28.0395 60.3919 27.7745C60.3529 27.7135 60.3059 27.6555 60.2779 27.5925C60.1849 27.3805 60.3849 27.1565 60.7879 27.0175C61.9859 26.6105 63.2759 26.3465 64.5769 26.1045C65.5449 25.9415 66.5179 25.7765 67.4899 25.6125L67.4959 25.6385Z" fill="#333333" />
</svg>
