<svg width="76" height="110" viewBox="0 0 76 110" fill="none" xmlns="http://www.w3.org/2000/svg">
<path fill-rule="evenodd" clip-rule="evenodd" d="M36.0548 99.3043C34.1638 99.2583 32.2278 99.0753 30.3228 98.5413C29.6298 98.3473 28.9218 98.1563 28.2558 97.8343C27.0828 97.2763 25.9928 96.4783 25.1348 95.4863C24.7018 94.9833 24.3308 94.4793 23.9988 93.8823C23.6508 93.2853 23.4478 92.5923 23.3668 91.8973C23.2848 91.2783 23.3508 90.6413 23.5028 90.0403C23.6678 89.4373 23.9618 88.8883 24.3048 88.3863C25.2258 87.1223 26.7868 86.3653 28.2438 86.5043C28.7008 86.5333 28.6358 86.7693 28.3428 87.1273C28.0298 87.4443 27.6078 88.0903 27.1388 88.4443C26.6878 88.7503 26.4268 89.2113 26.1358 89.5603C25.8668 89.9413 25.6938 90.3593 25.6168 90.7843C25.5018 91.2023 25.4808 91.6513 25.5698 92.1183C25.6618 92.5833 25.8928 93.0463 26.2068 93.5933C26.5888 94.2003 27.1148 94.7283 27.7218 95.1593C28.3398 95.5793 29.0298 95.9053 29.7408 96.1903C31.3128 96.8133 33.0808 97.0853 34.8668 97.1983C35.9698 97.2613 37.0898 97.2773 38.1918 97.2143C39.8648 97.1163 41.5518 96.9083 43.1368 96.4173C44.3788 96.0703 45.5288 95.5403 46.6258 94.9363C46.8698 94.8053 47.0968 94.6593 47.3348 94.5183C48.2188 93.9943 48.5508 93.8993 48.9528 94.0433C49.0428 94.0753 49.1458 94.0933 49.2178 94.1343C49.4448 94.2463 49.2768 94.7553 48.6658 95.3353C47.7548 96.1813 46.6908 96.9313 45.5328 97.5333C44.9528 97.8293 44.3568 98.1173 43.7368 98.3373C43.1108 98.5343 42.4728 98.7003 41.8298 98.8303C39.9228 99.2323 37.9718 99.3603 36.0578 99.3563L36.0548 99.3043Z" fill="#333333" />
<path fill-rule="evenodd" clip-rule="evenodd" d="M41.212 100.028C40.187 100.3 39.144 100.494 38.098 100.654C37.713 100.706 37.336 100.756 36.95 100.808C35.59 100.906 34.222 100.876 32.874 100.687C32.274 100.608 31.676 100.502 31.086 100.377C30.338 100.188 29.552 99.9961 28.914 99.5041C28.711 99.3601 28.872 99.1751 29.16 99.0611C29.455 98.9421 29.835 98.9131 30.215 99.0341C31.543 99.5321 32.999 99.7561 34.492 99.8871C35.39 99.9551 36.329 99.8561 37.242 99.7241C38.252 99.6091 39.254 99.4011 40.247 99.1531C40.859 99.0071 41.46 98.8061 42.062 98.6201L43.418 98.1391C43.861 97.9591 44.301 97.7681 44.735 97.5711C45.399 97.2431 46.016 96.8551 46.659 96.5101L47.074 96.2671C47.604 95.9801 47.814 95.9581 48.02 96.0451C48.067 96.0661 48.122 96.0801 48.158 96.1061C48.277 96.1891 48.128 96.4191 47.783 96.7211C46.766 97.6271 45.539 98.3731 44.23 98.9561C43.269 99.4161 42.253 99.7701 41.221 100.054L41.212 100.028Z" fill="#333333" />
<path fill-rule="evenodd" clip-rule="evenodd" d="M43.212 106.478C43.537 106.201 43.815 105.807 44.07 105.394C44.168 105.247 44.204 105.06 44.296 104.904C44.61 104.337 44.887 103.724 45.162 103.09C45.294 102.814 45.39 102.519 45.498 102.225C45.644 101.852 45.738 101.428 46.158 101.123C46.278 101.029 46.416 101.217 46.542 101.445C46.662 101.686 46.808 101.886 46.77 102.08C46.588 102.706 46.509 103.518 46.058 104.221C45.814 104.649 45.714 105.158 45.496 105.626C45.265 106.142 44.955 106.639 44.608 107.111C44.358 107.383 44.139 107.672 43.835 107.898L43.508 108.164L43.132 108.367C42.892 108.521 42.622 108.599 42.36 108.698C42.159 108.791 41.958 108.854 41.749 108.912C41.544 108.966 41.328 109.064 41.116 109.081C41.023 109.093 40.931 109.095 40.836 109.087C40.485 109.043 40.382 108.937 40.356 108.584C40.349 108.509 40.338 108.436 40.338 108.368C40.339 108.154 40.498 107.885 40.702 107.788C41.327 107.478 41.792 107.376 42.247 107.154C42.551 106.954 42.9 106.789 43.183 106.455L43.212 106.478Z" fill="#333333" />
<path fill-rule="evenodd" clip-rule="evenodd" d="M27.46 88.824C27.209 88.928 26.911 89.042 26.654 89.241C26.562 89.314 26.507 89.418 26.415 89.493C26.079 89.756 25.748 90.064 25.504 90.428C25.414 90.588 25.358 90.777 25.369 90.942C25.363 91.177 25.447 91.303 25.273 91.484C25.211 91.545 24.825 91.726 24.394 91.772C23.978 91.842 23.434 91.643 23.391 91.367C23.278 90.873 23.375 90.441 23.526 90.081C23.672 89.712 23.898 89.409 24.17 89.153C24.502 88.86 24.649 88.457 24.939 88.146C25.261 87.812 25.617 87.513 26.023 87.268C26.261 87.109 26.543 87.001 26.809 86.882C27.015 86.796 27.248 86.751 27.461 86.687C27.696 86.665 27.918 86.612 28.152 86.596C28.335 86.593 28.522 86.549 28.713 86.541C28.9 86.55 29.098 86.56 29.294 86.592C29.384 86.598 29.45 86.647 29.522 86.692C29.772 86.89 29.778 87.063 29.599 87.42C29.558 87.502 29.52 87.583 29.474 87.659C29.32 87.909 29.089 88.087 28.91 88.183C28.354 88.497 28.325 88.589 28.09 88.644C27.938 88.678 27.717 88.746 27.49 88.867L27.46 88.824Z" fill="#333333" />
<path fill-rule="evenodd" clip-rule="evenodd" d="M10.3073 72.0183C7.91127 69.2403 5.75227 66.2313 4.02627 62.9713C3.69327 62.3863 3.40427 61.7783 3.12027 61.1673C2.81927 60.5643 2.54827 59.9493 2.31727 59.3153C0.553273 54.9053 -0.167727 50.0903 0.184273 45.3833C0.241273 44.3373 0.415273 43.2983 0.541273 42.2593C0.765273 41.2373 0.890273 40.1933 1.18527 39.1973C1.77427 36.6083 2.78027 34.0343 4.33927 31.8603C4.82927 31.1853 4.87327 31.3593 4.63527 32.0283C4.38727 32.6973 3.97127 33.9083 3.41927 35.2823C3.17527 35.8933 2.95927 36.5163 2.76627 37.1443C2.57127 37.7693 2.43927 38.4273 2.25327 39.0613C2.07127 39.6993 1.90727 40.3403 1.79827 40.9943C1.68427 41.6463 1.51227 42.2893 1.44327 42.9483C1.02527 45.5663 0.994273 48.2383 1.24927 50.8933C1.55227 54.0783 2.54427 57.3073 3.92827 60.2753C5.43327 63.5523 7.36127 66.6473 9.62827 69.4863C11.0053 71.2473 12.4943 72.9263 14.0603 74.5283C16.4213 76.9683 18.9543 79.2683 21.5363 81.4473C23.5453 83.1423 25.5893 84.7113 27.6103 86.3593C28.0533 86.7253 28.4993 87.0673 28.9313 87.4563C30.5483 88.8763 30.9853 89.4283 31.1453 89.9213C31.1833 90.0323 31.2473 90.1643 31.2563 90.2403C31.2823 90.5003 30.5603 90.0003 29.3533 89.0183C25.7483 86.1313 21.8453 83.1413 18.1353 79.8623C15.3833 77.4243 12.7143 74.8453 10.2893 72.0393L10.3073 72.0183Z" fill="#333333" />
<path fill-rule="evenodd" clip-rule="evenodd" d="M5.53968 29.9743C7.11368 27.8713 8.96768 26.0213 10.9907 24.3983C13.0607 22.8403 15.2767 21.4983 17.6177 20.4233C22.3157 18.3353 27.4437 17.1973 32.6077 17.3593C34.4917 17.4173 36.3717 17.6343 38.1897 17.9953C39.1057 18.1763 40.0187 18.3943 40.9237 18.6613C41.8287 18.9233 42.7137 19.3063 43.6037 19.6333C46.6877 20.9813 49.4317 23.0573 51.6197 25.5643C53.8177 28.0703 55.4747 30.9883 56.6107 34.0593C58.9187 40.2073 59.3617 46.8813 58.5017 53.2573C58.1577 56.0983 57.5537 58.9013 56.8077 61.6503C56.0867 64.4103 55.1397 67.0923 54.1337 69.7253C52.8367 73.1093 51.2807 76.3953 49.5457 79.5763C47.8247 82.7653 45.8687 85.8203 43.7457 88.7353C42.4147 90.5503 42.3487 90.1283 43.1007 88.3563C43.4857 87.4773 44.0297 86.2333 44.7247 84.7663C45.3947 83.2843 46.2247 81.5853 47.1727 79.7743C48.8627 76.5653 50.3097 73.2463 51.6947 69.9183C53.0507 66.5763 54.2087 63.1583 55.0827 59.6743C56.8467 52.7243 57.3917 45.4203 55.7117 38.4513C55.1997 36.3803 54.4807 34.3393 53.5327 32.3993C52.5807 30.4603 51.3477 28.6583 49.9087 27.0533C48.4647 25.4543 46.7977 24.0423 44.9147 22.9983C43.0347 21.9523 41.0377 21.1513 38.9097 20.6583C29.5997 18.3283 19.2217 20.7513 11.7647 26.8733C9.48568 28.7593 7.50468 31.0153 6.05068 33.5783C5.72468 34.2373 5.37468 34.8873 5.06368 35.5523L4.29868 37.6203C3.91668 39.0603 3.51868 40.5023 3.32468 41.9823L3.18568 42.8173L3.11568 43.6613L2.98168 45.3503L2.99268 47.0453L3.00168 47.8923L3.08068 48.7373C3.21568 50.9993 3.73768 53.2223 4.37968 55.3953C5.03568 57.5713 5.98268 59.6503 7.01268 61.6773C8.09068 63.6823 9.31269 65.6073 10.6417 67.4523C14.8197 73.1803 19.9637 77.9393 25.2377 82.5983C26.4037 83.6253 27.5657 84.6063 28.7267 85.6743C33.0397 89.5893 34.2117 91.3083 34.4367 92.7003C34.4857 93.0183 34.5387 93.4173 34.5127 93.5983C34.4867 93.7553 34.3887 93.7403 34.2207 93.5993C34.0447 93.4573 33.8617 93.1823 33.4877 92.8283C32.8007 92.1103 31.6587 90.9923 30.0777 89.6053C25.3397 85.5383 20.2417 81.4023 15.5787 76.6173C10.9247 71.8493 6.56868 66.4263 3.70568 60.0543C2.63868 57.6983 1.83968 55.2053 1.28568 52.6523C0.720684 50.0953 0.576684 47.4503 0.657684 44.8313C0.754684 42.2023 1.27668 39.6203 1.95768 37.1013C2.75068 34.5413 3.95768 32.1253 5.48268 29.9493L5.53968 29.9743Z" fill="#333333" />
<path fill-rule="evenodd" clip-rule="evenodd" d="M31.3927 97.6975C33.9417 98.1645 36.6527 98.0875 39.3107 97.6545C40.2737 97.4855 41.2497 97.2175 42.1837 97.0125C43.7547 96.6055 45.3557 95.8575 46.8167 94.9905C48.2747 94.1095 49.6347 93.0305 50.5827 91.7195C51.3817 90.5375 51.5687 89.1205 50.8597 87.9595C50.4187 87.2225 49.6787 86.6145 48.8807 86.1155C48.0657 85.6355 47.1967 85.1985 46.2727 84.8695C45.6987 84.6765 45.7847 84.4885 46.3757 84.3205C46.9457 84.1905 48.1187 84.0075 49.3137 84.5405C50.3567 85.0065 51.3837 85.6385 52.2157 86.6545C52.6507 87.1555 52.9097 87.8075 53.1557 88.4465C53.2267 88.7885 53.2837 89.1395 53.3117 89.4905C53.3207 89.8385 53.2607 90.1825 53.2247 90.5275C52.9607 91.8795 52.2577 92.9525 51.4957 93.8415C50.7277 94.7425 49.8237 95.4215 48.8937 96.0345C47.7777 96.7585 46.6207 97.4115 45.4097 97.9935C44.8037 98.2835 44.1817 98.5505 43.5367 98.7815C43.2177 98.9025 42.8717 98.9905 42.5417 99.0935L41.5787 99.3035C38.7707 99.9285 35.8597 100.255 32.9487 100.01C31.1597 99.8535 29.3797 99.4785 27.6847 98.8225C26.4047 98.3115 25.1977 97.5875 24.1357 96.6695C23.0887 95.7355 22.2327 94.5305 21.8097 93.1325C21.5037 92.0495 21.4577 90.8315 21.8267 89.7255C22.2067 88.6235 22.9177 87.6745 23.7657 86.9465C24.1397 86.6235 24.5187 86.3275 24.9437 86.0795C25.7277 85.6165 26.3167 85.4795 26.7307 85.4275C27.1527 85.3945 27.4247 85.4905 27.6687 85.6915C27.7797 85.7805 27.9117 85.8595 27.9837 85.9535C28.2257 86.2785 27.6627 86.7465 26.7357 87.3315C25.3547 88.1815 24.1937 89.3585 23.8767 90.6145C23.6847 91.2405 23.7197 91.8585 23.8667 92.5115C24.0447 93.1645 24.4277 93.8015 24.8957 94.3955C26.3847 96.1545 28.8547 97.2105 31.3977 97.6445L31.3927 97.6975Z" fill="#333333" />
<path fill-rule="evenodd" clip-rule="evenodd" d="M28.7227 92.965C30.1367 93.557 31.7097 93.944 33.3187 94.133C33.9067 94.205 34.5017 94.195 35.0947 94.218C37.1887 94.31 39.3297 94.155 41.3807 93.632C42.2877 93.398 43.1797 93.077 43.9967 92.657C45.0477 92.107 45.9627 91.397 46.7747 90.608C47.0327 90.363 47.2247 90.503 47.2607 90.937C47.3187 91.378 47.1367 92.145 46.5387 92.689C44.4167 94.536 41.7907 95.397 39.1767 95.653C37.6107 95.802 35.9957 96.042 34.3847 95.996C32.6197 95.943 30.8447 95.713 29.1357 95.162C28.0867 94.824 27.0607 94.372 26.1137 93.762C25.4007 93.295 24.7347 92.728 24.1867 92.046C23.9307 91.691 23.6737 91.337 23.4827 90.94C23.2637 90.584 23.1037 90.017 23.1137 89.535C23.1247 88.752 23.4237 88.057 23.8067 87.477C24.1957 86.895 24.6837 86.403 25.2467 86.003C25.4907 85.821 25.7447 85.66 26.0247 85.523C27.0927 85.048 27.5807 85.232 27.8207 85.654C27.8777 85.752 27.9447 85.846 27.9727 85.942C28.0477 86.267 27.7017 86.564 27.1877 86.847C26.4037 87.26 25.6657 87.936 25.2647 88.636C25.0637 88.982 24.9757 89.32 24.9957 89.543C24.9987 89.659 25.0337 89.748 25.0787 89.842C25.1327 89.958 25.2827 90.199 25.3737 90.375C26.0767 91.473 27.3107 92.349 28.7387 92.919L28.7227 92.965Z" fill="#333333" />
<path fill-rule="evenodd" clip-rule="evenodd" d="M34.4777 102.118C35.7967 102.428 37.2317 102.475 38.6627 102.346C39.1877 102.31 39.6977 102.164 40.2197 102.078C42.0667 101.777 43.8917 101.202 45.6377 100.437C46.4037 100.081 47.1367 99.6443 47.8007 99.1473C48.6777 98.5203 49.3757 97.7433 50.0967 97.0213C50.3397 96.8033 50.5567 96.9373 50.6597 97.3523C50.7077 97.5573 50.7487 97.8573 50.6877 98.1693C50.6157 98.4583 50.4767 98.7773 50.2547 99.0633C48.5897 100.919 46.5177 102.249 44.2227 102.95C42.8477 103.344 41.4787 103.917 40.0287 104.168C38.4457 104.455 36.8157 104.556 35.1887 104.393C34.1907 104.287 33.1857 104.05 32.2447 103.715C30.8177 103.191 29.4697 102.387 28.3517 101.339C27.4787 100.537 26.6757 99.6353 26.0987 98.5763C25.9807 98.3403 25.8647 98.1083 25.7657 97.8613C25.4767 96.9183 25.6417 96.5573 26.0377 96.2653C26.1287 96.1983 26.2107 96.1203 26.2977 96.0763C26.5767 95.9293 27.0007 96.2103 27.3687 96.7233C27.9097 97.4883 28.3807 98.2093 28.9177 98.8703C29.4567 99.5293 30.0917 100.097 30.8117 100.578C31.8697 101.288 33.1827 101.807 34.4847 102.064L34.4777 102.118Z" fill="#333333" />
<path fill-rule="evenodd" clip-rule="evenodd" d="M28.9708 40.7384C28.9348 40.2374 28.9318 39.7234 28.9598 39.1974L29.0188 38.3864L29.1158 37.8014C29.1718 37.5904 29.2478 37.3864 29.3128 37.1784C29.5908 36.3424 30.2408 35.7984 31.0108 35.6394C31.7888 35.4854 32.5998 35.7524 33.2238 36.3204C33.3748 36.4674 33.5328 36.6184 33.6578 36.7854C33.7968 36.9534 33.9288 37.1164 33.9858 37.2254C34.1448 37.4734 34.2708 37.7174 34.3908 37.9614C34.6288 38.4474 34.8118 38.9274 34.9758 39.4054C35.2848 40.3694 35.5438 41.3694 35.6608 42.3614C36.1538 46.3304 35.5568 50.3324 33.8198 53.9275C33.5008 54.5825 33.1278 55.2164 32.7158 55.8305C32.5068 56.1395 32.2268 56.4515 31.9808 56.7575C31.6878 57.0385 31.3898 57.3254 31.0548 57.5674C29.6858 58.5595 27.8518 58.8204 26.3488 58.4644C24.9978 58.1874 23.7998 57.6144 22.7128 56.9304C21.6238 56.2384 20.6448 55.4335 19.7588 54.4974C18.8588 53.5315 18.1598 52.4714 17.5718 51.3454C16.9908 50.2184 16.5128 49.0274 16.2728 47.7384C16.0368 46.4664 15.9938 45.0374 16.6168 43.7144C16.9118 43.0714 17.3178 42.4954 17.9078 42.0094C18.4858 41.5224 19.2938 41.2404 20.0608 41.2644C21.6168 41.3164 22.7888 42.2534 23.6728 43.1084C24.5858 43.9974 25.3408 45.0054 26.0008 46.0524C28.3338 49.7864 29.6378 53.9744 30.8758 57.9954C31.6848 60.5924 32.3948 63.2594 32.8468 65.9834C33.0588 67.3475 33.2218 68.7234 33.2638 70.1054C33.3058 71.4884 33.2348 72.8694 33.1048 74.2374C32.8968 75.9435 32.6448 75.6705 32.3798 74.2355C32.2338 73.4695 32.0418 72.4754 31.8208 71.3214C31.5568 70.1304 31.2918 68.7584 31.0388 67.2645C30.5868 64.6145 29.8318 62.0204 29.0228 59.4084C28.2348 56.7664 27.4478 54.1414 26.4918 51.6414C25.5338 49.1484 24.3688 46.7034 22.6898 44.8074C22.2758 44.3364 21.8078 43.8884 21.3688 43.5864C20.9128 43.2854 20.4258 43.0994 20.0128 43.1004C19.5988 43.0894 19.2378 43.2374 18.8878 43.5754C18.5378 43.9154 18.2408 44.4244 18.0908 44.9174C17.7018 46.1664 18.0018 47.7694 18.5918 49.2134C19.1788 50.6694 20.0568 52.0905 21.1258 53.2085C22.2438 54.3405 23.5888 55.3144 25.0138 55.9604C26.4318 56.5744 27.9978 56.8664 29.2228 56.2934C29.8998 55.9994 30.4818 55.4814 30.9628 54.8314C31.4518 54.1244 31.8838 53.3545 32.2418 52.5464C32.9378 50.9204 33.4018 49.1664 33.5988 47.3844C33.8138 45.6024 33.7688 43.7894 33.4538 42.0464C33.2758 41.1834 33.0408 40.3324 32.7078 39.5184C32.5428 39.1174 32.3558 38.7334 32.1448 38.4034C31.9698 38.1284 31.8808 38.0234 31.6758 37.9064C31.4338 37.7694 31.1298 37.9144 31.0338 38.1654C30.9808 38.2834 30.9358 38.4174 30.9168 38.5384C30.8728 38.7384 30.8238 39.0294 30.8148 39.2844C30.7628 40.3504 30.8838 41.4714 31.0918 42.5634C31.3028 43.6564 31.6048 44.7404 32.0268 45.7564C32.4388 46.7464 32.9998 47.7844 33.7168 48.2804C34.3098 48.6434 35.0418 48.8215 35.7448 48.6884C36.4568 48.5684 37.1558 48.1865 37.7688 47.6834C38.9878 46.6664 39.9648 45.2134 40.4328 43.7034C40.6638 42.9884 40.6708 42.1664 40.5678 41.3874C40.4558 40.6204 40.1758 39.8574 39.7168 39.4664C39.2418 39.0724 38.7678 39.0774 38.2668 39.5504C37.7628 40.0334 37.3518 40.7634 37.0418 41.5094C36.7858 42.0924 36.6368 42.6864 36.4898 43.3424C36.3248 43.9774 36.2148 44.6254 36.1088 45.2724C35.9178 46.5684 35.8028 47.8734 35.7748 49.1794C35.7158 51.7914 35.9138 54.4014 36.3668 56.9744C36.5668 58.1084 36.8158 59.2064 37.0988 60.3284C37.6148 62.4124 38.0598 63.7514 38.2998 64.7204C38.5518 65.6854 38.5918 66.2874 38.5188 66.8274C38.4848 67.0735 38.4808 67.3844 38.4188 67.5494C38.2588 68.0975 37.0208 66.6494 35.9108 63.5274C34.3038 58.9074 33.4998 53.8504 33.7198 48.6994C33.7888 47.4134 33.9098 46.1205 34.1258 44.8324C34.2468 44.1915 34.3188 43.5394 34.4738 42.8984L34.6858 41.9214C34.7798 41.5524 34.8898 41.2204 35.0118 40.8814C35.2628 40.2104 35.5598 39.5504 35.9958 38.8834C36.4318 38.2474 37.0138 37.4644 38.2808 37.0434C38.8848 36.9064 39.5568 36.8934 40.1258 37.1704C40.7268 37.3674 41.1548 37.7354 41.5038 38.1224C42.1958 38.9164 42.4548 39.7494 42.6338 40.5254C42.8548 41.6964 42.8828 42.7694 42.5858 44.0084C42.2738 45.1364 41.7788 46.0964 41.1788 46.9914C40.5728 47.8794 39.8518 48.6944 38.9588 49.3844C38.0708 50.0614 36.9628 50.6414 35.6528 50.7454C35.3338 50.7924 34.9958 50.7354 34.6708 50.7204C34.3458 50.6794 34.0308 50.5764 33.7148 50.4944C33.4188 50.3744 33.1338 50.2324 32.8488 50.0924C32.5298 49.9054 32.2538 49.6784 32.0228 49.4524C31.1428 48.5335 30.6908 47.5764 30.2878 46.6244C29.5318 44.7104 29.0808 42.7834 28.9248 40.7524L28.9708 40.7384Z" fill="#333333" />
<path fill-rule="evenodd" clip-rule="evenodd" d="M68.5871 43.154C68.5641 43.329 68.3331 43.252 67.9741 43.04C67.8591 42.973 67.5881 42.694 67.5791 42.625C67.5611 42.491 67.5461 42.358 67.5541 42.244C67.5541 42.175 68.0081 41.45 68.1691 41.195C68.3191 40.946 68.5161 40.745 68.7301 40.565C69.1551 40.187 69.6101 39.836 70.0911 39.516C70.1981 39.446 70.3181 39.396 70.4461 39.363C70.8921 39.258 71.2761 39.061 71.6561 38.831C71.7201 38.794 71.7941 38.775 71.8301 38.679C71.8771 38.505 73.0201 38.052 73.1941 38.073C73.6111 38.09 74.0091 38.069 74.4141 38.12C74.4711 38.127 74.5241 38.086 74.5891 38.166C74.7381 38.35 74.8461 38.3 74.9651 38.3C75.1281 38.296 75.2941 38.315 75.4601 38.369C75.5421 38.395 75.6291 38.502 75.7111 38.586C75.7851 38.661 75.7661 38.961 75.7461 38.995C75.6861 39.094 75.7501 39.229 75.7641 39.352C75.7691 39.393 75.7751 39.447 75.7741 39.481C75.7571 39.547 75.0411 40.168 74.9741 40.192C74.9631 40.186 74.6951 40.302 74.4191 40.41C74.1411 40.52 73.8601 40.652 73.8071 40.693C73.7511 40.731 73.6721 40.704 73.6001 40.696C73.5601 40.685 72.7901 41.159 72.7611 41.175C72.5821 41.231 72.4491 41.377 72.2021 41.301C72.1531 41.288 72.1241 41.315 72.0921 41.335C71.8171 41.507 71.5021 41.61 71.1971 41.746C71.0441 41.819 70.9131 41.927 70.7721 42.02C70.7461 42.037 70.7071 42.034 70.6751 42.042C70.6351 42.052 70.5901 42.055 70.5591 42.079C70.2331 42.313 69.8481 42.484 69.5741 42.793C69.5081 42.857 69.0381 43.006 68.9711 43.097C68.9321 43.144 68.5961 43.082 68.5871 43.154Z" fill="#333333" />
<path fill-rule="evenodd" clip-rule="evenodd" d="M58.9518 20.8723C58.9278 21.0523 58.6828 20.9703 58.3088 20.7543C58.1898 20.6853 57.9078 20.3993 57.8968 20.3283C57.8758 20.1883 57.8578 20.0493 57.8618 19.9293C57.8618 19.8573 58.2968 19.0813 58.4428 18.8003C58.5808 18.5293 58.7688 18.3093 58.9728 18.1093C59.3898 17.7043 59.8348 17.3333 60.2768 16.9773C60.3758 16.8993 60.4898 16.8393 60.6158 16.8033C61.0478 16.6753 61.3938 16.4353 61.7058 16.1543C61.7578 16.1073 61.8238 16.0783 61.8308 15.9713C61.8488 15.7953 62.7378 15.1363 62.8818 15.1033C63.2558 15.0253 63.5918 14.8933 63.9458 14.7813C63.9978 14.7683 64.0228 14.7123 64.1208 14.7663C64.3488 14.8923 64.4138 14.7973 64.5138 14.7493C64.6528 14.6813 64.7958 14.6193 64.9648 14.5883C65.0488 14.5723 65.1878 14.6283 65.3108 14.6623C65.4228 14.6933 65.6038 14.9743 65.6078 15.0183C65.6188 15.1433 65.7628 15.2313 65.8548 15.3353C65.8858 15.3703 65.9268 15.4163 65.9478 15.4473C65.9948 15.5103 65.6598 16.5743 65.5778 16.6413C65.5808 16.6873 64.5698 17.5883 64.4698 17.7093C64.4178 17.7723 64.3198 17.7723 64.2358 17.7893C64.1958 17.8013 63.4198 18.5353 63.3848 18.5493C63.1888 18.6463 63.0578 18.8323 62.7698 18.7873C62.7128 18.7783 62.6828 18.8103 62.6498 18.8373C62.3658 19.0643 62.0258 19.2043 61.7038 19.3693C61.5418 19.4543 61.4108 19.5823 61.2628 19.6853C61.2358 19.7053 61.1928 19.7013 61.1598 19.7113C61.1168 19.7233 61.0678 19.7263 61.0358 19.7533C60.7138 20.0333 60.2888 20.1873 60.0048 20.5123C59.9348 20.5783 59.4298 20.7233 59.3598 20.8173C59.3178 20.8653 58.9618 20.7983 58.9518 20.8723Z" fill="#333333" />
<path fill-rule="evenodd" clip-rule="evenodd" d="M45.9841 106.32C45.4551 107.075 44.8271 107.837 43.9911 108.43C43.6761 108.631 43.3811 108.872 43.0171 108.998C42.3921 109.257 41.6571 109.323 41.0201 109.222C40.3741 109.124 39.7891 108.904 39.2651 108.62C38.7991 108.37 38.3491 108.113 37.9211 107.836C37.6501 107.654 37.3721 107.479 37.1211 107.272C36.8801 107.052 36.6771 106.79 36.5081 106.503C36.4051 106.321 36.5951 106.173 36.9011 106.087C37.2021 106.007 37.6421 105.948 37.9521 106.088C38.9191 106.766 39.8921 107.328 40.8591 107.701C41.4731 107.922 42.0501 107.753 42.6121 107.442C43.2251 107.11 43.7701 106.559 44.2401 105.906C44.5351 105.509 44.7981 105.067 45.0501 104.618C45.4231 103.928 45.8001 103.216 46.1261 102.48C46.3741 101.907 46.5431 101.293 46.8141 100.708C46.8751 100.579 46.9211 100.444 46.9921 100.319C47.2841 99.8691 47.5191 99.8151 47.9401 99.9881C48.0311 100.024 48.1201 100.049 48.1921 100.085C48.4101 100.189 48.6171 100.592 48.5331 100.941C48.2971 101.988 47.8601 102.966 47.3371 104.001C46.9551 104.769 46.5241 105.553 46.0211 106.341L45.9841 106.32Z" fill="#333333" />
<path fill-rule="evenodd" clip-rule="evenodd" d="M32.4884 9.53536C32.5994 9.69236 32.3824 9.83536 31.9914 9.96636C31.8664 10.0084 31.4854 10.0144 31.4264 9.97136C31.3144 9.88736 31.2014 9.80336 31.1184 9.71736C31.0734 9.66236 30.7674 8.81836 30.6204 8.54136C30.4874 8.27036 30.4174 7.99736 30.3594 7.72336C30.2434 7.16736 30.0724 6.62236 29.9754 6.07036C29.9504 5.94836 29.9534 5.82236 29.9754 5.69336C30.0564 5.24836 29.9804 4.82336 29.8374 4.41136C29.8134 4.34236 29.8114 4.26736 29.7114 4.21636C29.5394 4.13436 29.2604 2.99936 29.3344 2.82436C29.4384 2.41236 29.4684 2.01236 29.5204 1.60436C29.5274 1.54636 29.4844 1.49636 29.5704 1.42436C29.7704 1.25536 29.6994 1.15036 29.7134 1.02336C29.7254 0.850357 29.7334 0.676357 29.7924 0.491357C29.8504 0.391357 29.9694 0.277357 30.0454 0.175357C30.1154 0.0813571 30.3184 0.0713571 30.3564 0.0883571C30.4494 0.142357 30.5444 0.0553571 30.6304 0.0263571C30.6604 0.0163571 30.6994 0.00335711 30.7274 0.000357108C30.8274 -0.0186429 31.8384 0.726357 31.8204 0.843357C31.8244 0.854357 31.9724 1.18936 32.1294 1.54736C32.2854 1.90236 32.4554 2.27436 32.4994 2.34836C32.5474 2.42636 32.5144 2.52136 32.5034 2.61136C32.5134 2.64836 32.8934 3.75636 32.8924 3.80636C32.9034 4.04836 33.0244 4.27536 32.8514 4.54836C32.8184 4.60236 32.8364 4.64836 32.8474 4.69636C32.9354 5.10236 32.9054 5.52836 32.8984 5.94636C32.8944 6.16036 32.9424 6.36836 32.9434 6.58136C32.9444 6.61936 32.9154 6.66036 32.9034 6.70036C32.8884 6.75036 32.8634 6.80136 32.8664 6.84936C32.9014 7.34836 32.8054 7.85636 32.8804 8.34836C32.8964 8.46236 32.6844 9.01936 32.7114 9.14736C32.7244 9.22136 32.4414 9.47336 32.4884 9.53536Z" fill="#333333" />
<path fill-rule="evenodd" clip-rule="evenodd" d="M0.11043 11.2903C-0.10257 11.2623 0.00642982 10.9773 0.31843 10.5603C0.41743 10.4273 0.79843 10.1113 0.88043 10.0973C1.03943 10.0683 1.19443 10.0413 1.32043 10.0383C1.39443 10.0443 2.12143 10.4303 2.39843 10.5123C2.65643 10.6063 2.86643 10.7483 3.06843 10.9033L4.35343 11.8003C4.44943 11.8673 4.52943 11.9563 4.60143 12.0623C4.84143 12.4323 5.18543 12.6673 5.56443 12.8493C5.62743 12.8793 5.68043 12.9303 5.78243 12.8933C5.94343 12.8353 6.92743 13.4203 7.02743 13.5543C7.26543 13.8843 7.54043 14.1623 7.80243 14.4653C7.84043 14.5083 7.90743 14.5103 7.89943 14.6223C7.88043 14.8813 8.00043 14.9073 8.09343 14.9813C8.22143 15.0853 8.34443 15.2013 8.44443 15.3523C8.49443 15.4263 8.49443 15.5813 8.50743 15.7133C8.52043 15.8333 8.30643 16.1133 8.26543 16.1333C8.14543 16.1903 8.11143 16.3623 8.04243 16.4913C8.01943 16.5343 7.98843 16.5903 7.96543 16.6233C7.91243 16.6933 6.81043 16.7463 6.72443 16.6933C6.71443 16.6883 6.39343 16.5583 6.05143 16.4173C5.70943 16.2803 5.34943 16.1383 5.26943 16.1173C5.18643 16.0963 5.14343 16.0073 5.08943 15.9363C5.06643 15.9103 4.00243 15.5003 3.96543 15.4673C3.77943 15.3243 3.52943 15.2703 3.44443 14.9703C3.42843 14.9113 3.38143 14.8943 3.34043 14.8733C2.97843 14.6793 2.68343 14.3833 2.38043 14.1013C2.22343 13.9593 2.03743 13.8533 1.86843 13.7253C1.83843 13.7023 1.82743 13.6543 1.80543 13.6203C1.77743 13.5783 1.75943 13.5213 1.72143 13.4933C1.32143 13.1863 1.01843 12.7683 0.59743 12.4753C0.49443 12.4103 0.28043 11.8353 0.16943 11.7603C0.10243 11.7173 0.19343 11.3013 0.11043 11.2903Z" fill="#333333" />
</svg>
