<svg width="98" height="113" viewBox="0 0 98 113" fill="none" xmlns="http://www.w3.org/2000/svg">
<path fill-rule="evenodd" clip-rule="evenodd" d="M84.4065 75.5214C83.6535 74.0724 82.9495 72.5924 82.1535 71.1614C81.3335 69.7444 80.5655 68.2934 79.6715 66.9184C79.0255 65.9104 78.3725 64.9074 77.6955 63.9224C75.4065 60.3754 72.8805 56.9804 70.2025 53.7064C69.5965 52.9904 68.9865 52.2724 68.3545 51.5784C67.7015 50.9034 67.0505 50.2304 66.4035 49.5624C65.5755 48.6984 64.6595 47.9244 63.8055 47.0874C63.3845 46.6614 62.9275 46.2774 62.5105 45.8484C62.0965 45.4154 61.6915 44.9724 61.2945 44.5194C60.8035 43.9494 61.1145 43.7294 61.8705 43.8294C62.2495 43.8784 62.7435 44.0044 63.2955 44.2164C63.8535 44.4194 64.4495 44.7344 64.9585 45.2214C68.6485 48.5914 72.0015 52.3114 74.9045 56.4034C75.7565 57.6384 76.6695 58.8614 77.5915 60.0884C78.4715 61.3464 79.4035 62.5794 80.2375 63.8624C82.0635 66.6894 83.8065 69.5724 85.3705 72.5534C86.3775 74.3624 87.2395 76.2494 88.1475 78.1074C88.7995 79.5334 89.3935 80.9904 90.0185 82.4274C90.5755 83.8954 91.1315 85.3594 91.6835 86.8144C92.0735 87.9614 92.4945 89.0864 92.9265 90.2084C93.3135 91.3444 93.6745 92.4884 94.0425 93.6394C94.2135 94.1434 94.3785 94.6394 94.4835 95.1664C94.9255 97.1084 94.8455 97.7714 94.2545 98.2934C94.1205 98.4124 93.9935 98.5604 93.8535 98.6384C93.3915 98.8974 92.7745 98.1964 92.3615 96.8534C91.1585 92.8624 89.9085 88.6884 88.2945 84.5854C87.7595 83.0414 87.0535 81.5544 86.4415 80.0294C85.7915 78.5194 85.0565 77.0424 84.3585 75.5514L84.4065 75.5214Z" fill="#333333" />
<path fill-rule="evenodd" clip-rule="evenodd" d="M30.2482 110.859C26.3032 110.141 22.3602 109.268 18.5382 107.758C16.6372 106.99 14.7392 106.086 13.0482 104.669C12.2132 103.958 11.4222 103.091 10.8982 101.992C10.8362 101.854 10.7622 101.722 10.7112 101.578L10.5432 101.051C10.3042 100.64 10.5472 100.149 10.5742 99.8908L10.9142 98.3718C11.7032 95.4928 12.6542 92.7168 13.8382 90.0508C17.9682 80.6318 23.2592 71.8298 29.2652 63.5578C30.5912 61.7178 32.0132 59.9388 33.3952 58.1388L35.5742 55.5228L36.6592 54.2178L37.8052 52.9698C41.6632 48.6718 45.8552 44.4848 50.8972 41.5088C52.4502 40.5628 52.4482 41.0498 51.4762 42.3128C50.9872 42.9398 50.2862 43.7928 49.3442 44.6618C48.4262 45.5678 47.3872 46.6658 46.1342 47.6948C37.5222 55.3848 30.4022 64.7398 24.1322 74.6658C23.6652 75.4108 23.1872 76.1548 22.7332 76.9178C22.2942 77.6888 21.8532 78.4628 21.4122 79.2398C20.5092 80.7858 19.7052 82.3958 18.8842 84.0018C18.0482 85.6018 17.3422 87.2658 16.5632 88.8958C15.8872 90.5638 15.1192 92.2018 14.5332 93.8858C14.1952 94.8068 13.8242 95.7218 13.5632 96.6568C13.2812 97.5878 12.9572 98.5178 12.7902 99.4518C12.7062 99.8888 12.5312 100.505 12.5672 100.573C12.5822 100.596 12.6362 100.853 12.7372 101.02C12.8252 101.203 12.9062 101.39 13.0332 101.561C13.4822 102.268 14.1392 102.897 14.8742 103.447C16.3602 104.548 18.1462 105.348 19.9592 106.026C21.7862 106.693 23.6772 107.228 25.5912 107.682C30.3112 108.784 35.1572 109.456 40.0112 109.9C47.3702 110.56 54.8222 110.775 62.1602 110.488C67.8612 110.254 73.4442 109.665 78.9492 108.657C80.1582 108.428 81.3302 108.159 82.5262 107.877C84.7422 107.342 86.1382 106.89 87.1102 106.611C88.0942 106.351 88.6722 106.249 89.2262 106.207C89.4922 106.202 89.7822 106.088 89.9832 106.088C90.1502 106.087 90.2072 106.177 90.1472 106.382C90.0912 106.596 89.8992 106.899 89.5632 107.253C88.8922 107.944 87.6522 108.747 85.9672 109.328C80.9792 111.032 75.7412 111.743 70.4362 112.271C65.1272 112.768 59.7302 112.939 54.3262 112.895C46.3002 112.804 38.2352 112.258 30.2482 110.915V110.859Z" fill="#333333" />
<path fill-rule="evenodd" clip-rule="evenodd" d="M56.504 68.7665C59.118 68.4485 61.726 68.1235 64.254 67.6615C65.513 67.4295 66.763 67.1585 67.888 66.7925C68.166 66.7015 68.439 66.6035 68.681 66.4975C68.805 66.4485 68.953 66.3725 68.924 66.3915L69 66.3525C69.096 66.3025 69.205 66.1975 69.167 66.0745C69.156 65.9945 69.105 65.9285 69.051 65.8675C69.041 65.8525 69.017 65.8335 69.011 65.8295L68.927 65.7645C68.812 65.6735 68.642 65.5915 68.504 65.5015C67.883 65.1615 67.137 64.8625 66.359 64.6055C64.793 64.0935 63.108 63.7045 61.416 63.3325C58.303 62.6775 55.119 62.1075 51.946 61.2195C50.314 60.7235 48.675 60.1635 47.091 59.3125C46.31 58.8845 45.494 58.4405 44.752 57.7985C44.02 57.1745 43.297 56.2905 43.063 55.1495C42.897 54.2695 43.172 53.5665 43.422 53.0265C43.69 52.4715 44.012 52.0135 44.347 51.5835C45.016 50.7215 45.752 49.9875 46.501 49.2775C48.005 47.8685 49.594 46.6125 51.195 45.3875L53.598 43.5835L54.01 43.2695C54.122 43.2175 54.123 43.1115 54.12 42.9985L54.144 42.3965C54.156 42.1575 54.149 41.9045 54.153 41.6585C54.173 39.6825 54.118 37.6815 54.071 35.6875C53.935 30.6745 53.651 25.6305 53.374 20.6555C53.2 17.4575 53.025 14.2515 52.851 11.0485C52.7 7.84148 52.573 4.63448 52.695 1.41348C52.796 -0.603523 53.089 -0.316523 53.517 1.35748C53.742 2.19548 54.003 3.38148 54.286 4.81848C54.54 6.25548 54.74 7.94548 54.858 9.78448C55.291 16.3045 55.637 22.8345 55.907 29.3875C56.04 32.6645 56.172 35.9445 56.221 39.2505C56.238 40.0755 56.237 40.9085 56.231 41.7445C56.233 42.1755 56.217 42.5455 56.197 43.0615C56.19 43.4365 56.17 43.8085 56.137 44.1755C55.873 44.4205 55.566 44.6855 55.306 44.8865L51.296 47.9105C49.956 48.9545 48.638 50.0505 47.444 51.2385C46.853 51.8315 46.283 52.4515 45.83 53.0925C45.374 53.6965 45.053 54.4875 45.141 54.6945C45.317 55.3855 45.935 56.0665 46.783 56.6005C47.614 57.1695 48.669 57.4675 49.69 57.8135C51.775 58.4325 53.968 58.9095 56.168 59.3655C58.838 59.8965 61.54 60.4205 64.263 61.0795C65.625 61.4175 66.992 61.7845 68.369 62.3265C69.056 62.5835 69.752 62.9335 70.441 63.3675L71.051 63.8365C71.257 64.0155 71.408 64.2385 71.589 64.4375C71.788 64.6285 71.877 64.8755 71.996 65.1065C72.128 65.3325 72.193 65.5885 72.27 65.8375C72.326 66.1405 72.323 66.4645 72.258 66.7725C72.169 67.0735 72.052 67.3685 71.857 67.6185C71.495 68.1385 70.932 68.5155 70.348 68.8375C69.794 69.1205 69.437 69.2445 68.98 69.4085C68.547 69.5585 68.119 69.6825 67.692 69.7985C65.984 70.2515 64.295 70.5415 62.607 70.8065C57.158 71.6565 51.703 72.0535 46.359 72.8755C45.352 73.0425 44.349 73.2245 43.369 73.4495C42.879 73.5615 42.398 73.6875 41.928 73.8285C41.695 73.9005 41.465 73.9765 41.243 74.0595L40.919 74.1885C40.82 74.2275 40.783 74.2505 40.712 74.2825C40.471 74.4045 40.202 74.5595 40.104 74.8305C40.005 75.1215 40.247 75.3575 40.383 75.5915C40.432 75.6975 40.593 75.8495 40.75 76.0265C40.912 76.1885 41.036 76.3805 41.232 76.5165C41.59 76.8145 41.945 77.1175 42.367 77.3545C43.991 78.3745 45.929 78.9925 47.886 79.4525C49.851 79.9115 51.866 80.2175 53.888 80.4595C60.183 81.2295 66.464 81.2865 72.812 82.5145C74.208 82.7845 75.581 83.1095 76.973 83.5875C79.552 84.4895 81.15 85.5995 82.063 86.5695C82.288 86.8195 82.481 87.0485 82.644 87.2615C82.793 87.4905 82.902 87.7155 82.996 87.9165C83.184 88.3205 83.266 88.6745 83.254 89.0285C83.256 89.3435 83.292 89.7105 83.228 89.9045C83.121 90.2305 82.69 89.9855 82.083 89.3895C81.388 88.8465 80.441 87.9805 78.892 87.1955C77.765 86.5935 76.502 86.1525 75.196 85.7955C73.899 85.4205 72.531 85.1655 71.156 84.9235C68.388 84.4725 65.528 84.1865 62.621 83.9265C59.712 83.6675 56.755 83.4325 53.76 83.0825C50.764 82.7025 47.725 82.2815 44.656 81.2795C43.52 80.9135 42.378 80.4355 41.265 79.7945L40.44 79.2755C40.168 79.0925 39.909 78.8625 39.647 78.6545C39.379 78.4535 39.131 78.2135 38.898 77.9455L38.543 77.5575L38.343 77.3325C38.27 77.2165 38.212 77.0995 38.146 76.9825L37.375 75.5835C37.211 75.1125 37.218 74.5925 37.356 74.1065C37.504 73.6235 37.771 73.1935 38.134 72.8255C38.515 72.4715 38.96 72.1555 39.462 71.9235C39.577 71.8675 39.724 71.7845 39.814 71.7505L40.052 71.6515C40.211 71.5825 40.36 71.5325 40.513 71.4755C40.817 71.3675 41.115 71.2715 41.407 71.1875C41.995 71.0165 42.57 70.8755 43.141 70.7505C47.687 69.8405 52.082 69.2735 56.484 68.6965L56.504 68.7665Z" fill="#333333" />
<path fill-rule="evenodd" clip-rule="evenodd" d="M53.0432 3.92075C53.0432 3.92075 67.3002 1.91475 71.2082 4.97675C71.2082 4.97675 72.1582 5.61075 71.8412 6.87775C71.5672 7.97375 68.8422 14.4448 68.1132 16.1708C68.0142 16.4048 58.1572 17.1568 54.4892 16.8238C54.1332 16.7918 52.8622 5.00475 53.0432 3.92075Z" fill="#333333" />
<path fill-rule="evenodd" clip-rule="evenodd" d="M72.5534 9.43152C72.3954 9.82552 69.4644 16.9525 68.8474 17.5185C68.3744 17.9515 61.7224 18.1475 61.7224 18.1475C61.7224 18.1475 61.8914 20.6805 63.5464 20.7595C65.2004 20.8375 77.0864 21.3745 78.0324 19.9565C78.6614 19.0115 75.7664 16.2025 75.2154 15.7305C75.2154 15.7305 79.1764 13.4335 79.1794 12.3825C79.1854 10.8065 72.5534 9.43152 72.5534 9.43152Z" fill="#333333" />
<path fill-rule="evenodd" clip-rule="evenodd" d="M12.1163 96.6195C12.1163 96.6195 -0.409669 100.725 0.0103308 104.83C0.0103308 104.83 -0.409668 110.83 25.0633 111.304C25.0633 111.304 33.2763 111.754 37.9063 111.304C37.9063 111.304 14.5953 108.08 12.6363 102.606C10.6763 97.1315 12.1163 96.6195 12.1163 96.6195Z" fill="#333333" />
<path fill-rule="evenodd" clip-rule="evenodd" d="M95.8257 16.9706C96.3697 16.7736 96.9707 17.0556 97.1677 17.5996C98.1427 20.2966 92.9927 17.9946 95.8257 16.9706Z" stroke="#333333" stroke-width="0.8" />
<path fill-rule="evenodd" clip-rule="evenodd" d="M78.1222 37.1444C78.1762 36.5684 78.6872 36.1444 79.2632 36.1984C82.1192 36.4654 77.8412 40.1444 78.1222 37.1444Z" fill="#333333" />
<path fill-rule="evenodd" clip-rule="evenodd" d="M33.6364 12.6835C33.6904 12.1075 34.2014 11.6835 34.7774 11.7375C37.6334 12.0045 33.3554 15.6835 33.6364 12.6835Z" fill="#333333" />
<path fill-rule="evenodd" clip-rule="evenodd" d="M42.4567 28.5097C42.5107 27.9337 43.0207 27.5097 43.5977 27.5637C46.4537 27.8307 42.1757 31.5087 42.4567 28.5097Z" stroke="#333333" stroke-width="0.8" />
</svg>
