<svg width="117" height="105" viewBox="0 0 117 105" fill="none" xmlns="http://www.w3.org/2000/svg">
<path fill-rule="evenodd" clip-rule="evenodd" d="M82.3102 2.34188C82.5082 1.70388 83.1852 1.34688 83.8232 1.54488C86.9832 2.52288 81.2822 5.66088 82.3102 2.34188Z" stroke="#333333" />
<path fill-rule="evenodd" clip-rule="evenodd" d="M113.911 23.0676C114.108 22.4296 114.786 22.0736 115.423 22.2706C118.584 23.2486 112.882 26.3876 113.911 23.0676Z" stroke="#333333" />
<path fill-rule="evenodd" clip-rule="evenodd" d="M53.244 17.1467C53.442 16.5087 54.119 16.1517 54.757 16.3497C57.917 17.3277 52.216 20.4667 53.244 17.1467Z" stroke="#333333" />
<path fill-rule="evenodd" clip-rule="evenodd" d="M21.4728 75.4669C21.4748 73.2519 21.4678 71.0329 21.4298 68.8109C21.4168 67.9999 21.3288 67.1929 21.3228 66.3819C21.2998 63.5199 21.3068 60.6529 21.3318 57.7849C21.3348 56.5129 21.2858 55.2359 21.2268 53.9749L21.1128 51.5399C21.1228 50.7269 21.2008 49.9119 21.3308 49.1019C21.4188 48.5959 21.8458 48.6659 22.3118 49.0909C22.7718 49.5149 23.3248 50.2919 23.4428 51.2139C23.6108 54.4879 23.7078 57.7619 23.5888 61.0909C23.4938 63.0819 23.7258 65.1429 23.7968 67.1769L23.9748 73.8999C24.0098 75.2809 24.0178 76.6639 24.0248 78.0459C24.0408 80.1389 24.0008 82.2429 24.0368 84.3209C24.0878 85.9319 24.1378 87.5239 24.1878 89.1239C24.1968 89.4769 24.2188 89.8219 24.1828 90.1769C24.0768 91.4929 23.9008 91.9049 23.4338 92.1679C23.3278 92.2269 23.2228 92.3069 23.1208 92.3399C22.7798 92.4509 22.4958 91.9039 22.3358 90.9459C21.8808 88.1029 21.7188 85.1409 21.6208 82.1529C21.5508 79.9309 21.4798 77.6999 21.4088 75.4729L21.4728 75.4669Z" fill="#333333" />
<path fill-rule="evenodd" clip-rule="evenodd" d="M39.3095 94.6403C41.3625 95.3473 43.4445 96.0133 45.5405 96.6393C46.3045 96.8713 47.0955 97.0093 47.8595 97.2433C50.5585 98.0713 53.2525 98.9683 55.9625 99.8333C57.1645 100.208 58.3875 100.568 59.5965 100.92C60.3695 101.187 61.1595 101.362 61.9275 101.7C62.3115 101.862 62.6955 102.023 63.0645 102.215C63.4305 102.438 63.7835 102.705 64.1195 102.967C64.5405 103.306 64.2035 103.624 63.5935 103.831C63.2895 103.936 62.9195 104.018 62.5455 104.047C62.1855 104.069 61.7225 104.088 61.3315 103.932C58.4335 102.945 55.2545 102.243 52.1535 101.199C50.2925 100.577 48.2605 100.279 46.3125 99.7673C44.1685 99.2153 42.0285 98.6153 39.8925 97.9943L35.9595 96.7933C33.9765 96.1683 32.0065 95.4653 30.0475 94.7863C29.2895 94.5103 28.5205 94.2803 27.7455 94.0623C26.9775 93.8203 26.2115 93.5583 25.4415 93.2903C25.1025 93.1733 24.7575 93.0843 24.4335 92.9133C23.2315 92.2843 23.0035 91.8063 23.1555 91.0033C23.1915 90.8163 23.2095 90.6223 23.2695 90.4533C23.4705 89.8853 24.1955 89.6883 25.1195 89.8693C26.4345 90.2283 27.7725 90.6313 29.0895 91.0983C30.4395 91.5263 31.7795 92.0083 33.1565 92.4703C35.1755 93.1983 37.2395 93.9153 39.3275 94.5653L39.3095 94.6403Z" fill="#333333" />
<path fill-rule="evenodd" clip-rule="evenodd" d="M85.1685 97.7214C90.6105 96.1354 96.0195 94.2814 101.407 92.3914C103.373 91.7004 105.31 90.9304 107.269 90.2244L112.44 88.3304L112.844 88.1834C112.905 88.1544 112.999 88.1474 113.037 88.0974C113.043 88.0274 113.054 87.9574 113.053 87.8824L113.076 87.3884L113.214 84.6314L113.765 73.6054C113.922 70.3434 114.022 67.0614 114.115 63.8234C114.23 59.6614 114.302 55.4834 114.601 51.3274C114.695 50.0324 115.002 50.2114 115.302 51.3144C115.598 52.4174 115.916 54.4464 115.913 56.8454C115.877 65.3514 115.814 73.8524 115.378 82.4184C115.31 83.6994 115.258 84.9934 115.216 86.2954C115.195 87.0414 115.174 87.7894 115.152 88.5394C115.162 88.8264 115.044 89.0264 114.996 89.2744L114.948 89.4514L114.945 89.4624L114.943 89.4684C114.972 89.4904 114.688 89.2914 114.807 89.3774L114.794 89.3924L114.766 89.4224L114.712 89.4834L114.479 89.7464L114.355 89.8854L114.168 89.9694L113.8 90.1284L113.236 90.3624C110.792 91.3584 108.336 92.3514 105.881 93.2874C100.484 95.3494 95.0355 97.2824 89.5265 99.0704C86.1275 100.153 82.7285 101.216 79.1785 101.974C78.7625 102.058 78.3445 102.138 77.9155 102.201C77.4865 102.263 77.1005 102.328 76.4245 102.346C75.8225 102.364 75.2345 102.298 74.7625 102.024C74.5225 101.897 74.3145 101.661 74.2505 101.413C74.1655 101.184 74.1635 100.866 74.1225 100.595C74.1115 98.6254 74.1015 96.6594 74.0905 94.6974C74.0965 92.8344 74.1025 90.9764 74.1085 89.1264C74.1175 84.9724 74.0225 80.8974 74.1245 76.7894C74.1475 75.8854 74.1405 74.9994 74.1845 74.0874C74.4245 70.7124 74.7155 69.6494 75.2215 68.9484C75.3375 68.7884 75.4525 68.5764 75.5575 68.4854C75.8965 68.1784 76.1705 69.5694 76.3295 72.0434C76.4635 73.8794 76.5005 75.7334 76.5475 77.6064C76.5835 79.4794 76.6635 81.3714 76.6665 83.2734C76.7015 87.0784 76.7375 90.9354 76.7735 94.8014C76.7805 96.4014 76.7865 98.0044 76.7935 99.6144C76.7995 99.6244 76.7715 99.6404 76.8395 99.6384C77.6795 99.5544 78.6115 99.3764 79.5355 99.1684C81.3925 98.7494 83.2725 98.2214 85.1425 97.6614L85.1685 97.7214Z" fill="#333333" />
<path fill-rule="evenodd" clip-rule="evenodd" d="M40.6674 52.3049C43.2404 53.1609 45.8324 53.9849 48.4404 54.7579C49.3934 55.0389 50.3664 55.2319 51.3144 55.5299C54.6604 56.5689 58.0184 57.5859 61.4004 58.5099C62.8964 58.9429 64.4184 59.3019 65.9204 59.6529C66.8864 59.8729 67.8564 60.0949 68.8244 60.3159C69.7874 60.5679 70.7354 60.8719 71.6844 61.2079C72.2964 61.4409 72.1214 61.6549 71.5514 61.8369C70.9784 62.0129 69.9464 62.2349 68.7974 62.1369C64.7784 61.5449 60.7624 60.8929 56.8454 59.6629C54.4984 58.9529 51.9824 58.5159 49.5514 57.9039C46.8874 57.2009 44.2344 56.4429 41.5884 55.6589L36.7134 54.1699C34.2524 53.4129 31.8134 52.5429 29.3824 51.7219C27.4884 51.0869 25.5834 50.5739 23.7204 49.7419C23.3104 49.5459 22.8934 49.4129 22.4884 49.1679C20.9414 48.3609 20.8454 47.3519 20.9354 46.7999C20.9624 46.6579 20.9684 46.5099 21.0144 46.4099C21.0914 46.2409 21.3084 46.2249 21.6384 46.2529C21.9374 46.3029 22.4674 46.2729 22.9674 46.4409C24.4674 46.9759 26.1174 47.5099 27.8084 48.0069C29.4974 48.5679 31.2044 49.1359 32.9174 49.7049C35.4904 50.5229 38.0674 51.4399 40.6844 52.2319L40.6674 52.3049Z" fill="#333333" />
<path fill-rule="evenodd" clip-rule="evenodd" d="M110.787 46.259C105.343 44.109 99.7521 42.137 94.1861 40.185L88.0591 38.127L77.2791 34.441L71.8751 32.645L71.0311 32.372C70.6821 32.255 70.3131 32.155 69.9861 32.026L70.0851 30.034C70.1381 29.093 70.1691 28.152 70.1851 27.211C70.2461 23.868 69.9891 20.512 69.6111 17.197C69.1361 12.94 68.4801 8.63697 68.4621 4.31497C68.4471 2.96797 68.8501 3.12897 69.3371 4.23197C69.8201 5.33597 70.4381 7.36597 70.6881 9.81397C71.1411 14.15 71.7781 18.51 71.9851 22.98C72.0901 25.209 72.0871 27.45 71.9821 29.683L71.9331 30.516C71.9241 30.552 71.9141 30.593 71.9091 30.635C71.8851 30.691 71.9581 30.679 71.9841 30.707C72.0161 30.718 71.9961 30.717 72.0721 30.744L72.4661 30.874L75.6141 31.936C80.6251 33.659 85.9041 35.25 91.0461 36.959C96.6981 38.845 102.338 40.77 107.952 42.802C109.304 43.295 110.643 43.79 111.999 44.323C112.901 44.698 114.12 45.112 114.685 45.634C114.949 45.876 115.257 46.153 115.04 46.482L114.335 47.354C113.405 48.045 112.255 48.705 111.681 49.045C106.762 51.786 101.605 53.951 96.5041 56.081C92.5341 57.723 88.6591 59.378 84.6511 60.848C83.7701 61.174 82.9111 61.508 82.0001 61.794C78.6281 62.839 77.3941 62.898 76.5031 62.277C76.3101 62.138 76.0781 62.004 75.9811 61.856C75.7161 61.327 76.8501 60.885 79.2211 60.054C82.7251 58.85 86.3411 57.474 89.9851 56.061C93.6311 54.641 97.3181 53.165 100.961 51.591C101.957 51.162 102.953 50.73 103.934 50.275C104.926 49.834 105.906 49.375 106.873 48.898C107.856 48.44 108.797 47.934 109.749 47.438C110.234 47.198 110.673 46.918 111.133 46.656L111.221 46.606C111.227 46.602 111.237 46.599 111.237 46.599C111.25 46.598 111.254 46.591 111.263 46.586C111.305 46.574 111.344 46.549 111.295 46.533L111.251 46.508C111.251 46.508 111.241 46.498 110.774 46.315L110.787 46.259Z" fill="#333333" />
<path fill-rule="evenodd" clip-rule="evenodd" d="M28.6597 45.6072C27.4927 45.9922 26.3267 46.3792 25.1127 46.7332L24.6517 46.8632L24.0457 47.0222C23.5037 47.1582 22.9497 47.2712 22.4557 47.2622C21.9627 47.2382 21.5567 47.1392 21.2007 46.8122C21.0277 46.6762 21.0297 46.4192 20.9447 46.2212L20.7507 45.5882C20.7767 43.5422 20.8007 42.7282 20.8387 41.5312L20.9037 37.6172C21.0587 33.0282 21.1507 28.4502 20.8777 23.8792C20.7657 21.8522 20.5477 19.8202 20.2867 17.8232C19.9227 15.2592 19.4457 12.7082 19.0997 10.1352C19.0007 9.3312 19.3597 9.3622 19.8467 9.9632C20.3207 10.5652 20.9887 11.7332 21.2887 13.2202C21.8527 15.8462 22.2887 18.5032 22.5857 21.1792C22.8657 23.8572 22.9757 26.5552 22.9687 29.2572C22.9497 32.4872 23.0747 35.8392 23.0407 39.1232L22.9577 44.4602L22.9467 44.7152C22.9177 44.8092 22.9817 44.8952 23.0737 44.8882C23.2377 44.9022 23.4037 44.8662 23.5737 44.8332C23.6507 44.8242 24.1367 44.6882 24.5107 44.5742L25.6827 44.2042C27.7727 43.5172 29.8737 42.7762 31.9737 42.0532C35.1577 40.9502 38.3907 39.9232 41.5967 38.9362C44.0847 38.1582 46.5227 37.3512 49.0487 36.7502C49.6047 36.6162 50.1457 36.4692 50.7117 36.3582C51.7567 36.1202 52.4857 36.1872 52.9897 36.2152C53.4987 36.2702 53.8047 36.3942 54.0617 36.5922C54.1797 36.6822 54.3277 36.7632 54.4007 36.8512C54.6437 37.1432 53.8337 37.5572 52.3847 38.1062C50.2187 38.8182 47.9847 39.4172 45.7417 40.1442C43.4827 40.7982 41.1937 41.4892 38.9057 42.2212C35.5047 43.3052 32.1047 44.4672 28.6827 45.6592L28.6597 45.6072Z" fill="#333333" />
<path fill-rule="evenodd" clip-rule="evenodd" d="M31.8646 5.03434C33.5376 4.72734 35.2126 4.41234 36.8826 4.06534C37.4916 3.93734 38.0856 3.74734 38.6956 3.62534C40.8556 3.21034 43.0196 2.79334 45.1776 2.37834C46.1366 2.18634 47.0846 1.93234 48.0256 1.69134C49.2256 1.35334 50.4476 1.04334 51.7246 1.00034C52.1216 0.987341 52.1316 1.34834 51.8826 1.78034C51.6306 2.21334 51.1426 2.72334 50.4686 2.95334C48.0746 3.70834 45.6146 4.30134 43.0896 4.74834C41.5766 5.00734 40.0646 5.52234 38.5356 5.87034C36.8566 6.26134 35.1686 6.62734 33.4776 6.97934L30.3526 7.62134C28.7756 7.94734 27.1776 8.21734 25.6116 8.55934C24.3886 8.80034 23.2106 9.16234 21.9876 9.41034C21.7186 9.46734 21.4616 9.55834 21.1796 9.55234C20.1436 9.56934 19.8016 9.42434 19.5456 8.98034C19.4866 8.87934 19.4136 8.78234 19.3776 8.68334C19.2546 8.35534 19.6356 8.00134 20.3266 7.70234C21.3416 7.20534 22.4176 6.99234 23.5006 6.69534C24.5856 6.41034 25.6976 6.17734 26.8216 5.96634C28.4926 5.63834 30.1736 5.30834 31.8496 4.97934L31.8646 5.03434Z" fill="#333333" />
<path fill-rule="evenodd" clip-rule="evenodd" d="M22.6543 82.1414C22.0373 82.2894 6.86128 81.1004 0.68528 87.6794C-6.12472 94.9324 39.5353 101.489 61.6753 102.475L23.1903 90.5504L22.6543 82.1414Z" fill="#333333" />
<path fill-rule="evenodd" clip-rule="evenodd" d="M94.7676 31.0041C93.8796 32.8121 93.0356 34.6521 92.2616 36.5251C91.9676 37.2041 91.7666 37.9171 91.4916 38.6031C90.5056 41.0181 89.5756 43.4631 88.7356 45.9401C88.3756 47.0421 88.0806 48.1691 87.8386 49.2881C87.5316 50.7121 87.3016 52.2201 86.9946 53.5111C86.8976 53.9031 86.4296 53.9281 85.9776 53.5131C85.7606 53.3181 85.5146 52.9451 85.3956 52.5811C85.2686 52.2091 85.2046 51.7731 85.2606 51.3191C85.7576 48.2181 86.5766 45.2601 87.7136 42.3721C88.4156 40.6561 88.9136 38.7991 89.5716 37.0261C90.3026 35.0821 91.0986 33.1601 91.9406 31.2591C92.4516 30.0861 93.0266 28.9381 93.5576 27.7751L94.8806 25.1771C95.3536 24.3261 95.8296 23.4781 96.2696 22.6171C97.0326 21.3141 97.6276 19.9401 98.4816 18.6531C98.6656 18.3681 98.8116 18.0691 99.0396 17.8061C99.9076 16.8411 100.332 16.6681 100.988 16.9781C101.138 17.0481 101.298 17.1061 101.428 17.1961C101.863 17.5041 101.843 18.1811 101.424 18.8941C100.239 21.0621 98.8046 23.2261 97.5606 25.6311C96.6086 27.3831 95.6766 29.1841 94.8266 31.0261L94.7676 31.0041Z" fill="#333333" />
<path fill-rule="evenodd" clip-rule="evenodd" d="M104.07 13.2014C104.065 13.1534 104.044 13.1134 104.002 13.0784C103.98 13.0634 103.955 13.0534 103.927 13.0464C103.908 13.0374 103.858 13.0384 103.707 13.0694C103.121 13.2124 102.467 13.4684 101.865 13.7654C101.416 13.9824 101.017 14.3024 100.578 14.5644C99.0324 15.5164 97.5444 16.7174 96.0864 17.9834C95.4374 18.5364 94.7944 19.1474 94.1814 19.7294C93.3964 20.4884 92.7214 21.2684 91.9404 21.9454C91.7004 22.1564 91.3424 21.8824 91.1474 21.3714C90.9514 20.8684 90.9494 20.0934 91.3864 19.5614C92.1584 18.6264 92.9804 17.8464 93.7484 17.0924C94.5254 16.3134 95.4164 15.6024 96.3494 14.9154C97.4724 14.1084 98.4994 13.0674 99.7364 12.2684C100.415 11.8344 101.137 11.4434 101.902 11.1264C102.288 10.9644 102.648 10.8264 103.105 10.7024C103.597 10.5574 104.269 10.4994 104.806 10.6814C105.494 10.9004 106.017 11.4864 106.324 12.0644C106.622 12.6554 106.703 13.2014 106.77 13.7204C106.859 14.5064 106.827 15.2434 106.81 15.9544C106.801 16.3074 106.792 16.6554 106.804 16.9744C106.818 17.3044 106.844 17.6744 106.873 18.0144C106.967 19.0924 107.241 20.1164 107.553 21.0574C107.62 21.2654 107.72 21.4564 107.784 21.6584C108.048 22.3894 107.901 22.6634 107.282 23.1114C107.139 23.2124 107.003 23.3294 106.857 23.4194C106.375 23.7274 105.752 23.5584 105.335 22.8974C104.783 21.9084 104.499 20.8124 104.346 19.7564C104.27 19.2264 104.224 18.7014 104.193 18.1884L104.153 17.4284C104.141 17.2064 104.132 16.8344 104.137 16.5764C104.151 15.7674 104.199 15.0694 104.187 14.4324C104.192 13.8094 104.049 13.2694 104.022 13.2434L104.07 13.2014Z" fill="#333333" />
<path fill-rule="evenodd" clip-rule="evenodd" d="M66.9965 41.5963C67.3635 42.8843 67.6835 44.1833 67.9945 45.4813C68.1075 45.9543 68.2655 46.4153 68.3645 46.8923C68.7035 48.5773 68.9385 50.2803 69.1215 51.9833C69.2015 52.7403 69.3245 53.4923 69.4325 54.2403C69.5625 55.1993 69.7595 56.1743 69.5675 57.1673C69.5135 57.4753 69.0935 57.4263 68.6705 57.1823C68.2495 56.9363 67.8185 56.5183 67.7475 55.9983C67.5255 54.1483 67.1985 52.2843 67.0175 50.3583C66.9135 49.2023 66.5335 48.0543 66.2355 46.9123C65.9215 45.6513 65.5755 44.3933 65.1975 43.1443C64.9655 42.3753 64.7115 41.6113 64.4495 40.8513C64.0325 39.7073 63.6225 38.5503 63.0945 37.4603C62.6805 36.6153 62.1365 35.8513 61.6295 35.0703C61.5145 34.8993 61.3935 34.7363 61.2955 34.5553C60.9375 33.8833 60.9755 33.5923 61.4445 33.1633C61.5515 33.0653 61.6515 32.9573 61.7655 32.8733C62.1475 32.5903 62.6385 32.6913 63.0385 33.1323C63.6485 33.7773 64.1395 34.5163 64.5565 35.3063C64.9945 36.0863 65.3515 36.9183 65.7005 37.7553C66.2095 39.0033 66.6345 40.2903 67.0475 41.5753L66.9965 41.5963Z" fill="#333333" />
<path fill-rule="evenodd" clip-rule="evenodd" d="M57.892 27.448C58.105 26.623 58.466 25.956 58.957 25.492C59.174 25.311 59.411 25.16 59.696 25.078C59.991 24.994 60.279 25.016 60.536 25.09C61.053 25.228 61.58 25.612 62.041 26.145C62.291 26.432 62.592 26.779 62.788 27.028C62.939 27.213 63.084 27.399 63.212 27.594C64.109 28.971 64.9 30.344 65.828 31.617C66.231 32.187 66.69 32.713 67.173 33.188C67.805 33.794 68.487 34.294 69.093 34.872C69.279 35.054 69.082 35.399 68.666 35.625C68.251 35.857 67.591 35.93 67.1 35.599C65.413 34.406 64.16 32.901 63.235 31.23C62.672 30.24 61.907 29.352 61.246 28.471L61.13 28.319C61.101 28.283 61.103 28.274 61.086 28.252L61.006 28.131C60.949 28.05 60.888 27.963 60.813 27.879C60.739 27.798 60.654 27.705 60.541 27.666C60.42 27.625 60.332 27.718 60.266 27.795C60.217 27.849 60.177 27.915 60.143 27.985C60.072 28.132 60.021 28.3 59.982 28.484C59.936 28.719 59.903 29.169 59.885 29.52C59.853 30.087 59.842 30.692 59.757 31.33C59.683 31.906 59.62 32.491 59.571 33.081C59.493 33.997 59.534 34.933 59.402 35.904C59.375 36.117 59.362 36.335 59.309 36.549C59.115 37.351 58.761 37.516 58.112 37.388C57.96 37.358 57.806 37.337 57.663 37.291C57.18 37.125 56.924 36.694 56.917 36.201C56.997 34.77 57.15 33.277 57.357 31.593L57.47 30.73L57.54 29.85L57.621 28.857L57.685 28.326C57.717 28.019 57.79 27.726 57.838 27.429L57.892 27.448Z" fill="#333333" />
<path fill-rule="evenodd" clip-rule="evenodd" d="M41.0902 43.1321C39.6142 43.5081 38.1422 43.9041 36.6732 44.3111L35.0742 44.7871C33.1812 45.3011 31.2852 45.8161 29.4002 46.3701C28.5652 46.6311 27.7322 46.8911 26.9042 47.1511C25.8312 47.4811 24.8152 47.8941 23.6122 47.9921C23.2152 48.0071 23.2982 47.7781 23.5452 47.5111C23.7782 47.2591 24.2122 46.8841 24.8032 46.6741C25.8652 46.2951 26.9232 45.9171 27.9892 45.5361C29.0662 45.1791 30.1612 44.8631 31.2702 44.5721C32.5982 44.2281 33.9312 43.7161 35.2702 43.3011C36.7402 42.8401 38.2282 42.4291 39.7132 42.0141L42.4602 41.2641C43.8452 40.8801 45.2492 40.5421 46.6182 40.1391C47.6852 39.8381 48.7092 39.4541 49.7662 39.1591C49.9992 39.0921 50.2232 39.0141 50.4602 38.9551C51.3442 38.7681 51.6692 38.8891 51.9202 39.1091C51.9782 39.1631 52.0492 39.2111 52.0882 39.2651C52.2182 39.4421 51.9082 39.7221 51.3152 40.0631C50.4182 40.4981 49.4632 40.7931 48.5052 41.1381C47.5332 41.4281 46.5422 41.6981 45.5482 41.9721C44.0702 42.3691 42.5852 42.7681 41.1022 43.1671L41.0902 43.1321Z" fill="#333333" />
<path fill-rule="evenodd" clip-rule="evenodd" d="M94.1812 56.4709C95.9272 55.9449 97.6692 55.4019 99.3932 54.8089L101.261 54.1139C103.475 53.3449 105.674 52.5309 107.818 51.5979C108.771 51.1859 109.692 50.6999 110.585 50.1999C111.712 49.5299 112.802 48.7929 113.851 48.0959C114.191 47.8889 114.372 48.1269 114.31 48.5919C114.278 48.8249 114.185 49.1179 114.019 49.4319C113.848 49.7399 113.583 49.9989 113.258 50.2419C110.917 51.8619 108.405 52.9889 105.81 53.9579C104.252 54.5169 102.699 55.2489 101.123 55.8499C99.3902 56.5059 97.6432 57.1229 95.8892 57.7139L92.6452 58.7839C91.0042 59.3119 89.3572 59.8419 87.7282 60.3659C86.4702 60.7989 85.2622 61.3059 84.0302 61.7829C83.7592 61.8869 83.4962 62.0019 83.2192 62.0959C82.1872 62.4289 81.8182 62.3949 81.4502 61.9469C81.3672 61.8449 81.2662 61.7469 81.2042 61.6379C80.9932 61.2709 81.3232 60.8209 82.0452 60.4869C84.1912 59.5119 86.5362 58.7859 88.8952 58.0569C90.6472 57.5159 92.4082 56.9729 94.1642 56.4299L94.1812 56.4709Z" fill="#333333" />
<path fill-rule="evenodd" clip-rule="evenodd" d="M31.6925 6.46504C33.0125 6.22004 34.3325 5.96204 35.6495 5.68404C36.1285 5.56904 36.6015 5.45604 37.0805 5.34104C38.7775 4.99604 40.4805 4.65104 42.1755 4.30604C42.9275 4.14304 43.6745 3.94404 44.4105 3.74304C45.3535 3.47104 46.3035 3.21404 47.2855 3.09504C47.5915 3.06104 47.6075 3.28904 47.4155 3.58304C47.2235 3.87404 46.8285 4.24804 46.2935 4.42804C44.3895 5.05104 42.4465 5.52804 40.4595 5.91004C39.2695 6.13204 38.0695 6.51504 36.8635 6.79104C35.5395 7.09804 34.2085 7.38404 32.8765 7.66604L30.4145 8.17004C29.1685 8.41804 27.9185 8.66704 26.6825 8.91204C25.7215 9.10704 24.7915 9.37104 23.8375 9.57104C23.6275 9.61604 23.4255 9.68204 23.2075 9.68904C22.4025 9.73904 22.1345 9.66004 21.9295 9.38904C21.8815 9.32704 21.8235 9.26904 21.7935 9.20804C21.6925 9.00504 21.9885 8.76504 22.5385 8.54704C23.3485 8.18604 24.2055 8.01804 25.0685 7.79004C25.9325 7.57404 26.8165 7.38504 27.7055 7.22004C29.0275 6.95804 30.3575 6.69404 31.6825 6.43004L31.6925 6.46504Z" fill="#333333" />
</svg>
