<svg width="106" height="109" viewBox="0 0 106 109" fill="none" xmlns="http://www.w3.org/2000/svg">
<path fill-rule="evenodd" clip-rule="evenodd" d="M9.61291 71.6915C9.69591 66.8015 9.75191 61.9615 9.69591 57.0825L9.58091 51.7545C9.51391 45.4905 9.42091 39.2255 9.19591 32.9675C9.09491 30.1915 8.92191 27.4025 8.69291 24.6595C8.36691 21.1405 8.07191 17.5915 7.79291 14.1285C7.72791 13.0465 7.99891 13.0985 8.56591 13.9455C9.19791 14.7875 9.92791 16.4795 10.2029 18.5245C10.7549 22.1485 10.9089 25.7845 11.0919 29.4165C11.2539 33.0515 11.3399 36.6925 11.3479 40.3505C11.3629 44.7245 11.6069 49.2685 11.6859 53.7395C11.7679 58.6535 11.8179 63.5785 11.7579 68.4995C11.7319 71.5225 11.7009 74.5445 11.7259 77.5595C11.7719 82.1275 11.8499 86.7175 12.2249 91.2305C12.5099 94.7385 13.0309 98.1515 13.6219 101.57C13.7609 102.321 13.8969 103.057 14.0369 103.815C14.5239 106.626 14.5709 107.538 14.0519 108.261C13.9359 108.425 13.8289 108.634 13.7019 108.741C13.2749 109.104 12.6669 108.023 12.1669 105.955C10.7169 99.8175 10.0209 93.1695 9.73991 86.5215C9.51691 81.5805 9.55091 76.6265 9.55991 71.6975L9.61291 71.6915Z" fill="#333333"/>
<path fill-rule="evenodd" clip-rule="evenodd" d="M37.4738 95.6807C42.3648 95.9297 47.2688 96.0327 52.1718 95.9777C53.9628 95.9787 55.7468 95.8427 57.5348 95.8137C63.8368 95.6467 70.1408 95.2727 76.4068 94.5467C79.1858 94.2217 81.9668 93.7847 84.6948 93.2827C86.4428 92.9327 88.1958 92.5927 89.9318 92.1817C91.6838 91.8447 93.4318 91.4977 95.1948 91.1937C96.2968 91.0137 96.2318 91.3247 95.4098 91.9087C94.5828 92.4667 93.0228 93.4657 91.0108 94.0187C87.4298 94.9427 83.7918 95.5607 80.1458 96.1387C76.4878 96.6217 72.8128 97.0247 69.1098 97.2207C64.6858 97.4867 60.0958 97.8977 55.5668 98.0347C50.5908 98.1937 45.6088 98.1967 40.6328 98.0697C37.5698 97.9737 34.5078 97.8437 31.4518 97.6547C26.8348 97.3227 22.1958 96.9887 17.6128 96.6587C14.0478 96.4117 10.5398 96.2677 7.0068 95.9867C6.2288 95.9207 5.4648 95.8867 4.6818 95.7997C1.7808 95.4867 0.883804 95.1757 0.361804 94.4217C0.242804 94.2497 0.0798039 94.0717 0.0208039 93.9077C-0.177196 93.3467 1.0508 93.1017 3.1638 93.2337C9.4338 93.6297 16.0108 94.1557 22.6588 94.6457C27.6078 95.0117 32.5348 95.4367 37.4698 95.6227L37.4738 95.6807Z" fill="#333333"/>
<path fill-rule="evenodd" clip-rule="evenodd" d="M22.8097 66.3918C22.7757 69.1128 22.7797 71.8388 22.8247 74.5628L22.9347 77.5408C23.0207 81.0368 23.0747 84.5598 23.4247 87.9988C23.4677 88.3628 23.5177 88.7258 23.5837 89.0688C23.6087 89.1918 23.6217 89.2568 23.6517 89.3508C23.6767 89.4348 23.7197 89.5328 23.8207 89.5378C23.9147 89.5718 24.0137 89.5738 24.1127 89.5838C24.2387 89.5858 24.4577 89.6028 24.6397 89.5938C25.0177 89.5948 25.4087 89.5758 25.7967 89.5478C26.7617 89.4758 27.7357 89.3358 28.7077 89.2008C29.6747 89.0428 30.6707 88.9977 31.6317 88.8908C32.2027 88.8298 32.2537 89.1378 31.8127 89.6148C31.3697 90.0648 30.4807 90.7218 29.3337 90.9688C28.3677 91.1448 27.3977 91.2948 26.4047 91.3998C25.9057 91.4488 25.4047 91.4908 24.8787 91.5038C24.6147 91.5098 24.3507 91.5008 24.0597 91.4758C23.8787 91.4778 23.6207 91.4238 23.4067 91.3658C23.1837 91.3118 22.9577 91.2648 22.7447 91.1808C21.8527 90.7718 21.7697 89.2328 21.7037 88.9158C21.6297 88.3498 21.5837 87.8018 21.5457 87.2538C21.4737 86.1598 21.4407 85.0758 21.4307 83.9898C21.4077 81.5238 21.2087 78.9788 21.1527 76.4698C21.0917 73.7108 21.0787 70.9518 21.0917 68.1928L21.1597 63.0988C21.1857 61.8108 21.2287 60.5218 21.3007 59.2308C21.3367 58.5848 21.3777 57.9388 21.4407 57.2878C21.4767 56.9548 21.4957 56.6798 21.5927 56.1818C21.6777 55.7508 21.8167 55.2788 22.2597 55.2068C22.5687 55.1408 22.9507 55.1628 23.2757 55.1888L24.0477 55.2558L25.5077 55.3798C26.4727 55.4508 27.4327 55.4688 28.3697 55.4328C28.7827 55.4138 29.1817 55.3818 29.5787 55.3378C31.0527 55.1728 31.3397 55.0598 31.8467 55.2108C31.9557 55.2378 32.0927 55.2398 32.1917 55.2728C32.3577 55.3238 32.3747 55.5208 32.1597 55.8348C31.9457 56.1458 31.4707 56.4938 30.8317 56.7138C28.9247 57.3398 27.0317 57.1478 25.1877 57.0168L23.8167 56.8988L23.2037 56.8488C23.1417 56.8458 23.1747 56.8508 23.1627 56.8528C23.1577 56.8728 23.1697 56.8328 23.1617 56.8988C23.1097 57.3128 23.0767 57.7608 23.0477 58.2068C22.8927 60.8828 22.8577 63.6478 22.8527 66.3878L22.8097 66.3918Z" fill="#333333"/>
<path fill-rule="evenodd" clip-rule="evenodd" d="M32.1973 71.3819L32.0893 75.0799C32.0793 75.5289 32.1203 75.9779 32.1083 76.4269C32.0633 78.0129 32.0053 79.5999 31.9873 81.1859C31.9743 81.8889 32.0083 82.5949 32.0533 83.2909L32.1553 84.6299C32.1633 85.0659 32.1263 85.5549 32.0623 85.9379C32.0503 85.9839 32.0223 86.0239 31.9843 86.0579C31.9643 86.0759 31.9433 86.0909 31.9193 86.1049L31.9003 86.1139L31.7763 86.1569C31.7143 86.1789 31.6933 86.1859 31.7133 86.1789C31.8393 86.1369 31.7863 86.1499 31.7503 86.1529C31.7183 86.1549 31.6833 86.1529 31.6473 86.1469C31.5743 86.1339 31.4943 86.1029 31.4083 86.0459C31.0743 85.8019 30.6733 85.3949 30.5643 84.8739C30.3903 83.0329 30.3373 81.2019 30.5003 79.3449C30.5923 78.2359 30.4823 77.0879 30.4793 75.9559L30.5103 72.2209L30.5393 69.9229C30.5463 68.7629 30.5823 67.5969 30.5513 66.4449C30.5293 65.5489 30.3993 64.6719 30.3363 63.7769C30.3213 63.5799 30.2903 63.3869 30.2843 63.1889C30.2733 62.4469 30.4073 62.2119 30.8903 62.0819C31.0013 62.0519 31.1123 62.0109 31.2213 61.9969C31.5943 61.9509 31.8883 62.2609 31.9723 62.7829C32.2373 64.3399 32.2733 65.9929 32.2753 67.6569C32.2633 68.8939 32.2513 70.1379 32.2393 71.3799L32.1973 71.3819Z" fill="#333333"/>
<path fill-rule="evenodd" clip-rule="evenodd" d="M44.9899 58.9708C44.9949 62.1848 45.0229 65.4008 45.0839 68.6158L45.2069 72.1318C45.2959 76.2628 45.3719 80.4008 45.6119 84.5158C45.6679 85.4268 45.7429 86.3408 45.8529 87.2368L45.9449 87.9028L45.9979 88.2278L46.0339 88.4058C46.0699 88.4998 46.0659 88.6398 46.1739 88.6768C46.2759 88.7128 46.3849 88.7158 46.4879 88.7238C46.5269 88.7188 46.6589 88.7338 46.8049 88.7288L47.2189 88.7228L48.0649 88.6688C48.6339 88.6238 49.2069 88.5568 49.7799 88.4898C50.9219 88.3308 52.0919 88.2708 53.2279 88.1388C53.8999 88.0588 53.9409 88.3698 53.4019 88.8648C52.8609 89.3308 51.7969 90.0078 50.4349 90.2608C49.2189 90.4468 48.0229 90.6138 46.6889 90.6258L46.3859 90.6158C46.2319 90.6098 46.0799 90.6008 45.9359 90.5808C45.6609 90.5118 45.3639 90.4688 45.1199 90.3518C45.0189 90.2668 44.8519 90.2568 44.8069 90.1108C44.7109 90.0128 44.6009 89.9378 44.5249 89.8278C44.3769 89.6048 44.2869 89.3258 44.2179 89.0438L44.1319 88.6088L44.0959 88.3558L44.0369 87.8818L43.9469 86.9578C43.7529 84.5208 43.6999 82.1188 43.6929 79.6958C43.6889 76.8018 43.4869 73.8028 43.4209 70.8488C43.3479 67.6028 43.3149 64.3548 43.2959 61.1068L43.2849 55.1108C43.2949 52.0818 43.3259 49.0458 43.4379 46.0208C43.4819 45.4078 43.4489 44.9388 43.6189 44.0198C43.6659 43.8228 43.7209 43.6348 43.8279 43.4848C43.9779 43.3648 44.1279 43.2748 44.3229 43.2518C44.6799 43.1908 45.2139 43.2628 45.5189 43.2888C46.6789 43.4058 47.8049 43.5088 48.9239 43.5398C49.4149 43.5508 49.8899 43.5458 50.3679 43.5278C52.1519 43.4508 52.4689 43.2808 53.0219 43.4028C53.1449 43.4238 53.2889 43.4018 53.3979 43.4238C53.5739 43.4478 53.5989 43.6768 53.3299 44.0338C53.0629 44.3918 52.4739 44.7648 51.7139 44.9638C49.4739 45.5198 47.2149 45.1158 45.1889 44.9238C45.1589 44.0708 45.0339 47.3028 45.0259 49.2558C44.9939 52.4738 44.9949 55.7238 45.0329 58.9658L44.9899 58.9708Z" fill="#333333"/>
<path fill-rule="evenodd" clip-rule="evenodd" d="M53.8019 64.735L53.7279 69.975C53.7239 70.613 53.7689 71.249 53.7599 71.886C53.7319 74.131 53.7029 76.381 53.6749 78.626C53.6679 79.622 53.7049 80.624 53.7549 81.61L53.8649 83.513C53.8749 84.134 53.8409 84.816 53.7769 85.383C53.7659 85.455 53.7369 85.514 53.6979 85.561C53.6569 85.608 53.6549 85.627 53.4109 85.704L53.5339 85.662L53.5109 85.665L53.4649 85.666C53.4319 85.665 53.3979 85.657 53.3619 85.644C53.2889 85.617 53.2079 85.566 53.1219 85.481C52.7879 85.13 52.3849 84.544 52.2739 83.806C52.0919 81.208 52.0259 78.615 52.1749 75.991C52.2589 74.423 52.1379 72.797 52.1269 71.195L52.1239 65.912L52.1289 62.66C52.1219 61.019 52.1459 59.369 52.0999 57.74C52.0619 56.473 51.9299 55.232 51.8479 53.974C51.8319 53.696 51.7999 53.424 51.7929 53.144C51.7619 52.11 51.9159 51.754 52.3949 51.563C52.5049 51.518 52.6159 51.457 52.7259 51.434C53.0999 51.36 53.3909 51.791 53.4729 52.521C53.7519 54.733 53.8189 57.089 53.8399 59.45C53.8409 61.206 53.8429 62.971 53.8439 64.732L53.8019 64.735Z" fill="#333333"/>
<path fill-rule="evenodd" clip-rule="evenodd" d="M67.4392 50.1143C67.4592 54.0033 67.5112 57.8933 67.5992 61.7833L67.7532 66.0373C67.8762 71.0383 68.0012 76.0413 68.2542 81.0323C68.3682 83.2413 68.5582 85.4823 68.8332 87.6163C68.8702 87.8753 68.8802 87.9063 68.9062 88.0163C68.9272 88.1083 68.9542 88.2223 69.0712 88.2233C69.1392 88.2353 69.2052 88.2393 69.2702 88.2443L69.5342 88.2473C69.8122 88.2473 70.0962 88.2393 70.3852 88.2213C70.9622 88.1853 71.5462 88.1353 72.1332 88.0733C73.3042 87.9603 74.4942 87.8683 75.6582 87.7323C76.4732 87.6213 76.4972 87.9383 75.8272 88.4593C75.1542 88.9423 73.8502 89.6573 72.1892 89.9123C71.6032 89.9913 71.0122 90.0553 70.4022 90.0963C70.1002 90.1183 69.7832 90.1273 69.4622 90.1313C69.3592 90.1263 68.9442 90.1223 68.6972 90.0823C68.4282 90.0203 68.1642 89.9553 67.9032 89.8713C67.8072 89.7893 67.6702 89.7523 67.6082 89.6333C67.5052 89.5503 67.4072 89.4703 67.3482 89.3523C67.2142 89.1303 67.1432 88.8523 67.0792 88.5763L66.9952 88.1533L66.9552 87.9033L66.8892 87.4503C66.8102 86.8533 66.7392 86.2683 66.6992 85.6813C66.6072 84.5103 66.5422 83.3443 66.4872 82.1773C66.3792 79.8453 66.3242 77.5113 66.3052 75.1683C66.2782 71.6723 66.0472 68.0453 65.9552 64.4743C65.8542 60.5493 65.7932 56.6213 65.7562 52.6933C65.7442 50.2753 65.7322 47.8563 65.7212 45.4413C65.7212 41.7793 65.7642 38.1023 65.8912 34.4553C65.9242 33.5723 65.9602 32.6963 66.0312 31.8133L66.0932 31.1473L66.1362 30.8103C66.1572 30.6523 66.1902 30.4923 66.2212 30.3353C66.2872 30.0193 66.3922 29.7213 66.5632 29.4903C66.7432 29.2163 67.0352 29.2143 67.3322 29.2173C68.2532 29.3533 68.6222 29.4023 69.1662 29.4643C69.6822 29.5223 70.1962 29.5703 70.7102 29.6053C71.3072 29.6443 71.8892 29.6643 72.4792 29.6713C73.5732 29.6783 74.2452 29.6303 74.6852 29.5823C75.1212 29.5273 75.3352 29.5263 75.6232 29.5033C75.7572 29.4953 75.8962 29.4103 76.0092 29.3753C76.1052 29.3483 76.1692 29.3803 76.1912 29.5043C76.2162 29.6273 76.1812 29.8533 76.0142 30.0963C75.6802 30.6143 74.9052 30.9893 74.0012 31.1633C72.8602 31.3823 71.7442 31.3653 70.6312 31.3103C70.0762 31.2723 69.5222 31.2153 68.9682 31.1453C68.4882 31.0893 67.6122 30.9413 67.8012 30.9903C67.7722 30.9833 67.7642 31.0213 67.7692 31.0463C67.7652 31.0823 67.7802 31.0143 67.7642 31.1313L67.7082 31.6483C67.6422 32.3553 67.6082 33.0943 67.5762 33.8373C67.5132 35.3253 67.4842 36.8403 67.4652 38.3573C67.4222 42.2553 67.4282 46.1863 67.4822 50.1093L67.4392 50.1143Z" fill="#333333"/>
<path fill-rule="evenodd" clip-rule="evenodd" d="M76.419 55.8292L76.333 63.2202L76.359 65.9142C76.324 69.0822 76.289 72.2522 76.253 75.4172C76.242 76.8232 76.276 78.2352 76.322 79.6282C76.357 80.5222 76.391 81.4202 76.425 82.3162C76.432 83.1982 76.395 84.1432 76.329 84.9672C76.318 85.0782 76.288 85.1632 76.249 85.2282C76.23 85.2602 76.208 85.2872 76.184 85.3072L76.146 85.3322C76.186 85.3212 75.986 85.3872 75.968 85.3932C75.921 85.4102 75.92 85.4102 75.967 85.3942C76.176 85.3242 76.047 85.3642 76.062 85.3542C76.046 85.3552 76.031 85.3532 76.015 85.3502C75.983 85.3432 75.948 85.3282 75.912 85.3052C75.839 85.2592 75.758 85.1802 75.672 85.0582C75.34 84.5602 74.94 83.7202 74.832 82.6812C74.66 79.0192 74.603 75.3632 74.761 71.6692C74.851 69.4612 74.735 67.1662 74.728 64.9092L74.738 57.4612L74.75 52.8782C74.745 50.5642 74.772 48.2402 74.724 45.9432C74.689 44.1582 74.554 42.4082 74.471 40.6412C74.451 40.2522 74.422 39.8692 74.415 39.4752C74.384 38.0222 74.533 37.5282 75.018 37.2432C75.128 37.1772 75.24 37.0892 75.35 37.0542C75.727 36.9432 76.007 37.5342 76.095 38.5762C76.38 41.7122 76.442 45.0372 76.464 48.3722C76.463 50.8502 76.462 53.3412 76.461 55.8262L76.419 55.8292Z" fill="#333333"/>
<path fill-rule="evenodd" clip-rule="evenodd" d="M21.6969 77.1451L21.7959 74.5441L21.9469 71.9411C21.9769 71.3071 21.8989 70.6791 21.9399 70.0461C22.0799 67.8121 22.2519 65.5761 22.3199 63.3451C22.3429 62.3551 22.2859 61.3641 22.2529 60.3851C22.2069 59.1281 21.9729 57.8761 22.3759 56.5971C22.4869 56.1991 22.9479 56.2191 23.5159 56.5151C23.8009 56.6641 24.1209 56.8801 24.4189 57.1501C24.7329 57.4191 24.9629 57.7411 25.0179 58.1031C25.2419 59.3861 25.4689 60.6641 25.5399 61.9541C25.5759 63.2451 25.5419 64.5411 25.4099 65.8481C25.2479 67.4111 25.5159 69.0171 25.5589 70.6051C25.5969 72.3521 25.6199 74.1001 25.5709 75.8511L25.5239 79.0821C25.5249 80.7121 25.4669 82.3511 25.5749 83.9661C25.6529 85.2221 25.9899 86.4461 26.1549 87.6941C26.1899 87.9691 26.2589 88.2371 26.2709 88.5151C26.3249 89.0281 26.1339 89.3781 25.9519 89.6181C25.7469 89.8591 25.4469 89.9981 25.0009 90.1091C24.7979 90.1601 24.5999 90.2261 24.4039 90.2551C23.7499 90.3521 23.1579 89.9371 22.7659 89.2101C22.2739 88.1241 22.0399 87.0031 21.8989 85.8591C21.7539 84.7161 21.6899 83.5511 21.6479 82.3821C21.5849 80.6461 21.6179 78.8961 21.5999 77.1511L21.6969 77.1451Z" fill="#333333"/>
<path fill-rule="evenodd" clip-rule="evenodd" d="M44.0982 72.0645L44.1872 68.6435L44.3242 65.2215C44.3522 64.3885 44.2842 63.5595 44.3202 62.7275C44.4472 59.7935 44.6032 56.8575 44.6632 53.9255C44.6862 52.6245 44.6322 51.3195 44.6042 50.0305C44.5602 48.3765 44.3562 46.7185 44.6912 45.0615C44.7832 44.5445 45.1902 44.5815 45.6972 44.9895C45.9522 45.1935 46.2392 45.4925 46.5052 45.8605C46.7832 46.2255 46.9902 46.6585 47.0402 47.1375C47.2442 48.8325 47.4452 50.5205 47.5082 52.2175C47.5372 53.9155 47.5082 55.6185 47.3892 57.3305C47.2452 59.3785 47.4782 61.4985 47.5152 63.5865C47.5462 65.8835 47.5632 68.1825 47.5192 70.4815L47.4752 74.7255C47.4752 76.8665 47.4242 79.0205 47.5242 81.1435C47.5932 82.7945 47.8942 84.4085 48.0472 86.0425C48.0772 86.4025 48.1392 86.7545 48.1512 87.1185C48.2002 87.7915 48.0392 88.2415 47.8762 88.5585C47.6952 88.8735 47.4312 89.0555 47.0382 89.2005C46.8592 89.2675 46.6842 89.3545 46.5112 89.3925C45.9352 89.5205 45.4112 88.9745 45.0632 88.0095C44.2072 85.1205 44.1622 82.0485 44.0542 78.9645C43.9982 76.6735 44.0262 74.3685 44.0122 72.0695L44.0982 72.0645Z" fill="#333333"/>
<path fill-rule="evenodd" clip-rule="evenodd" d="M66.509 66.2296L66.605 61.7576L66.749 57.2856C66.779 56.1976 66.713 55.1116 66.751 54.0246C66.884 50.1916 67.047 46.3566 67.115 42.5246C67.14 40.8246 67.09 39.1166 67.064 37.4316C67.023 35.2696 66.824 33.0916 67.152 30.9376C67.24 30.2676 67.648 30.3206 68.158 30.8676C68.413 31.1386 68.708 31.5446 68.97 32.0266C69.248 32.5086 69.455 33.0806 69.507 33.7076C69.706 35.9226 69.905 38.1326 69.964 40.3506C69.989 42.5696 69.956 44.7936 69.833 47.0286C69.684 49.7016 69.912 52.4756 69.944 55.2066C69.97 58.2086 69.982 61.2116 69.933 64.2156L69.882 69.7616C69.879 72.5596 69.824 75.3726 69.922 78.1486C69.989 80.3076 70.291 82.4196 70.444 84.5536C70.476 85.0226 70.538 85.4836 70.55 85.9586C70.555 87.7166 70.201 88.2926 69.44 88.6696C69.261 88.7556 69.087 88.8696 68.914 88.9186C68.337 89.0856 67.815 88.3756 67.463 87.1026C66.601 83.3086 66.559 79.2886 66.454 75.2526C66.401 72.2546 66.433 69.2416 66.423 66.2346L66.509 66.2296Z" fill="#333333"/>
<path fill-rule="evenodd" clip-rule="evenodd" d="M101.431 89.2329C101.476 89.2159 101.532 89.1879 101.595 89.1459C101.626 89.1249 101.66 89.1009 101.694 89.0719C101.745 89.0349 101.745 89.0199 101.715 89.0139L101.548 88.9259L101.429 88.8679C101.463 88.8719 101.116 88.7619 100.938 88.7029C100.333 88.5119 99.7154 88.3579 99.1174 88.1429C97.0144 87.3709 94.9764 86.4659 92.9434 85.5519C92.0324 85.1579 91.1204 84.7639 90.2174 84.3729C89.0574 83.8519 87.8734 83.3439 86.9094 82.2709C86.6124 81.9169 86.9694 81.7369 87.4684 81.6479C87.9484 81.5659 88.6074 81.4899 89.2264 81.7559C91.4304 82.6929 93.7254 83.7569 96.0264 84.8299C97.4024 85.4899 98.9384 85.8989 100.408 86.3789C100.704 86.4799 101.003 86.5739 101.304 86.6629L101.754 86.7999C101.841 86.8249 101.875 86.8419 102.007 86.8739L102.392 86.9669C102.92 87.0829 103.376 87.2329 103.94 87.3179L105.536 87.5869L105.484 87.8629L105.18 88.2769C104.977 88.5599 104.78 88.7959 104.582 89.0539C104.339 89.3459 104.092 89.6359 103.827 89.9189L102.955 90.7449C102.45 91.1779 102.091 91.4619 101.649 91.8159C100.366 92.8269 99.0354 93.7559 97.7834 94.7509C96.8024 95.5149 95.9244 96.3679 95.0104 97.1839C94.8094 97.3639 94.6274 97.5569 94.4184 97.7299C93.6434 98.3699 93.3044 98.4519 92.7684 98.1289C92.6474 98.0559 92.5134 97.9929 92.4084 97.9069C92.0504 97.6169 92.1404 97.0679 92.6384 96.4929C94.1294 94.8089 95.9104 93.2879 97.7744 91.9279L99.8294 90.4089L100.827 89.6439L101.307 89.2539C101.39 89.1859 101.352 89.2279 101.379 89.2069L101.431 89.2329Z" fill="#333333"/>
<path fill-rule="evenodd" clip-rule="evenodd" d="M60.2008 26.0553C56.9348 27.7833 53.5438 29.2493 50.0918 30.5123C48.8248 30.9543 47.5848 31.4643 46.3158 31.8913C41.7878 33.2483 37.1958 34.3193 32.5538 35.0453L29.4548 35.4913C28.4218 35.6313 27.3828 35.7203 26.3538 35.8233C25.0298 35.9303 23.6978 36.0123 22.3638 36.0243C21.0268 36.0243 19.6938 35.9943 18.3518 35.6973C17.5128 35.4963 17.6958 35.3823 18.4068 35.2813C18.7548 35.2463 19.2468 35.1503 19.8408 35.0453C20.4268 34.9733 21.1148 34.8723 21.8618 34.8193C23.1808 34.7663 24.5068 34.5573 25.8238 34.4253L27.7968 34.1283C28.4568 34.0513 29.1168 33.9713 29.7728 33.8503C32.4048 33.4493 35.0278 32.9423 37.6548 32.3773C40.7968 31.6923 43.9708 30.5953 47.0388 29.4283C48.7138 28.7523 50.4318 28.1793 52.0558 27.3813C53.6868 26.6063 55.3818 25.9563 56.9538 25.0613L59.9078 23.5033C60.9078 23.0083 61.8128 22.3523 62.7668 21.7813C65.6748 20.0673 68.3828 18.0133 71.0048 15.9363C71.9708 15.0623 72.8998 14.1663 73.8158 13.2673L75.1908 11.9263C75.6518 11.4833 76.0488 10.9723 76.4848 10.5033C76.8618 10.0813 77.2118 9.6513 77.6008 9.2373C79.0448 7.7013 79.6438 7.3473 80.4798 7.4843C80.6708 7.5163 80.8838 7.5223 81.0448 7.5843C81.5888 7.7933 81.3108 8.7203 80.3278 9.9803C78.8538 11.8273 77.3528 13.7763 75.4848 15.3973C74.5748 16.2323 73.6468 17.0623 72.7078 17.8883C71.7588 18.7003 70.7148 19.4023 69.7138 20.1593L67.4498 21.8053C66.6888 22.3473 65.8678 22.7983 65.0778 23.2973C63.4728 24.2553 61.9178 25.2943 60.2348 26.1063L60.2008 26.0553Z" fill="#333333"/>
<path fill-rule="evenodd" clip-rule="evenodd" d="M84.5039 3.567L84.5279 3.43L84.5519 3.356C84.5699 3.296 84.5769 3.245 84.5899 3.172C84.6009 3.091 84.5139 3.158 84.4599 3.16C84.3739 3.193 84.3629 3.18 84.1779 3.274C83.6929 3.537 83.2209 3.841 82.7119 4.081C80.9089 4.919 78.9869 5.518 77.0459 5.815C76.1859 5.955 75.3269 6.096 74.4749 6.2C73.3839 6.359 72.2739 6.434 71.1769 6.273C70.8349 6.223 70.8829 5.908 71.1629 5.57C71.4419 5.234 71.9439 4.857 72.5409 4.774C74.6679 4.482 76.7129 4.123 78.7979 3.687C80.0549 3.427 81.2369 2.804 82.4019 2.197L83.1379 1.801L84.2279 1.184C84.6279 0.956 85.0169 0.745 85.3959 0.548C85.7619 0.367 86.1909 0.104 86.5069 0L86.3769 1.788L86.2389 3.816L86.1289 5.21C86.0089 6.622 85.7619 8.043 85.4169 9.432C85.1429 10.508 84.8559 11.586 84.3869 12.616C84.2909 12.846 84.1959 13.072 84.0679 13.289C83.6119 14.104 83.2899 14.245 82.7959 14.107C82.6809 14.073 82.5589 14.05 82.4549 14C82.1049 13.828 82.0569 13.353 82.3169 12.811C83.0309 11.158 83.6629 9.487 83.9949 7.629C84.1179 6.941 84.2289 6.243 84.2999 5.525C84.3449 5.17 84.3689 4.804 84.4029 4.443L84.4599 3.575L84.5039 3.567Z" fill="#333333"/>
</svg>
