<svg width="112" height="98" viewBox="0 0 112 98" fill="none" xmlns="http://www.w3.org/2000/svg">
<mask id="mask0_1_685" style="mask-type:alpha" maskUnits="userSpaceOnUse" x="0" y="10" width="105" height="85">
<path fill-rule="evenodd" clip-rule="evenodd" d="M0 10.0599H104.725V94.253H0V10.0599Z" fill="white"/>
</mask>
<g mask="url(#mask0_1_685)">
<path fill-rule="evenodd" clip-rule="evenodd" d="M73.4749 12.7069C67.3939 12.5059 61.2509 12.5699 55.1279 12.6239C49.0049 12.7009 42.8849 12.8799 36.7819 13.2319C32.3269 13.4899 27.8889 13.9119 23.4799 14.4219C19.5969 14.8779 15.7199 15.4459 11.9779 16.3719C10.1189 16.8409 8.26585 17.3959 6.63885 18.2089C5.82585 18.6099 5.09485 19.0979 4.54485 19.6379L4.22685 20.0569C4.11385 20.1999 4.11385 20.3139 4.03485 20.4659L3.86785 21.0859L3.73385 21.7669C3.39785 23.6169 3.22585 25.5819 3.07285 27.5249C2.92085 29.4749 2.82085 31.4359 2.74185 33.3979C2.58785 37.3239 2.53085 41.2589 2.54585 45.1939C2.58285 52.1779 2.88785 59.2039 3.48385 66.1019C3.86285 70.5339 4.38885 74.9589 5.07385 79.3459C5.75685 83.7299 6.57485 88.0919 7.80685 92.2829C8.65485 94.8339 7.94285 94.8079 6.50685 92.7789C5.10285 90.7429 3.39985 86.5459 2.54285 81.3939C1.07485 72.2679 0.418853 63.1069 0.132853 53.9299C-0.116147 44.7489 -0.0691472 35.5589 0.745853 26.2989C0.891853 24.9089 1.02385 23.5199 1.25785 22.0949C1.37485 21.3789 1.49785 20.6689 1.72685 19.8819C1.84385 19.5019 2.06785 18.9149 2.34785 18.6049L2.76285 18.0579L3.22685 17.6239C4.49085 16.5119 5.87185 15.8929 7.24185 15.3269C8.61985 14.7969 10.0109 14.3739 11.4099 14.0129C17.0059 12.6009 22.6859 11.9079 28.3159 11.3699C40.7009 10.2679 53.1089 10.0699 65.4929 10.0599C69.3089 10.0659 73.1319 10.1259 76.9569 10.3239C80.7819 10.5349 84.6128 10.8399 88.4258 11.5939C89.8679 11.8909 91.3099 12.2579 92.7279 12.8269C93.4329 13.1249 94.1409 13.4499 94.8039 13.9399C95.4629 14.4439 96.0808 15.0379 96.4799 15.6749C97.3819 16.9309 98.0369 18.2879 98.5819 19.6649C99.1509 21.0369 99.5729 22.4439 99.9839 23.8499C101.514 29.4989 102.306 35.2459 102.932 40.9539C103.875 49.8349 104.401 58.5689 104.622 67.3859C104.664 69.3269 104.723 71.2269 104.725 73.1859C104.719 80.4459 104.424 82.7559 103.697 84.2869C103.529 84.6349 103.357 85.0959 103.194 85.2949C102.63 85.9649 102.346 83.0089 102.278 77.7269C102.168 69.8909 101.947 61.8439 101.458 53.7139C100.95 45.5959 100.261 37.3429 98.6749 29.3329C98.0648 26.3759 97.3509 23.4219 96.2619 20.7209C95.7319 19.3689 95.0928 18.0719 94.3089 17.0289C94.1279 16.7319 93.9079 16.5639 93.7139 16.3479C93.6189 16.2699 93.5268 16.1879 93.4369 16.1029L93.0879 15.8639C92.5829 15.5519 91.9809 15.2699 91.3309 15.0319C88.6879 14.0959 85.6429 13.6599 82.6419 13.3349C79.6208 13.0219 76.5579 12.8609 73.4879 12.7709L73.4749 12.7069Z" fill="#333333"/>
</g>
<path fill-rule="evenodd" clip-rule="evenodd" d="M72.0127 64.5219C71.1537 64.1689 70.2777 63.8319 69.4167 63.6679C68.8307 63.5379 68.9377 63.5509 68.7857 63.5159C68.6557 63.4809 68.6167 63.6249 68.5807 63.7229C68.5667 63.7879 68.5677 63.7459 68.5507 63.9349C68.5337 64.0919 68.5277 64.2599 68.5227 64.4289L68.4977 65.4599C68.4287 67.9419 68.5667 70.5219 68.7927 73.0689C68.8997 74.2009 69.0867 75.3299 69.3007 76.4349L69.7577 78.5549C69.8907 79.2629 69.9767 79.9799 70.0497 80.6889C70.0917 81.1259 69.7117 81.1999 69.2017 80.9369C68.6997 80.6729 68.0457 80.0689 67.7737 79.2459C67.0337 76.2899 66.5927 73.3109 66.4927 70.2559C66.4657 68.4259 66.1867 66.5559 66.2437 64.6179C66.2597 64.3469 66.2667 64.0829 66.2987 63.8019C66.3157 63.6839 66.3187 63.4949 66.3637 63.2799C66.4057 63.0789 66.4307 62.8709 66.4847 62.6779C66.5977 62.2929 66.7357 61.9239 66.9937 61.6539C67.2337 61.3439 67.6127 61.2329 68.0107 61.2779L69.1717 61.2839C69.5077 61.3139 69.7257 61.3949 70.0077 61.4479C70.5507 61.5489 71.0487 61.7379 71.5597 61.8979C72.7857 62.3499 73.9697 62.8579 75.0947 63.4479C76.8137 64.3209 78.4277 65.3559 80.0457 66.3179C81.3037 67.0649 82.6047 67.6969 83.8737 68.3589C84.1527 68.5029 84.4387 68.6189 84.7117 68.7739C85.2207 69.0449 85.5177 69.2739 85.6617 69.5439C85.8117 69.7949 85.8337 70.0649 85.7817 70.4259C85.7577 70.5909 85.7527 70.7629 85.7127 70.9149C85.5937 71.4179 84.9167 71.5919 84.0187 71.3209C81.5127 70.3069 79.3257 68.7779 77.0697 67.3809C75.4047 66.3429 73.7297 65.3179 71.9937 64.5769L72.0127 64.5219Z" fill="#333333"/>
<path fill-rule="evenodd" clip-rule="evenodd" d="M81.2551 76.4506C82.4501 77.6246 83.6801 78.7746 84.9531 79.8776C85.4161 80.2826 85.9301 80.6196 86.3961 81.0196C88.0391 82.4326 89.7271 83.7976 91.4741 85.0756C92.2481 85.6416 93.0761 86.1346 93.9061 86.5766C94.9731 87.1096 96.0801 87.6826 97.0251 88.0626C97.2801 88.1666 97.3361 88.5906 96.9261 88.9876C96.5051 89.3926 95.6471 89.6276 94.8931 89.4036C93.5431 89.0216 92.3831 88.3936 91.2641 87.7176C90.1411 87.0476 89.0951 86.2726 88.1241 85.3986C86.9561 84.3656 85.5931 83.5116 84.3641 82.5176C83.0141 81.4266 81.7071 80.2836 80.4251 79.1136C79.6341 78.3966 78.8661 77.6516 78.0961 76.9126C76.9321 75.7866 75.8231 74.5966 74.7001 73.4336C73.8321 72.5236 72.8931 71.6976 72.0571 70.6926C71.8681 70.4786 71.6771 70.2596 71.5121 70.0106C71.3491 69.7906 71.2471 69.5766 71.1971 69.3766C71.1441 69.1806 71.1001 69.0256 71.1261 68.8696C71.2141 68.5316 71.3601 68.3166 71.5731 68.1196C71.6721 68.0306 71.7581 67.9316 71.8521 67.8716C72.0121 67.7696 72.2031 67.7936 72.4531 67.8726C72.6931 67.9586 73.0471 68.0546 73.2671 68.2986C74.6221 69.7036 76.1071 71.3166 77.6861 72.8966C78.8531 74.0756 80.0531 75.2596 81.2951 76.4016L81.2551 76.4506Z" fill="#333333"/>
<path fill-rule="evenodd" clip-rule="evenodd" d="M57.0183 65.3851C57.2713 65.3671 57.3313 65.7701 57.1153 66.2251C57.0483 66.3731 56.7123 66.7171 56.6343 66.7471C56.4833 66.8061 56.3383 66.8631 56.2333 66.9041C56.1683 66.9161 55.2213 66.7371 54.8343 66.7351C54.4903 66.7171 54.1623 66.6371 53.8453 66.5391C53.1903 66.3531 52.5423 66.1331 51.8773 65.9561C51.7303 65.9141 51.5933 65.8421 51.4613 65.7521C51.0113 65.4331 50.5023 65.2871 49.9803 65.2081C49.8943 65.1931 49.8103 65.1591 49.7063 65.2291C49.5333 65.3351 48.1623 65.0461 48.0013 64.9561C47.5933 64.7111 47.1783 64.4971 46.7583 64.2771C46.6973 64.2441 46.6273 64.2671 46.5833 64.1531C46.4803 63.8871 46.3373 63.9131 46.2023 63.8731C46.0143 63.7931 45.8303 63.7651 45.6463 63.6151C45.5553 63.5471 45.4643 63.3991 45.3683 63.2901C45.2813 63.1901 45.3283 62.9211 45.3613 62.8851C45.4543 62.7951 45.3803 62.6521 45.3713 62.5341C45.3683 62.4941 45.3653 62.4411 45.3703 62.4071C45.3743 62.3901 45.6873 62.1301 46.0433 61.9411C46.3903 61.7591 46.7623 61.6301 46.8323 61.6341C46.8493 61.6331 47.3223 61.6231 47.8243 61.6131C48.3163 61.6181 48.8253 61.6731 48.9313 61.6661C49.0413 61.6641 49.1343 61.7481 49.2313 61.8071C49.2803 61.8241 50.7263 61.9671 50.7803 61.9931C51.0593 62.1011 51.3723 62.0911 51.5953 62.3861C51.6393 62.4441 51.7003 62.4501 51.7583 62.4631C52.2553 62.5741 52.7153 62.8081 53.1783 63.0251C53.4153 63.1311 53.6693 63.1921 53.9143 63.2811C53.9573 63.2971 53.9913 63.3441 54.0303 63.3741C54.0793 63.4111 54.1243 63.4591 54.1813 63.4771C54.7703 63.6631 55.2813 64.0451 55.8873 64.2321C56.0263 64.2751 56.5453 64.8221 56.7103 64.8851C56.8033 64.9101 56.9183 65.3891 57.0183 65.3851Z" fill="#333333"/>
<path fill-rule="evenodd" clip-rule="evenodd" d="M63.6505 56.7719C63.8785 56.7879 63.7105 56.9809 63.6155 57.5359C63.5815 57.7069 63.3915 58.1659 63.2935 58.1929C63.1115 58.2489 62.8915 58.2799 62.6985 58.2659C62.5835 58.2689 61.4945 57.6849 61.1805 57.5019C60.8375 57.3239 60.5705 57.0839 60.3185 56.8319C59.8055 56.3199 59.2955 55.8179 58.8055 55.2949C58.6975 55.1789 58.6145 55.0429 58.5525 54.8899C58.3325 54.3739 58.0205 53.9349 57.6465 53.5379C57.5855 53.4709 57.5435 53.3869 57.4135 53.3739C57.1965 53.3589 56.3165 52.1579 56.2745 51.9449C56.2165 51.6899 56.1415 51.4509 56.0695 51.2079C56.0155 50.9499 55.9625 50.6999 55.9065 50.4379C55.8915 50.3659 55.8285 50.3089 55.8945 50.1949C56.0495 49.9299 55.9435 49.8159 55.8955 49.6659C55.8305 49.4459 55.7885 49.2039 55.8355 48.9359C55.8735 48.7689 55.9755 48.6039 56.0705 48.4719C56.1555 48.3549 56.3665 48.3899 56.4125 48.4099C56.5195 48.4789 56.6215 48.3889 56.7135 48.3709C56.7465 48.3639 56.7885 48.3549 56.8195 48.3539C56.8735 48.3809 57.1695 48.4279 57.5045 48.5629C57.7725 48.6789 58.1025 48.8469 58.1215 48.8849C58.1215 48.8849 58.3935 49.1769 58.6965 49.4659C58.9835 49.7719 59.2705 50.1029 59.3455 50.1599C59.4215 50.2209 59.4235 50.3339 59.4465 50.4329C59.4515 50.4819 60.3795 51.3799 60.4055 51.4229C60.5395 51.6529 60.7825 51.8009 60.7545 52.1539C60.7505 52.2239 60.7935 52.2579 60.8295 52.2979C61.1305 52.6399 61.3185 53.0739 61.5535 53.4709C61.6725 53.6749 61.8365 53.8449 61.9775 54.0279C62.0035 54.0619 62.0035 54.1159 62.0185 54.1589C62.0365 54.2119 62.0465 54.2729 62.0805 54.3129C62.4385 54.7289 62.7015 55.2369 63.1255 55.5689C63.2185 55.6559 63.4365 56.2449 63.5575 56.3149C63.6225 56.3669 63.5605 56.7669 63.6505 56.7719Z" fill="#333333"/>
<path fill-rule="evenodd" clip-rule="evenodd" d="M73.8722 54.4291C74.0202 54.5161 73.7762 54.5831 73.3322 54.8831C73.1922 54.9741 72.7452 55.1641 72.6612 55.1291C72.4992 55.0671 72.3352 54.9781 72.2062 54.8611C72.1522 54.8111 72.0442 54.5341 71.9302 54.1841C71.8392 53.8661 71.7542 53.4961 71.7202 53.3271C71.6332 52.9731 71.6592 52.6531 71.6952 52.3291C71.7932 51.6911 71.9132 51.0691 72.0752 50.4711C72.1112 50.3371 72.1722 50.2111 72.2602 50.0961C72.5642 49.7031 72.7202 49.2701 72.8362 48.8161C72.8542 48.7401 72.8962 48.6711 72.8422 48.5681C72.7412 48.3971 73.2222 47.2091 73.3672 47.0921C73.6962 46.7931 73.9762 46.4721 74.2962 46.1771C74.3402 46.1351 74.3392 46.0611 74.4622 46.0691C74.7482 46.0891 74.7702 45.9581 74.8552 45.8601C74.9842 45.7341 75.1372 45.6171 75.3172 45.5271C75.4072 45.4811 75.5722 45.4911 75.7092 45.4871C75.8332 45.4831 76.0852 45.7161 76.1032 45.7591C76.1522 45.8841 76.3192 45.9291 76.4382 46.0071C76.4792 46.0331 76.5322 46.0681 76.5622 46.0941C76.5952 46.1221 76.6292 46.4201 76.6822 46.7171C76.7552 47.0331 76.7652 47.3091 76.7382 47.3461C76.7382 47.3461 76.6172 47.6571 76.5032 47.9731C76.3972 48.2991 76.2892 48.6371 76.2822 48.7141C76.2722 48.7931 76.1862 48.8371 76.1212 48.8901C76.0832 48.9141 75.8582 49.9301 75.8432 49.9661C75.7382 50.1521 75.7452 50.3801 75.4652 50.5021C75.4112 50.5271 75.4072 50.5711 75.3962 50.6131C75.3012 50.9671 75.1052 51.2831 74.9442 51.6161C74.8612 51.7851 74.8442 51.9701 74.7892 52.1461C74.7802 52.1781 74.7402 52.2021 74.7172 52.2311C74.6872 52.2661 74.6492 52.3001 74.6432 52.3401C74.5702 52.7611 74.3352 53.1611 74.3752 53.5631C74.3682 53.6601 74.0972 54.0511 74.1252 54.1541C74.1432 54.1931 73.8132 54.3821 73.8722 54.4291Z" fill="#333333"/>
<path fill-rule="evenodd" clip-rule="evenodd" d="M18.1075 27.6249C18.7535 27.7819 19.3385 28.2129 19.6045 28.9239C20.7645 32.0309 15.5165 32.2139 15.5465 29.4429C15.5635 27.9569 16.9345 27.3399 18.1075 27.6249Z" fill="#333333"/>
<path fill-rule="evenodd" clip-rule="evenodd" d="M26.0846 26.7704C26.7306 26.9274 27.3156 27.3584 27.5816 28.0694C28.7416 31.1774 23.4936 31.3604 23.5236 28.5884C23.5406 27.1024 24.9116 26.4854 26.0846 26.7704Z" fill="#333333"/>
<path fill-rule="evenodd" clip-rule="evenodd" d="M34.0616 25.9164C34.7076 26.0734 35.2936 26.5044 35.5586 27.2154C36.7186 30.3224 31.4706 30.5054 31.5006 27.7344C31.5176 26.2484 32.8896 25.6304 34.0616 25.9164Z" fill="#333333"/>
<path fill-rule="evenodd" clip-rule="evenodd" d="M58.8678 96.018C54.7358 96.152 50.6028 96.246 46.4708 96.313C44.9628 96.337 43.4568 96.42 41.9498 96.426C36.6348 96.452 31.3208 96.364 26.0118 96.252C23.6568 96.204 21.2868 96.201 18.9518 96.207C17.4548 96.223 15.9528 96.237 14.4528 96.252C12.9768 96.277 11.4268 96.222 10.0938 96.295C9.92184 96.318 9.76884 96.297 9.73184 96.251C9.66384 96.202 9.58284 96.131 9.52984 96.041C9.40484 95.878 9.46784 95.506 9.86984 95.159C10.6358 94.477 12.1688 93.918 13.9098 93.908C20.0778 93.915 26.1548 94.119 32.3278 94.358C36.0148 94.508 39.8528 94.353 43.6238 94.294C47.7718 94.232 51.9218 94.143 56.0708 94.007C58.6238 93.925 61.1788 93.83 63.7288 93.705C67.5938 93.523 71.4768 93.319 75.3058 93.016C78.2818 92.769 81.1878 92.393 84.1198 92.05C84.7648 91.971 85.3978 91.893 86.0478 91.813C88.4638 91.563 89.2458 91.638 89.8178 92.159C89.9478 92.278 90.1158 92.393 90.1968 92.517C90.4688 92.935 89.5138 93.384 87.7498 93.67C82.5168 94.519 76.9578 95.023 71.3688 95.405C67.2188 95.685 63.0428 95.889 58.8758 96.071L58.8678 96.018Z" fill="#333333"/>
<path fill-rule="evenodd" clip-rule="evenodd" d="M57.2183 97.3222C53.6503 97.4442 50.0813 97.5452 46.5133 97.6182L42.6083 97.7162C38.0193 97.7622 33.4293 97.7382 28.8433 97.6732C26.8073 97.6622 24.7623 97.6522 22.7423 97.6412C20.1493 97.6452 17.5423 97.6802 14.9693 97.5722C13.3513 97.5182 15.3793 96.2152 18.3903 96.2392C23.6933 96.2832 28.9663 96.3932 34.3013 96.5202C37.4893 96.6032 40.8083 96.4862 44.0703 96.4252C47.6563 96.3602 51.2443 96.2712 54.8313 96.1412C57.0393 96.0762 59.2463 95.9682 61.4513 95.8682C64.7923 95.7042 68.1493 95.5342 71.4603 95.2812C74.0333 95.0762 76.5513 94.8222 79.0893 94.5462C79.6473 94.4862 80.1953 94.4262 80.7583 94.3652C82.8483 94.1722 83.5213 94.2032 84.0013 94.5072C84.1103 94.5762 84.2513 94.6422 84.3183 94.7152C84.5423 94.9622 83.7063 95.2492 82.1783 95.4532C77.6463 96.0682 72.8423 96.4642 68.0143 96.7802C64.4293 97.0202 60.8223 97.1862 57.2243 97.3532L57.2183 97.3222Z" fill="#333333"/>
<path fill-rule="evenodd" clip-rule="evenodd" d="M93.6486 2.23871C93.5996 2.55071 93.5006 2.86271 93.4406 3.17071C93.4176 3.28271 93.4556 3.39271 93.4246 3.50571C93.3176 3.90171 93.1806 4.29571 93.0896 4.68571C93.0496 4.85871 93.0666 5.03171 93.0956 5.20371C93.1326 5.42271 93.2636 5.64371 93.0516 5.86371C92.9216 6.00071 91.0856 5.82671 91.0446 5.57971C90.9846 5.13971 91.0346 4.70271 91.2886 4.25471C91.4416 3.98671 91.3356 3.71271 91.3596 3.44171C91.3966 3.14671 91.4336 2.84271 91.4706 2.54371C91.4986 2.35971 91.5316 2.17371 91.5446 1.98971C91.5656 1.71071 91.6136 1.42671 91.5636 1.15471C91.5186 0.943711 91.3826 0.744711 91.2916 0.541711C91.2716 0.496711 91.2306 0.455711 91.2386 0.407711C91.2336 0.321711 91.2936 0.258711 91.4306 0.203711C91.5506 0.151711 91.7006 0.112711 91.9046 0.071711L92.1706 0.018711C92.4446 -0.027289 92.7476 0.013711 93.0326 0.117711C93.5586 0.461711 93.6926 0.876711 93.7186 1.29571C93.7456 1.60771 93.7126 1.92371 93.7026 2.23571L93.6486 2.23871Z" fill="#333333"/>
<path fill-rule="evenodd" clip-rule="evenodd" d="M107.98 9.85729C107.425 10.0623 106.868 10.2663 106.316 10.4693C106.112 10.5423 105.933 10.6663 105.725 10.7323C104.989 10.9613 104.241 11.1933 103.51 11.4203C103.187 11.5283 102.876 11.6703 102.575 11.8203C102.187 12.0113 101.812 12.2553 101.343 12.2493C101.059 12.2533 100.892 10.8463 101.29 10.6093C102.023 10.2083 102.769 9.84329 103.62 9.63029C104.132 9.50829 104.557 9.16029 105.027 8.91929C105.542 8.64929 106.087 8.42529 106.624 8.17829C106.956 8.02729 107.289 7.87629 107.618 7.72629C108.116 7.48929 108.63 7.27229 109.11 7.00029C109.489 6.80229 109.783 6.44529 110.161 6.23729C110.241 6.18729 110.32 6.13729 110.412 6.10729C110.753 6.00329 110.919 6.09829 111.17 6.48529C111.228 6.57329 111.289 6.65729 111.338 6.74629C111.504 7.04429 111.497 7.37529 111.348 7.63729C110.935 8.47429 110.283 8.83029 109.602 9.20029C109.087 9.45029 108.542 9.66229 108.006 9.90329L107.98 9.85729Z" fill="#333333"/>
<path fill-rule="evenodd" clip-rule="evenodd" d="M70.5988 18.1683C65.3538 17.9953 60.0568 18.0523 54.7758 18.1003C49.4948 18.1683 44.2168 18.3233 38.9528 18.6283C35.1108 18.8523 31.2828 19.2143 27.4798 19.6553C24.1298 20.0493 20.7858 20.5403 17.5568 21.3403C15.9528 21.7453 14.3528 22.2253 12.9468 22.9293C12.2428 23.2753 11.6098 23.6983 11.1318 24.1683L10.8538 24.5353C10.7558 24.6603 10.7528 24.7623 10.6838 24.8963C10.5848 25.2453 10.4928 25.6133 10.4248 26.0213C9.88379 29.2553 9.72179 32.6873 9.57179 36.0563C9.43979 39.4423 9.39079 42.8363 9.40479 46.2303C9.43779 52.2523 9.70079 58.3123 10.2128 64.2613C10.5388 68.0843 10.9918 71.9013 11.5818 75.6853C12.1708 79.4673 12.8768 83.2303 13.9438 86.8453C14.6788 89.0473 14.0808 89.0153 12.8608 87.2603C11.6688 85.4993 10.2178 81.8783 9.47979 77.4383C8.21479 69.5723 7.64879 61.6733 7.39979 53.7613C7.18379 45.8453 7.22179 37.9213 7.91879 29.9383C8.04379 28.7403 8.15779 27.5433 8.35779 26.3153C8.45779 25.6993 8.56479 25.0873 8.76079 24.4123C8.86179 24.0863 9.05079 23.5863 9.29079 23.3203L9.64579 22.8533L10.0438 22.4813C11.1268 21.5273 12.3158 20.9933 13.4948 20.5063C14.6808 20.0493 15.8798 19.6863 17.0838 19.3743C21.9078 18.1563 26.8048 17.5603 31.6588 17.0953C42.3358 16.1433 53.0358 15.9703 63.7148 15.9603C67.0058 15.9653 70.3018 16.0163 73.5998 16.1863C76.8968 16.3673 80.2008 16.6293 83.4858 17.2793C84.7288 17.5343 85.9718 17.8503 87.1918 18.3403C87.7988 18.5973 88.4078 18.8763 88.9768 19.2973C89.5428 19.7303 90.0738 20.2393 90.4178 20.7883C91.1938 21.8683 91.7588 23.0373 92.2278 24.2233C92.7178 25.4053 93.0818 26.6183 93.4358 27.8293C94.7558 32.6983 95.4388 37.6543 95.9778 42.5753C96.7898 50.2333 97.2388 57.7653 97.4258 65.3673C97.4618 67.0413 97.5108 68.6793 97.5118 70.3683C97.5068 76.6283 97.2568 78.6203 96.6498 79.9403C96.5088 80.2413 96.3658 80.6393 96.2288 80.8113C95.7588 81.3893 95.5258 78.8403 95.4718 74.2853C95.3838 67.5263 95.1978 60.5873 94.7778 53.5743C94.3408 46.5723 93.7478 39.4543 92.3788 32.5423C91.8528 29.9903 91.2368 27.4403 90.2958 25.1063C89.8368 23.9383 89.2858 22.8163 88.6048 21.9113C88.4478 21.6543 88.2548 21.5073 88.0868 21.3183L87.8428 21.1033L87.5388 20.8943C87.0988 20.6233 86.5758 20.3773 86.0138 20.1713C83.7258 19.3623 81.0988 18.9873 78.5088 18.7073C75.9008 18.4373 73.2578 18.2993 70.6108 18.2213L70.5988 18.1683Z" fill="#333333"/>
<path fill-rule="evenodd" clip-rule="evenodd" d="M57.6642 90.4823L47.1592 90.5303L43.3282 90.5913C38.8252 90.6003 34.3202 90.4843 29.8172 90.4273C27.8182 90.3803 25.8102 90.4023 23.8252 90.3793C21.2762 90.3873 18.7082 90.3643 16.1632 89.9953C14.5862 89.7933 16.6812 88.9033 19.5792 88.8123C24.7462 88.8333 29.9312 88.8163 35.1652 88.9323C38.2962 88.9963 41.5542 88.8523 44.7562 88.8143L55.3272 88.6753C57.4962 88.6373 59.6652 88.5993 61.8322 88.5613C65.1162 88.4873 68.4162 88.4373 71.6732 88.3003C74.2062 88.1903 76.6852 87.9833 79.1882 87.8203C79.7392 87.7853 80.2782 87.7303 80.8352 87.7223C82.8992 87.6993 83.5632 87.8973 84.0162 88.2903C84.1192 88.3833 84.2542 88.4733 84.3152 88.5623C84.5202 88.8583 83.6862 89.1623 82.1862 89.4193C77.7282 90.0393 73.0052 90.1793 68.2642 90.3253C64.7412 90.3933 61.2022 90.4613 57.6692 90.5283L57.6642 90.4823Z" fill="#333333"/>
<path fill-rule="evenodd" clip-rule="evenodd" d="M7.0001 62.6073C6.7961 59.4673 6.6481 56.3273 6.5231 53.1873C6.4751 52.0413 6.3561 50.8993 6.3301 49.7543C6.2461 45.7123 6.2691 41.6673 6.3971 37.6213C6.4641 35.8253 6.4581 34.0203 6.5061 32.2273C6.5901 29.9243 6.4941 27.5893 7.4091 25.2383C7.7201 24.4923 8.3171 24.8873 8.8111 25.6233C9.2841 26.3403 9.7841 27.4343 9.6611 28.6593C9.2941 33.0953 9.3161 37.7253 8.9971 42.3733C8.8231 45.1623 9.0671 48.0593 9.1671 50.9103C9.2741 54.0463 9.4031 57.1873 9.5911 60.3233C9.7021 62.2533 9.8351 64.1843 10.0021 66.1083C10.2621 69.0233 10.4801 71.9603 10.9151 74.8283C11.2541 77.0563 11.7481 79.2173 12.3011 81.3433C12.4191 81.8153 12.5681 82.2603 12.7001 82.7213C12.9371 83.5733 13.0881 84.1313 13.1271 84.5163C13.1461 84.9363 13.0381 85.2043 12.9051 85.4983C12.8461 85.6323 12.8171 85.7943 12.7691 85.8963C12.6851 86.0673 12.5011 86.0403 12.1091 85.8133C11.8861 85.7023 11.7171 85.5143 11.5391 85.2863C11.3411 85.0573 11.1881 84.7563 11.0481 84.4323C10.1951 82.4753 9.6601 80.4463 9.1671 78.3803C8.6911 76.3133 8.3071 74.2063 7.9831 72.0923C7.4711 68.9553 7.1881 65.7813 6.9321 62.6173L7.0001 62.6073Z" fill="#333333"/>
</svg>
