<svg width="102" height="112" viewBox="0 0 102 112" fill="none" xmlns="http://www.w3.org/2000/svg">
<path fill-rule="evenodd" clip-rule="evenodd" d="M30.309 19.8761C31.08 18.3341 31.531 17.9731 32.025 17.9441C33.646 17.8701 35.305 17.7721 36.958 17.7501C38.381 17.7311 39.809 17.8951 41.24 17.9041C43.702 17.9131 46.168 17.8411 48.635 17.7811C49.364 17.7641 50.093 17.7811 50.822 17.7311C51.519 17.6661 52.216 17.5991 52.914 17.5721C53.032 17.5671 53.154 17.4931 53.266 17.5861C53.566 17.8381 53.647 18.7861 53.434 19.5011C53.386 19.6641 53.333 19.9321 53.279 19.9371C52.737 19.9821 52.316 21.2641 51.741 21.2631C50.68 21.1881 49.621 21.5181 48.558 21.6291C48.133 21.6751 47.706 21.6601 47.282 21.6051C46.738 21.5341 46.196 21.3651 45.653 21.2941C44.91 21.1991 41.418 21.1431 38.059 21.0221C36.379 20.9611 34.732 20.8811 33.472 20.7871C32.218 20.7071 31.332 20.5731 31.247 20.5291C30.982 20.4421 30.712 20.1701 30.309 19.8761Z" fill="#333333"/>
<path fill-rule="evenodd" clip-rule="evenodd" d="M33.7747 29.668C34.4067 28.104 34.7867 27.754 35.1267 27.723C36.2477 27.668 37.3707 27.585 38.5087 27.565C39.4877 27.543 40.4757 27.708 41.4717 27.71C43.1857 27.71 44.9107 27.629 46.6377 27.568C47.1487 27.549 47.6597 27.565 48.1697 27.518C48.6577 27.453 49.1467 27.386 49.6357 27.362C49.7177 27.357 49.8037 27.284 49.8817 27.377C50.0937 27.63 50.1537 28.578 50.0067 29.293C49.9737 29.455 49.9377 29.723 49.8997 29.728C49.5197 29.772 49.2297 31.052 48.8277 31.05C48.0847 30.974 47.3427 31.302 46.5997 31.416C46.3017 31.461 46.0037 31.447 45.7047 31.393C45.3237 31.323 44.9427 31.153 44.5617 31.085C44.0397 30.991 41.5927 30.952 39.2137 30.835C38.0247 30.777 36.8457 30.687 35.9427 30.574C35.0397 30.472 34.4217 30.334 34.3687 30.293C34.1837 30.202 34.0307 29.942 33.7747 29.668Z" fill="#333333"/>
<path fill-rule="evenodd" clip-rule="evenodd" d="M1.11652 15.0675C1.29952 14.4785 1.92552 14.1485 2.51452 14.3315C5.43552 15.2345 0.165517 18.1355 1.11652 15.0675Z" stroke="#333333" stroke-width="0.95"/>
<path fill-rule="evenodd" clip-rule="evenodd" d="M71.9573 23.9341C72.1403 23.3451 72.7663 23.0151 73.3553 23.1971C76.2763 24.1011 71.0063 27.0021 71.9573 23.9341Z" stroke="#333333" stroke-width="0.95"/>
<path fill-rule="evenodd" clip-rule="evenodd" d="M83.9271 30.4009C84.1101 29.8119 84.7361 29.4819 85.3251 29.6639C88.2461 30.5679 82.9761 33.4689 83.9271 30.4009Z" fill="#333333"/>
<path fill-rule="evenodd" clip-rule="evenodd" d="M32.7162 61.5205C33.0022 60.9745 33.6772 60.7625 34.2242 61.0485C36.9342 62.4655 31.2272 64.3665 32.7162 61.5205Z" stroke="#333333" stroke-width="0.95"/>
<path fill-rule="evenodd" clip-rule="evenodd" d="M8.75132 47.4279C9.03732 46.8809 9.71232 46.6699 10.2593 46.9559C12.9693 48.3729 7.26232 50.2739 8.75132 47.4279Z" fill="#333333"/>
<path fill-rule="evenodd" clip-rule="evenodd" d="M62.9466 67.0221L59.6056 61.8551C59.1976 61.2291 58.7396 60.6381 58.3466 60.0031C56.9606 57.7641 55.6106 55.5021 54.2016 53.2851C53.5776 52.3011 52.8896 51.3541 52.1966 50.4311C51.3626 49.2061 50.4116 48.0651 49.8216 46.6831C49.6256 46.2601 49.9026 46.0991 50.4626 46.1581C50.7446 46.1861 51.1016 46.2681 51.4806 46.4091C51.8756 46.5411 52.2506 46.7611 52.5356 47.0911C53.0516 47.6681 53.5546 48.2491 54.0456 48.8381C54.5196 49.4381 54.9286 50.0841 55.3556 50.7161C56.1956 51.9901 56.9906 53.2951 57.7366 54.6411C58.6276 56.2511 59.8106 57.7481 60.8496 59.3031L64.2296 64.4671C64.9266 65.5221 65.6246 66.5791 66.3436 67.6171C67.4336 69.1891 68.5156 70.7801 69.7046 72.2521C70.6306 73.3941 71.6716 74.4091 72.7006 75.3791C72.9296 75.5871 73.1436 75.7931 73.3506 76.0191C73.5436 76.2071 73.6916 76.3911 73.7976 76.5431C73.9026 76.6851 73.9886 76.8011 74.0296 76.9471C74.0706 77.1911 74.0986 77.4641 74.1036 77.6701C74.1146 77.7821 74.1746 77.8991 74.2106 77.9971C74.4816 78.2961 73.3526 78.6421 72.4406 78.1241C71.0846 77.4241 70.1156 76.4201 69.1656 75.3901C68.2196 74.3561 67.3506 73.2561 66.5046 72.1401C65.2496 70.4811 64.0766 68.7641 62.8976 67.0611L62.9466 67.0221Z" fill="#333333"/>
<path fill-rule="evenodd" clip-rule="evenodd" d="M74.5111 72.4244C74.8691 73.4134 75.2101 74.4124 75.4281 75.5244C75.5381 76.0744 75.6131 76.6754 75.5381 77.3954C75.4991 77.5934 75.4751 77.7754 75.4041 77.9824C75.3091 78.1994 75.1941 78.4464 75.0651 78.6154C74.8151 78.9184 74.5021 79.2414 74.0511 79.4184C73.6211 79.6054 73.1371 79.6414 72.7561 79.5774C72.3531 79.5274 72.0381 79.3944 71.7391 79.2604C71.1541 78.9824 70.7001 78.6314 70.2671 78.2824C69.4091 77.5774 68.6921 76.8054 68.0051 76.0184C67.0101 74.8664 66.0651 73.6964 65.1991 72.4864C62.0981 68.3204 59.2661 63.8714 56.5191 59.4674C55.2931 57.5104 54.0231 55.5694 52.7451 53.6744C51.1281 51.2214 49.4721 48.7964 48.0501 46.2104C47.6211 45.3924 47.8111 45.4034 48.4991 45.8644C49.2071 46.3094 50.4031 47.2244 51.4831 48.5524C53.3721 50.9224 55.0321 53.4434 56.6151 56.0034C58.1881 58.5574 59.7661 61.1174 61.3541 63.6954C63.2221 66.7724 65.5441 69.7464 67.6881 72.7394C68.8861 74.3304 70.1461 75.9404 71.6141 77.1104C72.3441 77.6894 73.2061 78.0084 73.4581 77.6834C73.8631 77.5004 73.7561 76.4624 73.5321 75.5564C72.9171 73.2524 71.8231 70.9744 70.7161 68.7614C69.0051 65.4024 67.1351 62.0844 65.1921 58.8664C63.6781 56.3644 62.0101 54.0244 60.4151 51.6124C60.0591 51.0844 59.7091 50.5664 59.3501 50.0344C58.0441 48.0444 57.8561 47.2644 58.0241 46.5504C58.0661 46.3854 58.0861 46.1904 58.1521 46.0684C58.3651 45.6604 59.1981 46.2814 60.3191 47.6414C63.5021 51.7634 66.4271 56.4034 69.1731 61.1954C71.1451 64.7984 73.0341 68.4624 74.5541 72.4014L74.5111 72.4244Z" fill="#333333"/>
<path fill-rule="evenodd" clip-rule="evenodd" d="M47.3012 45.2125C50.4702 44.4885 53.4932 43.0555 55.9872 40.9375C58.5212 38.8625 60.5012 36.1295 61.8612 33.1395C62.8402 30.9405 63.4212 28.5765 63.6942 26.1855C63.8902 24.0695 63.8312 21.9345 63.5042 19.8295C63.1122 17.7375 62.4482 15.7035 61.5192 13.7855C60.5332 11.8965 59.2702 10.1655 57.7892 8.62548C56.2452 7.15348 54.5132 5.86548 52.6012 4.87248C50.9112 3.97748 49.0762 3.36348 47.2192 2.89548C45.3482 2.46148 43.4332 2.27448 41.5342 2.23848C36.6362 2.25648 31.8142 3.74648 27.7632 6.38548C26.5082 7.20648 26.2842 6.69048 27.0612 5.46248C27.7982 4.21548 29.8022 2.36948 32.7402 1.36948C37.9152 -0.374522 43.5692 -0.429522 48.7802 1.07148C53.9642 2.56448 58.8552 5.74948 61.8202 10.3825C63.6232 13.1005 64.8932 16.2225 65.4952 19.4855C66.0842 22.7495 66.0182 26.1435 65.2852 29.3595C64.4792 32.8945 62.9082 36.2565 60.6682 39.1095C59.5232 40.5105 58.2562 41.8165 56.8372 42.9455C55.4052 44.0555 53.8552 45.0085 52.2152 45.7715C48.1602 47.6305 43.5902 48.2175 39.2192 47.6275C32.5862 46.7615 26.3292 43.0775 22.5432 37.5995C19.5892 33.3615 18.1042 28.2425 18.2602 23.1025C18.2912 21.9695 18.3872 20.8585 18.5922 19.7305C18.9742 17.6385 19.4972 16.3205 19.9352 15.4435C20.3872 14.5695 20.7932 14.1365 21.2432 13.8625C21.4492 13.7385 21.6822 13.5605 21.8492 13.5165C22.4442 13.3925 21.8752 14.9555 21.1462 17.7145C20.0872 21.8145 20.1102 26.2895 21.3842 30.4415C22.6152 34.5955 25.1872 38.3555 28.6722 41.0345C33.8392 45.0105 40.8792 46.6475 47.2812 45.1635L47.3012 45.2125Z" fill="#333333"/>
<path fill-rule="evenodd" clip-rule="evenodd" d="M77.5029 61.8107C76.9629 60.6967 76.3489 59.6197 75.5969 58.7037C75.3169 58.3757 74.9899 58.1027 74.6869 57.8337C74.1459 57.3447 73.6039 56.9317 73.0009 56.7967C72.3969 56.6337 71.7109 56.6857 71.0289 56.9397C70.4199 57.1547 69.8629 57.5837 69.3749 58.0587C68.7399 58.6747 68.2699 59.4467 67.5659 60.0187C67.3609 60.1837 66.8779 59.8647 66.5679 59.3247C66.2579 58.7907 66.1329 58.0337 66.5349 57.5607C67.2349 56.7277 68.0679 55.9707 69.0889 55.3867C70.0959 54.8107 71.3799 54.4167 72.6759 54.6127C73.4449 54.7027 74.1739 54.9697 74.8449 55.2957C75.1649 55.4667 75.4479 55.6667 75.7479 55.8547C76.0209 56.0647 76.2749 56.2897 76.5289 56.5147C77.5809 57.5497 78.3459 58.7357 79.0149 59.9387C79.4279 60.6797 79.7839 61.4427 80.1309 62.2037C80.6459 63.3617 81.0629 64.5567 81.5069 65.7237C81.8469 66.6337 82.2769 67.4987 82.6099 68.4217C82.6889 68.6227 82.7689 68.8227 82.8289 69.0327C83.0489 69.8107 82.9199 70.1147 82.3669 70.3707C82.2389 70.4307 82.1139 70.5007 81.9819 70.5427C81.5379 70.6827 81.1059 70.4387 80.8799 69.9427C80.1609 68.4627 79.6099 66.8707 78.9889 65.2857C78.5229 64.1127 78.0389 62.9407 77.4549 61.8387L77.5029 61.8107Z" fill="#333333"/>
<path fill-rule="evenodd" clip-rule="evenodd" d="M87.0526 66.2716C86.6576 65.2886 86.2106 64.3256 85.6766 63.4286C85.4756 63.1066 85.2256 62.8186 85.0106 62.5166C84.2796 61.4286 83.4006 60.4196 82.3166 59.9106C81.8356 59.6986 81.3096 59.6576 80.8256 59.7506C80.1896 59.8886 79.6896 60.2856 78.9896 60.5216C78.7686 60.5816 78.4126 60.1276 78.2626 59.5456C78.1086 58.9706 78.1946 58.2156 78.7616 57.9386C79.7196 57.4416 80.9616 57.2316 82.0756 57.4866C83.1956 57.7296 84.1046 58.3366 84.7786 59.0336C85.5876 59.8626 86.4016 60.6306 87.0276 61.5306C87.7056 62.5176 88.2506 63.5586 88.7356 64.6136C89.0386 65.2606 89.2936 65.9256 89.5576 66.5826C89.9486 67.5826 90.2576 68.6116 90.6026 69.6166C90.8676 70.4006 91.2266 71.1466 91.4836 71.9606C91.5436 72.1386 91.6116 72.3156 91.6516 72.5046C91.7926 73.2076 91.6356 73.4926 91.0446 73.6496C90.9096 73.6866 90.7756 73.7296 90.6396 73.7486C90.1726 73.7966 89.8026 73.5756 89.6206 73.1776C89.0736 71.9746 88.6386 70.6276 88.1596 69.2796C87.8036 68.2786 87.4436 67.2676 87.0026 66.2966L87.0526 66.2716Z" fill="#333333"/>
<path fill-rule="evenodd" clip-rule="evenodd" d="M98.6746 87.6432C98.5366 85.5942 98.3346 83.5482 98.0216 81.5242C97.8986 80.7882 97.7216 80.0612 97.5766 79.3332C97.0896 76.7662 96.4876 74.1802 95.3496 71.9052C94.8456 70.9112 94.1606 69.9842 93.3396 69.4442C92.8116 69.0932 92.2496 68.9752 91.7086 68.9592C91.4286 69.0162 91.1536 68.9902 90.8616 69.1032C90.7166 69.1482 90.5666 69.1582 90.4156 69.2152C90.2666 69.2762 90.1126 69.3332 89.9536 69.3842C89.5666 69.5032 89.2516 69.0202 89.3456 68.3302C89.4036 67.9962 89.5296 67.5592 89.8636 67.2252C90.1996 66.8932 90.6746 66.5632 91.3206 66.5322C92.4186 66.4182 93.6296 66.7512 94.4596 67.3532C94.9326 67.6202 95.2386 67.9802 95.6126 68.3082C95.9076 68.6622 96.2306 69.0162 96.4696 69.3882C97.4656 70.8732 98.0396 72.4422 98.4616 74.0192C98.9496 75.9042 99.5456 77.7962 99.9076 79.7112C100.301 81.8142 100.562 83.9282 100.758 86.0422C100.872 87.3432 100.965 88.6452 101.034 89.9462C101.148 91.9172 101.168 93.8992 101.219 95.8572C101.263 97.3802 101.383 98.8782 101.397 100.402C101.396 100.738 101.428 101.067 101.405 101.407C101.343 102.664 101.121 103.056 100.502 103.241C100.36 103.284 100.217 103.345 100.077 103.36C99.6026 103.411 99.2896 102.872 99.2456 101.994C99.0896 99.3752 99.0556 96.6252 98.9646 93.8482C98.8916 91.7882 98.8036 89.7132 98.6196 87.6512L98.6746 87.6432Z" fill="#333333"/>
<path fill-rule="evenodd" clip-rule="evenodd" d="M70.0521 92.694C67.6371 90.146 65.3891 87.443 63.4181 84.526C62.6961 83.465 61.9851 82.386 61.3791 81.241C60.3331 79.218 59.4071 77.065 59.2051 74.618C59.1081 73.424 59.3011 71.993 60.2511 70.907C60.7021 70.405 61.3811 69.949 62.1521 69.87C62.9161 69.783 63.5961 70.011 64.1571 70.285C65.1661 70.785 65.9451 71.465 66.7071 72.136C67.4551 72.821 68.1641 73.519 68.8311 74.237C69.6931 75.153 70.5461 76.065 71.4021 76.934C71.8321 77.364 72.2601 77.786 72.6901 78.168C73.1151 78.537 73.5811 78.885 73.9501 78.988C74.0611 79.017 74.1351 79.05 74.1941 79.083C74.2571 79.126 74.3121 79.187 74.3361 79.261C74.3861 79.383 74.3121 79.698 73.8841 79.875C73.4691 80.056 72.7971 80.036 72.1571 79.817C71.5151 79.597 70.8471 79.238 70.2911 78.718C68.3281 76.903 66.6821 74.966 64.9601 73.324C64.1261 72.543 63.1081 71.833 62.5081 71.811C62.2341 71.779 62.0031 71.861 61.6771 72.171C61.4031 72.45 61.2041 72.852 61.0931 73.342C60.8231 74.542 61.1881 76.056 61.7261 77.429C62.2711 78.826 63.0101 80.181 63.8011 81.491C65.5501 84.374 67.6801 87.066 70.0241 89.547C71.4651 91.077 72.9821 92.541 74.5731 93.92C76.9811 96.047 79.4991 97.92 82.2391 99.712C84.3711 101.222 86.1181 103.45 86.8441 106.021C87.0161 106.578 87.1641 107.127 87.2611 107.696C87.4431 108.751 87.4131 109.439 87.3451 109.915C87.3051 110.156 87.2451 110.34 87.1591 110.502C87.0541 110.666 86.9311 110.796 86.8051 110.918C86.6891 111.029 86.5901 111.173 86.4951 111.244C86.2311 111.5 85.5281 110.671 85.2541 109.248C84.7941 107.151 84.1571 105.241 82.9911 103.687C82.4121 102.909 81.7031 102.224 80.9001 101.618L80.2811 101.178L79.5431 100.683C79.0461 100.356 78.5571 100.015 78.0741 99.665C75.1881 97.609 72.5001 95.265 70.0171 92.736L70.0521 92.694Z" fill="#333333"/>
<path fill-rule="evenodd" clip-rule="evenodd" d="M21.5355 41.2623C23.8155 44.0503 26.8186 46.3013 30.2065 47.7003C30.8135 47.9833 31.4655 48.1503 32.0945 48.3753C32.7405 48.5453 33.3846 48.7273 34.0345 48.8803C38.6175 49.9693 43.5735 49.6933 48.0035 47.8993C49.9655 47.1073 51.8256 46.0073 53.4325 44.6483C55.5305 42.9263 57.2285 40.8043 58.9325 38.6863C59.4765 38.0363 59.8846 38.4133 59.9006 39.3223C59.9086 39.7773 59.8166 40.3683 59.5975 41.0233C59.3575 41.6623 58.9535 42.3413 58.4235 43.0003C54.5435 47.5773 48.8425 50.7093 42.8396 51.3233C39.2715 51.6983 35.4935 51.5623 31.9765 50.5183C28.1295 49.3743 24.5405 47.3373 21.6845 44.5233C19.9205 42.8033 18.4365 40.7973 17.3185 38.6093C16.4745 36.9523 15.8185 35.1873 15.4505 33.3663C15.3355 32.9153 15.2475 32.4613 15.1945 31.9993C15.1335 31.5403 15.0545 31.0853 15.0065 30.6233C14.9235 29.6973 14.8965 28.7683 14.9365 27.8443C15.0585 24.9773 15.6735 22.1633 16.8845 19.5543C17.1565 18.9833 17.4125 18.4153 17.7525 17.8723C19.0095 15.8533 19.7125 15.4223 20.4425 15.4243C20.6135 15.4273 20.8065 15.4053 20.9435 15.4463C21.4195 15.6033 21.0305 16.4773 20.2045 17.8093C17.7865 21.7763 16.4425 26.6893 17.2415 31.4493C17.7385 35.0193 19.2815 38.4163 21.5725 41.2253L21.5355 41.2623Z" fill="#333333"/>
</svg>
