<svg width="98" height="96" viewBox="0 0 98 96" fill="none" xmlns="http://www.w3.org/2000/svg">
<path fill-rule="evenodd" clip-rule="evenodd" d="M14.9044 88.4089C15.0574 88.4619 14.9444 88.6729 14.6704 88.9389C14.5834 89.0249 14.2704 89.2069 14.2084 89.2099C14.0884 89.2149 13.9704 89.2219 13.8784 89.2169C13.8504 89.2099 13.7124 89.1369 13.5704 89.0869C13.5064 89.0819 13.4314 89.0579 13.4004 89.0899C13.4004 89.0899 13.3754 89.1219 13.3944 89.0959C13.4334 89.0439 13.4674 88.9889 13.4974 88.9359C13.5564 88.8339 13.5854 88.8139 13.6104 88.7539C13.6324 88.7099 13.6494 88.6459 13.6594 88.6069C13.6694 88.5899 13.6764 88.5669 13.6784 88.5429C13.6764 88.4579 13.6794 88.5309 13.6844 88.5149C13.6974 88.5659 13.7294 88.6129 13.7894 88.6799C13.8694 88.7939 13.9344 88.8209 14.0694 88.9379C14.1364 88.9939 14.2064 89.0439 14.2784 89.0879C14.3544 89.1379 14.4444 89.1719 14.4114 89.1649L14.3974 89.1959C14.3824 89.2459 14.3634 89.2839 14.3454 89.3579C14.3064 89.4839 14.2734 89.6569 14.2364 89.8249C14.2214 89.9029 14.1854 89.9779 14.1274 90.0509C13.9344 90.3059 13.8834 90.6069 13.8844 90.9129C13.8844 90.9649 13.8664 91.0149 13.9314 91.0709C14.0344 91.1609 13.9554 91.9929 13.8954 92.1019C13.7374 92.3649 13.6354 92.6379 13.5114 92.9119C13.4934 92.9509 13.5174 92.9949 13.4334 93.0269C13.2364 93.1019 13.2634 93.1899 13.2434 93.2779C13.2164 93.3989 13.1784 93.5199 13.1054 93.6439C13.0694 93.7049 12.9554 93.7619 12.8614 93.8209C12.7774 93.8729 12.4974 93.8019 12.4684 93.7809C12.3844 93.7189 12.2464 93.7479 12.1284 93.7369C12.0894 93.7319 12.0364 93.7269 12.0054 93.7229C11.9394 93.7349 11.4784 93.0279 11.4834 92.9469C11.4824 92.9389 11.4544 92.6799 11.4244 92.3989C11.3934 92.1209 11.3604 91.8269 11.3454 91.7659C11.3294 91.7029 11.3784 91.6419 11.4094 91.5829C11.4214 91.5569 11.3194 90.6939 11.3314 90.6559C11.3694 90.4809 11.3124 90.2899 11.5084 90.1329C11.5464 90.1019 11.5414 90.0639 11.5424 90.0269C11.5534 89.7099 11.6664 89.4049 11.7834 89.0829C11.8444 88.9179 11.8594 88.7409 11.9224 88.5529C11.9324 88.5189 11.9684 88.4959 11.9904 88.4669C12.0164 88.4299 12.0604 88.3909 12.0744 88.3469C12.1514 88.1279 12.2644 87.8489 12.5814 87.5729C12.7334 87.4349 12.9744 87.2599 13.2954 87.1789C13.6264 87.0869 13.9824 87.1539 14.2014 87.2379C14.2514 87.2569 14.3454 87.3109 14.4464 87.3909C14.5164 87.4629 14.5904 87.5529 14.6584 87.6419C14.7654 87.8119 14.8414 87.9699 14.8844 88.0119C14.9334 88.0619 14.8444 88.3929 14.9044 88.4089Z" fill="#333333"/>
<path fill-rule="evenodd" clip-rule="evenodd" d="M31.9147 20.6247C32.0807 21.3087 32.1297 22.0217 32.3067 22.7097C32.3617 22.9627 32.4797 23.1937 32.5407 23.4437C32.7667 24.3217 33.0487 25.1877 33.4467 25.9797C33.6307 26.3237 33.8767 26.6327 34.1487 26.8697C34.5187 27.1817 34.8767 27.3087 35.2017 27.5617C35.3017 27.6457 35.2887 28.0197 35.0687 28.3617C34.8647 28.7117 34.3427 28.9997 33.9277 28.8087C33.2097 28.4757 32.7237 27.9497 32.3457 27.4297C31.9757 26.8957 31.7047 26.3357 31.5497 25.7427C31.3617 25.0407 31.0247 24.3967 30.8317 23.7087C30.6247 22.9547 30.4687 22.1927 30.3657 21.4267C30.3167 20.9507 30.2887 20.4757 30.2577 20.0037C30.2147 19.2867 30.2187 18.5667 30.2197 17.8567C30.2187 17.3057 30.1857 16.7577 30.2597 16.1947C30.2767 16.0717 30.2897 15.9477 30.3247 15.8257C30.4667 15.3707 30.6117 15.2497 30.8347 15.2347C30.8867 15.2307 30.9387 15.2227 30.9847 15.2287C31.1417 15.2517 31.1967 15.4587 31.2137 15.7607C31.2637 16.6577 31.3667 17.5867 31.5287 18.5277C31.6487 19.2257 31.7787 19.9267 31.9547 20.6157L31.9147 20.6247Z" fill="#333333"/>
<path fill-rule="evenodd" clip-rule="evenodd" d="M9.13102 8.40704C9.20602 8.15704 9.52202 8.29804 9.91502 8.68604C10.041 8.81004 10.306 9.26704 10.311 9.35304C10.318 9.52304 10.331 9.68304 10.323 9.80604C10.319 9.84304 10.209 10.022 10.137 10.208C10.054 10.392 10.046 10.583 10.047 10.673C10.06 10.853 10.026 10.988 9.96602 11.21L9.75302 12.151C9.65202 12.551 9.44902 13.094 9.11502 13.527C8.97802 13.717 8.80902 13.864 8.63402 13.972C8.03502 14.323 7.61702 14.593 7.27802 14.915C7.22402 14.967 7.15102 15.003 7.14702 15.113C7.14502 15.203 6.91602 15.428 6.71702 15.637C6.52002 15.846 6.33802 16.046 6.27102 16.072C5.95802 16.213 5.68302 16.413 5.42102 16.654C5.38102 16.688 5.38802 16.749 5.27402 16.74C5.00602 16.721 5.00802 16.852 4.94202 16.943C4.83302 17.064 4.72502 17.193 4.58702 17.317C4.51702 17.378 4.36102 17.411 4.23302 17.459C4.11602 17.501 3.81802 17.369 3.79202 17.331C3.71802 17.222 3.54702 17.238 3.41302 17.206C3.36802 17.195 3.30902 17.18 3.27402 17.166C3.23602 17.149 3.15102 16.828 3.06902 16.462C2.98902 16.094 3.00702 15.713 3.04202 15.653C3.06002 15.642 3.21502 15.197 3.47102 14.761C3.71002 14.316 4.02902 13.893 4.08802 13.803C4.14702 13.706 4.26502 13.661 4.36902 13.614C4.39302 13.603 4.63602 13.304 4.89302 13.042C5.14702 12.773 5.38902 12.527 5.40902 12.517C5.63902 12.372 5.78602 12.156 6.08202 12.184C6.14102 12.189 6.17202 12.151 6.20302 12.122C6.47302 11.864 6.68402 11.751 6.79502 11.65C6.86002 11.595 6.87302 11.469 6.91902 11.326C6.92602 11.297 6.96402 11.276 6.98502 11.25C7.01202 11.22 7.05002 11.186 7.05902 11.138C7.14102 10.693 7.38202 10.013 7.68702 9.31304C7.74902 9.12404 8.44702 8.63304 8.56402 8.52004C8.63002 8.42004 9.10802 8.50404 9.13102 8.40704Z" fill="#333333"/>
<path fill-rule="evenodd" clip-rule="evenodd" d="M30.3625 67.7517C30.5105 67.7767 30.6645 67.8037 30.8035 67.8277C30.8515 67.8347 30.8945 67.8037 30.9385 67.8137C31.1045 67.8547 31.2575 67.9027 31.3815 67.9167C31.4155 67.9237 31.4575 67.8947 31.4335 67.8937C31.4165 67.8847 31.3655 67.7907 31.4715 67.7997C31.5125 67.8017 31.7725 67.8647 32.0665 67.9897C32.3485 68.1067 32.6175 68.3037 32.5835 68.4107C32.5295 68.5067 32.5245 68.5637 32.4145 68.6887C32.3235 68.7987 32.2305 68.9177 32.1435 68.9477C31.9485 69.0597 31.7975 69.0637 31.6425 69.0377C31.4655 68.9977 31.3535 69.0967 31.2195 69.1117C31.0775 69.1267 30.9405 69.1237 30.8105 69.1247C30.7355 69.1267 30.6505 69.1227 30.5845 69.1327C30.4775 69.1357 30.3585 69.1287 30.3095 69.1797C30.2855 69.1967 30.2785 69.2347 30.3035 69.2637L30.3175 69.2837L30.2625 69.2357C30.2335 69.2107 30.2355 69.2037 30.2135 69.1887C30.1985 69.1777 30.1805 69.1687 30.1585 69.1617C30.1745 69.1697 30.1885 69.1697 30.1935 69.1697C30.1935 69.1697 30.2155 69.1697 30.1845 69.1667C30.1325 69.1647 30.0685 69.1627 29.9885 69.1597L29.7835 69.1647C29.5645 69.1777 29.3585 69.1347 29.2565 68.9377C29.0935 68.6547 29.2685 68.3097 29.3955 68.1577C29.4795 68.0557 29.5475 67.9997 29.6165 67.9507C29.6905 67.8977 29.7695 67.8527 29.8275 67.8287C30.0245 67.7357 30.1965 67.7157 30.3535 67.7177L30.3625 67.7517Z" fill="#333333"/>
<path fill-rule="evenodd" clip-rule="evenodd" d="M19.9557 67.7225C21.0247 67.9395 22.1317 68.0295 23.2427 68.0715C23.6487 68.0745 24.0507 68.0105 24.4577 68.0135C25.8867 67.9715 27.3457 67.8835 28.7417 67.5695C29.3067 67.4315 30.0807 67.1715 30.1267 66.9515C30.2607 66.6895 30.3097 66.3515 30.3367 65.9685C30.3527 65.7765 30.3647 65.5775 30.3937 65.3535C30.4387 65.1265 30.4367 64.8825 30.6777 64.5185C30.9967 64.2345 31.1667 64.6255 31.3277 64.9115C31.5857 65.1405 31.9487 65.3685 31.9387 65.9355C31.9227 66.4035 31.8897 66.9695 31.6077 67.5695C31.5427 67.7175 31.4527 67.8635 31.3547 68.0045C31.2497 68.1545 31.0167 68.3465 30.8237 68.4805C30.5287 68.6475 30.3097 68.7415 30.0657 68.8375C29.1547 69.1835 28.2767 69.3245 27.3727 69.4315C26.2987 69.5185 25.2137 69.7655 24.1187 69.8045C22.9197 69.8755 21.7147 69.8035 20.5197 69.6915C19.7867 69.5845 19.0507 69.5015 18.3297 69.3285C17.7827 69.2015 17.2307 69.0985 16.6997 68.9045C16.1637 68.7315 15.6237 68.5845 15.1097 68.3545C14.2857 68.0725 13.4847 67.7515 12.6777 67.3805C12.5017 67.2965 12.3357 67.2015 12.1767 67.0845C11.5917 66.6465 11.4897 66.3975 11.6767 65.9455C11.7187 65.8415 11.7527 65.7345 11.8077 65.6415C11.9917 65.3295 12.4087 65.2565 12.8607 65.4185C13.2067 65.5295 13.5057 65.6935 13.8407 65.8095C14.1727 65.9275 14.4967 66.0575 14.8137 66.1985C15.1287 66.3435 15.4817 66.4255 15.8077 66.5555C16.1367 66.6815 16.4687 66.8035 16.8147 66.9015C17.3207 67.0665 17.8257 67.2415 18.3587 67.3515C18.8797 67.4975 19.4157 67.6015 19.9597 67.6755L19.9557 67.7225Z" fill="#333333"/>
<path fill-rule="evenodd" clip-rule="evenodd" d="M71.5269 76.9031C71.4369 77.8701 71.3099 78.8331 71.1199 79.7861C71.0429 80.1321 71.0179 80.4861 70.9289 80.8301C70.5969 82.0411 70.1269 83.2101 69.5379 84.3061C69.2259 84.7661 69.0059 85.2771 68.6729 85.7151C68.4639 85.9981 68.2849 86.3051 68.0529 86.5711C67.8109 86.8281 67.5529 87.0731 67.2749 87.2871C67.0989 87.4211 66.9709 87.2341 66.9309 86.9421C66.8939 86.6491 66.9249 86.2531 67.1489 85.9681C67.9129 84.9181 68.4509 83.7691 69.0309 82.5751C69.3639 81.8481 69.4919 81.0171 69.6249 80.2101C69.7729 79.3191 69.8889 78.4151 69.9229 77.4991C69.9609 76.9371 69.9599 76.3691 69.9689 75.8021C69.9499 74.9431 69.9359 74.0741 69.8129 73.2221C69.7299 72.5591 69.4999 71.9291 69.3719 71.2771C69.3409 71.1331 69.2969 70.9961 69.2759 70.8501C69.1949 70.3061 69.2819 70.1151 69.6609 69.9441C69.7479 69.9051 69.8319 69.8571 69.9199 69.8301C70.2149 69.7361 70.5009 69.9221 70.6689 70.3011C71.2049 71.4251 71.4009 72.6971 71.5069 73.9901C71.5929 74.9491 71.5909 75.9271 71.5669 76.9021L71.5269 76.9031Z" fill="#333333"/>
<path fill-rule="evenodd" clip-rule="evenodd" d="M93.2428 82.411C93.2698 82.233 93.4938 82.193 93.7828 82.208C93.8748 82.213 94.0888 82.336 94.1028 82.398C94.1308 82.519 94.1628 82.643 94.1798 82.761C94.1798 82.827 94.0628 83.803 94.0778 84.155C94.0948 84.499 93.9418 84.756 93.8378 85.038L93.4878 85.88L93.3158 86.301C93.2708 86.432 93.2988 86.406 93.2978 86.457C93.3028 86.484 93.2718 86.502 93.2348 86.533C93.0788 86.641 93.1618 86.848 93.2998 86.91C93.3178 86.925 93.3368 86.943 93.3968 86.899C93.4518 86.859 93.5278 86.875 93.5958 86.869C93.6518 86.872 93.7078 86.875 93.7548 86.877C93.9028 86.881 94.0308 86.89 94.0758 86.906C94.5338 87.054 95.0678 87.178 95.5678 87.429C95.6378 87.466 95.7278 87.459 95.7668 87.568C95.8538 87.826 96.0138 87.836 96.1448 87.941C96.3258 88.079 96.4918 88.232 96.6148 88.421C96.6798 88.512 96.6878 88.669 96.7088 88.795C96.7268 88.911 96.5228 89.092 96.4828 89.1C96.3668 89.123 96.3388 89.265 96.2738 89.357C96.2528 89.39 96.2238 89.431 96.2018 89.453C96.1788 89.478 95.8988 89.465 95.6348 89.531C95.5028 89.56 95.3768 89.606 95.2818 89.649C95.1948 89.669 95.1328 89.687 95.1168 89.68C95.1168 89.68 94.8738 89.64 94.5838 89.655C94.2988 89.668 93.9208 89.723 93.8378 89.743C93.7958 89.754 93.7528 89.747 93.7098 89.733C93.6428 89.715 93.5558 89.692 93.4848 89.673C93.4538 89.668 92.9148 89.677 92.3928 89.486C91.8668 89.314 91.4268 88.952 91.3998 88.923C91.1028 88.608 90.7738 88.264 90.7708 87.791C90.7718 87.7 90.7288 87.626 90.6968 87.548C90.4318 86.865 90.5078 86.049 90.8468 85.432C90.9348 85.243 90.9828 85.183 91.0368 85.08L91.1968 84.791C91.2168 84.756 91.2618 84.733 91.2918 84.704C91.3298 84.667 91.3778 84.635 91.4008 84.59C91.6548 84.135 91.9658 83.709 92.2048 83.248C92.2758 83.148 92.7948 82.776 92.8558 82.654C92.8988 82.59 93.2368 82.484 93.2428 82.411Z" fill="#333333"/>
<path fill-rule="evenodd" clip-rule="evenodd" d="M81.3801 31.3524C80.5901 31.1014 79.7881 30.8614 78.9611 30.7004C78.6591 30.6354 78.3511 30.6244 78.0481 30.5694C76.9811 30.3524 75.8901 30.1794 74.7881 30.0844C74.2991 30.0374 73.8041 30.0564 73.3181 30.0764C72.6911 30.1134 72.0651 30.2294 71.4321 30.0804C71.0361 29.9874 71.4881 28.4994 72.2271 28.4524C73.5321 28.3834 74.8571 28.4344 76.1751 28.7154C76.9621 28.8804 77.7931 28.8804 78.6021 29.0044C79.4881 29.1654 80.3701 29.3594 81.2341 29.6204C81.7691 29.7654 82.2911 29.9594 82.8161 30.1334C83.6051 30.4234 84.3711 30.7724 85.1311 31.1114C85.7231 31.3744 86.3131 31.6214 86.8831 31.9274C87.0131 31.9894 87.1291 32.0664 87.2441 32.1524C87.6641 32.4804 87.7421 32.6634 87.6511 32.9774C87.6311 33.0494 87.6171 33.1234 87.5881 33.1884C87.4931 33.4014 87.2011 33.4514 86.8321 33.3514C86.2881 33.1984 85.7511 33.0424 85.2401 32.8414C84.7001 32.6974 84.2171 32.4424 83.7001 32.2424C82.9471 31.9194 82.1661 31.6374 81.3711 31.3924L81.3801 31.3524Z" fill="#333333"/>
<path fill-rule="evenodd" clip-rule="evenodd" d="M83.6286 9.09641C83.4246 9.01741 83.3876 8.78241 83.3926 8.46341C83.3946 8.36241 83.5326 8.15041 83.6106 8.14941C83.7596 8.15041 83.9206 8.14841 84.0686 8.16741C84.1546 8.18041 85.4026 8.65641 85.8456 8.81541C86.2606 8.97941 86.5986 9.23541 86.9376 9.49041C87.6326 10.0014 88.2626 10.5874 88.8536 11.2404C88.9866 11.3814 89.0966 11.5494 89.1856 11.7314C89.4856 12.3764 89.9016 12.8674 90.3216 13.6704C90.3826 13.7924 90.4126 13.9154 90.5376 14.0004C90.6436 14.0664 90.8476 14.5814 90.9786 14.9454C91.1206 15.3374 91.2006 15.4834 91.1806 15.5104C91.2186 15.8604 91.5056 16.3094 91.8146 16.8414C91.8586 16.9204 91.9486 16.9724 91.9246 17.1064C91.8636 17.4094 92.0146 17.5464 92.1136 17.7334C92.2516 17.9894 92.3466 18.2684 92.3766 18.5484C92.4046 18.6844 92.2706 18.8734 92.1286 19.0464C92.0106 19.2004 91.8386 19.1924 91.7766 19.1764C91.6496 19.1114 91.5476 19.2354 91.4636 19.2714C91.4306 19.2854 91.3896 19.3034 91.3546 19.3104C91.3366 19.3144 91.1656 19.2874 91.0096 19.2314C90.8956 19.1594 90.7676 19.0654 90.6306 18.9904C90.3626 18.8384 90.0886 18.7494 90.0536 18.7034C90.1466 18.7424 88.6206 17.5624 88.2906 16.9084C88.1846 16.7634 88.1696 16.5884 88.1436 16.4374C88.1266 16.4004 87.9396 15.9954 87.7416 15.5684C87.6566 15.3854 87.5766 15.2254 87.5176 15.1154C87.4606 15.0134 87.4216 14.9454 87.4156 14.9354C87.3846 14.8254 87.3386 14.7524 87.3116 14.6764C87.2566 14.5704 87.2376 14.4554 87.2516 14.2834C87.2576 14.2164 87.2186 14.1764 87.1866 14.1324C86.9016 13.7594 86.6566 13.3034 86.3666 12.8684C86.2166 12.6484 86.0226 12.4634 85.8456 12.2624C85.8146 12.2264 85.8046 12.1684 85.7816 12.1234C85.7516 12.0684 85.7346 11.9984 85.6936 11.9534C85.2816 11.4674 84.9206 10.9124 84.4356 10.4964C84.3426 10.3834 84.0096 9.68741 83.8706 9.58741C83.8056 9.52141 83.7166 9.11941 83.6286 9.09641Z" fill="#333333"/>
<path fill-rule="evenodd" clip-rule="evenodd" d="M36.572 44.8718C35.728 45.7208 34.783 46.5128 33.865 47.2008L33.698 47.3268C33.655 47.3618 33.655 47.3628 33.628 47.3808C33.586 47.3998 33.534 47.4948 33.482 47.5448C33.379 47.6678 33.275 47.8438 33.182 48.0338C32.986 48.4098 32.846 48.8928 32.718 49.3738C32.551 50.0968 32.492 50.8688 32.391 51.6438C32.068 54.4038 32.059 57.3018 32.225 60.1728C32.3 61.4488 32.474 62.7258 32.684 63.9768C32.835 64.7788 32.959 65.5868 33.072 66.3928C33.129 66.7968 33.178 67.2008 33.216 67.6058L33.267 68.2118C33.276 68.4148 33.233 68.6258 33.221 68.8288C33.182 69.1008 33.127 69.1098 32.908 69.2278C32.862 69.2608 32.583 69.2358 32.316 69.0548C31.698 68.7398 30.966 68.0328 30.727 67.0918C30.245 65.4338 30.052 63.7338 29.916 62.0268C29.784 60.3188 29.731 58.5978 29.814 56.8618C29.913 54.7908 29.779 52.6348 30.076 50.4628C30.256 49.2698 30.527 48.0618 31.152 46.8478C31.33 46.5448 31.512 46.2438 31.774 45.9578C31.878 45.8148 32.061 45.6688 32.21 45.5468L32.552 45.2828C32.992 44.9408 33.417 44.5978 33.829 44.2338C34.835 43.3368 35.792 42.3698 36.601 41.2868C37.848 39.6698 38.891 37.8508 39.475 35.9008C39.91 34.3808 40.083 32.8288 40.047 31.2848C40.045 30.9438 40.019 30.6118 40.031 30.2718C40.008 29.6398 39.998 29.2248 40.14 28.9258C40.325 28.6248 40.562 28.4388 40.856 28.2798C40.989 28.2078 41.109 28.1138 41.22 28.0678C41.411 27.9898 41.586 28.0808 41.825 28.3158C42.065 28.5518 42.342 28.9398 42.389 29.4558C42.861 32.5058 42.28 35.9218 40.816 38.9008C39.772 41.1338 38.325 43.1728 36.617 44.9098L36.572 44.8718Z" fill="#333333"/>
<mask id="mask0_1_547" style="mask-type:alpha" maskUnits="userSpaceOnUse" x="0" y="13" width="10" height="52">
<path fill-rule="evenodd" clip-rule="evenodd" d="M0 13.8757H9.57386V64.1535H0V13.8757Z" fill="white"/>
</mask>
<g mask="url(#mask0_1_547)">
<path fill-rule="evenodd" clip-rule="evenodd" d="M2.5329 31.95C2.9319 34.561 3.6159 37.181 4.3929 39.789C4.6849 40.741 5.0369 41.67 5.3399 42.624C6.4039 45.982 7.4069 49.404 8.2559 52.884C8.6239 54.429 9.0059 55.988 9.2629 57.563C9.5339 59.579 9.8249 61.707 9.2069 63.756C9.0529 64.393 8.6679 64.203 8.3149 63.62C7.9569 63.027 7.6629 62.113 7.5459 61.041C7.4339 59.139 7.0149 57.231 6.5959 55.296C6.1849 53.361 5.6289 51.415 5.1389 49.433C4.5049 47.07 3.5749 44.68 2.8129 42.267C1.9839 39.609 1.2169 36.906 0.666897 34.136L0.420897 32.855L0.247897 31.555C0.108897 30.694 0.0698974 29.813 0.0268974 28.935C-0.0711026 27.597 0.111897 26.221 0.343897 24.929C0.581897 23.623 0.915897 22.345 1.3279 21.094C1.9699 19.156 2.6729 17.217 4.1229 15.534C4.4159 15.152 4.8219 14.838 5.2089 14.511C5.6389 14.273 5.9829 14.048 6.3229 13.959C6.6699 13.883 6.9589 13.874 7.1879 13.876C7.6559 13.934 7.9189 14.143 8.0959 14.376C8.1779 14.485 8.2769 14.588 8.3129 14.686C8.3739 14.853 8.2269 15.013 7.9789 15.196C7.8539 15.291 7.7049 15.372 7.5379 15.445C7.3769 15.567 7.2079 15.71 7.0119 15.804C5.8639 16.471 4.9659 17.823 4.2699 19.329C3.5809 20.851 3.0569 22.536 2.6899 24.249C2.4259 25.515 2.2319 26.829 2.2179 28.039C2.2249 28.663 2.2929 29.33 2.3249 29.974C2.3729 30.626 2.5029 31.283 2.5879 31.937L2.5329 31.95Z" fill="#333333"/>
</g>
<path fill-rule="evenodd" clip-rule="evenodd" d="M10.4615 12.9939C9.90054 14.0739 9.43354 15.2669 9.05754 16.4779C8.92654 16.9249 8.86254 17.3859 8.74554 17.8369C8.30454 19.4219 7.94854 21.0619 7.73654 22.7319C7.64154 23.4729 7.62254 24.2259 7.62754 24.9699C7.66154 25.9259 7.69154 26.8849 7.44454 27.8449C7.36554 28.1429 6.94654 28.1039 6.50654 27.8489C6.07254 27.5949 5.58254 27.1209 5.51354 26.5569C5.35854 24.5639 5.54354 22.5389 6.01054 20.5369C6.30754 19.3469 6.36954 18.0699 6.68454 16.8489C7.01654 15.5069 7.48754 14.1979 8.01954 12.9169C8.37454 12.1329 8.75254 11.3589 9.21154 10.6129C9.90754 9.48991 10.8235 8.43391 12.0175 7.68291C12.9395 7.10191 14.0295 6.72691 15.0695 6.62191C15.3045 6.60091 15.5075 6.58191 15.7315 6.58491C16.5275 6.62091 16.6255 6.74791 16.8705 7.27091C16.9235 7.38791 16.9945 7.49791 17.0395 7.60691C17.1165 7.79491 17.0945 7.97691 16.9465 8.16991C16.7885 8.37491 16.5315 8.50491 16.2115 8.59791C15.7655 8.71991 15.3355 8.81891 14.9795 8.93491C14.6075 9.00891 14.2885 9.10791 13.9845 9.20691C13.3925 9.41991 12.8915 9.72691 12.4035 10.2099C11.6725 10.8939 11.0255 11.9099 10.5145 13.0149L10.4615 12.9939Z" fill="#333333"/>
<path fill-rule="evenodd" clip-rule="evenodd" d="M18.2638 8.83077L17.9718 9.25077L17.7238 9.71677C17.5628 10.0298 17.3778 10.3278 17.2328 10.6568C16.9578 11.3238 16.6558 11.9808 16.4128 12.6848C16.2168 13.1868 16.1238 13.7228 15.9718 14.2488C15.3908 16.0898 14.9868 18.0258 14.6778 19.9878C14.5498 20.8608 14.5088 21.7478 14.4878 22.6228C14.4978 23.7538 14.4858 24.8738 14.2038 26.0388C14.1118 26.4038 13.7738 26.3228 13.4028 26.0128C13.0428 25.7078 12.5788 25.1638 12.4748 24.5048C12.2818 23.3378 12.3388 22.1498 12.3548 20.9638C12.4178 19.7768 12.5148 18.5808 12.8088 17.4018C13.1328 15.9958 13.2638 14.4938 13.6198 13.0428C14.0498 11.4568 14.5958 9.88277 15.4638 8.42877C15.6828 7.96577 16.0178 7.54777 16.3038 7.11577C16.5748 6.67377 16.9418 6.28777 17.2908 5.89477C17.5468 5.58977 17.8198 5.30077 18.1498 5.05977C18.4738 4.80677 18.7498 4.55377 19.1118 4.30577C19.9178 3.82077 20.6898 3.64777 21.4898 3.49777C22.7148 3.29277 24.0198 3.22177 25.3278 3.70477C25.6008 3.83477 25.9068 3.90977 26.1318 4.13877C26.5828 4.50177 26.7798 4.84777 26.8598 5.11277C26.8918 5.42077 26.8308 5.64077 26.7098 5.85677C26.6548 5.95677 26.6118 6.05977 26.5528 6.13177C26.4518 6.25377 26.2898 6.27277 26.0598 6.26177C25.8328 6.24477 25.5308 6.21977 25.2768 6.12377C24.4578 5.93377 23.8378 5.75877 23.0488 5.77877C22.2978 5.79177 21.4298 5.94777 20.7958 6.24077C20.5558 6.35877 20.5118 6.37977 20.2248 6.64577C19.9958 6.86177 19.7388 7.03777 19.5178 7.27077L18.8828 8.01877C18.6658 8.26577 18.5118 8.58477 18.3208 8.86277L18.2638 8.83077Z" fill="#333333"/>
<path fill-rule="evenodd" clip-rule="evenodd" d="M30.9006 10.2205C31.2916 9.50546 31.6806 8.79346 32.1766 8.12246C32.3956 7.77846 32.6796 7.45746 32.9556 7.13746L33.3606 6.67346L33.6196 6.45146C33.6786 6.42246 33.7296 6.37446 33.7076 6.30646C33.7056 6.27546 33.7006 6.24346 33.6936 6.21046C33.6856 6.17646 33.6886 6.16546 33.6216 6.02346C33.4236 5.57546 33.1336 5.17846 32.7626 4.87946C32.1856 4.43646 31.4166 4.24746 30.5606 4.21146C30.2196 4.13446 29.4906 4.51146 28.8946 5.01946C28.2756 5.52846 27.7006 6.17746 27.1686 6.85946C26.1076 8.23646 25.2176 9.79446 24.4796 11.4195C23.8276 12.8655 23.3436 14.3985 23.0006 15.9335C22.5576 17.9135 22.3996 19.9255 22.1496 21.9295C22.0696 22.5525 21.5836 22.4845 21.1126 21.9235C20.6326 21.3665 20.2056 20.2825 20.3296 19.0315C20.5556 16.8255 21.0496 14.6585 21.7926 12.5765C22.5316 10.4945 23.5006 8.48346 24.7896 6.64146C25.5696 5.54446 26.3826 4.43446 27.4526 3.42746C27.9956 2.93346 28.6026 2.44746 29.4426 2.12446C29.6596 2.05146 29.8846 1.98146 30.1366 1.95046C30.2616 1.93746 30.3986 1.92246 30.5146 1.91846L30.8016 1.92946L31.3756 1.95746L31.9566 2.05746C33.1476 2.27546 34.3286 2.96946 35.1016 3.95146C35.2976 4.19546 35.4646 4.45546 35.6186 4.72346L35.8236 5.13746L36.0386 5.69346C36.1416 6.07446 36.2716 6.47146 36.2126 6.84046C36.2066 6.93346 36.1596 7.01546 36.1296 7.10346L36.1006 7.16746L36.0996 7.16946C36.0836 7.16446 36.2296 7.21246 36.1676 7.19346L36.1646 7.19746L36.1596 7.20346L36.1486 7.21746L36.1266 7.24546L36.0396 7.35646L35.6926 7.79746C35.5036 7.98246 35.2766 8.18646 35.1196 8.35446L34.7496 8.80446C34.4876 9.09046 34.2756 9.42946 34.0586 9.76346C33.1726 11.1465 32.5186 12.7245 32.0636 14.3535C31.4096 16.8305 31.1136 19.4565 31.3726 22.0075C31.5846 23.9945 32.2296 25.8535 32.9756 27.6325C33.1446 28.0245 33.3596 28.3835 33.5286 28.7775C34.2056 30.2075 34.2646 30.7635 33.9816 31.3635C33.9176 31.4995 33.8706 31.6575 33.7966 31.7635C33.5586 32.1145 32.8926 31.7255 31.9846 30.7375C29.5676 27.6325 28.5376 23.3435 28.6356 19.2025C28.6396 18.4295 28.7316 17.6565 28.8126 16.8865C28.9636 16.1245 29.0536 15.3535 29.2686 14.6045C29.6166 13.0905 30.1836 11.6235 30.8406 10.1975L30.9006 10.2205Z" fill="#333333"/>
<path fill-rule="evenodd" clip-rule="evenodd" d="M54.1364 32.5652C53.4024 31.6892 52.6454 30.7012 52.1894 29.5242C52.1854 29.4822 52.1754 29.4382 52.1834 29.3862C52.2104 29.3082 52.1224 29.3402 52.0894 29.3122L52.0084 29.2932C51.9724 29.2872 51.9934 29.2832 51.8154 29.2702L51.0094 29.2182C50.2584 29.1742 49.4974 29.2242 48.7404 29.1922C46.0604 29.0852 43.3594 29.0412 40.6734 29.1552C39.4804 29.2022 38.2914 29.3512 37.1284 29.5312C36.3854 29.6562 35.6464 29.8212 34.9164 29.9612C34.1824 30.0842 33.4494 30.1902 32.7344 30.2932C32.2844 30.3432 32.1524 29.8952 32.3904 29.3052C32.6264 28.7062 33.2744 27.9632 34.1764 27.6952C35.7764 27.2612 37.3754 27.1162 38.9694 26.9772C40.5654 26.8532 42.1604 26.8302 43.7614 26.8922C45.6754 26.9692 47.6504 26.7912 49.6084 26.8252C50.1284 26.8362 50.6494 26.8522 51.1734 26.8802L51.9624 26.9252C52.2824 26.9442 52.7664 26.9752 53.1514 27.0182L53.5404 27.3432L53.7324 27.5042L53.8224 27.6932C53.9174 27.9212 54.1364 28.2412 54.3154 28.5322C54.4784 28.8212 54.5414 29.0002 54.6734 29.2432C54.8204 29.4702 54.9514 29.7042 55.1104 29.9292C55.8024 30.9192 56.6774 31.8382 57.6284 32.6552C59.0674 33.8982 60.6844 34.9922 62.4294 35.7512C63.0954 36.0742 63.8144 36.2482 64.5074 36.4602C65.2234 36.5992 65.9204 36.7842 66.6394 36.8622C66.9544 36.9032 67.2664 36.9202 67.5784 36.9742C68.7454 37.1202 69.0944 37.2982 69.2954 38.0012C69.3404 38.1582 69.4074 38.3182 69.4304 38.4732C69.5114 38.9982 68.9614 39.3562 67.9814 39.3842C65.0794 39.4452 62.0714 38.4502 59.4214 36.9272C57.4434 35.7912 55.6474 34.3492 54.0934 32.6082L54.1364 32.5652Z" fill="#333333"/>
<path fill-rule="evenodd" clip-rule="evenodd" d="M54.4616 2.21952L58.4826 1.33452L60.4936 0.872515C61.1896 0.735515 61.8986 0.554515 62.6076 0.460515C63.6396 0.287515 64.6706 0.109515 65.7156 0.0505153C67.5546 -0.0664847 69.4066 0.0235153 71.2336 0.281515C73.0616 0.531515 74.8746 0.984515 76.5866 1.71752C77.3636 1.99152 78.0816 2.42552 78.8306 2.77752C79.5206 3.24052 80.2736 3.61352 80.8956 4.16952C81.7556 4.80252 82.5166 5.57452 83.2096 6.39852C83.5206 6.83752 83.7926 7.30652 84.0616 7.76652C84.2866 8.25152 84.4636 8.76152 84.5806 9.28452C84.7286 9.93952 84.3726 9.96751 83.6986 9.70852C82.9836 9.46052 82.0926 8.93552 81.3846 8.20652C79.2286 5.31752 75.8466 3.50552 72.0236 2.61852C69.7326 2.05852 67.2146 2.18252 64.8026 2.43152C63.4606 2.55152 62.1626 2.80652 60.8306 3.10552L56.7586 4.03652L51.7286 5.11952C49.1866 5.65452 46.6136 6.11052 44.0756 6.57552C42.0986 6.91852 40.1706 7.33352 38.2016 7.62252C37.7696 7.69151 37.3466 7.76351 36.9076 7.81352C36.0946 7.91452 35.5526 7.91852 35.1636 7.83552C34.7776 7.77751 34.5446 7.61552 34.3506 7.41252C34.2626 7.32351 34.1496 7.24752 34.0976 7.17652C33.9236 6.97852 34.5426 6.46752 35.6976 6.18552C37.4256 5.79852 39.1776 5.40752 40.9526 5.01152C42.7306 4.60352 44.5296 4.20852 46.3486 3.87452C49.0416 3.34052 51.7506 2.79052 54.4446 2.16452L54.4616 2.21952Z" fill="#333333"/>
<path fill-rule="evenodd" clip-rule="evenodd" d="M83.2941 11.3591C82.3401 10.8101 81.3271 10.3081 80.2501 9.9251C79.8541 9.7701 79.4751 9.6941 79.0791 9.5821C77.6921 9.1781 76.2081 8.8921 74.7191 8.7001C74.0591 8.6031 73.3881 8.5581 72.7261 8.5361C71.8721 8.5561 71.0231 8.4451 70.1691 8.2201C69.9031 8.1471 69.9381 7.9751 70.1661 7.7431C70.3931 7.5171 70.8171 7.1641 71.3231 7.0451C71.7711 6.9161 72.2171 6.9101 72.6631 6.9181C73.1091 6.9171 73.5561 6.9281 74.0031 6.9551C74.8981 6.9861 75.7871 7.1751 76.6731 7.3801C77.7311 7.6481 78.8571 7.7321 79.9621 8.0551C81.1561 8.4281 82.2871 8.8701 83.3941 9.4391C84.0731 9.7801 84.7321 10.1731 85.3601 10.6161C86.3111 11.2861 87.1821 12.0941 87.9211 13.0261C88.4941 13.7451 89.0521 14.5201 89.4131 15.4311C89.4901 15.6301 89.5891 15.8241 89.6341 16.0361C89.8211 16.8221 89.6601 17.0951 89.0441 17.2571C88.9031 17.2951 88.7621 17.3411 88.6191 17.3611C88.1221 17.4221 87.7481 17.1531 87.5921 16.7411C87.1421 15.5131 86.6691 14.4201 85.7781 13.3551C85.1201 12.5771 84.2231 11.9541 83.2751 11.3991L83.2941 11.3591Z" fill="#333333"/>
<path fill-rule="evenodd" clip-rule="evenodd" d="M90.2267 19.4704C89.3907 18.7264 88.3587 18.1034 87.2607 17.5964C86.8587 17.4084 86.4417 17.2664 86.0297 17.1004C84.5707 16.5074 83.0417 15.9784 81.4887 15.5524C80.7997 15.3634 80.0917 15.2344 79.3917 15.1244C78.4897 14.9924 77.5897 14.8634 76.7107 14.5874C76.4367 14.4984 76.5037 14.2134 76.7807 13.9374C77.0577 13.6624 77.5557 13.3734 78.0997 13.3964C79.0647 13.4194 80.0067 13.5874 80.9407 13.7954C81.8737 14.0014 82.7987 14.2614 83.7077 14.5924C84.7947 14.9844 85.9697 15.2364 87.0927 15.6634C88.3097 16.1714 89.5207 16.7144 90.6307 17.4914C90.9757 17.7184 91.2937 17.9984 91.6237 18.2504C91.9287 18.5424 92.2437 18.8234 92.5217 19.1444C93.3877 20.1034 93.9547 21.3544 94.1787 22.6204C94.3567 23.6034 94.4327 24.5924 94.3577 25.5644C94.3397 25.7774 94.3517 25.9954 94.2827 26.1974C94.0997 26.9664 93.8047 27.1314 93.3317 27.1654C93.2237 27.1724 93.1167 27.1914 93.0197 27.1854C92.8557 27.1734 92.7307 27.0754 92.6227 26.9074C92.5147 26.7394 92.4097 26.4954 92.4097 26.2274C92.3217 25.4114 92.4217 24.6774 92.3817 23.9644C92.3587 23.2554 92.2677 22.5944 92.0497 21.9754C91.7067 21.0704 91.0737 20.2194 90.1997 19.5074L90.2267 19.4704Z" fill="#333333"/>
<path fill-rule="evenodd" clip-rule="evenodd" d="M94.3835 70.5124C94.4625 67.7474 94.2025 64.9504 93.7855 62.1704C93.6375 61.1554 93.3955 60.1544 93.2115 59.1414C92.8845 57.3524 92.4885 55.5774 92.1165 53.7564C91.7395 51.9244 91.4835 50.0824 91.2845 48.2344C91.1125 46.5944 90.9495 44.9414 90.8985 43.2884C90.8545 42.2284 90.8955 41.1524 91.0275 40.0724C91.1385 38.9934 91.5155 37.8924 92.1945 36.9624C92.6385 36.3844 92.7725 36.6674 92.8175 37.2934C92.8215 37.5924 92.8845 38.0144 92.9305 38.4664C92.9395 38.6844 93.0135 38.9524 93.0115 39.1974C92.9985 39.4384 92.9915 39.7014 92.9665 39.9774C92.6595 43.8804 93.0985 48.1144 93.6825 52.2524C94.0725 54.7164 94.8805 57.3174 95.3575 59.9114C95.8995 62.7704 96.2615 65.6774 96.3685 68.6024C96.4105 70.4054 96.3695 72.2124 96.1765 74.0104C95.9375 76.7404 95.1925 79.4414 94.1155 81.9524C93.8945 82.4374 93.7035 82.9354 93.4725 83.4114L92.6855 84.7954C92.2175 85.7614 91.4855 86.5444 90.8505 87.4114C90.5825 87.7844 90.2405 88.1764 89.8325 88.5034C89.0845 89.1164 88.3505 89.3874 87.7655 89.3564C87.1675 89.2984 86.8405 88.9824 86.7645 88.6514C86.7225 88.5024 86.6955 88.3324 86.7245 88.2224C86.7775 88.0224 87.0025 87.9834 87.2025 87.8734C87.4035 87.7624 87.5545 87.6124 87.9315 87.3984C88.5015 87.0234 89.0205 86.4674 89.5305 85.7124C90.0495 85.0074 90.6235 84.3444 91.0235 83.5464L91.7025 82.4064L92.2475 81.1814C92.4145 80.7654 92.6485 80.3794 92.7695 79.9414L93.1825 78.6464C93.9465 76.0584 94.3055 73.3004 94.3335 70.5164L94.3835 70.5124Z" fill="#333333"/>
<path fill-rule="evenodd" clip-rule="evenodd" d="M86.259 85.6365C86.961 84.6605 87.556 83.6155 88.001 82.4885C88.153 82.0735 88.262 81.6445 88.385 81.2175C88.848 79.7195 89.12 78.1295 89.267 76.5155C89.335 75.7995 89.336 75.0725 89.324 74.3535C89.334 73.4305 89.32 72.4995 89.548 71.5715C89.617 71.2825 89.827 71.3235 90.083 71.5695C90.322 71.8165 90.708 72.2665 90.768 72.8025C90.822 73.2765 90.889 73.7535 90.914 74.2315C90.905 74.7105 90.89 75.1895 90.859 75.6715C90.796 76.6365 90.686 77.6085 90.482 78.5755C90.239 79.7295 90.11 80.9565 89.757 82.1275C89.373 83.4115 88.814 84.6535 88.128 85.7955C87.707 86.4975 87.237 87.1795 86.698 87.8165C85.875 88.7795 84.841 89.5895 83.699 90.1545C82.82 90.6015 81.909 90.9805 80.952 91.2045C80.741 91.2625 80.536 91.3165 80.322 91.3445C79.524 91.4735 79.263 91.2475 79.096 90.7965C79.058 90.6885 79.009 90.5815 78.988 90.4745C78.918 90.1155 79.217 89.7885 79.725 89.6245C81.231 89.2165 82.663 88.8575 83.864 88.0325C84.759 87.4375 85.551 86.6045 86.222 85.6155L86.259 85.6365Z" fill="#333333"/>
<path fill-rule="evenodd" clip-rule="evenodd" d="M79.488 88.53C79.896 88.067 80.266 87.535 80.603 86.976C80.919 86.419 81.32 85.789 81.475 85.309C81.628 84.871 81.724 84.39 81.858 83.922C82.334 82.261 82.766 80.563 83.113 78.853C83.272 78.094 83.349 77.319 83.433 76.557C83.531 75.576 83.571 74.596 83.871 73.628C83.96 73.324 84.162 73.369 84.412 73.641C84.64 73.912 85.042 74.429 85.078 75.021C85.124 77.115 84.731 79.157 84.174 81.162C83.818 82.358 83.628 83.631 83.273 84.868C83.175 85.209 83.073 85.545 82.946 85.898C82.891 86.062 82.803 86.275 82.712 86.464L82.463 86.927C82.129 87.547 81.765 88.158 81.367 88.759C80.881 89.498 80.313 90.21 79.628 90.816C78.616 91.772 77.276 92.348 75.957 92.65C74.927 92.894 73.89 93.058 72.847 93.064C72.618 93.065 72.391 93.076 72.16 93.062C71.738 93.011 71.466 92.942 71.293 92.801C71.123 92.641 71.054 92.414 71.014 92.17C70.995 92.062 70.962 91.968 70.954 91.893C70.941 91.762 71.027 91.664 71.209 91.477C71.394 91.278 71.637 91.16 71.921 91.16C72.757 91.116 73.572 91.073 74.396 91.03C75.191 90.94 75.963 90.818 76.678 90.561C77.723 90.158 78.679 89.491 79.454 88.506L79.488 88.53Z" fill="#333333"/>
<path fill-rule="evenodd" clip-rule="evenodd" d="M70.9797 93.3542C69.8567 93.7892 68.5767 94.1172 67.1697 93.7332C66.4757 93.5682 65.8057 93.1342 65.3217 92.6062C65.0817 92.3332 64.8667 92.0502 64.7257 91.7462C64.5597 91.4972 64.4077 91.0112 64.2647 90.5852C64.2067 90.2322 64.2097 89.8442 64.3927 89.5152C64.4867 89.3532 64.5827 89.1892 64.7087 89.0422C64.8187 88.9062 64.9817 88.7072 65.0387 88.6512C65.6797 87.9622 66.1977 87.3082 66.7387 86.6372C68.6457 84.3032 69.8787 81.4172 70.4027 78.3572C70.6417 77.0002 70.6877 75.6022 70.6527 74.2282C70.6387 73.3442 70.5627 72.4592 70.4897 71.5742C70.4347 70.6872 70.4247 69.7892 70.3887 68.8872C70.3827 68.3232 70.6177 68.3512 70.9867 68.7732C71.3497 69.1942 71.9197 70.0092 72.2017 71.0592C72.9027 74.7922 72.6387 78.8162 71.2057 82.4802C70.3457 84.6502 69.2437 86.8762 67.6907 88.6972C67.3547 89.0922 67.0017 89.4732 66.6687 89.8332L66.3747 90.1562C66.3047 90.2232 66.2787 90.3202 66.3257 90.4062C66.3537 90.4822 66.3437 90.5232 66.4047 90.6302L66.6007 91.0002L66.8497 91.3112L67.1477 91.5532C67.5777 91.8332 68.1697 91.9282 68.7967 91.8562C70.0807 91.6962 71.4417 90.9872 72.3147 89.9602C73.7517 88.2952 74.7557 86.1802 75.4667 84.0322C76.0117 82.3492 76.3097 80.6262 76.5667 78.8942C76.6237 78.5122 76.6557 78.1342 76.7367 77.7532C76.9657 76.3332 77.3817 75.9302 77.8007 75.6732C77.9017 75.6152 77.9997 75.5342 78.0837 75.5032C78.2277 75.4532 78.3317 75.5822 78.4427 75.8692C78.5477 76.1542 78.6947 76.6032 78.7047 77.1572C78.7247 78.7992 78.4397 80.4542 78.0727 82.1242C77.6887 83.7912 77.1667 85.4662 76.4497 87.1002C75.9167 88.3132 75.2647 89.5032 74.4337 90.6182L73.7717 91.4342C73.5047 91.7222 73.2197 92.0032 72.9227 92.2372C72.3277 92.7112 71.6897 93.0972 71.0037 93.4002L70.9797 93.3542Z" fill="#333333"/>
<path fill-rule="evenodd" clip-rule="evenodd" d="M66.6203 53.1765C67.3433 52.4625 68.1143 51.8045 68.8363 51.2025C69.1943 50.9015 69.5453 50.6055 69.8153 50.3345C70.0973 50.0495 70.2123 49.8635 70.2203 49.8015C70.2693 49.4805 70.3043 49.0895 70.3343 48.7135C70.4043 47.8985 70.3853 47.0665 70.4443 46.2395C70.6323 43.3195 70.7723 40.3805 70.7593 37.4475C70.7613 36.1465 70.6603 34.8435 70.5763 33.5605C70.4483 31.9105 70.1853 30.2845 70.0813 28.6655C70.0483 28.1585 70.3383 28.1325 70.7693 28.4845C71.2113 28.8335 71.8153 29.5885 71.9933 30.5685C72.6873 34.0135 72.7813 37.4555 72.6033 40.9145C72.4933 42.9825 72.6023 45.1275 72.5293 47.2465C72.4873 48.1715 72.4473 49.0455 72.3513 50.0345C72.2833 50.6185 71.9793 51.1205 71.7153 51.4395C71.4423 51.7775 71.1633 52.0525 70.8913 52.3015L69.3113 53.7065C68.2843 54.6305 67.3633 55.6305 66.5793 56.7425C65.3993 58.4245 64.5083 60.3425 64.0173 62.3555C63.6363 63.9215 63.5523 65.5165 63.5183 67.1075C63.5053 67.4565 63.5273 67.8025 63.5233 68.1555C63.4823 69.4635 63.3493 69.8785 62.6683 70.1615C62.5173 70.2265 62.3653 70.3135 62.2133 70.3515C61.7003 70.4845 61.2863 69.9255 61.1523 68.9005C60.9863 67.3795 60.9933 65.7915 61.1963 64.1835C61.4093 62.5775 61.8413 60.9615 62.4593 59.3985C63.3783 57.0735 64.8323 54.9115 66.5773 53.1405L66.6203 53.1765Z" fill="#333333"/>
<path fill-rule="evenodd" clip-rule="evenodd" d="M47.0474 65.9909C47.4104 66.4379 47.7664 66.8899 48.0984 67.3519L48.5864 68.0399C48.6854 68.1809 48.6604 68.1469 48.6764 68.1809C48.6864 68.2019 48.6985 68.2219 48.7204 68.2289C48.7444 68.2409 48.7484 68.2509 48.7964 68.2599L49.1045 68.3219L49.8714 68.4379C50.3884 68.5139 50.9295 68.5659 51.4585 68.6289C52.2415 68.7029 53.0264 68.7189 53.8124 68.7839C56.5804 69.0269 59.3654 69.2299 62.1495 69.3039C63.3834 69.3239 64.6244 69.3099 65.8434 69.2459C66.6244 69.1959 67.4075 69.1339 68.1795 69.0579L69.3364 68.9929C69.7284 68.9839 70.1024 68.9589 70.4704 68.9219C70.9364 68.8929 70.9954 69.1989 70.6665 69.6369C70.3364 70.0879 69.5885 70.6519 68.6535 70.8589C66.9935 71.1279 65.3614 71.2119 63.7204 71.2719C62.0814 71.2899 60.4445 71.2079 58.8064 71.0589C56.8484 70.8779 54.8085 70.9199 52.8025 70.7879C51.6975 70.7069 50.5995 70.6239 49.4795 70.4839C49.1975 70.4479 48.9244 70.4209 48.6224 70.3629C48.4984 70.3319 48.2704 70.3229 48.0694 70.2479C47.8734 70.1689 47.6604 70.1179 47.4814 70.0129C47.3314 69.8639 47.1724 69.7219 47.0474 69.5469L46.7724 69.1819L46.2844 68.5449C45.4784 67.5129 44.5974 66.5479 43.6254 65.6839C42.1634 64.3729 40.5124 63.2269 38.6924 62.5279C38.0014 62.2149 37.2494 62.1019 36.5344 61.9259C35.7904 61.8629 35.0714 61.7049 34.3294 61.7339C34.0044 61.7289 33.6874 61.7459 33.3644 61.7279C32.1624 61.7729 31.7764 61.5809 31.4654 61.0019C31.3954 60.8689 31.3024 60.7379 31.2554 60.6059C31.0934 60.1669 31.5974 59.7619 32.5994 59.5529C34.0794 59.3129 35.6524 59.4149 37.2114 59.7069C38.7504 60.0779 40.2894 60.6199 41.6804 61.4279C43.7804 62.5749 45.5684 64.1869 47.0874 65.9509L47.0474 65.9909Z" fill="#333333"/>
<path fill-rule="evenodd" clip-rule="evenodd" d="M1.81225 65.9275C1.76125 64.9545 1.80925 63.9175 2.20125 62.8515C2.61825 61.7855 3.30125 60.7805 4.84225 60.1535L5.22125 60.0615C5.34825 60.0675 5.47925 60.0315 5.60825 60.0315C5.87025 60.0625 6.12425 60.1255 6.35425 60.2555C6.59125 60.3635 6.79725 60.5505 7.00625 60.7215C7.18225 60.8965 7.45025 61.1565 7.51825 61.2435C7.94925 61.7325 8.32225 62.1725 8.72625 62.5955C9.41725 63.3295 10.1992 63.9415 11.0002 64.5315C13.8292 66.6355 17.3722 67.8205 20.9942 68.4235C22.6042 68.7025 24.2563 68.8265 25.8892 68.8415C27.9872 68.8565 30.0923 68.7885 32.2122 68.8255C32.8732 68.8505 32.8202 69.2045 32.2892 69.6195C31.7582 70.0245 30.7462 70.5565 29.4992 70.6755C27.2972 70.9235 25.0642 70.9385 22.8292 70.7505C20.5922 70.5795 18.3522 70.1305 16.1952 69.3695C13.6342 68.4635 10.9332 67.3655 8.72925 65.5365C7.95825 64.9035 7.24025 64.1955 6.59125 63.4725L5.77625 62.5605C5.66725 62.4245 5.47225 62.2735 5.29625 62.3985C5.19725 62.4355 5.10425 62.4875 5.01525 62.5605C4.88125 62.6595 4.74625 62.8045 4.63725 62.9535C4.41325 63.2565 4.25425 63.6405 4.16125 64.0695C3.99525 64.8045 4.02325 65.6475 4.14025 66.4755C4.25225 67.2605 4.54225 67.9875 4.99725 68.6755C5.68725 69.7085 6.63825 70.6255 7.69925 71.4085C8.75425 72.2005 9.91325 72.8805 11.1142 73.4565C12.9852 74.3535 14.9582 74.9415 16.9372 75.4525C17.3742 75.5665 17.8082 75.6465 18.2462 75.7535C19.8762 76.1525 20.3082 76.3665 20.5822 76.9975C20.6572 77.1365 20.7332 77.2805 20.8042 77.4135C20.8542 77.5295 20.8542 77.6385 20.7762 77.7405C20.6922 77.8465 20.5402 77.9355 20.3582 78.0005C19.9853 78.1315 19.4412 78.1735 18.7812 78.1015C14.9072 77.5935 11.0252 76.2455 7.40925 74.0205C6.07925 73.1675 4.79725 72.1545 3.70625 70.8275C3.16725 70.1575 2.68225 69.4065 2.32625 68.5545C2.15625 68.1215 2.01425 67.6775 1.92525 67.2075C1.83325 66.7605 1.79025 66.3715 1.75525 65.9365L1.81225 65.9275Z" fill="#333333"/>
<path fill-rule="evenodd" clip-rule="evenodd" d="M7.15785 77.5506C7.95785 78.2856 9.03885 78.8976 10.2109 79.4216C10.6469 79.6146 11.0979 79.7436 11.5079 79.9096C13.0089 80.5126 14.6489 80.9736 16.2799 81.4246C17.0079 81.6166 17.7549 81.7376 18.4939 81.8446C19.4459 81.9736 20.4139 82.0146 21.3289 82.4086C21.6149 82.5286 21.5209 82.9096 21.2109 83.2846C20.9019 83.6496 20.3639 84.0716 19.8009 84.0416C17.8199 83.8526 15.8369 83.5646 13.9089 82.8706C12.7609 82.4436 11.5089 82.2466 10.2899 81.7786C9.02485 81.2736 7.73985 80.7046 6.53085 79.8826C5.79985 79.3676 5.08985 78.7616 4.55285 77.9986C3.69285 76.8646 3.34385 75.4706 3.15185 74.1776C3.01685 73.1636 2.86485 72.1606 2.87285 71.1576C2.87385 70.9376 2.83885 70.7126 2.86485 70.4946C2.95785 69.6826 3.16785 69.4486 3.76685 69.3846C3.90485 69.3696 4.04285 69.3436 4.17685 69.3456C4.62885 69.3546 4.95185 69.7326 5.02285 70.2926C5.20685 71.9456 5.17685 73.5856 5.57685 74.9566C5.87985 75.9636 6.34985 76.8116 7.19185 77.5056L7.15785 77.5506Z" fill="#333333"/>
<path fill-rule="evenodd" clip-rule="evenodd" d="M11.2912 84.7585C12.2432 85.2985 13.3222 85.7245 14.4362 86.1135C14.8362 86.2455 15.2982 86.3275 15.6622 86.4315C17.0372 86.8215 18.6192 86.9755 20.1762 87.1365C20.8732 87.1985 21.5782 87.2005 22.2772 87.2015C23.1712 87.2135 24.1002 87.1085 24.9962 87.4855C25.2752 87.5935 25.1922 87.9025 24.9252 88.2385C24.6572 88.5485 24.2152 89.0295 23.7232 89.0305C21.9632 89.0885 20.1322 89.2315 18.2542 88.9145C17.1412 88.7225 15.9302 88.7595 14.7262 88.4645C13.4932 88.1595 12.2622 87.7625 11.0762 87.2105C10.3422 86.8845 9.63523 86.4705 8.95423 86.0135C7.92723 85.3075 7.01623 84.3395 6.42323 83.1795C5.93723 82.2945 5.61323 81.2945 5.56423 80.2795C5.56023 80.0585 5.53523 79.8375 5.54623 79.6115C5.65823 78.7995 5.89523 78.5805 6.49923 78.5735C6.63823 78.5725 6.77823 78.5625 6.91323 78.5785C7.36723 78.6395 7.68223 79.0155 7.73723 79.4875C7.93823 80.9295 8.20323 81.9525 8.94623 82.8875C9.50923 83.5735 10.3372 84.2105 11.3142 84.7055L11.2912 84.7585Z" fill="#333333"/>
<path fill-rule="evenodd" clip-rule="evenodd" d="M32.3503 91.6501C33.6164 91.4061 34.8583 91.0751 36.1493 90.7451C37.4703 90.4031 38.7743 90.1201 40.0873 89.8511C41.0433 89.6511 41.9914 89.4181 42.9513 89.2461C46.3424 88.6751 49.7593 88.2661 53.1964 88.0561C54.7234 87.9841 56.2584 87.8841 57.7873 87.8911C58.2803 87.9011 58.7724 87.8901 59.2663 87.9131L60.7523 88.0541C61.7434 88.1911 62.7313 88.4461 63.6453 88.9191C64.2213 89.1931 63.9963 89.4531 63.3983 89.6521C63.0993 89.7521 62.7113 89.8421 62.2864 89.8971C61.8334 90.0081 61.3443 90.0551 60.8383 89.9761C58.9933 89.8371 57.0963 89.8201 55.1793 89.8641C53.2593 89.9291 51.3223 90.0681 49.3653 90.2101C47.0243 90.3961 44.6293 90.9311 42.2753 91.4131C40.9793 91.6731 39.6883 91.9621 38.4053 92.2681C37.1273 92.5641 35.8743 92.9511 34.5483 93.2881C32.9353 93.6971 31.2993 94.0571 29.6323 94.2751C27.1133 94.6221 24.4993 94.6011 21.9743 94.0861C20.0193 93.6701 18.1013 92.9631 16.4313 91.7881C16.0413 91.5551 15.7053 91.2761 15.3663 90.9751C14.7073 90.4441 14.4343 89.9451 14.2763 89.5811C14.2003 89.3961 14.1613 89.2341 14.1573 89.0801C14.1673 88.9141 14.2113 88.7571 14.2593 88.6131C14.3043 88.4801 14.3243 88.3381 14.3703 88.2501C14.4783 87.9911 15.3583 88.1101 16.1373 88.8201C17.4043 89.7801 18.6853 90.6601 20.1433 91.2521C21.5873 91.8591 23.1703 92.2061 24.8153 92.3041C27.2583 92.4591 29.8093 92.1621 32.3353 91.5991L32.3503 91.6501Z" fill="#333333"/>
<path fill-rule="evenodd" clip-rule="evenodd" d="M93.2262 20.1385C93.3622 20.2955 93.2562 20.4985 93.0252 20.7365C92.9512 20.8115 92.6802 20.9015 92.6222 20.8615C92.5092 20.7845 92.3972 20.7035 92.3042 20.6155C92.2442 20.5645 91.7182 19.5655 91.5402 19.2185C91.3602 18.8855 91.2362 18.5365 91.1312 18.1835C90.9302 17.4635 90.6782 16.7505 90.5592 16.0255C90.5282 15.8645 90.5162 15.7005 90.5242 15.5345C90.5472 14.9665 90.4642 14.4205 90.3382 13.8875C90.3182 13.7985 90.3132 13.7045 90.2372 13.6275C90.1152 13.4975 89.8502 12.0565 89.8522 11.8675C89.8702 11.3875 89.8692 10.9095 89.8722 10.4265C89.8722 10.3585 89.8352 10.2935 89.8922 10.2165C90.0232 10.0385 89.9652 9.90346 89.9472 9.75746C89.9132 9.55746 89.9132 9.34846 89.9282 9.13346C89.9372 9.02746 89.9982 8.90846 90.0822 8.78046C90.1492 8.66646 90.2712 8.68346 90.3102 8.70446C90.3932 8.77846 90.4562 8.68146 90.5132 8.65746C90.5342 8.64746 90.5612 8.63646 90.5832 8.63446C90.7412 8.59346 91.4912 9.64846 91.5192 9.78246C91.5532 9.80746 92.1072 11.5035 92.1482 11.7015C92.1832 11.8015 92.1622 11.9135 92.1562 12.0215C92.1722 12.0855 92.5172 13.4355 92.5302 13.4875C92.5572 13.7765 92.6652 14.0505 92.5612 14.3545C92.5402 14.4145 92.5582 14.4705 92.5692 14.5275C92.6712 15.0075 92.6922 15.4955 92.7382 15.9795C92.7762 16.2365 92.8112 16.4665 92.8472 16.7105C92.8532 16.7545 92.8372 16.8025 92.8342 16.8485C92.8312 16.9065 92.8212 16.9645 92.8312 17.0195C92.9372 17.5895 92.9662 18.1795 93.1522 18.7285C93.1842 18.8565 93.1972 19.5145 93.2572 19.6595C93.2852 19.7405 93.1692 20.0755 93.2262 20.1385Z" fill="#333333"/>
<path fill-rule="evenodd" clip-rule="evenodd" d="M81.9051 90.619C81.7091 90.802 81.4571 90.753 81.1411 90.585C81.0411 90.531 80.9141 90.281 80.9671 90.212C81.0671 90.076 81.1751 89.94 81.2961 89.821C81.3531 89.723 82.7441 88.998 83.2511 88.838C83.7261 88.624 84.2261 88.531 84.7231 88.415C85.7371 88.242 86.7541 88.095 87.7631 88.043C87.9881 88.024 88.2141 88.028 88.4371 88.053C89.2061 88.122 89.9661 88.125 90.7251 88.106C90.8521 88.104 90.9811 88.115 91.1051 88.066C91.3121 87.975 93.3591 88.039 93.6171 88.112C94.2641 88.252 94.9131 88.351 95.5571 88.462C95.6501 88.477 95.7501 88.464 95.8311 88.527C96.0211 88.673 96.2221 88.657 96.4221 88.675C96.7001 88.702 96.9761 88.729 97.2521 88.778C97.3881 88.803 97.5241 88.883 97.6591 88.946C97.7821 89.004 97.7161 89.205 97.6731 89.226C97.5461 89.289 97.6491 89.387 97.6611 89.471C97.6651 89.499 97.6701 89.536 97.6641 89.558C97.6531 89.615 96.0141 89.95 95.8351 89.937C95.7941 89.938 93.4581 89.978 93.1591 89.983C93.0191 89.993 92.8811 89.956 92.7421 89.928C92.6741 89.91 90.8091 89.941 90.7381 89.941C90.3531 89.907 89.9711 89.957 89.5921 89.827C89.5161 89.802 89.4381 89.807 89.3621 89.808C88.7061 89.828 88.0511 89.787 87.3991 89.793C87.0641 89.785 86.7371 89.84 86.4061 89.864C86.3471 89.869 86.2851 89.856 86.2251 89.853C86.1491 89.85 86.0721 89.838 85.9971 89.849C85.2261 89.961 84.4391 90.015 83.7091 90.267C83.6261 90.297 83.3711 90.333 83.1111 90.372C82.8591 90.428 82.6031 90.493 82.5101 90.535C82.4061 90.577 81.9811 90.534 81.9051 90.619Z" fill="#333333"/>
<path fill-rule="evenodd" clip-rule="evenodd" d="M88.2908 31.4773C89.6268 32.1103 90.9478 32.7513 92.2628 33.3113C92.9188 33.5913 93.5768 33.8483 94.2118 34.0333C94.8318 34.2223 95.4988 34.3243 95.8128 34.2263C95.9338 34.1973 95.9588 34.1643 96.0078 34.1153C96.0638 34.0763 96.0628 34.0243 96.0918 33.8473C96.1378 33.7153 96.0898 33.4813 96.1048 33.3023C96.0598 33.0923 96.0428 32.8843 95.9938 32.6693C95.5918 31.1303 94.5308 29.6313 93.2178 28.4153C91.8978 27.1863 90.3578 26.1573 88.7408 25.2523C88.0148 24.8673 87.2548 24.5323 86.5078 24.1813C85.7398 23.8733 84.9578 23.5963 84.1888 23.3103C83.1908 22.9603 82.1528 22.7183 81.1488 22.3823C80.1358 22.0643 79.1028 21.8153 78.1138 21.3843C77.4958 21.1213 77.6398 20.8703 78.2708 20.6613C78.9058 20.4313 80.0348 20.2743 81.2718 20.5183C82.3628 20.7633 83.4208 21.1363 84.4918 21.4563C85.5398 21.8693 86.6058 22.2203 87.6308 22.7063C89.6958 23.6193 91.6838 24.8003 93.4588 26.2923L94.2498 26.9783C94.5088 27.2153 94.7488 27.4823 95.0018 27.7313C95.5208 28.2153 95.9598 28.8053 96.4138 29.3733C97.2638 30.5593 98.0028 31.9483 97.9968 33.6523C97.9948 34.1033 97.8988 34.6583 97.5478 35.1983C97.1748 35.6973 96.5828 35.9983 96.0748 36.0853C95.0568 36.2443 94.2628 36.0353 93.4938 35.8413C91.9788 35.4093 90.5978 34.8243 89.2218 34.2463C87.5288 33.5383 85.8718 32.7853 84.1928 32.1043C81.6518 31.0763 79.0598 30.1343 76.4158 29.5873C74.3618 29.1573 72.2998 29.0703 70.2768 29.1643C69.8298 29.1693 69.3978 29.2553 68.9518 29.2793C67.3048 29.4313 66.7848 29.4193 66.3068 28.8533C66.1998 28.7293 66.0628 28.6113 65.9878 28.4833C65.7288 28.0723 66.3588 27.4933 67.6818 27.2123C71.6118 26.3693 75.9058 26.9763 79.8308 28.1623C82.7698 29.0353 85.5818 30.2163 88.3088 31.4243L88.2908 31.4773Z" fill="#333333"/>
<path fill-rule="evenodd" clip-rule="evenodd" d="M10.153 85.2693C10.007 85.1563 10.086 84.9693 10.275 84.7043C10.336 84.6203 10.578 84.4803 10.638 84.5083C10.755 84.5643 10.872 84.6263 10.972 84.7033C11.053 84.7373 11.621 85.6953 11.75 86.0393C11.913 86.3643 12.006 86.7053 12.076 87.0453C12.229 87.7403 12.335 88.4253 12.419 89.1123C12.434 89.2633 12.433 89.4153 12.418 89.5693C12.366 90.0953 12.39 90.6083 12.446 91.1193C12.453 91.2043 12.445 91.2913 12.499 91.3733C12.59 91.5113 12.602 92.8813 12.567 93.0553C12.468 93.4943 12.446 93.9243 12.367 94.3533C12.356 94.4153 12.372 94.4783 12.319 94.5363C12.195 94.6743 12.226 94.8013 12.224 94.9313C12.225 95.0773 12.227 95.2223 12.231 95.4493C12.236 95.5233 12.2 95.6183 12.183 95.7183C12.167 95.8093 12.015 95.8523 11.987 95.8323C11.908 95.7753 11.865 95.8733 11.811 95.9153C11.792 95.9283 11.767 95.9463 11.749 95.9503C11.741 95.9633 11.486 95.6833 11.336 95.3933C11.151 95.0893 11.027 94.7903 11.004 94.7223C10.938 94.6843 10.702 93.0423 10.683 92.8733C10.663 92.7783 10.692 92.6803 10.707 92.5833C10.715 92.5363 10.531 91.2703 10.528 91.2233C10.536 90.9603 10.481 90.7053 10.6 90.4413C10.624 90.3893 10.616 90.3363 10.612 90.2853C10.576 89.8423 10.609 89.3973 10.605 88.9573C10.601 88.7343 10.573 88.5093 10.548 88.2893C10.544 88.2493 10.557 88.2073 10.56 88.1663C10.564 88.1163 10.575 88.0633 10.567 88.0133C10.493 87.4953 10.476 86.9623 10.293 86.4863C10.268 86.3703 10.23 85.8023 10.16 85.6843C10.133 85.6163 10.22 85.3123 10.153 85.2693Z" fill="#333333"/>
<path fill-rule="evenodd" clip-rule="evenodd" d="M13.4757 7.98123C13.6047 7.87823 13.7447 8.02123 13.8947 8.30523C13.9427 8.39623 13.9817 8.68623 13.9467 8.73423C13.8787 8.82623 13.8087 8.91623 13.7337 8.98423C13.6897 9.02723 12.9097 9.29423 12.6417 9.39223C12.3837 9.49023 12.1187 9.53423 11.8517 9.56923C11.3107 9.63523 10.7697 9.71023 10.2277 9.76023C10.1067 9.77223 9.98566 9.76423 9.86466 9.74323C9.44866 9.66823 9.03866 9.68423 8.62866 9.73623C8.56066 9.74423 8.49066 9.73823 8.42566 9.79623C8.31866 9.89023 7.20766 9.95123 7.06566 9.89523C6.70866 9.78923 6.35366 9.72223 5.99866 9.63823C5.94866 9.62723 5.89466 9.64823 5.84866 9.58223C5.74066 9.42523 5.63166 9.45223 5.52166 9.44123C5.37066 9.42423 5.21866 9.40123 5.06666 9.34923C4.99166 9.32423 4.91766 9.23523 4.84366 9.16423C4.77566 9.09923 4.81166 8.86423 4.83466 8.83823C4.90266 8.76423 4.84766 8.65423 4.84066 8.55623C4.83866 8.52323 4.83566 8.48023 4.83866 8.45423C4.84566 8.39523 5.71566 7.98623 5.81066 7.98823C5.82066 7.98723 6.14166 7.95323 6.48366 7.91823C6.82266 7.88023 7.17366 7.83623 7.24566 7.82123C7.31966 7.80323 7.39566 7.84023 7.47166 7.86423C7.50766 7.87523 8.51366 7.75523 8.55266 7.75723C8.76066 7.77423 8.96766 7.71923 9.17766 7.84823C9.21866 7.87523 9.26066 7.86623 9.30266 7.86323C9.65866 7.83723 10.0157 7.88023 10.3727 7.90023C10.5557 7.91123 10.7357 7.88323 10.9167 7.87723C10.9497 7.87523 10.9837 7.89223 11.0177 7.89923C11.0587 7.90823 11.1017 7.92323 11.1427 7.91923C11.5697 7.87923 12.0057 7.91823 12.4287 7.82223C12.5247 7.80323 13.0137 7.89623 13.1247 7.86223C13.1867 7.84623 13.4237 8.02323 13.4757 7.98123Z" fill="#333333"/>
</svg>
