<svg width="98" height="114" viewBox="0 0 98 114" fill="none" xmlns="http://www.w3.org/2000/svg">
<path fill-rule="evenodd" clip-rule="evenodd" d="M94.4225 24.6698C94.5155 23.9198 95.1985 23.3868 95.9485 23.4798C99.6645 23.9388 93.9395 28.5728 94.4225 24.6698Z" stroke="#333333"/>
<path fill-rule="evenodd" clip-rule="evenodd" d="M69.9703 20.8895C70.0633 20.1395 70.7463 19.6065 71.4953 19.6995C75.2123 20.1585 69.4873 24.7925 69.9703 20.8895Z" fill="#333333"/>
<path fill-rule="evenodd" clip-rule="evenodd" d="M60.5709 2.20054C60.6639 1.45054 61.3459 0.917536 62.0959 1.01054C65.8129 1.46954 60.0879 6.10354 60.5709 2.20054Z" stroke="#333333"/>
<path fill-rule="evenodd" clip-rule="evenodd" d="M53.6072 112.468C49.3972 112.729 45.1802 112.932 40.9452 112.962C39.4012 112.973 37.8482 112.98 36.3042 112.923C30.9322 112.71 25.4942 112.594 20.0882 112.201C17.6892 112.018 15.2732 111.851 12.8942 111.551C11.3662 111.364 9.83621 111.131 8.31521 110.809C7.56321 110.611 6.79721 110.45 6.06521 110.17C5.33821 109.862 4.60921 109.579 3.93921 109.144C3.09221 108.637 3.31821 108.567 4.14421 108.699C4.94121 108.915 6.44321 108.914 8.09321 109.325C11.0572 109.992 14.1432 110.302 17.2292 110.552C20.3212 110.794 23.4362 110.946 26.5712 111.096C30.3122 111.276 34.2572 111.184 38.0902 111.253C42.2872 111.271 46.5112 111.107 50.7272 110.841C53.3222 110.676 55.9202 110.491 58.5112 110.266C62.4382 109.93 66.3852 109.572 70.2752 109.12C73.2992 108.77 76.2502 108.302 79.2342 107.883C79.8912 107.788 80.5342 107.696 81.1962 107.601C83.6572 107.295 84.4612 107.353 85.0422 107.822C85.1742 107.929 85.3462 108.032 85.4282 108.146C85.7052 108.53 84.7342 108.968 82.9462 109.269C77.6382 110.178 72.0022 110.853 66.3242 111.427C62.1072 111.854 57.8612 112.207 53.6162 112.513L53.6072 112.468Z" fill="#333333"/>
<path fill-rule="evenodd" clip-rule="evenodd" d="M55.1422 78.7285C52.9032 77.2375 50.5022 75.8705 48.0392 75.0415C45.6502 74.2115 43.0272 74.3925 40.5862 75.3135C38.7952 75.9735 37.1222 77.0065 35.4852 78.1055C34.0372 79.0785 32.6352 80.1535 31.2232 81.2435C29.8041 82.3455 28.3712 83.4055 27.0102 84.5225C24.2652 86.7605 21.6492 89.1725 19.0932 91.6565C16.8312 93.8635 14.6072 96.1645 12.4522 98.4415C9.69515 101.388 7.07015 104.453 4.35015 107.407C3.51815 108.339 3.30915 107.981 3.63715 106.876C3.98015 105.788 4.83115 103.903 6.35415 102.103C9.08815 98.9575 11.9962 95.9725 14.9172 93.0485C17.8442 90.1135 20.8562 87.2115 24.0902 84.5175C26.0132 82.8985 28.0602 81.3115 30.0431 79.7335C32.0441 78.1385 34.1091 76.5235 36.3731 75.1865C37.6282 74.4645 38.9492 73.8305 40.3412 73.3385C41.7482 72.8815 43.2291 72.6015 44.7332 72.5695C46.2411 72.5765 47.7312 72.8685 49.1362 73.3695C50.4952 73.8755 51.7862 74.5005 53.0442 75.1815C56.1382 76.8645 58.9562 78.9545 61.6262 81.1795C65.6402 84.5905 69.3652 88.2935 73.1082 91.8855C76.0122 94.6835 78.9192 97.3625 81.8322 100.072C82.4762 100.665 83.1071 101.247 83.7551 101.845C86.1311 104.091 86.8031 104.883 86.9521 105.76C86.9861 105.959 87.0582 106.193 87.0432 106.348C87.0002 106.867 85.7632 106.227 83.9272 104.657C78.4852 100.006 73.1941 94.6715 67.7591 89.4895C63.7111 85.6535 59.6861 81.7845 55.1212 78.7735L55.1422 78.7285Z" fill="#333333"/>
<path fill-rule="evenodd" clip-rule="evenodd" d="M0.046 88.7596C0.026 86.2996 0.037 83.8656 0.094 81.3956C0.123 80.4956 0.102 79.5946 0.161 78.6986C0.351 75.5356 0.768 72.4126 1.064 69.2976C1.2 67.9146 1.266 66.5236 1.302 65.1506C1.321 63.3856 1.338 61.6236 1.49 59.8606C1.546 59.3106 1.898 59.3716 2.271 59.8336C2.642 60.2936 3.065 61.1626 3.116 62.1996C3.269 65.8796 2.846 69.5226 2.385 73.1366C2.097 75.3016 2.044 77.5626 1.946 79.7746C1.845 82.1996 1.842 84.6546 1.852 87.1056C1.866 88.6136 1.883 90.1226 1.943 91.6276C2.028 93.9076 2.135 96.2006 2.384 98.4506C2.574 100.201 2.906 101.898 3.235 103.602C3.312 103.976 3.387 104.345 3.464 104.721C3.72 106.124 3.668 106.592 3.241 106.981C3.146 107.069 3.056 107.179 2.957 107.239C2.636 107.438 2.201 106.918 1.906 105.889C1.071 102.831 0.626 99.5186 0.358 96.1956C0.157 93.7256 0.064 91.2396 0 88.7646L0.046 88.7596Z" fill="#333333"/>
<path fill-rule="evenodd" clip-rule="evenodd" d="M87.2544 87.8534C87.2104 85.5674 87.1114 83.2734 86.9734 80.9764C86.9234 80.1374 86.8084 79.3034 86.7614 78.4634C86.5754 75.4954 86.5194 72.4734 86.5694 69.4974C86.5964 68.1734 86.5864 66.8444 86.5824 65.5334C86.5854 64.6914 86.5484 63.8474 86.5904 63.0044C86.6434 62.1624 86.7344 61.3214 86.8754 60.4854C86.9674 59.9634 87.2664 60.0434 87.5974 60.4954C87.9214 60.9474 88.3334 61.7704 88.4284 62.7344C88.5524 66.1494 88.5654 69.5334 88.4624 72.9614C88.3984 75.0144 88.7014 77.1204 88.8674 79.2354C89.0474 81.5544 89.1974 83.8854 89.3034 86.2194C89.3724 87.6554 89.4074 89.0964 89.4344 90.5354C89.4714 92.7164 89.4134 94.9104 89.3374 97.0824C89.2674 98.7724 89.2634 100.444 89.0734 102.141C89.0394 102.514 88.9874 102.883 88.9234 103.258C88.8484 103.604 88.7884 103.89 88.6974 104.122C88.5994 104.353 88.4834 104.528 88.3794 104.669C88.1654 104.948 87.9444 105.076 87.6614 105.14C87.5324 105.169 87.4014 105.218 87.2864 105.221C86.9084 105.229 86.7274 104.59 86.7524 103.625C86.9974 100.791 87.2244 97.8044 87.2734 94.7374C87.3174 92.4644 87.2914 90.1624 87.2014 87.8594L87.2544 87.8534Z" fill="#333333"/>
<path fill-rule="evenodd" clip-rule="evenodd" d="M71.7677 63.0454C73.7137 61.8144 75.6497 60.5674 77.5417 59.2684C78.2327 58.7944 78.8797 58.2644 79.5607 57.7834C80.7597 56.9334 81.9487 56.0694 83.0677 55.1524C83.6227 54.6914 84.1677 54.2214 84.6547 53.7364C84.8787 53.5144 85.1467 53.1924 85.2447 53.0504C85.3337 52.9204 85.4367 52.7294 85.3327 52.5764C85.2887 52.5144 85.2487 52.4464 85.1997 52.3864L84.9137 52.0024C84.7097 51.7454 84.5297 51.4684 84.3297 51.2074C83.9307 50.6844 83.5337 50.1624 83.1377 49.6434C82.1017 48.3304 81.0817 47.0384 80.0217 45.6944C79.3697 44.8744 80.9757 45.1884 82.3867 46.5694C83.6407 47.7744 84.8567 49.0054 86.0237 50.2944C86.1687 50.4574 86.3197 50.6144 86.4487 50.7904L86.9487 51.4404C87.2027 51.7694 87.3797 52.1174 87.4217 52.5124C87.4397 52.9074 87.3497 53.2964 87.1757 53.6594C87.0957 53.8434 86.9807 54.0074 86.8837 54.1784C86.7957 54.3094 86.7217 54.4054 86.6377 54.5124C86.4757 54.7134 86.3107 54.8984 86.1437 55.0724C85.8097 55.4184 85.4717 55.7284 85.1187 56.0174C83.4327 57.3754 81.7767 58.7694 80.0407 60.0244C78.1317 61.3934 76.1817 62.6884 74.2257 63.9664L70.6007 66.3024C68.7717 67.4814 66.9097 68.6234 65.1147 69.8204C63.7197 70.7514 62.4167 71.7644 61.0697 72.7354C60.7727 72.9494 60.4937 73.1754 60.1877 73.3814C59.0637 74.1574 58.5957 74.2284 58.0467 73.9074C57.9227 73.8344 57.7817 73.7754 57.6817 73.6904C57.3557 73.4184 57.6057 72.7724 58.3747 72.1254C60.6677 70.2174 63.2637 68.4984 65.8807 66.7914C67.8277 65.5314 69.7837 64.2654 71.7347 63.0034L71.7677 63.0454Z" fill="#333333"/>
<path fill-rule="evenodd" clip-rule="evenodd" d="M15.8921 66.5537C13.6511 65.1907 11.4261 63.7947 9.22809 62.3437C8.42609 61.8127 7.59509 61.3267 6.80909 60.7637C5.4251 59.7587 4.05809 58.7547 2.77709 57.4707C2.61809 57.3067 2.46009 57.1347 2.30509 56.9457C2.12409 56.7327 1.90209 56.4187 1.76409 56.1367C1.62709 55.8417 1.54209 55.5277 1.56709 55.2077C1.59309 54.8857 1.78009 54.6207 1.96609 54.3617C2.45809 53.7877 2.70609 53.5727 3.02809 53.2637L3.96109 52.3977C5.06309 51.3907 6.16809 50.3807 7.26109 49.3817C8.64009 48.0867 10.0501 46.7977 11.3641 45.4867C11.7621 45.0807 11.9221 45.2757 11.8021 45.8367C11.6821 46.3987 11.2451 47.2907 10.5251 48.1307C9.2681 49.6387 7.97009 51.0947 6.65109 52.5167C5.99209 53.2267 5.26209 53.8637 4.58409 54.5307C3.73309 55.4307 3.66309 55.2127 3.72909 55.5227C3.75109 55.5697 3.72709 55.5577 3.81109 55.6667C3.88009 55.7617 3.96809 55.8597 4.05109 55.9557C4.22909 56.1497 4.42009 56.3427 4.62809 56.5297C5.04009 56.9067 5.49309 57.2667 5.95909 57.6157C6.89409 58.3147 7.88809 58.9697 8.86609 59.6317C11.0231 61.0847 13.2391 62.4837 15.4791 63.8427C16.8581 64.6787 18.2451 65.5067 19.6441 66.3097C21.7661 67.5247 23.8971 68.7527 26.0561 69.8637C27.7351 70.7267 29.4451 71.4497 31.1471 72.2177C31.5221 72.3857 31.8981 72.5327 32.2711 72.7117C33.6631 73.3597 34.0131 73.7447 34.0551 74.3977C34.0651 74.5457 34.0981 74.7027 34.0811 74.8337C34.0331 75.2607 33.2851 75.3517 32.2151 74.9617C29.0511 73.7907 25.8941 72.1967 22.7691 70.5137C20.4491 69.2627 18.1541 67.9367 15.8691 66.6017L15.8921 66.5537Z" fill="#333333"/>
<path fill-rule="evenodd" clip-rule="evenodd" d="M19.8213 32.035C24.4613 31.405 29.0923 30.974 33.7293 30.59C35.4203 30.451 37.1063 30.261 38.7973 30.149C44.7623 29.745 50.7383 29.55 56.7143 29.448C59.3663 29.408 62.0323 29.342 64.6703 29.342C66.3643 29.35 68.0683 29.326 69.7733 29.483C70.6263 29.555 71.4783 29.645 72.3323 29.794C73.1873 29.952 74.0383 30.117 74.9013 30.514C75.4503 30.771 75.6233 31.129 75.5043 31.185C75.3853 31.263 75.0783 31.192 74.6343 31.211C73.7443 31.208 72.1553 31.396 70.2543 31.358C63.4983 31.173 56.6163 31.399 49.7023 31.554C45.5613 31.66 41.2633 32.046 37.0393 32.38C32.3953 32.745 27.7493 33.157 23.1303 33.719C20.2963 34.077 17.4363 34.444 14.7043 35.084C14.4513 35.151 14.1923 35.211 13.9483 35.288C13.8263 35.325 13.6983 35.359 13.5843 35.401C13.4583 35.446 13.3483 35.479 13.2993 35.503C13.1693 35.556 13.0263 35.613 12.9343 35.725C12.8733 35.853 12.8833 36.002 12.8753 36.154C12.8503 37.159 12.8813 38.292 12.9023 39.363C12.9583 41.535 13.0363 43.707 13.1303 45.865C13.2813 49.221 13.5533 52.506 13.7323 55.831C13.7733 56.563 13.8133 57.282 13.8543 58.02C13.9483 60.764 13.7933 61.667 13.2163 62.243C13.0873 62.372 12.9553 62.541 12.8273 62.61C12.3873 62.825 12.1183 61.752 11.9763 59.772C11.5423 53.883 11.0913 47.638 10.8483 41.348L10.7463 37.823L10.7373 36.927V36.47L10.7473 35.882C10.7463 35.597 10.8223 35.321 10.8893 35.062C10.9303 34.789 11.0753 34.558 11.2493 34.346C11.5583 33.902 12.1583 33.677 12.6453 33.467C13.9553 33.009 15.0943 32.802 16.2873 32.564C17.4663 32.344 18.6373 32.158 19.8073 31.983L19.8213 32.035Z" fill="#333333"/>
<path fill-rule="evenodd" clip-rule="evenodd" d="M76.9561 42.4222L77.0191 45.9592C77.0291 46.3902 77.1011 46.8152 77.1101 47.2462C77.1351 48.7672 77.1581 50.2932 77.2431 51.8132C77.2801 52.4872 77.3741 53.1592 77.4751 53.8202C77.6221 54.6682 77.8111 55.5132 77.6981 56.3962C77.6661 56.6702 77.3101 56.6822 76.9101 56.5072C76.5131 56.3312 76.0401 55.9712 75.9081 55.4872C75.5851 53.7512 75.3851 51.9972 75.3961 50.2042C75.4071 49.1322 75.1821 48.0442 75.0881 46.9582C74.9871 45.7652 74.9141 44.5682 74.8761 43.3682L74.8021 41.1542C74.7671 40.0352 74.7321 38.9132 74.6981 37.8032C74.6641 36.9412 74.4751 36.0972 74.4811 35.2362C74.4781 35.0472 74.4551 34.8622 74.4661 34.6712C74.5111 33.9622 74.6501 33.7382 75.0641 33.5992C75.1591 33.5672 75.2521 33.5252 75.3441 33.5072C75.6531 33.4502 75.9181 33.7412 76.0631 34.2452C76.2481 34.9932 76.5221 35.7542 76.6101 36.5272C76.7121 37.2992 76.8011 38.0862 76.8591 38.8742C76.9091 40.0512 76.9591 41.2352 77.0091 42.4162L76.9561 42.4222Z" fill="#333333"/>
<path fill-rule="evenodd" clip-rule="evenodd" d="M46.8145 17.372C46.1215 17.406 44.9915 17.872 44.0165 18.417C43.0095 18.965 42.0125 19.605 41.0355 20.282C40.3195 20.774 39.6525 21.339 38.9465 21.853C36.4425 23.66 33.9675 25.556 31.5305 27.505C30.4485 28.369 29.3975 29.284 28.3505 30.184C27.6655 30.747 26.9845 31.323 26.2625 31.859C25.5285 32.391 24.8095 32.91 23.8385 33.254C23.4995 33.355 23.2915 33.268 23.2995 33.128C23.2935 32.979 23.4155 32.774 23.5225 32.527C23.7585 32.031 24.1625 31.259 24.9045 30.608C27.4935 28.232 30.2665 25.902 33.1835 23.714C34.9445 22.421 36.6045 20.858 38.4185 19.524C40.4335 18.078 42.4285 16.611 44.8855 15.611C45.2645 15.459 45.6775 15.338 46.1145 15.251C46.3535 15.228 46.5595 15.171 46.8225 15.187C47.0805 15.2 47.3515 15.209 47.5555 15.283C48.4585 15.504 49.1425 15.921 49.8215 16.333C51.8425 17.619 53.5185 19.22 55.2015 20.77C56.4995 21.984 57.8175 23.133 59.0685 24.379C59.3415 24.655 59.6305 24.907 59.8845 25.206C60.8315 26.308 60.9865 26.783 60.7245 27.387C60.6635 27.525 60.6175 27.679 60.5395 27.793C60.2715 28.179 59.6165 27.96 58.8365 27.272C56.5165 25.241 54.3285 22.892 51.9445 20.787C51.0635 20.012 50.1675 19.247 49.2455 18.599C48.7855 18.276 48.3175 18 47.8625 17.761C47.6535 17.687 47.4095 17.546 47.2335 17.512L46.9655 17.435C46.9155 17.443 46.8685 17.441 46.8185 17.428L46.8145 17.372Z" fill="#333333"/>
<path fill-rule="evenodd" clip-rule="evenodd" d="M50.6584 44.7313L44.9254 44.9223L42.8364 45.0443C40.3784 45.1403 37.9114 45.1323 35.4494 45.1713C34.3544 45.1983 33.2584 45.2263 32.1714 45.2533C30.7704 45.2763 29.3874 45.3813 27.9214 45.0183C27.4574 44.8843 27.6294 44.7243 28.0294 44.5873C28.4024 44.4803 29.0544 44.2633 29.8314 44.2563C32.6214 44.1413 35.4454 43.8723 38.2984 43.8043C40.0064 43.7463 41.7764 43.5623 43.5214 43.4423L49.2854 43.0963L52.8344 42.8893C54.6264 42.7743 56.4294 42.7053 58.2084 42.5683C59.5924 42.4673 60.9414 42.2523 62.3164 42.1213C62.6194 42.0903 62.9144 42.0433 63.2204 42.0223C64.3624 41.9673 64.7304 42.0913 64.9714 42.5913C65.0264 42.7053 65.0984 42.8193 65.1304 42.9343C65.2344 43.3223 64.7774 43.6503 63.9694 43.7723C61.5664 44.1523 59.0104 44.3383 56.4324 44.4993C54.5194 44.6273 52.5884 44.6743 50.6644 44.7743L50.6584 44.7313Z" fill="#333333"/>
<path fill-rule="evenodd" clip-rule="evenodd" d="M48.946 52.5101C48.219 52.5071 47.491 52.5041 46.767 52.5001C46.5 52.5001 46.237 52.5471 45.969 52.5381C45.025 52.5091 44.079 52.4451 43.138 52.3971C42.721 52.3691 42.302 52.3891 41.888 52.3961C41.357 52.4161 40.82 52.4741 40.294 52.3201C39.967 52.2291 40.429 51.1021 41.021 51.0721C42.078 51.0331 43.126 51.0281 44.2 51.1411C44.844 51.2091 45.506 51.0901 46.163 51.0531C46.888 51.0271 47.618 51.0001 48.345 50.9731C48.797 50.9581 49.249 50.9421 49.698 50.9271C50.381 50.8961 51.071 50.9021 51.751 50.8471C52.28 50.8061 52.798 50.6761 53.326 50.5941C53.443 50.5751 53.556 50.5441 53.674 50.5361C54.11 50.5091 54.247 50.6251 54.326 51.0891C54.344 51.1951 54.369 51.3001 54.378 51.4061C54.407 51.7651 54.226 52.0561 53.92 52.1511C53.009 52.4291 52.069 52.4671 51.109 52.5031C50.392 52.5181 49.67 52.5331 48.95 52.5491L48.946 52.5101Z" fill="#333333"/>
<path fill-rule="evenodd" clip-rule="evenodd" d="M54.907 113.255C51.457 113.466 48.003 113.629 44.544 113.744C43.282 113.777 42.021 113.856 40.757 113.861C36.285 113.866 31.861 113.653 27.425 113.469C25.456 113.397 23.479 113.325 21.526 113.253C19.02 113.13 16.481 113.172 14.009 112.579C13.237 112.416 13.362 112.234 14.043 112.009C14.385 111.894 14.865 111.767 15.441 111.631C15.729 111.57 16.042 111.489 16.37 111.457C16.697 111.438 17.043 111.429 17.402 111.445C22.49 111.62 27.567 111.796 32.719 111.973C35.803 112.111 38.985 111.975 42.121 111.835C45.57 111.684 49.03 111.533 52.485 111.298C54.611 111.155 56.74 111.005 58.863 110.822C62.08 110.548 65.314 110.267 68.495 109.871C70.969 109.566 73.375 109.109 75.804 108.696C76.339 108.603 76.859 108.491 77.4 108.409C79.403 108.103 80.06 108.162 80.576 108.717C80.693 108.843 80.842 108.964 80.919 109.096C81.177 109.544 80.409 110.044 78.95 110.377C74.62 111.356 69.991 111.94 65.335 112.423C61.877 112.779 58.393 113.05 54.916 113.308L54.907 113.255Z" fill="#333333"/>
<path fill-rule="evenodd" clip-rule="evenodd" d="M19.6531 68.0213L15.2741 65.3013C14.7441 64.9653 14.1841 64.6813 13.6581 64.3393C11.8081 63.1253 9.98107 61.8743 8.21207 60.5293C7.40407 59.9693 6.63607 59.3323 5.85907 58.7393C5.37507 58.3283 4.86107 57.9693 4.40507 57.5123L3.71507 56.8483C3.49507 56.6103 3.29307 56.3473 3.09507 56.0923C2.85107 55.7673 3.08407 55.6643 3.50007 55.7273C3.92307 55.7923 4.47707 56.0083 5.07207 56.3813C6.09507 57.0523 7.20207 57.6493 8.28007 58.2773C9.33707 58.9433 10.3451 59.6963 11.3691 60.4533C12.5661 61.4023 13.9731 62.1413 15.2991 62.9603C16.7531 63.8673 18.2161 64.7703 19.6891 65.6533L22.4221 67.2693C23.8121 68.0633 25.2011 68.8803 26.6211 69.5983C27.7261 70.1543 28.8661 70.5893 29.9951 71.0663C30.2431 71.1713 30.4951 71.2573 30.7401 71.3733C31.6591 71.7853 31.8591 72.0953 31.8021 72.6823C31.7891 72.8153 31.7921 72.9533 31.7621 73.0743C31.6701 73.4683 31.1211 73.6383 30.4031 73.4173C28.2791 72.7483 26.2021 71.7203 24.1531 70.6223C22.6301 69.8083 21.1321 68.9303 19.6301 68.0673L19.6531 68.0213Z" fill="#333333"/>
<path fill-rule="evenodd" clip-rule="evenodd" d="M69.7467 63.4847C71.1497 62.6077 72.5487 61.7237 73.9247 60.8097C74.4277 60.4757 74.8917 60.0907 75.3927 59.7577C77.1577 58.5787 78.9207 57.3957 80.6237 56.1427C81.3597 55.5657 82.1107 54.9957 82.7877 54.3747C83.2257 53.9787 83.6387 53.5597 84.0227 53.1367C84.4007 52.7387 84.7607 52.2027 84.7977 51.8987C84.7887 51.7897 84.9387 51.4727 85.3317 51.7957C85.5017 51.9747 85.5867 52.3357 85.5487 52.6897C85.5177 53.0497 85.3757 53.4087 85.1847 53.7467C84.4817 54.9237 83.6437 55.8937 82.7627 56.8177C81.8397 57.6917 80.8127 58.4267 79.7617 59.1227C78.4767 59.9197 77.2867 60.9257 76.0257 61.7967C74.6417 62.7517 73.2337 63.6707 71.8247 64.5837L69.2177 66.2577C67.9067 67.1087 66.5667 67.9267 65.2887 68.8047C64.2947 69.4867 63.3847 70.2547 62.4327 70.9787C62.2227 71.1377 62.0287 71.3107 61.8097 71.4617C61.0107 72.0347 60.6467 72.0467 60.1767 71.6947C60.0697 71.6157 59.9517 71.5467 59.8627 71.4587C59.5747 71.1767 59.6977 70.6247 60.2287 70.1307C61.8127 68.6757 63.6557 67.4167 65.5227 66.1757C66.9167 65.2677 68.3177 64.3547 69.7157 63.4427L69.7467 63.4847Z" fill="#333333"/>
<path fill-rule="evenodd" clip-rule="evenodd" d="M22.7018 86.1757L20.0338 88.3927L17.4388 90.7007L15.6178 92.4647C13.4588 94.5167 11.2898 96.5707 9.24881 98.7507C8.34381 99.7177 7.46581 100.721 6.63481 101.739C5.55981 103.042 4.56981 104.417 3.34881 105.598C2.97481 105.97 2.77681 105.734 2.79181 105.178C2.81481 104.629 3.00581 103.719 3.59381 102.926C5.77181 100.199 8.10981 97.6107 10.6628 95.1957C12.1858 93.7497 13.6598 92.1367 15.2378 90.6797C16.0918 89.8657 16.9668 89.0747 17.8568 88.2987C18.7318 87.5067 19.6368 86.7487 20.5418 85.9907C21.6388 85.0397 22.7938 84.1547 23.9238 83.2457C25.6598 81.8967 27.4428 80.5907 29.2338 79.3407C30.5938 78.3237 31.9778 77.3917 33.3568 76.4177C33.6718 76.2207 33.9828 76.0267 34.2988 75.8287C35.4988 75.1277 35.9388 75.0067 36.3958 75.2377C36.4998 75.2897 36.6218 75.3317 36.7008 75.3987C36.9678 75.6247 36.6088 76.1387 35.7928 76.7137C33.3438 78.3667 30.8028 80.1397 28.2548 81.9387C27.3258 82.6327 26.3948 83.3287 25.4628 84.0257L22.7288 86.2027L22.7018 86.1757Z" fill="#333333"/>
<path fill-rule="evenodd" clip-rule="evenodd" d="M10.713 55.9286C10.728 55.1716 10.743 54.4136 10.757 53.6586C10.761 53.3836 10.725 53.1116 10.732 52.8366C10.76 51.8676 10.832 50.8976 10.837 49.9326C10.843 49.5036 10.809 49.0756 10.774 48.6536C10.723 48.1116 10.629 47.5726 10.694 47.0206C10.729 46.6766 11.644 47.0206 11.759 47.6506C11.926 48.7646 12.022 49.8836 11.963 51.0156C11.927 51.6926 12.046 52.3876 12.065 53.0746C12.084 53.8276 12.103 54.5856 12.123 55.3406C12.139 55.8046 12.155 56.2696 12.171 56.7316C12.209 57.4326 12.232 58.1376 12.33 58.8276C12.417 59.3616 12.571 59.8766 12.687 60.3966C12.713 60.5116 12.739 60.6236 12.754 60.7406C12.798 61.1746 12.71 61.3276 12.379 61.4736C12.303 61.5076 12.229 61.5476 12.154 61.5716C11.9 61.6536 11.65 61.5086 11.486 61.1996C10.967 60.2876 10.809 59.2586 10.754 58.2296C10.699 57.4656 10.694 56.6956 10.677 55.9316L10.713 55.9286Z" fill="#333333"/>
</svg>
